<svg id="Layer_1" data-name="Layer 1" xmlns="http://www.w3.org/2000/svg" viewBox="0 0 458.17 458.17"><defs><style>.cls-1{fill:#1ecac7;}</style></defs><title>Slide-20-Event-Bubbling</title><path d="M229.09,458.17A229.09,229.09,0,0,1,67.1,67.1a229.09,229.09,0,0,1,324,324A227.59,227.59,0,0,1,229.09,458.17ZM229.09,1A228.09,228.09,0,0,0,67.8,390.37,228.09,228.09,0,0,0,390.37,67.8,226.59,226.59,0,0,0,229.09,1Z"/><path d="M229.09,405.93c-97.51,0-176.85-79.33-176.85-176.85S131.57,52.24,229.09,52.24s176.85,79.33,176.85,176.85S326.6,405.93,229.09,405.93Zm0-352.7c-97,0-175.85,78.88-175.85,175.85s78.88,175.85,175.85,175.85S404.93,326,404.93,229.09,326,53.24,229.09,53.24Z"/><path d="M229.09,355.2A126.11,126.11,0,1,1,355.2,229.09,126.25,126.25,0,0,1,229.09,355.2Zm0-251.22A125.11,125.11,0,1,0,354.2,229.09,125.25,125.25,0,0,0,229.09,104Z"/><path d="M229.09,304.13a75,75,0,1,1,75-75A75.13,75.13,0,0,1,229.09,304.13Zm0-149.09a74,74,0,1,0,74,74A74.13,74.13,0,0,0,229.09,155Z"/><path d="M229.09,265.5a36.42,36.42,0,1,1,36.42-36.42A36.46,36.46,0,0,1,229.09,265.5Zm0-71.84a35.42,35.42,0,1,0,35.42,35.42A35.46,35.46,0,0,0,229.09,193.67Z"/><path d="M176.07,34.88l-7.67-4.6V29l7.67-4.56V26l-6.15,3.75,6.15,3.66Z"/><path d="M189.08,37.09h-1.6V35.55a3.8,3.8,0,0,1-1.41,1.3,3.9,3.9,0,0,1-1.93.51,3.3,3.3,0,0,1-2.9-1.64,7.45,7.45,0,0,1-1.07-4.15,6.48,6.48,0,0,1,1.11-3.89,3.46,3.46,0,0,1,2.95-1.54,3.87,3.87,0,0,1,3.25,1.64V22.62h1.6Zm-1.6-3.27V29.38a3.28,3.28,0,0,0-2.77-1.85,2.38,2.38,0,0,0-2.09,1.17,5.32,5.32,0,0,0-.77,3,5.85,5.85,0,0,0,.72,3.05,2.22,2.22,0,0,0,2,1.2,2.58,2.58,0,0,0,1.22-.33,3.92,3.92,0,0,0,1.16-1A2.52,2.52,0,0,0,187.48,33.81Z"/><path d="M197.58,26.15a4.36,4.36,0,0,1,3.51,1.54,6.06,6.06,0,0,1,1.3,4.05,6.13,6.13,0,0,1-1.3,4.08,4.76,4.76,0,0,1-7,0,6.14,6.14,0,0,1-1.3-4.09,6.05,6.05,0,0,1,1.3-4.06A4.37,4.37,0,0,1,197.58,26.15Zm0,9.82a2.64,2.64,0,0,0,2.3-1.23,5.16,5.16,0,0,0,.84-3,5.19,5.19,0,0,0-.83-3,2.84,2.84,0,0,0-4.62,0,5.22,5.22,0,0,0-.82,3.05,5.19,5.19,0,0,0,.83,3A2.63,2.63,0,0,0,197.58,36Z"/><path d="M214.28,36.73a7.3,7.3,0,0,1-3.07.64,5.38,5.38,0,0,1-4-1.53,5.57,5.57,0,0,1-1.5-4.08,5.55,5.55,0,0,1,1.51-4.08,5.33,5.33,0,0,1,4-1.53,8.42,8.42,0,0,1,3.07.56L213.82,28a8.14,8.14,0,0,0-2.62-.5,3.58,3.58,0,0,0-2.79,1.14,4.43,4.43,0,0,0-1,3.09,4.38,4.38,0,0,0,1.07,3A3.52,3.52,0,0,0,211.21,36a8.13,8.13,0,0,0,2.79-.52Z"/><path d="M226.9,37.09h-1.6V35.51a5,5,0,0,1-3.63,1.84q-3,0-3-3.64V26.4h1.6v6.84a3.83,3.83,0,0,0,.43,2,1.59,1.59,0,0,0,1.46.67,4.59,4.59,0,0,0,3.15-1.83V26.4h1.6Z"/><path d="M240.37,37.09h-1.6v-7q0-2.54-.94-2.54-.48,0-1.06.88a5.51,5.51,0,0,0-.58,1v7.71h-1.59v-7q0-2.54-1-2.54-.47,0-1.05.88a5.48,5.48,0,0,0-.58,1v7.71h-1.6V26.4h1.54V28A4.35,4.35,0,0,1,233,26.65a2,2,0,0,1,1.24-.51,1.61,1.61,0,0,1,1.16.51,2.71,2.71,0,0,1,.71,1.36,4.32,4.32,0,0,1,1.08-1.36,2,2,0,0,1,1.23-.51q1.94,0,1.94,3.47Z"/><path d="M252.44,31.79h-7.33a4.33,4.33,0,0,0,1.05,3A3.32,3.32,0,0,0,248.74,36a9.36,9.36,0,0,0,3-.52l.28,1.28a8,8,0,0,1-3.3.64,5.05,5.05,0,0,1-3.83-1.53,5.73,5.73,0,0,1-1.46-4.12,6,6,0,0,1,1.31-4.06,4.26,4.26,0,0,1,3.38-1.51,4,4,0,0,1,3.09,1.4,5.45,5.45,0,0,1,1.24,3.74Zm-1.74-1.3a3,3,0,0,0-.78-2.11,2.32,2.32,0,0,0-1.74-.86,2.78,2.78,0,0,0-2.06.82,3.25,3.25,0,0,0-.91,2.14Z"/><path d="M264.73,37.09h-1.6V30.24a3.64,3.64,0,0,0-.46-2.07,1.64,1.64,0,0,0-1.43-.64,4.59,4.59,0,0,0-3.15,1.83v7.73h-1.6V26.4h1.6V28a5,5,0,0,1,3.63-1.83q3,0,3,3.63Z"/><path d="M277.43,36.6a7.56,7.56,0,0,1-3.17.74q-2.86,0-2.86-3V27.79h-2.05V26.4h2.05V23.48H273V26.4h3.63v1.38H273V33.9a2.36,2.36,0,0,0,.43,1.51,1.42,1.42,0,0,0,1.17.54,6.2,6.2,0,0,0,2.59-.58Z"/><path d="M289.89,30.28l-7.67,4.6V33.37l6.15-3.66L282.22,26V24.48L289.89,29Z"/><path d="M201.28,86.88l-7.67-4.6V81l7.67-4.56V78l-6.15,3.75,6.15,3.66Z"/><path d="M207.69,79.79a3.84,3.84,0,0,1,1.44-1.19,4.24,4.24,0,0,1,1.91-.45,3.34,3.34,0,0,1,2.91,1.5,6.77,6.77,0,0,1,1,3.94,7.27,7.27,0,0,1-1.11,4.13,3.41,3.41,0,0,1-3,1.66,3.68,3.68,0,0,1-1.86-.5,3.77,3.77,0,0,1-1.37-1.32v1.54h-1.6V74.62h1.6Zm0,1.59v4.44a4.37,4.37,0,0,0,1.22,1.51,2.54,2.54,0,0,0,1.59.6,2.33,2.33,0,0,0,2.06-1.23,5.63,5.63,0,0,0,.76-3,5.52,5.52,0,0,0-.73-3,2.28,2.28,0,0,0-2-1.15A3.39,3.39,0,0,0,207.69,81.38Z"/><path d="M222.78,78.15a4.36,4.36,0,0,1,3.51,1.54,6.06,6.06,0,0,1,1.3,4.05,6.13,6.13,0,0,1-1.3,4.08,4.76,4.76,0,0,1-7,0,6.14,6.14,0,0,1-1.3-4.09,6.05,6.05,0,0,1,1.3-4.06A4.37,4.37,0,0,1,222.78,78.15Zm0,9.82a2.64,2.64,0,0,0,2.3-1.23,5.84,5.84,0,0,0,0-6,2.84,2.84,0,0,0-4.62,0,6,6,0,0,0,0,6A2.63,2.63,0,0,0,222.78,88Z"/><path d="M239.48,89.09h-1.6V87.55a3.8,3.8,0,0,1-1.41,1.3,3.9,3.9,0,0,1-1.93.51,3.3,3.3,0,0,1-2.9-1.64,7.45,7.45,0,0,1-1.07-4.15,6.48,6.48,0,0,1,1.11-3.89,3.46,3.46,0,0,1,2.95-1.54,3.87,3.87,0,0,1,3.25,1.64V74.62h1.6Zm-1.6-3.27V81.38a3.28,3.28,0,0,0-2.77-1.85A2.38,2.38,0,0,0,233,80.7a5.32,5.32,0,0,0-.77,3,5.85,5.85,0,0,0,.72,3.05,2.22,2.22,0,0,0,2,1.2,2.58,2.58,0,0,0,1.22-.33,3.92,3.92,0,0,0,1.16-1A2.52,2.52,0,0,0,237.88,85.81Z"/><path d="M252.61,78.4l-4,10.68a10.39,10.39,0,0,1-1.75,3.29,2.63,2.63,0,0,1-2,.93,5.55,5.55,0,0,1-1.95-.36l.27-1.28a4.69,4.69,0,0,0,1.39.25,1.76,1.76,0,0,0,1.41-.67,7.81,7.81,0,0,0,1.12-2.18l-4-10.66h1.74l3,8.52,3-8.52Z"/><path d="M264.69,82.28,257,86.88V85.37l6.15-3.66L257,78V76.48L264.69,81Z"/><path d="M213.88,134.88l-7.67-4.6V129l7.67-4.56V126l-6.15,3.75,6.15,3.66Z"/><path d="M226.9,137.09h-1.6v-1.58a5,5,0,0,1-3.63,1.84q-3,0-3-3.64v-7.3h1.6v6.84a3.83,3.83,0,0,0,.43,2,1.59,1.59,0,0,0,1.46.67,4.59,4.59,0,0,0,3.15-1.83V126.4h1.6Z"/><path d="M238.75,137.09h-4.37V124h-2.79v-1.38H236V135.7h2.77Z"/><path d="M252.09,130.28l-7.67,4.6v-1.51l6.15-3.66L244.42,126v-1.48l7.67,4.56Z"/><path d="M213.88,179.88l-7.67-4.6V174l7.67-4.56V171l-6.15,3.75,6.15,3.66Z"/><path d="M226.14,182.09h-4.37V169H219v-1.38h4.39V180.7h2.77Z"/><path d="M236.86,182.09h-1.6v-9.3h-3.15V171.4h4.75Zm-.78-14.72a1,1,0,0,1,.77.32,1.06,1.06,0,0,1,.32.77,1.08,1.08,0,0,1-.31.79,1,1,0,0,1-.77.32,1,1,0,0,1-.74-.33,1.08,1.08,0,0,1-.32-.77,1.06,1.06,0,0,1,.32-.77A1,1,0,0,1,236.08,167.36Z"/><path d="M252.09,175.28l-7.67,4.6v-1.51l6.15-3.66L244.42,171v-1.48l7.67,4.56Z"/><path d="M220.18,230.88l-7.67-4.6V225l7.67-4.56V222L214,225.71l6.15,3.66Z"/><path d="M233.49,233.09H231.9a6.16,6.16,0,0,1-.19-1.72,4.27,4.27,0,0,1-3.71,2,3,3,0,0,1-2.1-.85,2.84,2.84,0,0,1-.91-2.18,3,3,0,0,1,.32-1.39,2.8,2.8,0,0,1,.93-1,5,5,0,0,1,1.5-.66,11.29,11.29,0,0,1,2.09-.33l1.79-.14v-.51q0-2.75-2.56-2.75a5.87,5.87,0,0,0-1.53.26,7.83,7.83,0,0,0-1.59.62l-.42-1.15a9,9,0,0,1,4.06-1.12q3.65,0,3.65,3.87v4.59A10.46,10.46,0,0,0,233.49,233.09Zm-1.87-3.17V228q-2.16.19-3,.36a3.34,3.34,0,0,0-1.39.63,1.5,1.5,0,0,0-.59,1.25,1.47,1.47,0,0,0,.5,1.16,1.87,1.87,0,0,0,1.28.44,3.25,3.25,0,0,0,1.69-.51A5,5,0,0,0,231.62,229.92Z"/><path d="M245.78,226.28l-7.67,4.6v-1.51l6.15-3.66L238.11,222v-1.48l7.67,4.56Z"/><rect class="cls-1" x="197.12" y="117.98" width="221.73" height="3" transform="matrix(0.58, -0.82, 0.82, 0.58, 32.8, 302.25)"/><polygon class="cls-1" points="376.73 34.98 378.09 20.09 364.51 26.36 376.73 34.98"/></svg>