<svg id="Layer_1" data-name="Layer 1" xmlns="http://www.w3.org/2000/svg" viewBox="0 0 504.81 93.36"><defs><style>.cls-1{fill:#231f20;}.cls-2{fill:#feda00;}.cls-3{fill:#3cc0c0;}</style></defs><title>slide-7-properties methods</title><path class="cls-1" d="M359.55,6.43c0-.9,0-1.64-.07-2.36h1.39l.07,1.4H361a3,3,0,0,1,2.74-1.6,2.58,2.58,0,0,1,2.47,1.75h0a3.6,3.6,0,0,1,1-1.13,3,3,0,0,1,1.93-.61c1.15,0,2.86.76,2.86,3.78v5.13h-1.55V7.85c0-1.67-.61-2.68-1.89-2.68a2.05,2.05,0,0,0-1.87,1.44,2.63,2.63,0,0,0-.13.79v5.38H365V7.56c0-1.39-.61-2.39-1.82-2.39a2.16,2.16,0,0,0-2,1.58,2.19,2.19,0,0,0-.13.77v5.26h-1.55Z"/><path class="cls-1" d="M375.45,8.71a2.79,2.79,0,0,0,3,3,5.73,5.73,0,0,0,2.41-.45l.27,1.13a7.06,7.06,0,0,1-2.9.54,4,4,0,0,1-4.29-4.39c0-2.63,1.55-4.7,4.09-4.7,2.84,0,3.6,2.5,3.6,4.11a6.08,6.08,0,0,1-.05.74Zm4.65-1.13A2.26,2.26,0,0,0,377.9,5a2.63,2.63,0,0,0-2.43,2.58Z"/><path class="cls-1" d="M385.49,1.57v2.5h2.27V5.28h-2.27V10c0,1.08.31,1.69,1.19,1.69a3.49,3.49,0,0,0,.92-.11l.07,1.19a3.88,3.88,0,0,1-1.4.22,2.19,2.19,0,0,1-1.71-.67,3.23,3.23,0,0,1-.61-2.27V5.28h-1.35V4.07h1.35V2Z"/><path class="cls-1" d="M389.54,0h1.58V5.44h0a2.94,2.94,0,0,1,1.13-1.12,3.27,3.27,0,0,1,1.62-.45c1.17,0,3,.72,3,3.73v5.19h-1.58v-5c0-1.4-.52-2.59-2-2.59a2.28,2.28,0,0,0-2.12,1.58,1.92,1.92,0,0,0-.11.76v5.26h-1.58Z"/><path class="cls-1" d="M407.42,8.35A4.26,4.26,0,0,1,403.08,13,4.14,4.14,0,0,1,398.9,8.5c0-2.92,1.91-4.63,4.32-4.63S407.42,5.69,407.42,8.35Zm-6.91.09c0,1.91,1.1,3.35,2.65,3.35s2.65-1.42,2.65-3.38c0-1.48-.74-3.35-2.61-3.35S400.5,6.79,400.5,8.45Z"/><path class="cls-1" d="M416.94,0V10.53c0,.77,0,1.66.07,2.25h-1.42l-.07-1.51h0a3.22,3.22,0,0,1-3,1.71c-2.11,0-3.73-1.78-3.73-4.43,0-2.9,1.78-4.68,3.91-4.68a2.92,2.92,0,0,1,2.63,1.33h0V0Zm-1.58,7.62a2.82,2.82,0,0,0-.07-.67A2.33,2.33,0,0,0,413,5.11c-1.64,0-2.61,1.44-2.61,3.37,0,1.76.86,3.22,2.57,3.22a2.38,2.38,0,0,0,2.32-1.89,2.77,2.77,0,0,0,.07-.68Z"/><path class="cls-1" d="M419.35,11.16a4.16,4.16,0,0,0,2.09.63c1.15,0,1.69-.58,1.69-1.3s-.45-1.17-1.62-1.6c-1.57-.56-2.3-1.42-2.3-2.47,0-1.41,1.13-2.56,3-2.56a4.35,4.35,0,0,1,2.14.54L424,5.56a3.38,3.38,0,0,0-1.78-.5c-.94,0-1.46.54-1.46,1.19s.52,1,1.66,1.48c1.51.58,2.29,1.33,2.29,2.63,0,1.53-1.19,2.61-3.26,2.61a5,5,0,0,1-2.45-.59Z"/><path class="cls-1" d="M75.45,6.91c0-1.12,0-2-.07-2.84H76.8l.07,1.5h0A3.43,3.43,0,0,1,80,3.87c2.11,0,3.69,1.78,3.69,4.43,0,3.13-1.91,4.68-4,4.68a3.06,3.06,0,0,1-2.68-1.37h0v4.74H75.45ZM77,9.24a3.56,3.56,0,0,0,.07.65,2.45,2.45,0,0,0,2.38,1.85c1.67,0,2.65-1.37,2.65-3.37,0-1.75-.92-3.24-2.59-3.24a2.53,2.53,0,0,0-2.4,2,2.58,2.58,0,0,0-.11.65Z"/><path class="cls-1" d="M85.69,6.79c0-1,0-1.91-.07-2.72H87l.05,1.71h.07a2.61,2.61,0,0,1,2.41-1.91,1.71,1.71,0,0,1,.45.05V5.42a2.38,2.38,0,0,0-.54-.05,2.22,2.22,0,0,0-2.12,2,4.51,4.51,0,0,0-.07.74v4.65H85.69Z"/><path class="cls-1" d="M99.29,8.35A4.26,4.26,0,0,1,94.95,13,4.14,4.14,0,0,1,90.77,8.5c0-2.92,1.91-4.63,4.32-4.63S99.29,5.69,99.29,8.35Zm-6.91.09c0,1.91,1.1,3.35,2.65,3.35s2.65-1.42,2.65-3.38c0-1.48-.74-3.35-2.61-3.35S92.37,6.79,92.37,8.45Z"/><path class="cls-1" d="M101.28,6.91c0-1.12,0-2-.07-2.84h1.42l.07,1.5h0a3.43,3.43,0,0,1,3.1-1.69c2.11,0,3.69,1.78,3.69,4.43,0,3.13-1.91,4.68-4,4.68a3.06,3.06,0,0,1-2.68-1.37h0v4.74h-1.57Zm1.57,2.32a3.6,3.6,0,0,0,.07.65,2.45,2.45,0,0,0,2.38,1.85c1.67,0,2.65-1.37,2.65-3.37,0-1.75-.92-3.24-2.59-3.24a2.53,2.53,0,0,0-2.4,2,2.58,2.58,0,0,0-.11.65Z"/><path class="cls-1" d="M112.41,8.71a2.79,2.79,0,0,0,3,3,5.73,5.73,0,0,0,2.41-.45l.27,1.13a7.06,7.06,0,0,1-2.9.54,4,4,0,0,1-4.29-4.39c0-2.63,1.55-4.7,4.09-4.7,2.84,0,3.6,2.5,3.6,4.11a6,6,0,0,1-.05.74Zm4.65-1.13A2.26,2.26,0,0,0,114.86,5a2.63,2.63,0,0,0-2.43,2.58Z"/><path class="cls-1" d="M120.54,6.79c0-1,0-1.91-.07-2.72h1.39l.05,1.71H122a2.61,2.61,0,0,1,2.41-1.91,1.71,1.71,0,0,1,.45.05V5.42a2.38,2.38,0,0,0-.54-.05,2.22,2.22,0,0,0-2.12,2,4.51,4.51,0,0,0-.07.74v4.65h-1.57Z"/><path class="cls-1" d="M128.77,1.57v2.5H131V5.28h-2.27V10c0,1.08.31,1.69,1.19,1.69a3.49,3.49,0,0,0,.92-.11l.07,1.19a3.88,3.88,0,0,1-1.4.22,2.19,2.19,0,0,1-1.71-.67,3.23,3.23,0,0,1-.61-2.27V5.28h-1.35V4.07h1.35V2Z"/><path class="cls-1" d="M134.58,1.62a1,1,0,0,1-2,0,1,1,0,0,1,1-1A.94.94,0,0,1,134.58,1.62Zm-1.76,11.16V4.07h1.58v8.71Z"/><path class="cls-1" d="M137.91,8.71a2.79,2.79,0,0,0,3,3,5.73,5.73,0,0,0,2.41-.45l.27,1.13a7.06,7.06,0,0,1-2.9.54,4,4,0,0,1-4.29-4.39c0-2.63,1.55-4.7,4.09-4.7,2.84,0,3.6,2.5,3.6,4.11a6,6,0,0,1-.05.74Zm4.65-1.13A2.26,2.26,0,0,0,140.36,5a2.63,2.63,0,0,0-2.43,2.58Z"/><path class="cls-1" d="M145.83,11.16a4.16,4.16,0,0,0,2.09.63c1.15,0,1.69-.58,1.69-1.3s-.45-1.17-1.62-1.6c-1.57-.56-2.3-1.42-2.3-2.47,0-1.41,1.13-2.56,3-2.56a4.35,4.35,0,0,1,2.14.54l-.4,1.15a3.38,3.38,0,0,0-1.78-.5c-.94,0-1.46.54-1.46,1.19s.52,1,1.66,1.48c1.51.58,2.29,1.33,2.29,2.63,0,1.53-1.19,2.61-3.26,2.61a5,5,0,0,1-2.45-.59Z"/><rect class="cls-2" x="79.75" y="55.86" width="66.5" height="37.5" rx="8.26" ry="8.26"/><path class="cls-1" d="M99.13,72.33l.77,3c.17.65.32,1.25.43,1.85h0c.13-.59.32-1.21.52-1.83l.95-3h.89l.9,2.9c.22.7.38,1.31.52,1.89h0a17.55,17.55,0,0,1,.44-1.88l.83-2.91h1l-1.87,5.8h-1l-.89-2.77a19.45,19.45,0,0,1-.52-1.91h0a17.08,17.08,0,0,1-.53,1.92l-.94,2.76h-1L98,72.33Z"/><path class="cls-1" d="M107.54,69.62h1.06v3.62h0a2,2,0,0,1,.76-.74,2.17,2.17,0,0,1,1.08-.3c.78,0,2,.48,2,2.48v3.45h-1.06V74.8c0-.94-.35-1.73-1.34-1.73a1.52,1.52,0,0,0-1.42,1.06,1.28,1.28,0,0,0-.07.5v3.5h-1.06Z"/><path class="cls-1" d="M115.38,70.7a.65.65,0,0,1-1.31,0,.64.64,0,0,1,.66-.66A.63.63,0,0,1,115.38,70.7Zm-1.18,7.44v-5.8h1.06v5.8Z"/><path class="cls-1" d="M121.15,77.92a3.89,3.89,0,0,1-1.67.34,2.76,2.76,0,0,1-2.89-3,3,3,0,0,1,3.12-3.08,3.53,3.53,0,0,1,1.46.3l-.24.82a2.45,2.45,0,0,0-1.22-.28,2.19,2.19,0,0,0,0,4.37,3,3,0,0,0,1.3-.29Z"/><path class="cls-1" d="M122.38,69.62h1.06v3.62h0a2,2,0,0,1,.76-.74,2.17,2.17,0,0,1,1.08-.3c.78,0,2,.48,2,2.48v3.45h-1.06V74.8c0-.94-.35-1.73-1.34-1.73a1.52,1.52,0,0,0-1.42,1.06,1.28,1.28,0,0,0-.07.5v3.5h-1.06Z"/><rect class="cls-2" x="157.22" y="55.86" width="63.51" height="37.5" rx="8.26" ry="8.26"/><path class="cls-1" d="M176,70.66v1.67h1.51v.8H176v3.13c0,.72.2,1.13.79,1.13a2.33,2.33,0,0,0,.61-.07l0,.79a2.58,2.58,0,0,1-.94.14,1.46,1.46,0,0,1-1.14-.44A2.15,2.15,0,0,1,175,76.3V73.13h-.9v-.8h.9V70.94Z"/><path class="cls-1" d="M181.9,78.13l-.08-.73h0a2.16,2.16,0,0,1-1.77.86,1.65,1.65,0,0,1-1.77-1.67c0-1.4,1.25-2.17,3.49-2.16v-.12A1.2,1.2,0,0,0,180.4,73a2.89,2.89,0,0,0-1.51.43l-.24-.7a3.61,3.61,0,0,1,1.91-.52c1.77,0,2.21,1.21,2.21,2.37v2.17a8.14,8.14,0,0,0,.1,1.39Zm-.16-3c-1.15,0-2.46.18-2.46,1.31a.93.93,0,0,0,1,1,1.44,1.44,0,0,0,1.4-1,1.11,1.11,0,0,0,.06-.34Z"/><path class="cls-1" d="M184.47,74.14c0-.68,0-1.27,0-1.81h.92l0,1.14h0A1.74,1.74,0,0,1,187,72.2a1.13,1.13,0,0,1,.3,0v1a1.57,1.57,0,0,0-.36,0,1.48,1.48,0,0,0-1.42,1.36,3,3,0,0,0,0,.49v3.09h-1Z"/><path class="cls-1" d="M193.3,72.33c0,.42,0,.89,0,1.59v3.37a3.34,3.34,0,0,1-.83,2.65,3.08,3.08,0,0,1-2.11.7,3.75,3.75,0,0,1-1.93-.48l.26-.8a3.28,3.28,0,0,0,1.7.46c1.08,0,1.87-.56,1.87-2v-.65h0a2.07,2.07,0,0,1-1.85,1,2.59,2.59,0,0,1-2.47-2.83,2.79,2.79,0,0,1,2.61-3.08,1.93,1.93,0,0,1,1.81,1h0l0-.87Zm-1.09,2.29a1.54,1.54,0,0,0-1.54-1.6c-1,0-1.73.85-1.73,2.2,0,1.14.58,2.09,1.72,2.09a1.54,1.54,0,0,0,1.46-1.08,1.83,1.83,0,0,0,.08-.56Z"/><path class="cls-1" d="M195.59,75.42a1.86,1.86,0,0,0,2,2,3.81,3.81,0,0,0,1.61-.3l.18.75a4.7,4.7,0,0,1-1.93.36,2.7,2.7,0,0,1-2.85-2.93c0-1.75,1-3.13,2.72-3.13a2.46,2.46,0,0,1,2.4,2.73,4,4,0,0,1,0,.49Zm3.09-.75A1.5,1.5,0,0,0,197.22,73a1.75,1.75,0,0,0-1.62,1.72Z"/><path class="cls-1" d="M202.29,70.66v1.67h1.51v.8h-1.51v3.13c0,.72.2,1.13.79,1.13a2.33,2.33,0,0,0,.61-.07l0,.79a2.58,2.58,0,0,1-.94.14,1.46,1.46,0,0,1-1.14-.44,2.15,2.15,0,0,1-.41-1.51V73.13h-.9v-.8h.9V70.94Z"/><rect class="cls-2" x="5.27" y="55.86" width="63.51" height="37.5" rx="8.26" ry="8.26"/><path class="cls-1" d="M27.89,70.66v1.67H29.4v.8H27.89v3.13c0,.72.2,1.13.79,1.13a2.33,2.33,0,0,0,.61-.07l0,.79a2.58,2.58,0,0,1-.94.14,1.46,1.46,0,0,1-1.14-.44,2.15,2.15,0,0,1-.41-1.51V73.13H26v-.8h.9V70.94Z"/><path class="cls-1" d="M31.08,72.33l1.27,3.43c.13.38.28.84.37,1.19h0c.11-.35.23-.79.37-1.21l1.15-3.41h1.12L33.8,76.47c-.76,2-1.27,3-2,3.63a2.85,2.85,0,0,1-1.29.68l-.26-.89a2.8,2.8,0,0,0,.92-.52,3.2,3.2,0,0,0,.89-1.17.77.77,0,0,0,.08-.25.92.92,0,0,0-.07-.28l-2.15-5.35Z"/><path class="cls-1" d="M36.35,74.22c0-.74,0-1.34,0-1.89h.95l0,1h0a2.28,2.28,0,0,1,2.06-1.13c1.4,0,2.46,1.19,2.46,3,0,2.09-1.27,3.12-2.64,3.12a2,2,0,0,1-1.79-.91h0v3.15h-1Zm1,1.55a2.39,2.39,0,0,0,0,.43A1.63,1.63,0,0,0,39,77.44c1.12,0,1.76-.91,1.76-2.24,0-1.16-.61-2.16-1.73-2.16a1.69,1.69,0,0,0-1.6,1.31,1.73,1.73,0,0,0-.07.43Z"/><path class="cls-1" d="M43.76,75.42a1.86,1.86,0,0,0,2,2,3.81,3.81,0,0,0,1.61-.3l.18.75a4.7,4.7,0,0,1-1.93.36,2.7,2.7,0,0,1-2.85-2.93c0-1.75,1-3.13,2.72-3.13a2.46,2.46,0,0,1,2.4,2.73,4,4,0,0,1,0,.49Zm3.09-.75A1.5,1.5,0,0,0,45.39,73a1.75,1.75,0,0,0-1.62,1.72Z"/><polygon class="cls-2" points="226 53.51 225 53.51 225 36.01 1 36.01 1 53.51 0 53.51 0 35.01 226 35.01 226 53.51"/><rect class="cls-3" x="286.3" y="53.51" width="99.01" height="37.5" rx="8.26" ry="8.26"/><path class="cls-1" d="M295.46,71.87c0-.74,0-1.34,0-1.89h.95l0,1h0a2.28,2.28,0,0,1,2.06-1.13c1.4,0,2.46,1.19,2.46,3,0,2.09-1.27,3.12-2.64,3.12a2,2,0,0,1-1.79-.91h0v3.15h-1Zm1,1.55a2.34,2.34,0,0,0,0,.43,1.63,1.63,0,0,0,1.58,1.24c1.12,0,1.76-.91,1.76-2.24,0-1.16-.61-2.16-1.73-2.16a1.69,1.69,0,0,0-1.6,1.31,1.75,1.75,0,0,0-.07.43Z"/><path class="cls-1" d="M302.28,71.79c0-.68,0-1.27,0-1.81h.92l0,1.14h0a1.74,1.74,0,0,1,1.61-1.27,1.12,1.12,0,0,1,.3,0v1a1.56,1.56,0,0,0-.36,0,1.48,1.48,0,0,0-1.42,1.36,3,3,0,0,0,0,.49v3.09h-1Z"/><path class="cls-1" d="M306.68,73.07a1.86,1.86,0,0,0,2,2,3.81,3.81,0,0,0,1.61-.3l.18.75a4.7,4.7,0,0,1-1.93.36A2.7,2.7,0,0,1,305.67,73c0-1.75,1-3.13,2.72-3.13a2.46,2.46,0,0,1,2.4,2.73,4,4,0,0,1,0,.49Zm3.09-.75a1.5,1.5,0,0,0-1.46-1.72,1.75,1.75,0,0,0-1.62,1.72Z"/><path class="cls-1" d="M312.51,70l1.14,3.26a15.18,15.18,0,0,1,.47,1.49h0c.13-.48.3-1,.49-1.49L315.77,70h1.1l-2.28,5.8h-1L311.38,70Z"/><path class="cls-1" d="M318.34,73.07a1.86,1.86,0,0,0,2,2,3.81,3.81,0,0,0,1.61-.3l.18.75a4.7,4.7,0,0,1-1.93.36A2.7,2.7,0,0,1,317.33,73c0-1.75,1-3.13,2.72-3.13a2.46,2.46,0,0,1,2.4,2.73,4,4,0,0,1,0,.49Zm3.09-.75A1.5,1.5,0,0,0,320,70.6a1.75,1.75,0,0,0-1.62,1.72Z"/><path class="cls-1" d="M323.76,71.55c0-.6,0-1.09,0-1.57h.94l.06,1h0a2.14,2.14,0,0,1,1.92-1.09c.8,0,2.05.48,2.05,2.47v3.47h-1.06V72.44c0-.94-.35-1.72-1.34-1.72a1.5,1.5,0,0,0-1.42,1.08,1.52,1.52,0,0,0-.07.49v3.49h-1.06Z"/><path class="cls-1" d="M331.65,68.31V70h1.51v.8h-1.51v3.13c0,.72.2,1.13.79,1.13a2.35,2.35,0,0,0,.61-.07l0,.79a2.58,2.58,0,0,1-.94.14,1.46,1.46,0,0,1-1.14-.44,2.15,2.15,0,0,1-.41-1.51V70.78h-.9V70h.9V68.59Z"/><path class="cls-1" d="M334.38,67.81a15,15,0,0,1,2.22-.17,4.63,4.63,0,0,1,3.27,1,3.72,3.72,0,0,1,1.14,2.9,4.27,4.27,0,0,1-1.16,3.14,5,5,0,0,1-3.57,1.16,16.7,16.7,0,0,1-1.9-.1Zm1,7.15a6.6,6.6,0,0,0,1.05.06,3.11,3.11,0,0,0,3.44-3.43c0-1.91-1.07-3.12-3.27-3.12a5.94,5.94,0,0,0-1.22.11Z"/><path class="cls-1" d="M343,73.07a1.86,1.86,0,0,0,2,2,3.82,3.82,0,0,0,1.61-.3l.18.75a4.7,4.7,0,0,1-1.93.36A2.7,2.7,0,0,1,342,73c0-1.75,1-3.13,2.72-3.13a2.46,2.46,0,0,1,2.4,2.73,4,4,0,0,1,0,.49Zm3.09-.75a1.5,1.5,0,0,0-1.46-1.72A1.75,1.75,0,0,0,343,72.32Z"/><path class="cls-1" d="M348.51,75.78v-5h-.82V70h.82V69.7a2.73,2.73,0,0,1,.67-2,2,2,0,0,1,1.42-.54,2.45,2.45,0,0,1,.9.17l-.14.82a1.58,1.58,0,0,0-.67-.13c-.9,0-1.13.79-1.13,1.68V70H351v.8h-1.4v5Z"/><path class="cls-1" d="M355.12,75.78l-.08-.73h0a2.16,2.16,0,0,1-1.78.86,1.65,1.65,0,0,1-1.77-1.67c0-1.4,1.25-2.17,3.49-2.16V72a1.2,1.2,0,0,0-1.32-1.34,2.9,2.9,0,0,0-1.51.43l-.24-.7a3.61,3.61,0,0,1,1.91-.52c1.78,0,2.21,1.21,2.21,2.37v2.17a8.14,8.14,0,0,0,.1,1.39Zm-.16-3c-1.15,0-2.46.18-2.46,1.31a.93.93,0,0,0,1,1,1.44,1.44,0,0,0,1.4-1,1.12,1.12,0,0,0,.06-.34Z"/><path class="cls-1" d="M362.54,74.2c0,.6,0,1.13,0,1.58h-.94l-.06-.95h0a2.18,2.18,0,0,1-1.92,1.08c-.91,0-2-.5-2-2.54V70h1.06v3.21c0,1.1.34,1.85,1.29,1.85a1.53,1.53,0,0,0,1.39-1,1.55,1.55,0,0,0,.1-.54V70h1.06Z"/><path class="cls-1" d="M364.3,67.27h1.06v8.52H364.3Z"/><path class="cls-1" d="M368.4,68.31V70h1.51v.8H368.4v3.13c0,.72.2,1.13.79,1.13a2.34,2.34,0,0,0,.61-.07l0,.79a2.58,2.58,0,0,1-.94.14,1.46,1.46,0,0,1-1.14-.44,2.15,2.15,0,0,1-.41-1.51V70.78h-.9V70h.9V68.59Z"/><path class="cls-1" d="M373.39,67.46a7.9,7.9,0,0,0-1.51,4.91,8.08,8.08,0,0,0,1.51,4.87h-.83A7.75,7.75,0,0,1,371,72.37a7.91,7.91,0,0,1,1.57-4.91Z"/><path class="cls-1" d="M373.88,77.23a8.12,8.12,0,0,0,1.51-4.91,8,8,0,0,0-1.51-4.87h.82a7.64,7.64,0,0,1,1.57,4.88,7.79,7.79,0,0,1-1.57,4.89Z"/><rect class="cls-3" x="398.29" y="53.51" width="99.01" height="37.5" rx="8.26" ry="8.26"/><path class="cls-1" d="M403.26,74.7a2.77,2.77,0,0,0,1.39.42c.77,0,1.13-.38,1.13-.86s-.3-.78-1.08-1.07c-1-.37-1.54-.95-1.54-1.64a1.79,1.79,0,0,1,2-1.7,2.9,2.9,0,0,1,1.43.36l-.26.77a2.26,2.26,0,0,0-1.19-.34c-.62,0-1,.36-1,.79s.35.7,1.1,1c1,.38,1.52.89,1.52,1.75,0,1-.79,1.74-2.17,1.74a3.31,3.31,0,0,1-1.63-.4Z"/><path class="cls-1" d="M409.43,68.31V70h1.51v.8h-1.51v3.13c0,.72.2,1.13.79,1.13a2.34,2.34,0,0,0,.61-.07l0,.79a2.58,2.58,0,0,1-.94.14,1.46,1.46,0,0,1-1.14-.44,2.15,2.15,0,0,1-.41-1.51V70.78h-.9V70h.9V68.59Z"/><path class="cls-1" d="M417.31,72.83a2.84,2.84,0,0,1-2.89,3.08,2.76,2.76,0,0,1-2.78-3,2.83,2.83,0,0,1,2.88-3.08A2.75,2.75,0,0,1,417.31,72.83Zm-4.61.06c0,1.27.73,2.23,1.76,2.23s1.76-.95,1.76-2.25c0-1-.49-2.23-1.74-2.23S412.7,71.79,412.7,72.89Z"/><path class="cls-1" d="M418.64,71.87c0-.74,0-1.34,0-1.89h.95l0,1h0a2.28,2.28,0,0,1,2.06-1.13c1.4,0,2.46,1.19,2.46,3,0,2.09-1.27,3.12-2.64,3.12a2,2,0,0,1-1.79-.91h0v3.15h-1Zm1,1.55a2.43,2.43,0,0,0,0,.43,1.63,1.63,0,0,0,1.58,1.24c1.12,0,1.76-.91,1.76-2.24,0-1.16-.61-2.16-1.73-2.16A1.68,1.68,0,0,0,419.76,72a1.71,1.71,0,0,0-.07.43Z"/><path class="cls-1" d="M425.51,67.8a12.07,12.07,0,0,1,2-.16,3.32,3.32,0,0,1,2.27.67,2.17,2.17,0,0,1,.71,1.69,2.38,2.38,0,0,1-.62,1.73,3.35,3.35,0,0,1-2.47.89,3.61,3.61,0,0,1-.84-.07v3.24h-1Zm1,3.9a3.47,3.47,0,0,0,.86.08c1.26,0,2-.61,2-1.73s-.76-1.58-1.91-1.58a4.38,4.38,0,0,0-1,.08Z"/><path class="cls-1" d="M431.66,71.79c0-.68,0-1.27,0-1.81h.92l0,1.14h0a1.74,1.74,0,0,1,1.61-1.27,1.13,1.13,0,0,1,.3,0v1a1.57,1.57,0,0,0-.36,0,1.48,1.48,0,0,0-1.42,1.36,2.92,2.92,0,0,0,0,.49v3.09h-1Z"/><path class="cls-1" d="M440.72,72.83a2.84,2.84,0,0,1-2.89,3.08,2.76,2.76,0,0,1-2.78-3,2.83,2.83,0,0,1,2.88-3.08A2.75,2.75,0,0,1,440.72,72.83Zm-4.61.06c0,1.27.73,2.23,1.76,2.23s1.76-.95,1.76-2.25c0-1-.49-2.23-1.74-2.23S436.11,71.79,436.11,72.89Z"/><path class="cls-1" d="M442.05,71.87c0-.74,0-1.34,0-1.89H443l0,1h0a2.28,2.28,0,0,1,2.06-1.13c1.4,0,2.46,1.19,2.46,3,0,2.09-1.27,3.12-2.64,3.12a2,2,0,0,1-1.79-.91h0v3.15h-1Zm1,1.55a2.43,2.43,0,0,0,0,.43,1.63,1.63,0,0,0,1.58,1.24c1.12,0,1.76-.91,1.76-2.24,0-1.16-.61-2.16-1.73-2.16A1.68,1.68,0,0,0,443.17,72a1.71,1.71,0,0,0-.07.43Z"/><path class="cls-1" d="M452.1,75.78l-.08-.73h0a2.16,2.16,0,0,1-1.78.86,1.65,1.65,0,0,1-1.77-1.67c0-1.4,1.25-2.17,3.49-2.16V72a1.2,1.2,0,0,0-1.32-1.34,2.9,2.9,0,0,0-1.51.43l-.24-.7a3.61,3.61,0,0,1,1.91-.52c1.78,0,2.21,1.21,2.21,2.37v2.17a8.14,8.14,0,0,0,.1,1.39Zm-.16-3c-1.15,0-2.46.18-2.46,1.31a.93.93,0,0,0,1,1,1.44,1.44,0,0,0,1.4-1,1.12,1.12,0,0,0,.06-.34Z"/><path class="cls-1" d="M459.67,70c0,.42,0,.89,0,1.59v3.37a3.34,3.34,0,0,1-.83,2.65,3.07,3.07,0,0,1-2.11.7,3.75,3.75,0,0,1-1.93-.48L455,77a3.28,3.28,0,0,0,1.7.46c1.08,0,1.87-.56,1.87-2v-.65h0a2.07,2.07,0,0,1-1.85,1,2.59,2.59,0,0,1-2.47-2.83,2.79,2.79,0,0,1,2.62-3.08,1.93,1.93,0,0,1,1.81,1h0l0-.87Zm-1.09,2.29a1.54,1.54,0,0,0-1.54-1.6c-1,0-1.73.85-1.73,2.2,0,1.14.58,2.09,1.72,2.09a1.54,1.54,0,0,0,1.46-1.08,1.85,1.85,0,0,0,.08-.56Z"/><path class="cls-1" d="M464.59,75.78l-.08-.73h0a2.16,2.16,0,0,1-1.77.86,1.65,1.65,0,0,1-1.78-1.67c0-1.4,1.25-2.17,3.49-2.16V72a1.2,1.2,0,0,0-1.32-1.34,2.89,2.89,0,0,0-1.51.43l-.24-.7a3.61,3.61,0,0,1,1.91-.52c1.77,0,2.21,1.21,2.21,2.37v2.17a8.14,8.14,0,0,0,.1,1.39Zm-.16-3c-1.15,0-2.46.18-2.46,1.31a.93.93,0,0,0,1,1,1.44,1.44,0,0,0,1.4-1,1.09,1.09,0,0,0,.06-.34Z"/><path class="cls-1" d="M468.38,68.31V70h1.51v.8h-1.51v3.13c0,.72.2,1.13.79,1.13a2.35,2.35,0,0,0,.61-.07l0,.79a2.58,2.58,0,0,1-.94.14,1.46,1.46,0,0,1-1.14-.44,2.15,2.15,0,0,1-.41-1.51V70.78h-.9V70h.9V68.59Z"/><path class="cls-1" d="M472.26,68.35a.65.65,0,0,1-1.31,0,.64.64,0,0,1,.66-.66A.63.63,0,0,1,472.26,68.35Zm-1.17,7.44V70h1.06v5.8Z"/><path class="cls-1" d="M479.14,72.83a2.84,2.84,0,0,1-2.89,3.08,2.76,2.76,0,0,1-2.78-3,2.83,2.83,0,0,1,2.88-3.08A2.75,2.75,0,0,1,479.14,72.83Zm-4.61.06c0,1.27.73,2.23,1.76,2.23s1.76-.95,1.76-2.25c0-1-.49-2.23-1.74-2.23S474.54,71.79,474.54,72.89Z"/><path class="cls-1" d="M480.48,71.55c0-.6,0-1.09,0-1.57h.94l.06,1h0a2.14,2.14,0,0,1,1.92-1.09c.8,0,2.05.48,2.05,2.47v3.47h-1.06V72.44c0-.94-.35-1.72-1.34-1.72a1.5,1.5,0,0,0-1.42,1.08,1.52,1.52,0,0,0-.07.49v3.49h-1.06Z"/><path class="cls-1" d="M489.43,67.46a7.91,7.91,0,0,0-1.51,4.91,8.08,8.08,0,0,0,1.51,4.87h-.83A7.75,7.75,0,0,1,487,72.37a7.92,7.92,0,0,1,1.57-4.91Z"/><path class="cls-1" d="M489.91,77.23a8.12,8.12,0,0,0,1.51-4.91,8,8,0,0,0-1.51-4.87h.82a7.64,7.64,0,0,1,1.57,4.88,7.79,7.79,0,0,1-1.57,4.89Z"/><polygon class="cls-3" points="504.81 53.51 503.81 53.51 503.81 36.01 279.81 36.01 279.81 53.51 278.81 53.51 278.81 35.01 504.81 35.01 504.81 53.51"/></svg>