<svg id="Layer_1" data-name="Layer 1" xmlns="http://www.w3.org/2000/svg" viewBox="0 0 858.26 294"><defs><style>.cls-1{fill:#ffdb00;}.cls-2{fill:#231f20;}.cls-3{fill:#85e8da;}.cls-4{fill:#ffaec2;}.cls-5{fill:#1ecac7;}</style></defs><title>Slide-3 and 37-jQuery-steps with code</title><circle class="cls-1" cx="95.13" cy="95.13" r="95.13"/><path d="M75.24,107V95L70.34,107H67.58l-4.9-11.83V107H59.51v-17h4.37L69,102.23l5-12.29H78.5v17Z"/><path d="M93.57,101.06a6.19,6.19,0,1,1-6.19-6.26A6.06,6.06,0,0,1,93.57,101.06Zm-3.19,0a3,3,0,1,0-3,3.36A3,3,0,0,0,90.38,101.06Z"/><path d="M103.67,105.69a3.73,3.73,0,0,1-3.26,1.58,4.35,4.35,0,0,1-4.49-4.66V95.15h3.19V102a2.1,2.1,0,0,0,2.16,2.38,2.13,2.13,0,0,0,2.23-2.33V95.15h3.19v9.67a19.46,19.46,0,0,0,.12,2.14h-3A8.11,8.11,0,0,1,103.67,105.69Z"/><path d="M111.83,103.07a2,2,0,0,0,2.16,1.8c1.06,0,1.56-.55,1.56-1.18s-.36-1-1.27-1.15l-1.56-.36c-2.28-.5-3.31-1.87-3.31-3.53,0-2.11,1.87-3.86,4.42-3.86,3.36,0,4.49,2.14,4.63,3.41l-2.66.6a1.8,1.8,0,0,0-1.94-1.58,1.36,1.36,0,0,0-1.51,1.18c0,.58.43.94,1.08,1.06l1.68.36c2.33.48,3.5,1.9,3.5,3.62,0,1.92-1.49,3.89-4.58,3.89-3.55,0-4.78-2.3-4.92-3.65Z"/><path d="M131.71,103.58a5.32,5.32,0,0,1-5.38,3.74A6.27,6.27,0,0,1,126,94.79c3.65,0,5.83,2.33,5.83,6.12,0,.46,0,.94,0,1h-8.45a2.88,2.88,0,0,0,3,2.69,2.61,2.61,0,0,0,2.69-1.8Zm-3-3.86a2.38,2.38,0,0,0-2.64-2.33,2.56,2.56,0,0,0-2.64,2.33Z"/><path class="cls-2" d="M77,228.65a6.26,6.26,0,0,1-2.63.54A4.61,4.61,0,0,1,71,227.88a5.37,5.37,0,0,1,0-7,4.57,4.57,0,0,1,3.41-1.31,7.21,7.21,0,0,1,2.63.48l-.36,1.13a7,7,0,0,0-2.25-.43,3.07,3.07,0,0,0-2.4,1A4.23,4.23,0,0,0,72,227a3,3,0,0,0,2.38,1,7,7,0,0,0,2.39-.45Z"/><path class="cls-2" d="M87.21,229H83.46V217.74H81.07v-1.19h3.76v11.21h2.37Z"/><path class="cls-2" d="M96.39,229H95v-8h-2.7V219.8h4.07Zm-.67-12.62a.89.89,0,0,1,.66.28.91.91,0,0,1,.27.66.93.93,0,0,1-.27.68.89.89,0,0,1-.66.27.86.86,0,0,1-.64-.29.93.93,0,0,1-.28-.66.91.91,0,0,1,.28-.66A.87.87,0,0,1,95.72,216.34Z"/><path class="cls-2" d="M109.44,228.65a6.26,6.26,0,0,1-2.63.54,4.61,4.61,0,0,1-3.45-1.31,5.37,5.37,0,0,1,0-7,4.57,4.57,0,0,1,3.41-1.31,7.21,7.21,0,0,1,2.63.48L109,221.2a7,7,0,0,0-2.25-.43,3.07,3.07,0,0,0-2.4,1,4.23,4.23,0,0,0,0,5.22,3,3,0,0,0,2.38,1,7,7,0,0,0,2.39-.45Z"/><path class="cls-2" d="M121.18,229h-1.8l-3.88-4.55-.9.77V229h-1.37v-12.4h1.37v7.11l4.3-3.87h1.75l-4.17,3.74Z"/><path class="cls-2" d="M60.83,250.56H59.46v-1.32a3.26,3.26,0,0,1-1.21,1.12,3.35,3.35,0,0,1-1.66.44,2.83,2.83,0,0,1-2.49-1.4,6.39,6.39,0,0,1-.91-3.56,5.56,5.56,0,0,1,1-3.33,3,3,0,0,1,2.53-1.32,3.32,3.32,0,0,1,2.79,1.41v-4.43h1.37Zm-1.37-2.8v-3.81a2.81,2.81,0,0,0-2.37-1.58,2,2,0,0,0-1.79,1,4.55,4.55,0,0,0-.66,2.54,5,5,0,0,0,.62,2.62,1.9,1.9,0,0,0,1.7,1,2.21,2.21,0,0,0,1-.28,3.36,3.36,0,0,0,1-.84A2.15,2.15,0,0,0,59.46,247.75Z"/><path class="cls-2" d="M66,242.59a3.3,3.3,0,0,1,1.23-1,3.63,3.63,0,0,1,1.64-.39,2.86,2.86,0,0,1,2.49,1.28,5.8,5.8,0,0,1,.89,3.38,6.23,6.23,0,0,1-.95,3.54,2.92,2.92,0,0,1-2.54,1.42,3.15,3.15,0,0,1-1.6-.43A3.23,3.23,0,0,1,66,249.24v1.32H64.61v-12.4H66Zm0,1.36v3.81A3.76,3.76,0,0,0,67,249a2.18,2.18,0,0,0,1.36.52,2,2,0,0,0,1.76-1.05,4.83,4.83,0,0,0,.65-2.59,4.73,4.73,0,0,0-.62-2.57,2,2,0,0,0-1.74-1A2.91,2.91,0,0,0,66,243.95Z"/><path class="cls-2" d="M81.8,250.56H78.06V239.34H75.67v-1.19h3.76v11.21H81.8Z"/><path class="cls-2" d="M93.24,250.25a6.26,6.26,0,0,1-2.63.54,4.61,4.61,0,0,1-3.45-1.31,5.37,5.37,0,0,1,0-7,4.57,4.57,0,0,1,3.41-1.31,7.21,7.21,0,0,1,2.63.48l-.36,1.13a7,7,0,0,0-2.25-.43,3.07,3.07,0,0,0-2.4,1,3.79,3.79,0,0,0-.88,2.65,3.76,3.76,0,0,0,.91,2.57,3,3,0,0,0,2.38,1,7,7,0,0,0,2.39-.45Z"/><path class="cls-2" d="M103.41,250.56H99.66V239.34H97.27v-1.19H101v11.21h2.37Z"/><path class="cls-2" d="M112.59,250.56h-1.37v-8h-2.7V241.4h4.07Zm-.67-12.62a.89.89,0,0,1,.66.28.91.91,0,0,1,.27.66.93.93,0,0,1-.27.68.89.89,0,0,1-.66.27.86.86,0,0,1-.64-.29.93.93,0,0,1-.28-.66.91.91,0,0,1,.28-.66A.87.87,0,0,1,111.92,237.94Z"/><path class="cls-2" d="M125.64,250.25a6.26,6.26,0,0,1-2.63.54,4.61,4.61,0,0,1-3.45-1.31,5.37,5.37,0,0,1,0-7,4.57,4.57,0,0,1,3.41-1.31,7.21,7.21,0,0,1,2.63.48l-.36,1.13a7,7,0,0,0-2.25-.43,3.07,3.07,0,0,0-2.4,1,3.79,3.79,0,0,0-.88,2.65,3.76,3.76,0,0,0,.91,2.57,3,3,0,0,0,2.38,1,7,7,0,0,0,2.39-.45Z"/><path class="cls-2" d="M137.38,250.56h-1.8L131.69,246l-.9.77v3.78h-1.37v-12.4h1.37v7.11l4.3-3.87h1.75l-4.17,3.74Z"/><path class="cls-2" d="M50.79,272.16H49.42v-6q0-2.18-.81-2.18-.41,0-.91.75a4.68,4.68,0,0,0-.5.83v6.61H45.84v-6q0-2.18-.82-2.18-.4,0-.9.75a4.68,4.68,0,0,0-.5.83v6.61H42.25V263h1.32v1.38a3.76,3.76,0,0,1,.92-1.17,1.68,1.68,0,0,1,1.06-.43,1.38,1.38,0,0,1,1,.43,2.33,2.33,0,0,1,.61,1.17,3.72,3.72,0,0,1,.92-1.17,1.69,1.69,0,0,1,1.05-.43q1.66,0,1.66,3Z"/><path class="cls-2" d="M57.32,262.78a3.74,3.74,0,0,1,3,1.32,5.19,5.19,0,0,1,1.12,3.47,5.25,5.25,0,0,1-1.12,3.5,4.08,4.08,0,0,1-6,0,5.26,5.26,0,0,1-1.11-3.5,5.19,5.19,0,0,1,1.12-3.48A3.74,3.74,0,0,1,57.32,262.78Zm0,8.42a2.26,2.26,0,0,0,2-1.05,5,5,0,0,0,0-5.16,2.44,2.44,0,0,0-4,0,5.1,5.1,0,0,0,0,5.19A2.26,2.26,0,0,0,57.32,271.2Z"/><path class="cls-2" d="M71.65,272.16H70.28v-1.35a4.28,4.28,0,0,1-3.11,1.57q-2.58,0-2.58-3.12V263H66v5.86a3.28,3.28,0,0,0,.37,1.75,1.37,1.37,0,0,0,1.25.58,3.93,3.93,0,0,0,2.7-1.56V263h1.37Z"/><path class="cls-2" d="M81.51,264.31a7,7,0,0,0-2.17-.38,3.56,3.56,0,0,0-1.77.37,1.12,1.12,0,0,0-.65,1,.94.94,0,0,0,.3.69,2.93,2.93,0,0,0,1.2.55l1.31.38a5.73,5.73,0,0,1,1.48.61,2.42,2.42,0,0,1,.86.86,2.34,2.34,0,0,1,.29,1.17,2.39,2.39,0,0,1-1.1,2.07,4.8,4.8,0,0,1-2.79.76,6.63,6.63,0,0,1-2.79-.51l.26-1.19a5.7,5.7,0,0,0,2.47.54,3.6,3.6,0,0,0,1.86-.43,1.28,1.28,0,0,0,.72-1.13,1.2,1.2,0,0,0-.36-.85,4.32,4.32,0,0,0-1.67-.78l-1.56-.49a3.24,3.24,0,0,1-.93-.48,2.19,2.19,0,0,1,.16-3.62,4.87,4.87,0,0,1,2.75-.69,9.23,9.23,0,0,1,2.46.38Z"/><path class="cls-2" d="M93.55,267.62H87.26a3.71,3.71,0,0,0,.9,2.57,2.85,2.85,0,0,0,2.21,1,8,8,0,0,0,2.58-.45l.24,1.1a6.85,6.85,0,0,1-2.83.54,4.33,4.33,0,0,1-3.29-1.31,4.91,4.91,0,0,1-1.25-3.53,5.13,5.13,0,0,1,1.12-3.48,3.65,3.65,0,0,1,2.9-1.3,3.39,3.39,0,0,1,2.65,1.2,4.67,4.67,0,0,1,1.06,3.21Zm-1.49-1.12a2.58,2.58,0,0,0-.67-1.81,2,2,0,0,0-1.49-.73,2.38,2.38,0,0,0-1.76.7,2.78,2.78,0,0,0-.78,1.84Z"/><path class="cls-2" d="M104.35,267.62H98.06a3.71,3.71,0,0,0,.9,2.57,2.85,2.85,0,0,0,2.21,1,8,8,0,0,0,2.58-.45l.24,1.1a6.85,6.85,0,0,1-2.83.54,4.33,4.33,0,0,1-3.29-1.31,4.91,4.91,0,0,1-1.25-3.53,5.13,5.13,0,0,1,1.12-3.48,3.65,3.65,0,0,1,2.9-1.3,3.39,3.39,0,0,1,2.65,1.2,4.67,4.67,0,0,1,1.06,3.21Zm-1.49-1.12a2.58,2.58,0,0,0-.67-1.81,2,2,0,0,0-1.49-.73,2.38,2.38,0,0,0-1.76.7,2.78,2.78,0,0,0-.78,1.84Z"/><path class="cls-2" d="M114.88,272.16h-1.37v-5.87a3.12,3.12,0,0,0-.39-1.77,1.4,1.4,0,0,0-1.23-.55,3.93,3.93,0,0,0-2.7,1.56v6.63h-1.37V263h1.37v1.34a4.29,4.29,0,0,1,3.11-1.56q2.58,0,2.58,3.11Z"/><path class="cls-2" d="M125.77,271.75a6.48,6.48,0,0,1-2.72.63q-2.45,0-2.45-2.59v-5.6h-1.76V263h1.76v-2.5h1.34V263H125v1.19h-3.11v5.24a2,2,0,0,0,.37,1.3,1.21,1.21,0,0,0,1,.46,5.31,5.31,0,0,0,2.22-.5Z"/><path class="cls-2" d="M136.75,267.62h-6.28a3.71,3.71,0,0,0,.9,2.57,2.85,2.85,0,0,0,2.21,1,8,8,0,0,0,2.58-.45l.24,1.1a6.85,6.85,0,0,1-2.83.54,4.33,4.33,0,0,1-3.29-1.31,4.91,4.91,0,0,1-1.25-3.53,5.13,5.13,0,0,1,1.12-3.48,3.65,3.65,0,0,1,2.9-1.3,3.39,3.39,0,0,1,2.65,1.2,4.67,4.67,0,0,1,1.06,3.21Zm-1.49-1.12a2.58,2.58,0,0,0-.67-1.81,2,2,0,0,0-1.49-.73,2.38,2.38,0,0,0-1.76.7,2.78,2.78,0,0,0-.78,1.84Z"/><path class="cls-2" d="M147.42,263.25l-.55,1.32a4,4,0,0,0-1.56-.4,2.29,2.29,0,0,0-1.19.35,3.81,3.81,0,0,0-1.07,1,3.53,3.53,0,0,0-.49.72v5.92H141.2V263h1.36v1.85a3.25,3.25,0,0,1,2.85-2.07A4.62,4.62,0,0,1,147.42,263.25Z"/><path class="cls-2" d="M50.79,293.76H49.42v-6q0-2.18-.81-2.18-.41,0-.91.75a4.68,4.68,0,0,0-.5.83v6.61H45.84v-6q0-2.18-.82-2.18-.4,0-.9.75a4.68,4.68,0,0,0-.5.83v6.61H42.25V284.6h1.32V286a3.76,3.76,0,0,1,.92-1.17,1.68,1.68,0,0,1,1.06-.43,1.38,1.38,0,0,1,1,.43,2.33,2.33,0,0,1,.61,1.17,3.72,3.72,0,0,1,.92-1.17,1.69,1.69,0,0,1,1.05-.43q1.66,0,1.66,3Z"/><path class="cls-2" d="M57.32,284.38a3.74,3.74,0,0,1,3,1.32,5.19,5.19,0,0,1,1.12,3.47,5.25,5.25,0,0,1-1.12,3.5,4.08,4.08,0,0,1-6,0,5.26,5.26,0,0,1-1.11-3.5,5.19,5.19,0,0,1,1.12-3.48A3.74,3.74,0,0,1,57.32,284.38Zm0,8.42a2.26,2.26,0,0,0,2-1.05,5,5,0,0,0,0-5.16,2.44,2.44,0,0,0-4,0,5.1,5.1,0,0,0,0,5.19A2.26,2.26,0,0,0,57.32,292.8Z"/><path class="cls-2" d="M71.65,293.76H70.28v-1.35A4.28,4.28,0,0,1,67.17,294q-2.58,0-2.58-3.12V284.6H66v5.86a3.28,3.28,0,0,0,.37,1.75,1.37,1.37,0,0,0,1.25.58,3.93,3.93,0,0,0,2.7-1.56V284.6h1.37Z"/><path class="cls-2" d="M81.51,285.91a7,7,0,0,0-2.17-.38,3.56,3.56,0,0,0-1.77.37,1.12,1.12,0,0,0-.65,1,.94.94,0,0,0,.3.69,2.93,2.93,0,0,0,1.2.55l1.31.38a5.73,5.73,0,0,1,1.48.61,2.42,2.42,0,0,1,.86.86,2.34,2.34,0,0,1,.29,1.17,2.39,2.39,0,0,1-1.1,2.07,4.8,4.8,0,0,1-2.79.76,6.63,6.63,0,0,1-2.79-.51l.26-1.19a5.7,5.7,0,0,0,2.47.54,3.6,3.6,0,0,0,1.86-.43,1.28,1.28,0,0,0,.72-1.13,1.2,1.2,0,0,0-.36-.85,4.32,4.32,0,0,0-1.67-.78l-1.56-.49a3.24,3.24,0,0,1-.93-.48,2.19,2.19,0,0,1,.16-3.62,4.87,4.87,0,0,1,2.75-.69,9.23,9.23,0,0,1,2.46.38Z"/><path class="cls-2" d="M93.55,289.22H87.26a3.71,3.71,0,0,0,.9,2.57,2.85,2.85,0,0,0,2.21,1,8,8,0,0,0,2.58-.45l.24,1.1a6.85,6.85,0,0,1-2.83.54,4.33,4.33,0,0,1-3.29-1.31,4.91,4.91,0,0,1-1.25-3.53,5.13,5.13,0,0,1,1.12-3.48,3.65,3.65,0,0,1,2.9-1.3,3.39,3.39,0,0,1,2.65,1.2,4.67,4.67,0,0,1,1.06,3.21Zm-1.49-1.12a2.58,2.58,0,0,0-.67-1.81,2,2,0,0,0-1.49-.73,2.38,2.38,0,0,0-1.76.7,2.78,2.78,0,0,0-.78,1.84Z"/><path class="cls-2" d="M103.41,293.76H99.66V282.54H97.27v-1.19H101v11.21h2.37Z"/><path class="cls-2" d="M115.15,289.22h-6.28a3.71,3.71,0,0,0,.9,2.57,2.85,2.85,0,0,0,2.21,1,8,8,0,0,0,2.58-.45l.24,1.1A6.85,6.85,0,0,1,112,294a4.33,4.33,0,0,1-3.29-1.31,4.91,4.91,0,0,1-1.25-3.53,5.13,5.13,0,0,1,1.12-3.48,3.65,3.65,0,0,1,2.9-1.3,3.39,3.39,0,0,1,2.65,1.2,4.67,4.67,0,0,1,1.06,3.21Zm-1.49-1.12a2.58,2.58,0,0,0-.67-1.81,2,2,0,0,0-1.49-.73,2.38,2.38,0,0,0-1.76.7,2.78,2.78,0,0,0-.78,1.84Z"/><path class="cls-2" d="M125.91,293.76h-1.36a5.28,5.28,0,0,1-.17-1.48A3.66,3.66,0,0,1,121.2,294a2.55,2.55,0,0,1-1.8-.73,2.44,2.44,0,0,1-.78-1.87,2.53,2.53,0,0,1,.27-1.2,2.4,2.4,0,0,1,.8-.87,4.36,4.36,0,0,1,1.28-.56,9.75,9.75,0,0,1,1.79-.29l1.54-.12v-.44q0-2.36-2.2-2.36a5,5,0,0,0-1.31.22,6.7,6.7,0,0,0-1.37.53l-.36-1a7.7,7.7,0,0,1,3.48-1q3.13,0,3.13,3.31v3.94A9,9,0,0,0,125.91,293.76Zm-1.6-2.72v-1.66q-1.85.17-2.54.31a2.85,2.85,0,0,0-1.2.54,1.29,1.29,0,0,0-.51,1.07,1.26,1.26,0,0,0,.43,1,1.6,1.6,0,0,0,1.1.38,2.79,2.79,0,0,0,1.45-.43A4.28,4.28,0,0,0,124.31,291Z"/><path class="cls-2" d="M136.89,284.6l-3.47,9.16h-1.25l-3.45-9.16h1.49l2.59,7.29,2.59-7.29Z"/><path class="cls-2" d="M147.56,289.22h-6.28a3.71,3.71,0,0,0,.9,2.57,2.85,2.85,0,0,0,2.21,1,8,8,0,0,0,2.58-.45l.24,1.1a6.85,6.85,0,0,1-2.83.54,4.33,4.33,0,0,1-3.29-1.31,4.91,4.91,0,0,1-1.25-3.53,5.13,5.13,0,0,1,1.12-3.48,3.65,3.65,0,0,1,2.9-1.3,3.39,3.39,0,0,1,2.65,1.2,4.67,4.67,0,0,1,1.06,3.21Zm-1.49-1.12a2.58,2.58,0,0,0-.67-1.81,2,2,0,0,0-1.49-.73,2.38,2.38,0,0,0-1.76.7,2.78,2.78,0,0,0-.78,1.84Z"/><circle class="cls-3" cx="317.8" cy="95.13" r="95.13"/><path d="M271.16,99.9l-2.11,2.33V107h-3.31v-17h3.31v7.7l6.82-7.7h4.34l-6.74,7.42,6.79,9.6h-4.15Z"/><path d="M291.85,103.58a5.32,5.32,0,0,1-5.38,3.74,6.27,6.27,0,0,1-.29-12.53c3.65,0,5.83,2.33,5.83,6.12,0,.46,0,.94,0,1h-8.45a2.88,2.88,0,0,0,3,2.69,2.61,2.61,0,0,0,2.69-1.8Zm-3-3.86a2.38,2.38,0,0,0-2.64-2.33,2.56,2.56,0,0,0-2.64,2.33Z"/><path d="M295.07,111.62l2.78-6.14-5-10.32h3.58l3.14,6.91,2.9-6.91h3.41l-7.42,16.47Z"/><path d="M307.81,107V89.58H311v6.86a4.2,4.2,0,0,1,3.58-1.61C318,94.84,320,97.5,320,101s-2.21,6.24-5.57,6.24a4,4,0,0,1-3.5-1.73V107Zm6-9.26c-1.61,0-3,1.18-3,3.34s1.34,3.36,3,3.36,2.93-1.2,2.93-3.36S315.49,97.69,313.86,97.69Z"/><path d="M334,101.06a6.19,6.19,0,1,1-6.19-6.26A6.06,6.06,0,0,1,334,101.06Zm-3.19,0a3,3,0,1,0-3,3.36A3,3,0,0,0,330.81,101.06Z"/><path d="M339.32,100.17l2.9-.43c.67-.1.89-.43.89-.84,0-.84-.65-1.54-2-1.54a2.1,2.1,0,0,0-2.26,1.92l-2.83-.6c.19-1.85,1.9-3.89,5.06-3.89,3.74,0,5.14,2.11,5.14,4.49v5.81a13.26,13.26,0,0,0,.14,1.87h-2.93a8,8,0,0,1-.12-1.42,4,4,0,0,1-3.48,1.75c-2.52,0-4.06-1.7-4.06-3.55C335.8,101.63,337.36,100.45,339.32,100.17Zm3.79,2v-.53l-2.66.41a1.49,1.49,0,0,0-1.46,1.49,1.39,1.39,0,0,0,1.54,1.37A2.4,2.4,0,0,0,343.12,102.18Z"/><path d="M356.65,98.32a4.79,4.79,0,0,0-1-.1c-1.63,0-3,.79-3,3.34V107h-3.19V95.15h3.1V96.9a3.51,3.51,0,0,1,3.36-1.85,7.29,7.29,0,0,1,.74,0Z"/><path d="M370,104.82c0,.79,0,1.66.1,2.14h-3a8.17,8.17,0,0,1-.12-1.37,3.7,3.7,0,0,1-3.31,1.66c-3.36,0-5.76-2.64-5.76-6.22s2.33-6.17,5.66-6.17c2,0,3,.84,3.34,1.46V89.58H370Zm-6-.43c1.63,0,2.9-1.25,2.9-3.38s-1.27-3.29-2.9-3.29-2.93,1.2-2.93,3.31S362.36,104.39,364,104.39Z"/><path class="cls-2" d="M284.43,229h-1.8l-3.88-4.55-.9.77V229h-1.37v-12.4h1.37v7.11l4.3-3.87h1.75l-4.17,3.74Z"/><path class="cls-2" d="M294.61,224.42h-6.28a3.71,3.71,0,0,0,.9,2.57,2.85,2.85,0,0,0,2.21,1,8,8,0,0,0,2.58-.45l.24,1.1a6.85,6.85,0,0,1-2.83.54,4.33,4.33,0,0,1-3.29-1.31,4.91,4.91,0,0,1-1.25-3.53,5.13,5.13,0,0,1,1.12-3.48,3.65,3.65,0,0,1,2.9-1.3,3.39,3.39,0,0,1,2.65,1.2,4.67,4.67,0,0,1,1.06,3.21Zm-1.49-1.12a2.58,2.58,0,0,0-.67-1.81,2,2,0,0,0-1.49-.73,2.38,2.38,0,0,0-1.76.7,2.78,2.78,0,0,0-.78,1.84Z"/><path class="cls-2" d="M305.55,219.8,302.08,229a8.9,8.9,0,0,1-1.5,2.82,2.26,2.26,0,0,1-1.69.8,4.75,4.75,0,0,1-1.67-.31l.23-1.1a4,4,0,0,0,1.2.21,1.51,1.51,0,0,0,1.21-.57,6.69,6.69,0,0,0,1-1.87l-3.44-9.14h1.49l2.59,7.3,2.59-7.3Z"/><path class="cls-2" d="M310.26,221a3.3,3.3,0,0,1,1.23-1,3.63,3.63,0,0,1,1.64-.39,2.86,2.86,0,0,1,2.48,1.31,5.86,5.86,0,0,1,.9,3.4,6.15,6.15,0,0,1-.94,3.51,2.93,2.93,0,0,1-2.54,1.4,3.15,3.15,0,0,1-1.6-.43,3.24,3.24,0,0,1-1.17-1.13v4.94h-1.37V219.8h1.37Zm0,1.36v3.81a3.76,3.76,0,0,0,1,1.29,2.18,2.18,0,0,0,1.36.52,2,2,0,0,0,1.76-1,4.74,4.74,0,0,0,.65-2.58,4.82,4.82,0,0,0-.62-2.58,2,2,0,0,0-1.74-1A2.91,2.91,0,0,0,310.26,222.35Z"/><path class="cls-2" d="M326.88,220l-.55,1.32a4,4,0,0,0-1.56-.4,2.29,2.29,0,0,0-1.19.35,3.8,3.8,0,0,0-1.07,1,3.56,3.56,0,0,0-.49.72V229h-1.36V219.8H322v1.85a3.25,3.25,0,0,1,2.85-2.07A4.62,4.62,0,0,1,326.88,220Z"/><path class="cls-2" d="M337.82,224.42h-6.28a3.71,3.71,0,0,0,.9,2.57,2.85,2.85,0,0,0,2.21,1,8,8,0,0,0,2.58-.45l.24,1.1a6.85,6.85,0,0,1-2.83.54,4.33,4.33,0,0,1-3.29-1.31,4.91,4.91,0,0,1-1.25-3.53,5.13,5.13,0,0,1,1.12-3.48,3.65,3.65,0,0,1,2.9-1.3,3.39,3.39,0,0,1,2.65,1.2,4.67,4.67,0,0,1,1.06,3.21Zm-1.49-1.12a2.58,2.58,0,0,0-.67-1.81,2,2,0,0,0-1.49-.73,2.38,2.38,0,0,0-1.76.7,2.78,2.78,0,0,0-.78,1.84Z"/><path class="cls-2" d="M347.39,221.11a7,7,0,0,0-2.17-.38,3.55,3.55,0,0,0-1.77.37,1.12,1.12,0,0,0-.65,1,.94.94,0,0,0,.3.69,3,3,0,0,0,1.2.55l1.31.38a5.76,5.76,0,0,1,1.48.61,2.43,2.43,0,0,1,.86.86,2.34,2.34,0,0,1,.29,1.17,2.39,2.39,0,0,1-1.1,2.07,4.8,4.8,0,0,1-2.79.76,6.63,6.63,0,0,1-2.79-.51l.26-1.19a5.7,5.7,0,0,0,2.47.54,3.6,3.6,0,0,0,1.86-.43,1.28,1.28,0,0,0,.72-1.13,1.2,1.2,0,0,0-.36-.85,4.31,4.31,0,0,0-1.67-.78l-1.56-.49a3.27,3.27,0,0,1-.93-.48,2.19,2.19,0,0,1,.16-3.62,4.87,4.87,0,0,1,2.75-.69,9.23,9.23,0,0,1,2.46.38Z"/><path class="cls-2" d="M358.19,221.11a7,7,0,0,0-2.17-.38,3.55,3.55,0,0,0-1.77.37,1.12,1.12,0,0,0-.65,1,.94.94,0,0,0,.3.69,3,3,0,0,0,1.2.55l1.31.38a5.76,5.76,0,0,1,1.48.61,2.43,2.43,0,0,1,.86.86,2.34,2.34,0,0,1,.29,1.17,2.39,2.39,0,0,1-1.1,2.07,4.8,4.8,0,0,1-2.79.76,6.63,6.63,0,0,1-2.79-.51l.26-1.19a5.7,5.7,0,0,0,2.47.54,3.6,3.6,0,0,0,1.86-.43,1.28,1.28,0,0,0,.72-1.13,1.2,1.2,0,0,0-.36-.85,4.31,4.31,0,0,0-1.67-.78l-1.56-.49a3.27,3.27,0,0,1-.93-.48,2.19,2.19,0,0,1,.16-3.62,4.87,4.87,0,0,1,2.75-.69,9.23,9.23,0,0,1,2.46.38Z"/><path class="cls-2" d="M289.83,250.56H288L284.15,246l-.9.77v3.78h-1.37v-12.4h1.37v7.11l4.3-3.87h1.75l-4.17,3.74Z"/><path class="cls-2" d="M300,246h-6.28a3.71,3.71,0,0,0,.9,2.57,2.85,2.85,0,0,0,2.21,1,8,8,0,0,0,2.58-.45l.24,1.1a6.85,6.85,0,0,1-2.83.54,4.33,4.33,0,0,1-3.29-1.31,4.91,4.91,0,0,1-1.25-3.53,5.13,5.13,0,0,1,1.12-3.48,3.65,3.65,0,0,1,2.9-1.3,3.39,3.39,0,0,1,2.65,1.2,4.67,4.67,0,0,1,1.06,3.21Zm-1.49-1.12a2.58,2.58,0,0,0-.67-1.81,2,2,0,0,0-1.49-.73,2.38,2.38,0,0,0-1.76.7,2.78,2.78,0,0,0-.78,1.84Z"/><path class="cls-2" d="M311,241.4l-3.47,9.16a8.9,8.9,0,0,1-1.5,2.82,2.26,2.26,0,0,1-1.69.8,4.75,4.75,0,0,1-1.67-.31l.23-1.1a4,4,0,0,0,1.2.21,1.51,1.51,0,0,0,1.21-.57,6.69,6.69,0,0,0,1-1.87l-3.44-9.14h1.49l2.59,7.3,2.59-7.3Z"/><path class="cls-2" d="M321.31,250.56h-1.37v-1.32a3.26,3.26,0,0,1-1.21,1.12,3.35,3.35,0,0,1-1.66.44,2.83,2.83,0,0,1-2.49-1.4,6.39,6.39,0,0,1-.91-3.56,5.56,5.56,0,0,1,1-3.33,3,3,0,0,1,2.53-1.32,3.32,3.32,0,0,1,2.79,1.41v-4.43h1.37Zm-1.37-2.8v-3.81a2.81,2.81,0,0,0-2.37-1.58,2,2,0,0,0-1.79,1,4.55,4.55,0,0,0-.66,2.54,5,5,0,0,0,.62,2.62,1.9,1.9,0,0,0,1.7,1,2.21,2.21,0,0,0,1-.28,3.36,3.36,0,0,0,1-.84A2.15,2.15,0,0,0,319.94,247.75Z"/><path class="cls-2" d="M328.59,241.18a3.74,3.74,0,0,1,3,1.32,5.19,5.19,0,0,1,1.12,3.47,5.25,5.25,0,0,1-1.12,3.5,4.08,4.08,0,0,1-6,0,5.26,5.26,0,0,1-1.11-3.5,5.19,5.19,0,0,1,1.12-3.48A3.74,3.74,0,0,1,328.59,241.18Zm0,8.42a2.26,2.26,0,0,0,2-1.05,5,5,0,0,0,0-5.16,2.44,2.44,0,0,0-4,0,5.1,5.1,0,0,0,0,5.18A2.26,2.26,0,0,0,328.59,249.6Z"/><path class="cls-2" d="M344,241.4l-1.32,9.16h-1l-2.15-5.19-2.16,5.19h-1L335,241.4h1.36q.73,6.42.76,6.73l1.68-4h1.41l1.67,4,.74-6.71Z"/><path class="cls-2" d="M353.75,250.56h-1.37v-5.87a3.11,3.11,0,0,0-.39-1.77,1.4,1.4,0,0,0-1.23-.55,3.93,3.93,0,0,0-2.7,1.56v6.63h-1.37V241.4h1.37v1.34a4.29,4.29,0,0,1,3.11-1.56q2.58,0,2.58,3.11Z"/><path class="cls-2" d="M300.64,272.16h-1.8l-3.88-4.55-.9.77v3.78h-1.37v-12.4h1.37v7.11l4.3-3.87h1.75l-4.17,3.74Z"/><path class="cls-2" d="M310.81,267.62h-6.28a3.71,3.71,0,0,0,.9,2.57,2.85,2.85,0,0,0,2.21,1,8,8,0,0,0,2.58-.45l.24,1.1a6.85,6.85,0,0,1-2.83.54,4.33,4.33,0,0,1-3.29-1.31,4.91,4.91,0,0,1-1.25-3.53,5.13,5.13,0,0,1,1.12-3.48,3.65,3.65,0,0,1,2.9-1.3,3.39,3.39,0,0,1,2.65,1.2,4.67,4.67,0,0,1,1.06,3.21Zm-1.49-1.12a2.58,2.58,0,0,0-.67-1.81,2,2,0,0,0-1.49-.73,2.38,2.38,0,0,0-1.76.7,2.78,2.78,0,0,0-.78,1.84Z"/><path class="cls-2" d="M321.76,263l-3.47,9.16a8.9,8.9,0,0,1-1.5,2.82,2.26,2.26,0,0,1-1.69.8,4.75,4.75,0,0,1-1.67-.31l.23-1.1a4,4,0,0,0,1.2.21,1.51,1.51,0,0,0,1.21-.57,6.69,6.69,0,0,0,1-1.87L313.58,263h1.49l2.59,7.3,2.59-7.3Z"/><path class="cls-2" d="M332.13,272.16h-1.37v-1.35a4.28,4.28,0,0,1-3.11,1.57q-2.58,0-2.58-3.12V263h1.37v5.86a3.28,3.28,0,0,0,.37,1.75,1.37,1.37,0,0,0,1.25.58,3.93,3.93,0,0,0,2.7-1.56V263h1.37Z"/><path class="cls-2" d="M337.26,264.19a3.3,3.3,0,0,1,1.23-1,3.63,3.63,0,0,1,1.64-.39,2.85,2.85,0,0,1,2.48,1.31,5.86,5.86,0,0,1,.9,3.4,6.15,6.15,0,0,1-.94,3.51,2.93,2.93,0,0,1-2.54,1.4,3.15,3.15,0,0,1-1.6-.43,3.23,3.23,0,0,1-1.17-1.13v4.94h-1.37V263h1.37Zm0,1.36v3.81a3.76,3.76,0,0,0,1,1.29,2.18,2.18,0,0,0,1.36.52,2,2,0,0,0,1.76-1,4.74,4.74,0,0,0,.65-2.58,4.82,4.82,0,0,0-.62-2.58,2,2,0,0,0-1.74-1A2.91,2.91,0,0,0,337.26,265.55Z"/><circle class="cls-4" cx="540.46" cy="95.13" r="95.13"/><path d="M513.68,107v-17h10.75v3.14H517v4.2h6.63v3H517V107Z"/><path d="M537.66,101.06a6.19,6.19,0,1,1-6.19-6.26A6.06,6.06,0,0,1,537.66,101.06Zm-3.19,0a3,3,0,1,0-3,3.36A3,3,0,0,0,534.46,101.06Z"/><path d="M547.38,98.32a4.79,4.79,0,0,0-1-.1c-1.63,0-3,.79-3,3.34V107h-3.19V95.15h3.1V96.9a3.51,3.51,0,0,1,3.36-1.85,7.3,7.3,0,0,1,.74,0Z"/><path d="M549.63,107V95.15h3v1.44a4.06,4.06,0,0,1,3.46-1.78,3.65,3.65,0,0,1,3.5,2,4.1,4.1,0,0,1,3.74-2c2.18,0,4.27,1.32,4.27,4.49V107h-3.1v-7a2,2,0,0,0-2.09-2.23,2.17,2.17,0,0,0-2.18,2.33V107h-3.17v-7A2,2,0,0,0,555,97.72a2.16,2.16,0,0,0-2.21,2.33V107Z"/><path class="cls-2" d="M516,221.11a7,7,0,0,0-2.17-.38,3.55,3.55,0,0,0-1.77.37,1.12,1.12,0,0,0-.65,1,.94.94,0,0,0,.3.69,3,3,0,0,0,1.2.55l1.31.38a5.76,5.76,0,0,1,1.48.61,2.43,2.43,0,0,1,.86.86,2.34,2.34,0,0,1,.29,1.17,2.39,2.39,0,0,1-1.1,2.07,4.8,4.8,0,0,1-2.79.76,6.63,6.63,0,0,1-2.79-.51l.26-1.19a5.7,5.7,0,0,0,2.47.54,3.6,3.6,0,0,0,1.86-.43,1.28,1.28,0,0,0,.72-1.13,1.2,1.2,0,0,0-.36-.85,4.31,4.31,0,0,0-1.67-.78l-1.56-.49a3.27,3.27,0,0,1-.93-.48,2.19,2.19,0,0,1,.16-3.62,4.87,4.87,0,0,1,2.75-.69,9.23,9.23,0,0,1,2.46.38Z"/><path class="cls-2" d="M527.79,229h-1.37v-1.35a4.28,4.28,0,0,1-3.11,1.57q-2.58,0-2.58-3.12V219.8h1.37v5.86a3.28,3.28,0,0,0,.37,1.75,1.37,1.37,0,0,0,1.25.58,3.93,3.93,0,0,0,2.7-1.56V219.8h1.37Z"/><path class="cls-2" d="M532.92,221a3.3,3.3,0,0,1,1.24-1,3.63,3.63,0,0,1,1.64-.39,2.87,2.87,0,0,1,2.49,1.28,5.8,5.8,0,0,1,.89,3.38,6.23,6.23,0,0,1-.95,3.54,2.92,2.92,0,0,1-2.54,1.42,3.15,3.15,0,0,1-1.59-.43,3.24,3.24,0,0,1-1.17-1.13V229h-1.37v-12.4h1.37Zm0,1.36v3.81a3.76,3.76,0,0,0,1,1.29,2.18,2.18,0,0,0,1.36.52,2,2,0,0,0,1.76-1.05,4.83,4.83,0,0,0,.65-2.59,4.73,4.73,0,0,0-.62-2.57,2,2,0,0,0-1.74-1A2.91,2.91,0,0,0,532.92,222.35Z"/><path class="cls-2" d="M550.13,229h-1.37v-6q0-2.18-.81-2.18-.41,0-.91.75a4.75,4.75,0,0,0-.5.83V229h-1.36v-6q0-2.18-.82-2.18-.4,0-.9.75a4.75,4.75,0,0,0-.5.83V229H541.6V219.8h1.32v1.38a3.74,3.74,0,0,1,.92-1.16,1.68,1.68,0,0,1,1.06-.44,1.38,1.38,0,0,1,1,.44,2.32,2.32,0,0,1,.61,1.16,3.71,3.71,0,0,1,.92-1.16,1.69,1.69,0,0,1,1.05-.44q1.66,0,1.66,3Z"/><path class="cls-2" d="M557.93,229h-1.37v-8h-2.7V219.8h4.07Zm-.67-12.62a.89.89,0,0,1,.66.28.91.91,0,0,1,.27.66.93.93,0,0,1-.27.68.89.89,0,0,1-.66.27.86.86,0,0,1-.64-.29.93.93,0,0,1-.28-.66.91.91,0,0,1,.28-.66A.87.87,0,0,1,557.26,216.34Z"/><path class="cls-2" d="M571.1,228.55a6.48,6.48,0,0,1-2.72.63q-2.45,0-2.45-2.59V221h-1.76V219.8h1.76v-2.5h1.34v2.5h3.11V221h-3.11v5.24a2,2,0,0,0,.37,1.3,1.21,1.21,0,0,0,1,.46,5.31,5.31,0,0,0,2.22-.5Z"/><path class="cls-2" d="M517,250.25a6.26,6.26,0,0,1-2.63.54,4.61,4.61,0,0,1-3.45-1.31,5.37,5.37,0,0,1,0-7,4.57,4.57,0,0,1,3.41-1.31,7.21,7.21,0,0,1,2.63.48l-.36,1.13a7,7,0,0,0-2.25-.43,3.07,3.07,0,0,0-2.39,1A3.79,3.79,0,0,0,511,246a3.76,3.76,0,0,0,.91,2.57,3,3,0,0,0,2.38,1,7,7,0,0,0,2.39-.45Z"/><path class="cls-2" d="M527.81,250.56h-1.37v-5.87a3.11,3.11,0,0,0-.39-1.77,1.4,1.4,0,0,0-1.23-.55,3.93,3.93,0,0,0-2.7,1.56v6.63h-1.37v-12.4h1.37v4.59a4.29,4.29,0,0,1,3.11-1.56q2.58,0,2.58,3.11Z"/><path class="cls-2" d="M538.84,250.56h-1.36a5.28,5.28,0,0,1-.17-1.48,3.66,3.66,0,0,1-3.18,1.71,2.55,2.55,0,0,1-1.8-.73,2.44,2.44,0,0,1-.78-1.87,2.53,2.53,0,0,1,.27-1.2,2.4,2.4,0,0,1,.8-.87,4.36,4.36,0,0,1,1.28-.56,9.66,9.66,0,0,1,1.79-.29l1.54-.12v-.44q0-2.36-2.2-2.36a5,5,0,0,0-1.31.22,6.76,6.76,0,0,0-1.37.53l-.36-1a7.7,7.7,0,0,1,3.48-1q3.13,0,3.13,3.31v3.94A9,9,0,0,0,538.84,250.56Zm-1.6-2.72v-1.66q-1.85.17-2.54.31a2.85,2.85,0,0,0-1.2.54,1.29,1.29,0,0,0-.51,1.07,1.26,1.26,0,0,0,.43,1,1.6,1.6,0,0,0,1.1.38A2.79,2.79,0,0,0,536,249,4.28,4.28,0,0,0,537.24,247.84Z"/><path class="cls-2" d="M549.41,250.56H548v-5.87a3.11,3.11,0,0,0-.39-1.77,1.4,1.4,0,0,0-1.23-.55,3.93,3.93,0,0,0-2.7,1.56v6.63h-1.37V241.4h1.37v1.34a4.29,4.29,0,0,1,3.11-1.56q2.58,0,2.58,3.11Z"/><path class="cls-2" d="M555.69,247.1q-1.28.62-1.28,1.1a.51.51,0,0,0,.29.43,1.57,1.57,0,0,0,.8.18l3.08-.09a2.51,2.51,0,0,1,1.71.54,1.92,1.92,0,0,1,.61,1.52,2.84,2.84,0,0,1-1.39,2.48,5.72,5.72,0,0,1-3.24.92,4.45,4.45,0,0,1-2.49-.64,1.91,1.91,0,0,1-1-1.65q0-1.1,1.49-1.85-1.24-.58-1.24-1.42t1.6-1.8a3.12,3.12,0,0,1-1.13-1.16,3,3,0,0,1-.4-1.5A2.79,2.79,0,0,1,554,242a3.07,3.07,0,0,1,2.2-.83,3.67,3.67,0,0,1,1.71.4l2.72-.41v1.34h-1.75a3.25,3.25,0,0,1,.4,1.63,2.85,2.85,0,0,1-.87,2.11,3,3,0,0,1-2.21.86Zm.59,6a4.24,4.24,0,0,0,2.31-.6,1.74,1.74,0,0,0,1-1.49q0-.91-1.35-.91-.45,0-1.55.05l-1.09,0a1.23,1.23,0,0,0-.6.32,2.8,2.8,0,0,0-.62.64,1.17,1.17,0,0,0-.22.66,1.09,1.09,0,0,0,.6.92A2.89,2.89,0,0,0,556.28,253.12Zm-.05-7.06a1.6,1.6,0,0,0,1.24-.52,2.25,2.25,0,0,0,0-2.76,1.75,1.75,0,0,0-2.47,0,2.11,2.11,0,0,0,0,2.72A1.61,1.61,0,0,0,556.23,246.06Z"/><path class="cls-2" d="M571.29,246H565a3.71,3.71,0,0,0,.9,2.57,2.85,2.85,0,0,0,2.21,1,8,8,0,0,0,2.58-.45l.24,1.1a6.85,6.85,0,0,1-2.83.54,4.33,4.33,0,0,1-3.29-1.31,4.91,4.91,0,0,1-1.25-3.53,5.13,5.13,0,0,1,1.12-3.48,3.65,3.65,0,0,1,2.9-1.3,3.39,3.39,0,0,1,2.65,1.2,4.67,4.67,0,0,1,1.06,3.21Zm-1.49-1.12a2.58,2.58,0,0,0-.67-1.81,2,2,0,0,0-1.49-.73,2.38,2.38,0,0,0-1.76.7,2.78,2.78,0,0,0-.78,1.84Z"/><path class="cls-2" d="M522.49,259.9l-.36,1.12a6.39,6.39,0,0,0-1.75-.28,1.13,1.13,0,0,0-1,.42,3.41,3.41,0,0,0-.28,1.68V263h3.08v1.19h-3.08v8h-1.37v-8h-2.3V263h2.3v-.31a3.84,3.84,0,0,1,.6-2.45,2.59,2.59,0,0,1,2.07-.7A7.17,7.17,0,0,1,522.49,259.9Z"/><path class="cls-2" d="M529.66,262.78a3.74,3.74,0,0,1,3,1.32,5.19,5.19,0,0,1,1.12,3.47,5.25,5.25,0,0,1-1.12,3.5,4.08,4.08,0,0,1-6,0,5.26,5.26,0,0,1-1.11-3.5,5.19,5.19,0,0,1,1.12-3.48A3.74,3.74,0,0,1,529.66,262.78Zm0,8.42a2.26,2.26,0,0,0,2-1.05,5,5,0,0,0,0-5.16,2.44,2.44,0,0,0-4,0,5.1,5.1,0,0,0,0,5.19A2.26,2.26,0,0,0,529.66,271.2Z"/><path class="cls-2" d="M544,271.85a6.26,6.26,0,0,1-2.63.54,4.61,4.61,0,0,1-3.45-1.31,5.37,5.37,0,0,1,0-7,4.58,4.58,0,0,1,3.41-1.31,7.21,7.21,0,0,1,2.63.48l-.36,1.13a7,7,0,0,0-2.25-.43,3.07,3.07,0,0,0-2.4,1,3.79,3.79,0,0,0-.88,2.65,3.76,3.76,0,0,0,.91,2.57,3,3,0,0,0,2.38,1,7,7,0,0,0,2.39-.45Z"/><path class="cls-2" d="M554.79,272.16h-1.37v-1.35a4.28,4.28,0,0,1-3.11,1.57q-2.58,0-2.58-3.12V263h1.37v5.86a3.28,3.28,0,0,0,.37,1.75,1.37,1.37,0,0,0,1.25.58,3.93,3.93,0,0,0,2.7-1.56V263h1.37Z"/><path class="cls-2" d="M564.65,264.31a7,7,0,0,0-2.17-.38,3.56,3.56,0,0,0-1.77.37,1.12,1.12,0,0,0-.65,1,.94.94,0,0,0,.3.69,2.93,2.93,0,0,0,1.2.55l1.31.38a5.73,5.73,0,0,1,1.48.61,2.42,2.42,0,0,1,.86.86,2.34,2.34,0,0,1,.29,1.17,2.39,2.39,0,0,1-1.1,2.07,4.8,4.8,0,0,1-2.79.76,6.63,6.63,0,0,1-2.79-.51l.26-1.19a5.7,5.7,0,0,0,2.47.54,3.6,3.6,0,0,0,1.86-.43,1.28,1.28,0,0,0,.72-1.13,1.2,1.2,0,0,0-.36-.85,4.32,4.32,0,0,0-1.67-.78l-1.56-.49a3.24,3.24,0,0,1-.93-.48,2.19,2.19,0,0,1,.16-3.62,4.87,4.87,0,0,1,2.75-.69,9.23,9.23,0,0,1,2.46.38Z"/><path class="cls-2" d="M522.12,285.79a3.3,3.3,0,0,1,1.24-1,3.63,3.63,0,0,1,1.64-.39,2.87,2.87,0,0,1,2.49,1.28,5.8,5.8,0,0,1,.89,3.38,6.23,6.23,0,0,1-.95,3.54,2.92,2.92,0,0,1-2.54,1.42,3.15,3.15,0,0,1-1.59-.43,3.23,3.23,0,0,1-1.17-1.13v1.32h-1.37v-12.4h1.37Zm0,1.36V291a3.76,3.76,0,0,0,1,1.29,2.18,2.18,0,0,0,1.36.52,2,2,0,0,0,1.76-1.05,4.83,4.83,0,0,0,.65-2.59,4.73,4.73,0,0,0-.62-2.57,2,2,0,0,0-1.74-1A2.91,2.91,0,0,0,522.12,287.15Z"/><path class="cls-2" d="M537.94,293.76H534.2V282.54H531.8v-1.19h3.76v11.21h2.37Z"/><path class="cls-2" d="M549.39,293.76H548v-1.35a4.28,4.28,0,0,1-3.11,1.57q-2.58,0-2.58-3.12V284.6h1.37v5.86a3.28,3.28,0,0,0,.37,1.75,1.37,1.37,0,0,0,1.25.58,3.93,3.93,0,0,0,2.7-1.56V284.6h1.37Z"/><path class="cls-2" d="M560.35,284.85l-.55,1.32a4,4,0,0,0-1.56-.4,2.29,2.29,0,0,0-1.19.35,3.81,3.81,0,0,0-1.07,1,3.55,3.55,0,0,0-.49.72v5.92h-1.36V284.6h1.36v1.85a3.25,3.25,0,0,1,2.85-2.07A4.62,4.62,0,0,1,560.35,284.85Z"/><circle class="cls-5" cx="763.13" cy="95.13" r="95.13"/><path d="M707.05,107v-17h6.1c4.85,0,8.4,3.14,8.4,8.52S718,107,713.13,107Zm6-3.07c2.79,0,5.11-1.73,5.11-5.42S715.81,93,713,93h-2.66v10.87Z"/><path d="M735.76,101.06a6.19,6.19,0,1,1-6.19-6.26A6.06,6.06,0,0,1,735.76,101.06Zm-3.19,0a3,3,0,1,0-3,3.36A3,3,0,0,0,732.57,101.06Z"/><path d="M740.58,101.06a3,3,0,0,0,3,3.34,2.7,2.7,0,0,0,2.71-2l2.81.94a5.48,5.48,0,0,1-5.52,4,6.11,6.11,0,0,1-6.22-6.26,6,6,0,0,1,6.12-6.26,5.41,5.41,0,0,1,5.54,4l-2.86,1a2.58,2.58,0,0,0-2.62-2A3,3,0,0,0,740.58,101.06Z"/><path d="M758.92,105.69a3.73,3.73,0,0,1-3.26,1.58,4.35,4.35,0,0,1-4.49-4.66V95.15h3.19V102a2.1,2.1,0,0,0,2.16,2.38,2.13,2.13,0,0,0,2.23-2.33V95.15h3.19v9.67a19.46,19.46,0,0,0,.12,2.14h-3A8.11,8.11,0,0,1,758.92,105.69Z"/><path d="M765.35,107V95.15h3v1.44a4.06,4.06,0,0,1,3.46-1.78,3.65,3.65,0,0,1,3.5,2,4.1,4.1,0,0,1,3.74-2c2.18,0,4.27,1.32,4.27,4.49V107h-3.1v-7a2,2,0,0,0-2.09-2.23A2.17,2.17,0,0,0,776,100V107h-3.17v-7a2,2,0,0,0-2.09-2.23,2.16,2.16,0,0,0-2.21,2.33V107Z"/><path d="M797.2,103.58a5.32,5.32,0,0,1-5.38,3.74,6.27,6.27,0,0,1-.29-12.53c3.65,0,5.83,2.33,5.83,6.12,0,.46,0,.94,0,1h-8.45a2.88,2.88,0,0,0,3,2.69,2.61,2.61,0,0,0,2.69-1.8Zm-3-3.86a2.37,2.37,0,0,0-2.64-2.33,2.56,2.56,0,0,0-2.64,2.33Z"/><path d="M803.08,107h-3.19V95.15H803v1.46a3.92,3.92,0,0,1,3.41-1.78c2.93,0,4.27,2.09,4.27,4.68V107h-3.19v-6.89a2.08,2.08,0,0,0-2.18-2.35,2.22,2.22,0,0,0-2.21,2.45Z"/><path d="M817.84,95.15h2.38V98h-2.38v4.94c0,1,.48,1.37,1.39,1.37a4.63,4.63,0,0,0,1-.1v2.64a4.73,4.73,0,0,1-1.8.29,3.42,3.42,0,0,1-3.74-3.65V98h-2.14V95.15h.6A1.7,1.7,0,0,0,815,93.28V91.62h2.88Z"/><path class="cls-2" d="M739.81,220l-.55,1.32a4,4,0,0,0-1.56-.4,2.29,2.29,0,0,0-1.19.35,3.8,3.8,0,0,0-1.07,1,3.58,3.58,0,0,0-.49.72V229h-1.36V219.8H735v1.85a3.25,3.25,0,0,1,2.85-2.07A4.62,4.62,0,0,1,739.81,220Z"/><path class="cls-2" d="M750.75,224.42h-6.28a3.71,3.71,0,0,0,.9,2.57,2.85,2.85,0,0,0,2.21,1,8,8,0,0,0,2.58-.45l.24,1.1a6.85,6.85,0,0,1-2.83.54,4.33,4.33,0,0,1-3.29-1.31,4.91,4.91,0,0,1-1.25-3.53,5.13,5.13,0,0,1,1.12-3.48,3.65,3.65,0,0,1,2.9-1.3,3.39,3.39,0,0,1,2.65,1.2,4.67,4.67,0,0,1,1.06,3.21Zm-1.49-1.12a2.58,2.58,0,0,0-.67-1.81,2,2,0,0,0-1.49-.73,2.38,2.38,0,0,0-1.76.7,2.78,2.78,0,0,0-.78,1.84Z"/><path class="cls-2" d="M760.32,221.11a7,7,0,0,0-2.17-.38,3.55,3.55,0,0,0-1.77.37,1.12,1.12,0,0,0-.65,1,.94.94,0,0,0,.3.69,3,3,0,0,0,1.2.55l1.31.38a5.76,5.76,0,0,1,1.48.61,2.43,2.43,0,0,1,.86.86,2.34,2.34,0,0,1,.29,1.17,2.39,2.39,0,0,1-1.1,2.07,4.8,4.8,0,0,1-2.79.76,6.63,6.63,0,0,1-2.79-.51l.26-1.19a5.7,5.7,0,0,0,2.47.54,3.6,3.6,0,0,0,1.86-.43,1.28,1.28,0,0,0,.72-1.13,1.2,1.2,0,0,0-.36-.85,4.31,4.31,0,0,0-1.67-.78l-1.56-.49a3.27,3.27,0,0,1-.93-.48,2.19,2.19,0,0,1,.16-3.62,4.87,4.87,0,0,1,2.75-.69,9.23,9.23,0,0,1,2.46.38Z"/><path class="cls-2" d="M769.79,229h-1.37v-8h-2.7V219.8h4.07Zm-.67-12.62a.89.89,0,0,1,.66.28.91.91,0,0,1,.27.66.93.93,0,0,1-.27.68.89.89,0,0,1-.66.27.86.86,0,0,1-.64-.29.93.93,0,0,1-.28-.66.91.91,0,0,1,.28-.66A.87.87,0,0,1,769.12,216.34Z"/><path class="cls-2" d="M782.76,229h-7v-.74l5.22-7.22h-5.1v-1.2h6.92v.68l-5.22,7.28h5.22Z"/><path class="cls-2" d="M794,224.42h-6.28a3.71,3.71,0,0,0,.9,2.57,2.85,2.85,0,0,0,2.21,1,8,8,0,0,0,2.58-.45l.24,1.1a6.85,6.85,0,0,1-2.83.54,4.33,4.33,0,0,1-3.29-1.31,4.91,4.91,0,0,1-1.25-3.53,5.13,5.13,0,0,1,1.12-3.48,3.65,3.65,0,0,1,2.9-1.3,3.39,3.39,0,0,1,2.65,1.2A4.67,4.67,0,0,1,794,224Zm-1.49-1.12a2.58,2.58,0,0,0-.67-1.81,2,2,0,0,0-1.49-.73,2.38,2.38,0,0,0-1.76.7,2.78,2.78,0,0,0-.78,1.84Z"/><path class="cls-2" d="M738.71,242.71a7,7,0,0,0-2.17-.38,3.55,3.55,0,0,0-1.77.37,1.12,1.12,0,0,0-.65,1,.94.94,0,0,0,.3.69,3,3,0,0,0,1.2.55l1.31.38a5.73,5.73,0,0,1,1.48.61,2.43,2.43,0,0,1,.86.86,2.34,2.34,0,0,1,.29,1.17,2.39,2.39,0,0,1-1.1,2.07,4.8,4.8,0,0,1-2.79.76,6.63,6.63,0,0,1-2.79-.51l.26-1.19a5.7,5.7,0,0,0,2.47.54,3.6,3.6,0,0,0,1.86-.43,1.28,1.28,0,0,0,.72-1.13,1.2,1.2,0,0,0-.36-.85,4.33,4.33,0,0,0-1.67-.78l-1.56-.49a3.24,3.24,0,0,1-.93-.48,2.19,2.19,0,0,1,.16-3.62,4.87,4.87,0,0,1,2.75-.69,9.23,9.23,0,0,1,2.46.38Z"/><path class="cls-2" d="M750.44,250.25a6.26,6.26,0,0,1-2.63.54,4.61,4.61,0,0,1-3.45-1.31,5.37,5.37,0,0,1,0-7,4.57,4.57,0,0,1,3.41-1.31,7.21,7.21,0,0,1,2.63.48L750,242.8a7,7,0,0,0-2.25-.43,3.07,3.07,0,0,0-2.39,1,3.79,3.79,0,0,0-.88,2.65,3.76,3.76,0,0,0,.91,2.57,3,3,0,0,0,2.38,1,7,7,0,0,0,2.39-.45Z"/><path class="cls-2" d="M761.42,241.65l-.55,1.32a4,4,0,0,0-1.56-.4,2.29,2.29,0,0,0-1.19.35,3.8,3.8,0,0,0-1.07,1,3.58,3.58,0,0,0-.49.72v5.92h-1.36V241.4h1.36v1.85a3.25,3.25,0,0,1,2.85-2.07A4.62,4.62,0,0,1,761.42,241.65Z"/><path class="cls-2" d="M768.53,241.18a3.74,3.74,0,0,1,3,1.32,5.19,5.19,0,0,1,1.12,3.47,5.25,5.25,0,0,1-1.12,3.5,4.08,4.08,0,0,1-6,0,5.26,5.26,0,0,1-1.11-3.5,5.19,5.19,0,0,1,1.12-3.48A3.74,3.74,0,0,1,768.53,241.18Zm0,8.42a2.26,2.26,0,0,0,2-1.05,5,5,0,0,0,0-5.16,2.44,2.44,0,0,0-4,0,5.1,5.1,0,0,0,0,5.18A2.26,2.26,0,0,0,768.53,249.6Z"/><path class="cls-2" d="M782.21,250.56h-3.74V239.34h-2.39v-1.19h3.76v11.21h2.37Z"/><path class="cls-2" d="M793,250.56h-3.74V239.34h-2.39v-1.19h3.76v11.21H793Z"/></svg>