<svg id="Layer_1" data-name="Layer 1" xmlns="http://www.w3.org/2000/svg" viewBox="0 0 863.45 313.48"><defs><style>.cls-1{fill:#ececec;}.cls-2{fill:#ffaec2;}.cls-3{fill:#c3c3c3;}.cls-4{fill:#231f20;}</style></defs><title>Slide-16-Benefit-3</title><circle class="cls-1" cx="124" cy="124" r="124"/><circle class="cls-1" cx="431.72" cy="124" r="124"/><circle class="cls-2" cx="739.45" cy="124" r="124"/><path class="cls-3" d="M43,108.33a8.59,8.59,0,0,1,8.66-8.88c4.7,0,7.13,2.88,7.8,5.64l-3.12,1a4.45,4.45,0,0,0-4.68-3.43c-2.54,0-5.23,1.82-5.23,5.69a5.25,5.25,0,0,0,5.28,5.62,4.73,4.73,0,0,0,4.78-3.48l3.1,0.94a7.74,7.74,0,0,1-7.87,5.78A8.5,8.5,0,0,1,43,108.33Z"/><path class="cls-3" d="M69,108.19a4.79,4.79,0,0,0-1-.1c-1.63,0-3,.79-3,3.34v5.4H61.84V105h3.1v1.75a3.51,3.51,0,0,1,3.36-1.85,7.29,7.29,0,0,1,.74,0v3.22Z"/><path class="cls-3" d="M82.67,110.93a6.19,6.19,0,1,1-6.19-6.26A6.06,6.06,0,0,1,82.67,110.93Zm-3.19,0a3,3,0,1,0-3,3.36A3,3,0,0,0,79.48,110.93Z"/><path class="cls-3" d="M86.92,112.94a2,2,0,0,0,2.16,1.8,1.31,1.31,0,0,0,1.56-1.18,1.27,1.27,0,0,0-1.27-1.15l-1.56-.36c-2.28-.5-3.31-1.87-3.31-3.53,0-2.11,1.87-3.86,4.42-3.86,3.36,0,4.49,2.14,4.63,3.41l-2.66.6a1.8,1.8,0,0,0-1.94-1.58,1.36,1.36,0,0,0-1.51,1.18,1.12,1.12,0,0,0,1.08,1.06l1.68,0.36c2.33,0.48,3.5,1.9,3.5,3.62,0,1.92-1.49,3.89-4.58,3.89-3.55,0-4.78-2.3-4.92-3.65Z"/><path class="cls-3" d="M98,112.94a2,2,0,0,0,2.16,1.8,1.31,1.31,0,0,0,1.56-1.18,1.27,1.27,0,0,0-1.27-1.15l-1.56-.36c-2.28-.5-3.31-1.87-3.31-3.53,0-2.11,1.87-3.86,4.42-3.86,3.36,0,4.49,2.14,4.63,3.41l-2.66.6a1.8,1.8,0,0,0-1.94-1.58,1.36,1.36,0,0,0-1.51,1.18,1.12,1.12,0,0,0,1.08,1.06l1.68,0.36c2.33,0.48,3.5,1.9,3.5,3.62,0,1.92-1.49,3.89-4.58,3.89-3.55,0-4.78-2.3-4.92-3.65Z"/><path class="cls-3" d="M106.7,111.12v-2.83h7v2.83h-7Z"/><path class="cls-3" d="M122.8,99.81c3.31,0,5.18,1.94,5.18,4.58a3.78,3.78,0,0,1-2.47,3.65,4,4,0,0,1,3,4c0,2.76-2.06,4.75-5.26,4.75h-6.58v-17h6.12Zm-0.5,7a2.13,2.13,0,0,0,2.42-2.14c0-1.3-.84-2.11-2.45-2.11h-2.33v4.25h2.35Zm0.34,7.22c1.61,0,2.57-.84,2.57-2.21a2.22,2.22,0,0,0-2.52-2.28h-2.74v4.49h2.69Z"/><path class="cls-3" d="M138.23,108.19a4.79,4.79,0,0,0-1-.1c-1.63,0-3,.79-3,3.34v5.4H131V105h3.1v1.75a3.51,3.51,0,0,1,3.36-1.85,7.29,7.29,0,0,1,.74,0v3.22Z"/><path class="cls-3" d="M151.86,110.93a6.19,6.19,0,1,1-6.19-6.26A6.06,6.06,0,0,1,151.86,110.93Zm-3.19,0a3,3,0,1,0-3,3.36A3,3,0,0,0,148.67,110.93Z"/><path class="cls-3" d="M164.13,105l2.54,7.61,2.18-7.61H172l-3.7,11.81h-3.19l-2.76-8.06-2.71,8.06h-3.24L152.66,105H156l2.18,7.58,2.57-7.58h3.36Z"/><path class="cls-3" d="M175.74,112.94a2,2,0,0,0,2.16,1.8,1.31,1.31,0,0,0,1.56-1.18,1.27,1.27,0,0,0-1.27-1.15l-1.56-.36c-2.28-.5-3.31-1.87-3.31-3.53,0-2.11,1.87-3.86,4.42-3.86,3.36,0,4.49,2.14,4.63,3.41l-2.66.6a1.8,1.8,0,0,0-1.94-1.58,1.36,1.36,0,0,0-1.51,1.18,1.12,1.12,0,0,0,1.08,1.06l1.68,0.36c2.33,0.48,3.5,1.9,3.5,3.62,0,1.92-1.49,3.89-4.58,3.89-3.55,0-4.78-2.3-4.92-3.65Z"/><path class="cls-3" d="M195.62,113.45a5.32,5.32,0,0,1-5.38,3.74,6.27,6.27,0,0,1-.29-12.53c3.65,0,5.83,2.33,5.83,6.12,0,0.46,0,.94,0,1h-8.45a2.88,2.88,0,0,0,3,2.69,2.61,2.61,0,0,0,2.69-1.8Zm-3-3.86a2.38,2.38,0,0,0-2.64-2.33,2.56,2.56,0,0,0-2.64,2.33h5.28Z"/><path class="cls-3" d="M205.5,108.19a4.79,4.79,0,0,0-1-.1c-1.63,0-3,.79-3,3.34v5.4H198.3V105h3.1v1.75a3.51,3.51,0,0,1,3.36-1.85,7.29,7.29,0,0,1,.74,0v3.22Z"/><path class="cls-3" d="M48.14,137.13a8.59,8.59,0,0,1,8.66-8.88c4.7,0,7.13,2.88,7.8,5.64l-3.12,1a4.45,4.45,0,0,0-4.68-3.43c-2.54,0-5.23,1.82-5.23,5.69a5.25,5.25,0,0,0,5.28,5.62,4.73,4.73,0,0,0,4.78-3.48l3.1,0.94A7.74,7.74,0,0,1,56.85,146,8.5,8.5,0,0,1,48.14,137.13Z"/><path class="cls-3" d="M78.33,139.73a6.19,6.19,0,1,1-6.19-6.26A6.06,6.06,0,0,1,78.33,139.73Zm-3.19,0a3,3,0,1,0-3,3.36A3,3,0,0,0,75.14,139.73Z"/><path class="cls-3" d="M80.85,145.63V133.82h3v1.44a4.06,4.06,0,0,1,3.46-1.78,3.65,3.65,0,0,1,3.5,2,4.1,4.1,0,0,1,3.74-2c2.18,0,4.27,1.32,4.27,4.49v7.66h-3.1v-7a2,2,0,0,0-2.09-2.23,2.17,2.17,0,0,0-2.18,2.33v6.91H88.34v-7a2,2,0,0,0-2.09-2.23A2.16,2.16,0,0,0,84,138.72v6.91H80.85Z"/><path class="cls-3" d="M102.11,150.19V133.82h3.1v1.44a4.13,4.13,0,0,1,3.62-1.7c3.46,0,5.45,2.64,5.45,6.14s-2.23,6.22-5.57,6.22a4.15,4.15,0,0,1-3.41-1.44v5.71h-3.19Zm6.1-13.78a3.35,3.35,0,0,0,0,6.65c1.63,0,2.93-1.22,2.93-3.34S109.84,136.41,108.21,136.41Z"/><path class="cls-3" d="M119.61,138.84l2.9-.43a0.84,0.84,0,0,0,.89-0.84c0-.84-0.65-1.54-2-1.54a2.1,2.1,0,0,0-2.26,1.92l-2.83-.6c0.19-1.85,1.9-3.89,5.06-3.89,3.74,0,5.14,2.11,5.14,4.49v5.81a13.26,13.26,0,0,0,.14,1.87h-2.93a8,8,0,0,1-.12-1.42,4,4,0,0,1-3.48,1.75c-2.52,0-4.06-1.7-4.06-3.55C116.08,140.3,117.64,139.13,119.61,138.84Zm3.79,2v-0.53l-2.66.41a1.49,1.49,0,0,0-1.46,1.49,1.39,1.39,0,0,0,1.54,1.37A2.4,2.4,0,0,0,123.4,140.85Z"/><path class="cls-3" d="M133.6,133.82H136v2.83H133.6v4.94A1.18,1.18,0,0,0,135,143a4.65,4.65,0,0,0,1-.1v2.64a4.73,4.73,0,0,1-1.8.29,3.42,3.42,0,0,1-3.74-3.65v-5.5H128.3v-2.83h0.6a1.7,1.7,0,0,0,1.82-1.87v-1.66h2.88v3.53Z"/><path class="cls-3" d="M140.27,128a2,2,0,1,1-2,2A2,2,0,0,1,140.27,128Zm-1.58,17.67V133.82h3.19v11.81h-3.19Z"/><path class="cls-3" d="M145.29,145.63V128.25h3.14v6.86a4.2,4.2,0,0,1,3.58-1.61c3.46,0,5.45,2.66,5.45,6.17s-2.21,6.24-5.57,6.24a4,4,0,0,1-3.5-1.73v1.44h-3.1Zm6-9.26c-1.61,0-3,1.18-3,3.34s1.34,3.36,3,3.36,2.93-1.2,2.93-3.36S153,136.37,151.34,136.37Z"/><path class="cls-3" d="M161.56,128a2,2,0,1,1-2,2A2,2,0,0,1,161.56,128ZM160,145.63V133.82h3.19v11.81H160Z"/><path class="cls-3" d="M166.58,145.63V128.25h3.19v17.38h-3.19Z"/><path class="cls-3" d="M174.76,128a2,2,0,1,1-2,2A2,2,0,0,1,174.76,128Zm-1.58,17.67V133.82h3.19v11.81h-3.19Z"/><path class="cls-3" d="M183.71,133.82h2.38v2.83h-2.38v4.94A1.18,1.18,0,0,0,185.1,143a4.65,4.65,0,0,0,1-.1v2.64a4.73,4.73,0,0,1-1.8.29,3.42,3.42,0,0,1-3.74-3.65v-5.5h-2.14v-2.83H179a1.7,1.7,0,0,0,1.82-1.87v-1.66h2.88v3.53Z"/><path class="cls-3" d="M189.76,150.29l2.78-6.14-5-10.32h3.58l3.14,6.91,2.9-6.91h3.41l-7.42,16.46h-3.38Z"/><path class="cls-3" d="M75.29,284A5.69,5.69,0,0,1,73.47,287a4.81,4.81,0,0,1-3.18,1.09,5.55,5.55,0,0,1-2.17-.42,5.2,5.2,0,0,1-1.78-1.24,6.68,6.68,0,0,1-1.41-2.31,9.09,9.09,0,0,1,0-5.81,6.4,6.4,0,0,1,1.42-2.28,5.45,5.45,0,0,1,1.77-1.27,5.13,5.13,0,0,1,2.09-.43,3.83,3.83,0,0,1,.83.1,8.61,8.61,0,0,1,1.11.35L72.6,275a2.45,2.45,0,0,0,.82.24,0.42,0.42,0,0,0,.36-0.21,1.73,1.73,0,0,0,.2-0.66h0.9L75,279.46H74.07a6.21,6.21,0,0,0-1.38-3.06,3.14,3.14,0,0,0-2.4-1.08,2.69,2.69,0,0,0-2.5,1.49,9.32,9.32,0,0,0-.83,4.44,8.25,8.25,0,0,0,.91,4.32A3,3,0,0,0,70.55,287a3.23,3.23,0,0,0,2.21-.85,6.34,6.34,0,0,0,1.6-2.52Z"/><path class="cls-3" d="M79.56,280.31a5.42,5.42,0,0,1,1.32-1.63,2.43,2.43,0,0,1,1.5-.51,2,2,0,0,1,1.34.46,1.45,1.45,0,0,1,.53,1.14,1.48,1.48,0,0,1-.35,1,1.21,1.21,0,0,1-.94.39,1.05,1.05,0,0,1-.74-0.28,0.9,0.9,0,0,1-.3-0.69q0-.09,0-0.13a0.56,0.56,0,0,1,0-.08l0.07-.36,0-.07a0.38,0.38,0,0,0,0-.07,0.24,0.24,0,0,0-.07-0.19,0.32,0.32,0,0,0-.22-0.07,1,1,0,0,0-.6.26,3.49,3.49,0,0,0-.66.73,4.48,4.48,0,0,0-.63,1.26,5.09,5.09,0,0,0-.2,1.49v2.73a1.4,1.4,0,0,0,.27,1,1.27,1.27,0,0,0,.93.28h0.47v0.83H76.57V287a1.5,1.5,0,0,0,1-.31,1.4,1.4,0,0,0,.25-1V280.5a1.25,1.25,0,0,0-.21-0.88,1.48,1.48,0,0,0-.92-0.19v-0.84a12.14,12.14,0,0,0,1.41-.12,15,15,0,0,0,1.51-.3v2.14Z"/><path class="cls-3" d="M88.92,288.12a3.8,3.8,0,0,1-3-1.4,5.31,5.31,0,0,1-1.19-3.57,5.39,5.39,0,0,1,1.17-3.6,4,4,0,0,1,6.07,0,5.38,5.38,0,0,1,1.18,3.6,5.31,5.31,0,0,1-1.19,3.57A3.79,3.79,0,0,1,88.92,288.12Zm0-.89a1.61,1.61,0,0,0,1.5-1,7.11,7.11,0,0,0,.51-3,7.2,7.2,0,0,0-.51-3.07,1.61,1.61,0,0,0-3,0,7.25,7.25,0,0,0-.51,3.07,7.16,7.16,0,0,0,.51,3A1.61,1.61,0,0,0,88.92,287.23Z"/><path class="cls-3" d="M94.54,288v-3.52h0.84a6.63,6.63,0,0,0,1.43,2.13,2.5,2.5,0,0,0,1.71.65,1.71,1.71,0,0,0,1.19-.42,1.35,1.35,0,0,0,.47-1,1.25,1.25,0,0,0-.31-0.88,3.75,3.75,0,0,0-1.29-.72L98,284a15.07,15.07,0,0,1-2.19-1,3,3,0,0,1-.93-0.93,2.33,2.33,0,0,1-.28-1.18,2.6,2.6,0,0,1,.79-2,2.77,2.77,0,0,1,2-.76,4,4,0,0,1,1.52.33,6.51,6.51,0,0,0,.87.33,0.42,0.42,0,0,0,.32-0.14,0.77,0.77,0,0,0,.18-0.39h0.77v2.89h-0.89a4.13,4.13,0,0,0-1.11-1.61,2.23,2.23,0,0,0-1.47-.57,1.62,1.62,0,0,0-1.06.36,1.1,1.1,0,0,0-.43.88,1.16,1.16,0,0,0,.34.86,5.43,5.43,0,0,0,1.61.83L98.38,282a11.33,11.33,0,0,1,2.17,1,2.3,2.3,0,0,1,.82.92,2.79,2.79,0,0,1,.28,1.26,2.72,2.72,0,0,1-.87,2.06,3,3,0,0,1-2.17.83,4.18,4.18,0,0,1-1.71-.4,8.1,8.1,0,0,0-1-.4,0.47,0.47,0,0,0-.37.18,0.94,0.94,0,0,0-.19.48H94.54Z"/><path class="cls-3" d="M103.28,288v-3.52h0.84a6.63,6.63,0,0,0,1.43,2.13,2.5,2.5,0,0,0,1.71.65,1.71,1.71,0,0,0,1.19-.42,1.35,1.35,0,0,0,.47-1,1.25,1.25,0,0,0-.31-0.88,3.75,3.75,0,0,0-1.29-.72l-0.53-.2a15.07,15.07,0,0,1-2.19-1,3,3,0,0,1-.93-0.93,2.33,2.33,0,0,1-.28-1.18,2.6,2.6,0,0,1,.79-2,2.77,2.77,0,0,1,2-.76,4,4,0,0,1,1.52.33,6.51,6.51,0,0,0,.87.33,0.42,0.42,0,0,0,.32-0.14,0.77,0.77,0,0,0,.18-0.39h0.77v2.89H109a4.13,4.13,0,0,0-1.11-1.61,2.23,2.23,0,0,0-1.47-.57,1.62,1.62,0,0,0-1.06.36,1.1,1.1,0,0,0-.43.88,1.16,1.16,0,0,0,.34.86,5.43,5.43,0,0,0,1.61.83l0.29,0.11a11.33,11.33,0,0,1,2.17,1,2.3,2.3,0,0,1,.82.92,2.79,2.79,0,0,1,.28,1.26,2.72,2.72,0,0,1-.87,2.06,3,3,0,0,1-2.17.83,4.18,4.18,0,0,1-1.71-.4,8.1,8.1,0,0,0-1-.4,0.47,0.47,0,0,0-.37.18,0.94,0.94,0,0,0-.19.48h-0.84Z"/><path class="cls-3" d="M111.78,283.67v-1.26h4.5v1.26h-4.5Z"/><path class="cls-3" d="M118.69,288.12H118V276.34a1.36,1.36,0,0,0-.19-0.88,1.24,1.24,0,0,0-.82-0.21v-0.83a12.7,12.7,0,0,0,1.34-.13q0.71-.11,1.53-0.3v5.85a3,3,0,0,1,1.07-1.25,2.83,2.83,0,0,1,1.56-.43,3.34,3.34,0,0,1,2.76,1.38,5.72,5.72,0,0,1,1.07,3.61,5.65,5.65,0,0,1-1.08,3.57,3.34,3.34,0,0,1-2.75,1.39,3.3,3.3,0,0,1-1.71-.43,2.92,2.92,0,0,1-1.14-1.26ZM122,287a1.68,1.68,0,0,0,1.55-1,8,8,0,0,0,0-5.75,1.72,1.72,0,0,0-3.1,0,8.21,8.21,0,0,0,0,5.77A1.67,1.67,0,0,0,122,287Z"/><path class="cls-3" d="M130.26,280.31a5.42,5.42,0,0,1,1.32-1.63,2.43,2.43,0,0,1,1.5-.51,2,2,0,0,1,1.34.46,1.45,1.45,0,0,1,.53,1.14,1.48,1.48,0,0,1-.35,1,1.21,1.21,0,0,1-.94.39,1.05,1.05,0,0,1-.74-0.28,0.9,0.9,0,0,1-.3-0.69q0-.09,0-0.13a0.56,0.56,0,0,1,0-.08l0.07-.36,0-.07a0.38,0.38,0,0,0,0-.07,0.24,0.24,0,0,0-.07-0.19,0.32,0.32,0,0,0-.22-0.07,1,1,0,0,0-.6.26,3.49,3.49,0,0,0-.66.73,4.48,4.48,0,0,0-.63,1.26,5.09,5.09,0,0,0-.2,1.49v2.73a1.4,1.4,0,0,0,.27,1,1.27,1.27,0,0,0,.93.28H132v0.83h-4.75V287a1.5,1.5,0,0,0,1-.31,1.4,1.4,0,0,0,.25-1V280.5a1.25,1.25,0,0,0-.21-0.88,1.48,1.48,0,0,0-.92-0.19v-0.84a12.14,12.14,0,0,0,1.41-.12,15,15,0,0,0,1.51-.3v2.14Z"/><path class="cls-3" d="M139.62,288.12a3.8,3.8,0,0,1-3-1.4,5.31,5.31,0,0,1-1.19-3.57,5.39,5.39,0,0,1,1.17-3.6,4,4,0,0,1,6.07,0,5.38,5.38,0,0,1,1.18,3.6,5.31,5.31,0,0,1-1.19,3.57A3.79,3.79,0,0,1,139.62,288.12Zm0-.89a1.61,1.61,0,0,0,1.5-1,7.11,7.11,0,0,0,.51-3,7.2,7.2,0,0,0-.51-3.07,1.61,1.61,0,0,0-3,0,7.25,7.25,0,0,0-.51,3.07,7.16,7.16,0,0,0,.51,3A1.61,1.61,0,0,0,139.62,287.23Z"/><path class="cls-3" d="M149.15,288.12h-0.87l-2.63-7.29h0a1.9,1.9,0,0,0-1.33-1.52l0-.84h3.88v0.84a1.64,1.64,0,0,0-.69.13,0.4,0.4,0,0,0-.2.38,1.56,1.56,0,0,0,0,.22,0.79,0.79,0,0,0,0,.16l1.87,5.18,1.53-4.44a2.91,2.91,0,0,0-.48-1.22,1.19,1.19,0,0,0-.84-0.4l0-.84h4l0,0.84a2.05,2.05,0,0,0-.8.14,0.41,0.41,0,0,0-.23.39,1.2,1.2,0,0,0,0,.17,1.21,1.21,0,0,0,0,.18l1.61,5.19,1.72-4.64a2.54,2.54,0,0,0,.13-0.37,1.31,1.31,0,0,0,0-.31,0.59,0.59,0,0,0-.25-0.52,1.79,1.79,0,0,0-.85-0.22l0-.84h3.33v0.84a1.37,1.37,0,0,0-.77.37,2.76,2.76,0,0,0-.54,1l-2.87,7.47h-1l-1.73-5.84Z"/><path class="cls-3" d="M158.78,288v-3.52h0.84a6.63,6.63,0,0,0,1.43,2.13,2.5,2.5,0,0,0,1.71.65,1.71,1.71,0,0,0,1.19-.42,1.35,1.35,0,0,0,.47-1,1.25,1.25,0,0,0-.31-0.88,3.75,3.75,0,0,0-1.29-.72l-0.53-.2a15.07,15.07,0,0,1-2.19-1,3,3,0,0,1-.93-0.93,2.33,2.33,0,0,1-.28-1.18,2.6,2.6,0,0,1,.79-2,2.77,2.77,0,0,1,2-.76,4,4,0,0,1,1.52.33,6.51,6.51,0,0,0,.87.33,0.42,0.42,0,0,0,.32-0.14,0.77,0.77,0,0,0,.18-0.39h0.77v2.89h-0.89a4.13,4.13,0,0,0-1.11-1.61,2.23,2.23,0,0,0-1.47-.57,1.62,1.62,0,0,0-1.06.36,1.1,1.1,0,0,0-.43.88,1.16,1.16,0,0,0,.34.86,5.43,5.43,0,0,0,1.61.83l0.29,0.11a11.33,11.33,0,0,1,2.17,1,2.3,2.3,0,0,1,.82.92,2.79,2.79,0,0,1,.28,1.26,2.72,2.72,0,0,1-.87,2.06,3,3,0,0,1-2.17.83,4.18,4.18,0,0,1-1.71-.4,8.1,8.1,0,0,0-1-.4,0.47,0.47,0,0,0-.37.18,0.94,0.94,0,0,0-.19.48h-0.84Z"/><path class="cls-3" d="M169.39,283.08a5,5,0,0,0,.73,2.87,2.31,2.31,0,0,0,2,1,2.8,2.8,0,0,0,1.57-.48,5,5,0,0,0,1.37-1.45l0.79,0.45a5.11,5.11,0,0,1-1.71,2,4.38,4.38,0,0,1-2.41.65,4.13,4.13,0,0,1-3.23-1.37,5.18,5.18,0,0,1-1.23-3.59,5.33,5.33,0,0,1,1.2-3.6,3.88,3.88,0,0,1,3.08-1.39,3.81,3.81,0,0,1,3,1.26,5.08,5.08,0,0,1,1.1,3.46v0.19h-6.28Zm0-.87h4.11s0-.09,0-0.16,0-.13,0-0.16a3.48,3.48,0,0,0-.55-2.07,1.73,1.73,0,0,0-1.48-.77,1.75,1.75,0,0,0-1.52.84A4.16,4.16,0,0,0,169.4,282.21Z"/><path class="cls-3" d="M179.68,280.31a5.42,5.42,0,0,1,1.32-1.63,2.43,2.43,0,0,1,1.5-.51,2,2,0,0,1,1.34.46,1.45,1.45,0,0,1,.53,1.14,1.48,1.48,0,0,1-.35,1,1.21,1.21,0,0,1-.94.39,1.05,1.05,0,0,1-.74-0.28,0.9,0.9,0,0,1-.3-0.69q0-.09,0-0.13a0.56,0.56,0,0,1,0-.08l0.07-.36,0-.07a0.38,0.38,0,0,0,0-.07,0.24,0.24,0,0,0-.07-0.19,0.32,0.32,0,0,0-.22-0.07,1,1,0,0,0-.6.26,3.49,3.49,0,0,0-.66.73,4.48,4.48,0,0,0-.63,1.26,5.09,5.09,0,0,0-.2,1.49v2.73a1.4,1.4,0,0,0,.27,1,1.27,1.27,0,0,0,.93.28h0.47v0.83h-4.75V287a1.5,1.5,0,0,0,1-.31,1.4,1.4,0,0,0,.25-1V280.5a1.25,1.25,0,0,0-.21-0.88,1.48,1.48,0,0,0-.92-0.19v-0.84a12.14,12.14,0,0,0,1.41-.12,15,15,0,0,0,1.51-.3v2.14Z"/><path class="cls-3" d="M80.42,305.58a5.69,5.69,0,0,1-1.82,3.07,4.81,4.81,0,0,1-3.18,1.09,5.55,5.55,0,0,1-2.17-.42,5.2,5.2,0,0,1-1.78-1.24,6.67,6.67,0,0,1-1.41-2.31,9.09,9.09,0,0,1,0-5.81,6.4,6.4,0,0,1,1.42-2.28,5.45,5.45,0,0,1,1.77-1.27,5.13,5.13,0,0,1,2.09-.43,3.83,3.83,0,0,1,.83.1,8.61,8.61,0,0,1,1.11.35l0.46,0.19a2.45,2.45,0,0,0,.82.24,0.42,0.42,0,0,0,.36-0.21,1.73,1.73,0,0,0,.2-0.66H80l0.11,5.08H79.2A6.21,6.21,0,0,0,77.82,298a3.14,3.14,0,0,0-2.4-1.08,2.69,2.69,0,0,0-2.5,1.49,9.32,9.32,0,0,0-.83,4.44,8.25,8.25,0,0,0,.91,4.32,3,3,0,0,0,2.68,1.47,3.23,3.23,0,0,0,2.21-.85,6.33,6.33,0,0,0,1.6-2.52Z"/><path class="cls-3" d="M86.13,309.72a3.8,3.8,0,0,1-3-1.4,5.31,5.31,0,0,1-1.19-3.57,5.39,5.39,0,0,1,1.17-3.6,4,4,0,0,1,6.07,0,5.38,5.38,0,0,1,1.18,3.6,5.31,5.31,0,0,1-1.19,3.57A3.79,3.79,0,0,1,86.13,309.72Zm0-.89a1.61,1.61,0,0,0,1.5-1,7.11,7.11,0,0,0,.51-3,7.2,7.2,0,0,0-.51-3.07,1.61,1.61,0,0,0-3,0,7.25,7.25,0,0,0-.51,3.07,7.16,7.16,0,0,0,.51,3A1.61,1.61,0,0,0,86.13,308.83Z"/><path class="cls-3" d="M100,307.34a1.38,1.38,0,0,0,.25,1,1.54,1.54,0,0,0,1,.31v0.83H96.9V308.6a1.5,1.5,0,0,0,1-.31,1.4,1.4,0,0,0,.25-1v-4a3.65,3.65,0,0,0-.29-1.7,1,1,0,0,0-1-.5,2.17,2.17,0,0,0-1.74,1,4,4,0,0,0-.76,2.46v2.73a1.4,1.4,0,0,0,.25,1,1.5,1.5,0,0,0,1,.31v0.83H91.28V308.6a1.5,1.5,0,0,0,1-.31,1.4,1.4,0,0,0,.25-1V302.1a1.25,1.25,0,0,0-.21-0.88,1.48,1.48,0,0,0-.92-0.19v-0.84a12.14,12.14,0,0,0,1.41-.12,15,15,0,0,0,1.51-.3V302a5.61,5.61,0,0,1,1.53-1.69,3,3,0,0,1,1.75-.56,2.18,2.18,0,0,1,1.58.58,2.78,2.78,0,0,1,.76,1.67,5.8,5.8,0,0,1,1.52-1.69,3,3,0,0,1,1.74-.56,2,2,0,0,1,1.87.93,6.05,6.05,0,0,1,.58,3v3.59a1,1,0,0,0,1.08,1.27v0.83h-4.16V308.6a1.5,1.5,0,0,0,1-.31,1.4,1.4,0,0,0,.25-1v-4a3.65,3.65,0,0,0-.29-1.7,1,1,0,0,0-1-.5,2.19,2.19,0,0,0-1.75,1,3.94,3.94,0,0,0-.77,2.43v0Z"/><path class="cls-3" d="M110.27,311.27a1.31,1.31,0,0,0,.29,1,1.56,1.56,0,0,0,1,.27H112v0.83h-4.81v-0.83a1.52,1.52,0,0,0,1-.3,1.4,1.4,0,0,0,.24-1V302.1a1.27,1.27,0,0,0-.21-0.88,1.47,1.47,0,0,0-.93-0.19v-0.85a10.81,10.81,0,0,0,1.41-.11,15.13,15.13,0,0,0,1.5-.3v1.78a3.56,3.56,0,0,1,1.16-1.34,2.77,2.77,0,0,1,1.56-.45,3.32,3.32,0,0,1,2.76,1.38,5.74,5.74,0,0,1,1.07,3.61,5.65,5.65,0,0,1-1.08,3.57,3.33,3.33,0,0,1-2.74,1.39,2.87,2.87,0,0,1-1.58-.44,2.78,2.78,0,0,1-1-1.26v3.24Zm2.14-2.68a1.67,1.67,0,0,0,1.55-1,8.12,8.12,0,0,0,0-5.76,1.72,1.72,0,0,0-3.1,0,8.12,8.12,0,0,0,0,5.76A1.68,1.68,0,0,0,112.41,308.59Z"/><path class="cls-3" d="M123.78,308.11a7,7,0,0,1-1.69,1.23,3.71,3.71,0,0,1-1.63.38,2.8,2.8,0,0,1-2-.67,2.24,2.24,0,0,1-.75-1.74,2.66,2.66,0,0,1,1.42-2.41,10.64,10.64,0,0,1,4.43-1.08v-1a2.69,2.69,0,0,0-.46-1.72,1.71,1.71,0,0,0-1.41-.57,2.44,2.44,0,0,0-.92.15,0.46,0.46,0,0,0-.36.36,0.18,0.18,0,0,0,0,0v0l0.22,0.4a0.81,0.81,0,0,1,.08.22,1.35,1.35,0,0,1,0,.28,1,1,0,0,1-.34.74,1.25,1.25,0,0,1-.86.3,1.12,1.12,0,0,1-.83-0.3,1.09,1.09,0,0,1-.31-0.81,1.81,1.81,0,0,1,.95-1.57,4.6,4.6,0,0,1,2.5-.61,3.94,3.94,0,0,1,2.68.79,3,3,0,0,1,.89,2.37v4.95a0.62,0.62,0,0,0,.07.36,0.3,0.3,0,0,0,.25.09,0.68,0.68,0,0,0,.33-0.15,0.69,0.69,0,0,1,.33-0.15,0.29,0.29,0,0,1,.25.11,0.51,0.51,0,0,1,.08.31,1.11,1.11,0,0,1-.49.83,1.65,1.65,0,0,1-1.08.4,1.2,1.2,0,0,1-.91-0.37A2.58,2.58,0,0,1,123.78,308.11Zm-0.16-3.43a7.48,7.48,0,0,0-2.89.73,1.64,1.64,0,0,0-.91,1.47,1.38,1.38,0,0,0,.41,1,1.55,1.55,0,0,0,1.12.39,2,2,0,0,0,1.71-.76,3.67,3.67,0,0,0,.58-2.24q0-.26,0-0.4T123.62,304.68Z"/><path class="cls-3" d="M128.59,300.88h-1.06v-0.83a3.27,3.27,0,0,0,1.23-1.3,9.3,9.3,0,0,0,.87-2.41h0.83v3.71h2.34v0.83h-2.34v6.3a2,2,0,0,0,.2,1,0.68,0.68,0,0,0,.63.32,0.93,0.93,0,0,0,.79-0.44,2.79,2.79,0,0,0,.42-1.26h0.81a3.36,3.36,0,0,1-.68,2.17,2.31,2.31,0,0,1-1.85.75,2,2,0,0,1-1.67-.69,3.78,3.78,0,0,1-.51-2.23v-5.92Z"/><path class="cls-3" d="M136.9,307.34a1.4,1.4,0,0,0,.25,1,1.5,1.5,0,0,0,1,.31v0.83h-4.28V308.6a1.5,1.5,0,0,0,1-.31,1.41,1.41,0,0,0,.24-1V302.1a1.26,1.26,0,0,0-.21-0.88,1.45,1.45,0,0,0-.91-0.19v-0.84a12.84,12.84,0,0,0,1.45-.12,13.85,13.85,0,0,0,1.54-.3v7.58Zm-2.29-10.55a1.17,1.17,0,0,1,.35-0.84,1.13,1.13,0,0,1,.83-0.36,1.21,1.21,0,1,1,0,2.42,1.13,1.13,0,0,1-.84-0.35A1.19,1.19,0,0,1,134.62,296.79Z"/><path class="cls-3" d="M140.29,309.72h-0.72V297.94a1.36,1.36,0,0,0-.19-0.88,1.24,1.24,0,0,0-.82-0.21V296a12.7,12.7,0,0,0,1.34-.13q0.71-.11,1.53-0.3v5.85a3,3,0,0,1,1.07-1.25,2.83,2.83,0,0,1,1.56-.43,3.34,3.34,0,0,1,2.76,1.38,5.72,5.72,0,0,1,1.07,3.61,5.65,5.65,0,0,1-1.08,3.57,3.34,3.34,0,0,1-2.75,1.39,3.3,3.3,0,0,1-1.71-.43,2.92,2.92,0,0,1-1.14-1.26Zm3.3-1.13a1.68,1.68,0,0,0,1.55-1,8,8,0,0,0,0-5.75,1.72,1.72,0,0,0-3.1,0,8.21,8.21,0,0,0,0,5.77A1.67,1.67,0,0,0,143.58,308.59Z"/><path class="cls-3" d="M152,307.34a1.4,1.4,0,0,0,.25,1,1.5,1.5,0,0,0,1,.31v0.83h-4.28V308.6a1.5,1.5,0,0,0,1-.31,1.41,1.41,0,0,0,.24-1V302.1a1.26,1.26,0,0,0-.21-0.88A1.45,1.45,0,0,0,149,301v-0.84a12.84,12.84,0,0,0,1.45-.12,13.85,13.85,0,0,0,1.54-.3v7.58Zm-2.29-10.55a1.17,1.17,0,0,1,.35-0.84,1.13,1.13,0,0,1,.83-0.36,1.21,1.21,0,1,1,0,2.42,1.13,1.13,0,0,1-.84-0.35A1.19,1.19,0,0,1,149.7,296.79Z"/><path class="cls-3" d="M155.15,297.94a1.33,1.33,0,0,0-.21-0.9,1.42,1.42,0,0,0-.91-0.2V296a10.77,10.77,0,0,0,1.4-.11q0.73-.11,1.58-0.32v11.75a1.4,1.4,0,0,0,.25,1,1.5,1.5,0,0,0,1,.31v0.83h-4.28V308.6a1.5,1.5,0,0,0,1-.31,1.41,1.41,0,0,0,.24-1v-9.4Z"/><path class="cls-3" d="M162.06,307.34a1.4,1.4,0,0,0,.25,1,1.5,1.5,0,0,0,1,.31v0.83H159V308.6a1.5,1.5,0,0,0,1-.31,1.41,1.41,0,0,0,.24-1V302.1a1.26,1.26,0,0,0-.21-0.88,1.45,1.45,0,0,0-.91-0.19v-0.84a12.84,12.84,0,0,0,1.45-.12,13.85,13.85,0,0,0,1.54-.3v7.58Zm-2.29-10.55a1.17,1.17,0,0,1,.35-0.84,1.13,1.13,0,0,1,.83-0.36,1.21,1.21,0,1,1,0,2.42,1.13,1.13,0,0,1-.84-0.35A1.19,1.19,0,0,1,159.77,296.79Z"/><path class="cls-3" d="M165.12,300.88h-1.06v-0.83a3.27,3.27,0,0,0,1.23-1.3,9.3,9.3,0,0,0,.87-2.41H167v3.71h2.34v0.83H167v6.3a2,2,0,0,0,.2,1,0.68,0.68,0,0,0,.63.32,0.93,0.93,0,0,0,.79-0.44,2.79,2.79,0,0,0,.42-1.26h0.81a3.36,3.36,0,0,1-.68,2.17,2.31,2.31,0,0,1-1.85.75,2,2,0,0,1-1.67-.69,3.78,3.78,0,0,1-.51-2.23v-5.92Z"/><path class="cls-3" d="M174.06,309.17l-2.87-6.75-0.12-.3a1.67,1.67,0,0,0-1.29-1.23v-0.84H174v0.84a1.84,1.84,0,0,0-.75.14,0.41,0.41,0,0,0-.22.39,0.89,0.89,0,0,0,0,.18,1,1,0,0,0,.05.18l2,5.08,1.87-4.71a1,1,0,0,0,.09-0.25,1.39,1.39,0,0,0,0-.27,0.56,0.56,0,0,0-.26-0.51,2.12,2.12,0,0,0-.91-0.21v-0.84h3.51v0.84a1.38,1.38,0,0,0-.78.36,3.12,3.12,0,0,0-.61,1l-3.09,7.47a10.05,10.05,0,0,1-1.66,2.94,2.45,2.45,0,0,1-1.83.82A2.09,2.09,0,0,1,170,313a1.51,1.51,0,0,1-.53-1.2,1.31,1.31,0,0,1,.36-1,1.27,1.27,0,0,1,.95-0.36,1.15,1.15,0,0,1,.83.3,1.07,1.07,0,0,1,.32.81,1.16,1.16,0,0,1-.09.41,1.33,1.33,0,0,0-.09.27,0.2,0.2,0,0,0,.07.14,0.22,0.22,0,0,0,.16.07,1.71,1.71,0,0,0,1.05-.95A9.29,9.29,0,0,0,174.06,309.17Z"/><path class="cls-3" d="M360.64,282.88a5.33,5.33,0,0,0,.74,3.17,3.34,3.34,0,0,0,4.75,0,5.33,5.33,0,0,0,.74-3.17v-5.75a1.6,1.6,0,0,0-.3-1.18,2.77,2.77,0,0,0-1.45-.33v-0.91h4.61v0.91a2.75,2.75,0,0,0-1.45.34,1.58,1.58,0,0,0-.31,1.17v5.75a5.84,5.84,0,0,1-1.14,4,5.93,5.93,0,0,1-7.29,0,5.81,5.81,0,0,1-1.15-4v-5.75a1.58,1.58,0,0,0-.31-1.17,2.75,2.75,0,0,0-1.45-.34v-0.91h5.76v0.91a2.78,2.78,0,0,0-1.44.33,1.59,1.59,0,0,0-.31,1.18v5.75Z"/><path class="cls-3" d="M371,288v-3.52h0.84a6.63,6.63,0,0,0,1.43,2.13,2.5,2.5,0,0,0,1.71.65,1.71,1.71,0,0,0,1.19-.42,1.35,1.35,0,0,0,.47-1,1.25,1.25,0,0,0-.31-0.88,3.75,3.75,0,0,0-1.29-.72l-0.53-.2a15.07,15.07,0,0,1-2.19-1,3,3,0,0,1-.93-0.93,2.33,2.33,0,0,1-.28-1.18,2.6,2.6,0,0,1,.79-2,2.77,2.77,0,0,1,2-.76,4,4,0,0,1,1.52.33,6.51,6.51,0,0,0,.87.33,0.42,0.42,0,0,0,.32-0.14,0.77,0.77,0,0,0,.18-0.39h0.77v2.89h-0.89a4.13,4.13,0,0,0-1.11-1.61,2.23,2.23,0,0,0-1.47-.57,1.62,1.62,0,0,0-1.06.36,1.1,1.1,0,0,0-.43.88,1.16,1.16,0,0,0,.34.86,5.43,5.43,0,0,0,1.61.83l0.29,0.11a11.33,11.33,0,0,1,2.17,1,2.3,2.3,0,0,1,.82.92,2.79,2.79,0,0,1,.28,1.26,2.72,2.72,0,0,1-.87,2.06,3,3,0,0,1-2.17.83,4.18,4.18,0,0,1-1.71-.4,8.1,8.1,0,0,0-1-.4,0.47,0.47,0,0,0-.37.18,0.94,0.94,0,0,0-.19.48H371Z"/><path class="cls-3" d="M381.63,283.08a5,5,0,0,0,.73,2.87,2.31,2.31,0,0,0,2,1,2.8,2.8,0,0,0,1.57-.48A5,5,0,0,0,387.3,285l0.79,0.45a5.11,5.11,0,0,1-1.71,2,4.38,4.38,0,0,1-2.41.65,4.13,4.13,0,0,1-3.23-1.37,5.18,5.18,0,0,1-1.23-3.59,5.33,5.33,0,0,1,1.2-3.6,3.88,3.88,0,0,1,3.08-1.39,3.81,3.81,0,0,1,3,1.26,5.08,5.08,0,0,1,1.1,3.46v0.19h-6.28Zm0-.87h4.11s0-.09,0-0.16,0-.13,0-0.16a3.48,3.48,0,0,0-.55-2.07,1.73,1.73,0,0,0-1.48-.77,1.75,1.75,0,0,0-1.52.84A4.16,4.16,0,0,0,381.64,282.21Z"/><path class="cls-3" d="M402,285.74a1.38,1.38,0,0,0,.25,1,1.54,1.54,0,0,0,1,.31v0.83h-4.3V287a1.5,1.5,0,0,0,1-.31,1.4,1.4,0,0,0,.25-1v-4a3.65,3.65,0,0,0-.29-1.7,1,1,0,0,0-1-.5,2.17,2.17,0,0,0-1.74,1,4,4,0,0,0-.76,2.46v2.73a1.4,1.4,0,0,0,.25,1,1.5,1.5,0,0,0,1,.31v0.83h-4.28V287a1.5,1.5,0,0,0,1-.31,1.4,1.4,0,0,0,.25-1V280.5a1.25,1.25,0,0,0-.21-0.88,1.48,1.48,0,0,0-.92-0.19v-0.84a12.14,12.14,0,0,0,1.41-.12,15,15,0,0,0,1.51-.3v2.25a5.61,5.61,0,0,1,1.53-1.69,3,3,0,0,1,1.75-.56,2.18,2.18,0,0,1,1.58.58,2.78,2.78,0,0,1,.76,1.67,5.8,5.8,0,0,1,1.52-1.69,3,3,0,0,1,1.74-.56,2,2,0,0,1,1.87.93,6.05,6.05,0,0,1,.58,3v3.59a1,1,0,0,0,1.08,1.27v0.83h-4.16V287a1.5,1.5,0,0,0,1-.31,1.4,1.4,0,0,0,.25-1v-4a3.65,3.65,0,0,0-.29-1.7,1,1,0,0,0-1-.5,2.19,2.19,0,0,0-1.75,1A3.94,3.94,0,0,0,402,283v0Z"/><path class="cls-3" d="M413.94,288.12a3.8,3.8,0,0,1-3-1.4,5.31,5.31,0,0,1-1.19-3.57,5.39,5.39,0,0,1,1.17-3.6,4,4,0,0,1,6.07,0,5.38,5.38,0,0,1,1.18,3.6,5.31,5.31,0,0,1-1.19,3.57A3.79,3.79,0,0,1,413.94,288.12Zm0-.89a1.61,1.61,0,0,0,1.5-1,7.11,7.11,0,0,0,.51-3,7.2,7.2,0,0,0-.51-3.07,1.61,1.61,0,0,0-3,0,7.25,7.25,0,0,0-.51,3.07,7.16,7.16,0,0,0,.51,3A1.61,1.61,0,0,0,413.94,287.23Z"/><path class="cls-3" d="M422.08,280.31a5.42,5.42,0,0,1,1.32-1.63,2.43,2.43,0,0,1,1.5-.51,2,2,0,0,1,1.34.46,1.45,1.45,0,0,1,.53,1.14,1.48,1.48,0,0,1-.35,1,1.21,1.21,0,0,1-.94.39,1.05,1.05,0,0,1-.74-0.28,0.9,0.9,0,0,1-.3-0.69q0-.09,0-0.13a0.56,0.56,0,0,1,0-.08l0.07-.36,0-.07a0.38,0.38,0,0,0,0-.07,0.24,0.24,0,0,0-.07-0.19,0.32,0.32,0,0,0-.22-0.07,1,1,0,0,0-.6.26,3.49,3.49,0,0,0-.66.73,4.48,4.48,0,0,0-.63,1.26,5.09,5.09,0,0,0-.2,1.49v2.73a1.4,1.4,0,0,0,.27,1,1.27,1.27,0,0,0,.93.28h0.47v0.83h-4.75V287a1.5,1.5,0,0,0,1-.31,1.4,1.4,0,0,0,.25-1V280.5a1.25,1.25,0,0,0-.21-0.88,1.48,1.48,0,0,0-.92-0.19v-0.84a12.14,12.14,0,0,0,1.41-.12,15,15,0,0,0,1.51-.3v2.14Z"/><path class="cls-3" d="M429.35,283.08a5,5,0,0,0,.73,2.87,2.31,2.31,0,0,0,2,1,2.79,2.79,0,0,0,1.57-.48A5,5,0,0,0,435,285l0.79,0.45a5.12,5.12,0,0,1-1.71,2,4.38,4.38,0,0,1-2.41.65,4.13,4.13,0,0,1-3.23-1.37,5.18,5.18,0,0,1-1.23-3.59,5.33,5.33,0,0,1,1.2-3.6,3.88,3.88,0,0,1,3.08-1.39,3.81,3.81,0,0,1,3,1.26,5.08,5.08,0,0,1,1.1,3.46v0.19h-6.28Zm0-.87h4.11s0-.09,0-0.16,0-.13,0-0.16a3.48,3.48,0,0,0-.55-2.07,1.73,1.73,0,0,0-1.48-.77,1.75,1.75,0,0,0-1.52.84A4.16,4.16,0,0,0,429.36,282.21Z"/><path class="cls-3" d="M444.13,285.74a1.34,1.34,0,0,0,.29,1,1.54,1.54,0,0,0,1,.27h0.4v0.83h-4.81V287a1.5,1.5,0,0,0,1-.31,1.4,1.4,0,0,0,.25-1v-5.86h-1.34V279h1.38v-0.16a7.08,7.08,0,0,1,.74-3.62,2.43,2.43,0,0,1,2.21-1.22,2.06,2.06,0,0,1,1.4.46,1.52,1.52,0,0,1,.53,1.2,1.1,1.1,0,0,1-.28.77,0.92,0.92,0,0,1-.71.3,0.93,0.93,0,0,1-.64-0.22,0.71,0.71,0,0,1-.25-0.55,0.76,0.76,0,0,1,0-.27,0.74,0.74,0,0,1,.12-0.22l0.23-.29a0.26,0.26,0,0,0,.07-0.09,0.25,0.25,0,0,0,0-.1,0.24,0.24,0,0,0-.13-0.21,0.6,0.6,0,0,0-.33-0.08,1,1,0,0,0-.93.52,4.23,4.23,0,0,0-.28,1.82v2h2.07v0.89h-2.07v5.86Z"/><path class="cls-3" d="M452.63,286.51a7,7,0,0,1-1.69,1.23,3.71,3.71,0,0,1-1.63.38,2.8,2.8,0,0,1-2-.67,2.24,2.24,0,0,1-.75-1.74,2.66,2.66,0,0,1,1.42-2.41,10.63,10.63,0,0,1,4.43-1.08v-1a2.7,2.7,0,0,0-.46-1.72,1.72,1.72,0,0,0-1.41-.57,2.44,2.44,0,0,0-.92.15,0.46,0.46,0,0,0-.36.36,0.14,0.14,0,0,0,0,0v0l0.22,0.4a0.81,0.81,0,0,1,.08.22,1.35,1.35,0,0,1,0,.28,1,1,0,0,1-.34.74,1.25,1.25,0,0,1-.86.3,1.12,1.12,0,0,1-.83-0.3,1.09,1.09,0,0,1-.31-0.81,1.81,1.81,0,0,1,.95-1.57,4.6,4.6,0,0,1,2.5-.61,3.94,3.94,0,0,1,2.68.79,3,3,0,0,1,.89,2.37v4.95a0.62,0.62,0,0,0,.07.36,0.3,0.3,0,0,0,.25.09,0.69,0.69,0,0,0,.33-0.15,0.68,0.68,0,0,1,.33-0.15,0.29,0.29,0,0,1,.25.11,0.51,0.51,0,0,1,.08.31,1.11,1.11,0,0,1-.49.83,1.65,1.65,0,0,1-1.08.4,1.19,1.19,0,0,1-.91-0.37A2.58,2.58,0,0,1,452.63,286.51Zm-0.16-3.43a7.46,7.46,0,0,0-2.89.73,1.64,1.64,0,0,0-.91,1.47,1.38,1.38,0,0,0,.41,1,1.55,1.55,0,0,0,1.12.39,2,2,0,0,0,1.71-.76,3.67,3.67,0,0,0,.58-2.24c0-.18,0-0.31,0-0.4S452.48,283.16,452.48,283.08Z"/><path class="cls-3" d="M465,285.74a1.37,1.37,0,0,0,.25,1,1.54,1.54,0,0,0,1,.31v0.83h-4.3V287a1.5,1.5,0,0,0,1-.31,1.4,1.4,0,0,0,.25-1v-4a3.67,3.67,0,0,0-.29-1.7,1,1,0,0,0-1-.5,2.17,2.17,0,0,0-1.74,1,4,4,0,0,0-.76,2.46v2.73a1.4,1.4,0,0,0,.25,1,1.5,1.5,0,0,0,1,.31v0.83h-4.28V287a1.5,1.5,0,0,0,1-.31,1.4,1.4,0,0,0,.25-1V280.5a1.25,1.25,0,0,0-.21-0.88,1.48,1.48,0,0,0-.92-0.19v-0.84a12.12,12.12,0,0,0,1.41-.12,15,15,0,0,0,1.51-.3v2.25a5.61,5.61,0,0,1,1.53-1.69,3,3,0,0,1,1.75-.56,2.18,2.18,0,0,1,1.58.58,2.78,2.78,0,0,1,.76,1.67,5.81,5.81,0,0,1,1.52-1.69,3,3,0,0,1,1.74-.56,2,2,0,0,1,1.87.93,6,6,0,0,1,.58,3v3.59A1,1,0,0,0,471.7,287v0.83h-4.16V287a1.5,1.5,0,0,0,1-.31,1.4,1.4,0,0,0,.25-1v-4a3.64,3.64,0,0,0-.29-1.7,1,1,0,0,0-1-.5,2.19,2.19,0,0,0-1.75,1A3.94,3.94,0,0,0,465,283v0Z"/><path class="cls-3" d="M475.6,285.74a1.4,1.4,0,0,0,.25,1,1.5,1.5,0,0,0,1,.31v0.83h-4.28V287a1.49,1.49,0,0,0,1-.31,1.41,1.41,0,0,0,.24-1V280.5a1.26,1.26,0,0,0-.21-0.88,1.45,1.45,0,0,0-.91-0.19v-0.84a12.84,12.84,0,0,0,1.45-.12,13.85,13.85,0,0,0,1.54-.3v7.58Zm-2.29-10.55a1.17,1.17,0,0,1,.35-0.84,1.13,1.13,0,0,1,.83-0.36,1.21,1.21,0,1,1,0,2.42,1.13,1.13,0,0,1-.84-0.35A1.19,1.19,0,0,1,473.31,275.19Z"/><path class="cls-3" d="M478.76,276.34a1.33,1.33,0,0,0-.21-0.9,1.42,1.42,0,0,0-.91-0.2v-0.83a10.77,10.77,0,0,0,1.4-.11q0.73-.11,1.58-0.32v11.75a1.4,1.4,0,0,0,.25,1,1.5,1.5,0,0,0,1,.31v0.83h-4.28V287a1.5,1.5,0,0,0,1-.31,1.42,1.42,0,0,0,.24-1v-9.4Z"/><path class="cls-3" d="M485.67,285.74a1.4,1.4,0,0,0,.25,1,1.5,1.5,0,0,0,1,.31v0.83H482.6V287a1.49,1.49,0,0,0,1-.31,1.41,1.41,0,0,0,.24-1V280.5a1.26,1.26,0,0,0-.21-0.88,1.45,1.45,0,0,0-.91-0.19v-0.84a12.84,12.84,0,0,0,1.45-.12,13.85,13.85,0,0,0,1.54-.3v7.58Zm-2.29-10.55a1.17,1.17,0,0,1,.35-0.84,1.13,1.13,0,0,1,.83-0.36,1.21,1.21,0,1,1,0,2.42,1.13,1.13,0,0,1-.84-0.35A1.19,1.19,0,0,1,483.39,275.19Z"/><path class="cls-3" d="M493.71,286.51a7,7,0,0,1-1.69,1.23,3.71,3.71,0,0,1-1.63.38,2.8,2.8,0,0,1-2-.67,2.24,2.24,0,0,1-.75-1.74,2.66,2.66,0,0,1,1.42-2.41,10.63,10.63,0,0,1,4.43-1.08v-1a2.7,2.7,0,0,0-.46-1.72,1.72,1.72,0,0,0-1.41-.57,2.44,2.44,0,0,0-.92.15,0.46,0.46,0,0,0-.36.36,0.14,0.14,0,0,0,0,0v0l0.22,0.4a0.81,0.81,0,0,1,.08.22,1.35,1.35,0,0,1,0,.28,1,1,0,0,1-.34.74,1.25,1.25,0,0,1-.86.3,1.12,1.12,0,0,1-.83-0.3,1.09,1.09,0,0,1-.31-0.81,1.81,1.81,0,0,1,.95-1.57,4.6,4.6,0,0,1,2.5-.61,3.94,3.94,0,0,1,2.68.79,3,3,0,0,1,.89,2.37v4.95a0.62,0.62,0,0,0,.07.36,0.3,0.3,0,0,0,.25.09,0.69,0.69,0,0,0,.33-0.15,0.68,0.68,0,0,1,.33-0.15,0.29,0.29,0,0,1,.25.11,0.51,0.51,0,0,1,.08.31,1.11,1.11,0,0,1-.49.83,1.65,1.65,0,0,1-1.08.4,1.19,1.19,0,0,1-.91-0.37A2.58,2.58,0,0,1,493.71,286.51Zm-0.16-3.43a7.46,7.46,0,0,0-2.89.73,1.64,1.64,0,0,0-.91,1.47,1.38,1.38,0,0,0,.41,1,1.55,1.55,0,0,0,1.12.39A2,2,0,0,0,493,286a3.67,3.67,0,0,0,.58-2.24c0-.18,0-0.31,0-0.4S493.56,283.16,493.56,283.08Z"/><path class="cls-3" d="M500.38,280.31a5.42,5.42,0,0,1,1.32-1.63,2.43,2.43,0,0,1,1.5-.51,2,2,0,0,1,1.34.46,1.45,1.45,0,0,1,.53,1.14,1.48,1.48,0,0,1-.35,1,1.21,1.21,0,0,1-.94.39,1.05,1.05,0,0,1-.74-0.28,0.9,0.9,0,0,1-.3-0.69c0-.06,0-0.1,0-0.13a0.73,0.73,0,0,1,0-.08l0.07-.36,0-.07a0.3,0.3,0,0,0,0-.07,0.24,0.24,0,0,0-.08-0.19,0.32,0.32,0,0,0-.21-0.07,1,1,0,0,0-.6.26,3.46,3.46,0,0,0-.66.73,4.51,4.51,0,0,0-.63,1.26,5.12,5.12,0,0,0-.2,1.49v2.73a1.4,1.4,0,0,0,.27,1,1.27,1.27,0,0,0,.93.28h0.47v0.83h-4.75V287a1.5,1.5,0,0,0,1-.31,1.4,1.4,0,0,0,.25-1V280.5a1.25,1.25,0,0,0-.21-0.88,1.48,1.48,0,0,0-.92-0.19v-0.84a12.12,12.12,0,0,0,1.41-.12,15,15,0,0,0,1.51-.3v2.14Z"/><path class="cls-3" d="M503.67,290.73a5.4,5.4,0,0,0,1.29-1.26,2.22,2.22,0,0,0,.46-1.24q0-.25-0.39-0.27a2.06,2.06,0,0,1-.45-0.07,1.14,1.14,0,0,1-.59-0.4,1.09,1.09,0,0,1-.22-0.68,1.2,1.2,0,0,1,.33-0.87,1.13,1.13,0,0,1,.84-0.34,1.29,1.29,0,0,1,1.08.55,2.35,2.35,0,0,1,.41,1.45,3.49,3.49,0,0,1-.59,1.92,6.62,6.62,0,0,1-1.76,1.76Z"/><path class="cls-3" d="M374.7,305.58a5.69,5.69,0,0,1-1.82,3.07,4.81,4.81,0,0,1-3.18,1.09,5.55,5.55,0,0,1-2.17-.42,5.2,5.2,0,0,1-1.78-1.24,6.67,6.67,0,0,1-1.41-2.31,9.09,9.09,0,0,1,0-5.81,6.4,6.4,0,0,1,1.42-2.28,5.45,5.45,0,0,1,1.77-1.27,5.13,5.13,0,0,1,2.09-.43,3.83,3.83,0,0,1,.83.1,8.61,8.61,0,0,1,1.11.35l0.46,0.19a2.45,2.45,0,0,0,.82.24,0.42,0.42,0,0,0,.36-0.21,1.73,1.73,0,0,0,.2-0.66h0.9l0.11,5.08h-0.91A6.21,6.21,0,0,0,372.1,298a3.14,3.14,0,0,0-2.4-1.08,2.69,2.69,0,0,0-2.5,1.49,9.32,9.32,0,0,0-.83,4.44,8.25,8.25,0,0,0,.91,4.32,3,3,0,0,0,2.68,1.47,3.23,3.23,0,0,0,2.21-.85,6.33,6.33,0,0,0,1.6-2.52Z"/><path class="cls-3" d="M376.74,309.68l-0.34-4.88h1a7.29,7.29,0,0,0,1.75,2.89,3.4,3.4,0,0,0,2.39,1,2.42,2.42,0,0,0,1.7-.62,2.05,2.05,0,0,0,.67-1.58,1.91,1.91,0,0,0-.41-1.26,3.54,3.54,0,0,0-1.37-.91l-2.36-1a5.69,5.69,0,0,1-2.26-1.55,3.34,3.34,0,0,1-.73-2.16,3.43,3.43,0,0,1,1.09-2.63,4,4,0,0,1,2.83-1,5,5,0,0,1,1.73.34,5.55,5.55,0,0,0,1.1.34,0.28,0.28,0,0,0,.25-0.16,1.55,1.55,0,0,0,.15-0.53h0.91l0.22,4.17h-0.9a5.55,5.55,0,0,0-1.34-2.4,2.84,2.84,0,0,0-2-.78,2.4,2.4,0,0,0-1.65.56,1.85,1.85,0,0,0-.64,1.45,1.66,1.66,0,0,0,.36,1.09,2.93,2.93,0,0,0,1.17.77l2.39,1a6,6,0,0,1,2.46,1.65,3.66,3.66,0,0,1,.79,2.37,3.7,3.7,0,0,1-1.14,2.77,3.94,3.94,0,0,1-2.86,1.1,5.33,5.33,0,0,1-1.08-.11,4.39,4.39,0,0,1-.95-0.31l-0.4-.18a3.61,3.61,0,0,0-.91-0.34,0.53,0.53,0,0,0-.44.23,1.46,1.46,0,0,0-.25.66h-0.86Z"/><path class="cls-3" d="M387.49,309.68l-0.34-4.88h1a7.29,7.29,0,0,0,1.75,2.89,3.4,3.4,0,0,0,2.39,1,2.42,2.42,0,0,0,1.7-.62,2.05,2.05,0,0,0,.67-1.58,1.91,1.91,0,0,0-.41-1.26,3.54,3.54,0,0,0-1.37-.91l-2.36-1a5.69,5.69,0,0,1-2.26-1.55,3.34,3.34,0,0,1-.73-2.16,3.43,3.43,0,0,1,1.09-2.63,4,4,0,0,1,2.83-1,5,5,0,0,1,1.73.34,5.55,5.55,0,0,0,1.1.34,0.28,0.28,0,0,0,.25-0.16,1.55,1.55,0,0,0,.15-0.53h0.91l0.22,4.17h-0.9a5.55,5.55,0,0,0-1.34-2.4,2.84,2.84,0,0,0-2-.78,2.4,2.4,0,0,0-1.65.56,1.85,1.85,0,0,0-.64,1.45,1.66,1.66,0,0,0,.36,1.09,2.93,2.93,0,0,0,1.17.77l2.39,1a6,6,0,0,1,2.46,1.65,3.66,3.66,0,0,1,.79,2.37,3.7,3.7,0,0,1-1.14,2.77,3.94,3.94,0,0,1-2.86,1.1,5.33,5.33,0,0,1-1.08-.11,4.39,4.39,0,0,1-.95-0.31l-0.4-.18a3.61,3.61,0,0,0-.91-0.34,0.53,0.53,0,0,0-.44.23,1.46,1.46,0,0,0-.25.66h-0.86Z"/><path class="cls-3" d="M397.7,305.27V304h4.5v1.26h-4.5Z"/><path class="cls-3" d="M403.62,309.59v-3.52h0.84a6.62,6.62,0,0,0,1.43,2.13,2.49,2.49,0,0,0,1.71.65,1.71,1.71,0,0,0,1.19-.42,1.35,1.35,0,0,0,.47-1,1.25,1.25,0,0,0-.31-0.88,3.75,3.75,0,0,0-1.29-.72l-0.53-.2a15.07,15.07,0,0,1-2.19-1,3,3,0,0,1-.93-0.93,2.33,2.33,0,0,1-.28-1.18,2.6,2.6,0,0,1,.79-2,2.77,2.77,0,0,1,2-.76,4,4,0,0,1,1.52.33,6.51,6.51,0,0,0,.87.33,0.42,0.42,0,0,0,.32-0.14,0.77,0.77,0,0,0,.18-0.39h0.77v2.89h-0.89a4.13,4.13,0,0,0-1.11-1.61,2.23,2.23,0,0,0-1.47-.57,1.62,1.62,0,0,0-1.06.36,1.1,1.1,0,0,0-.43.88,1.16,1.16,0,0,0,.34.86,5.43,5.43,0,0,0,1.61.83l0.29,0.11a11.33,11.33,0,0,1,2.17,1,2.3,2.3,0,0,1,.82.92,2.79,2.79,0,0,1,.28,1.26,2.72,2.72,0,0,1-.87,2.06,3,3,0,0,1-2.17.83,4.18,4.18,0,0,1-1.71-.4,8.1,8.1,0,0,0-1-.4,0.47,0.47,0,0,0-.37.18,0.94,0.94,0,0,0-.19.48h-0.84Z"/><path class="cls-3" d="M413,300.88H412v-0.83a3.27,3.27,0,0,0,1.23-1.3,9.3,9.3,0,0,0,.87-2.41h0.83v3.71h2.34v0.83H414.9v6.3a2,2,0,0,0,.2,1,0.68,0.68,0,0,0,.63.32,0.93,0.93,0,0,0,.79-0.44,2.79,2.79,0,0,0,.42-1.26h0.81a3.36,3.36,0,0,1-.68,2.17,2.31,2.31,0,0,1-1.85.75,2,2,0,0,1-1.67-.69,3.78,3.78,0,0,1-.51-2.23v-5.92Z"/><path class="cls-3" d="M422,309.17l-2.87-6.75-0.12-.3a1.67,1.67,0,0,0-1.29-1.23v-0.84h4.17v0.84a1.84,1.84,0,0,0-.75.14,0.41,0.41,0,0,0-.22.39,0.89,0.89,0,0,0,0,.18,1,1,0,0,0,.05.18l2,5.08,1.87-4.71a1,1,0,0,0,.09-0.25,1.39,1.39,0,0,0,0-.27,0.56,0.56,0,0,0-.26-0.51,2.12,2.12,0,0,0-.91-0.21v-0.84h3.51v0.84a1.38,1.38,0,0,0-.78.36,3.12,3.12,0,0,0-.61,1l-3.09,7.47a10.05,10.05,0,0,1-1.66,2.94,2.45,2.45,0,0,1-1.83.82,2.09,2.09,0,0,1-1.41-.46,1.51,1.51,0,0,1-.53-1.2,1.31,1.31,0,0,1,.36-1,1.27,1.27,0,0,1,.95-0.36,1.15,1.15,0,0,1,.83.3,1.07,1.07,0,0,1,.32.81,1.16,1.16,0,0,1-.09.41,1.33,1.33,0,0,0-.09.27,0.2,0.2,0,0,0,.07.14,0.22,0.22,0,0,0,.16.07,1.71,1.71,0,0,0,1.05-.95A9.29,9.29,0,0,0,422,309.17Z"/><path class="cls-3" d="M428.63,297.94a1.33,1.33,0,0,0-.21-0.9,1.42,1.42,0,0,0-.91-0.2V296a10.77,10.77,0,0,0,1.4-.11q0.73-.11,1.58-0.32v11.75a1.4,1.4,0,0,0,.25,1,1.5,1.5,0,0,0,1,.31v0.83h-4.28V308.6a1.5,1.5,0,0,0,1-.31,1.41,1.41,0,0,0,.24-1v-9.4Z"/><path class="cls-3" d="M434.77,304.68a5,5,0,0,0,.73,2.87,2.31,2.31,0,0,0,2,1,2.79,2.79,0,0,0,1.57-.48,5,5,0,0,0,1.37-1.45l0.79,0.45a5.12,5.12,0,0,1-1.71,2,4.38,4.38,0,0,1-2.41.65,4.13,4.13,0,0,1-3.23-1.37,5.18,5.18,0,0,1-1.23-3.59,5.33,5.33,0,0,1,1.2-3.6,3.88,3.88,0,0,1,3.08-1.39,3.81,3.81,0,0,1,3,1.26,5.08,5.08,0,0,1,1.1,3.46v0.19h-6.28Zm0-.87h4.11s0-.09,0-0.16,0-.13,0-0.16a3.48,3.48,0,0,0-.55-2.07,1.8,1.8,0,0,0-3,.08A4.16,4.16,0,0,0,434.77,303.81Z"/><path class="cls-3" d="M446.94,309.59v-3.52h0.84a6.62,6.62,0,0,0,1.43,2.13,2.49,2.49,0,0,0,1.71.65,1.71,1.71,0,0,0,1.19-.42,1.35,1.35,0,0,0,.47-1,1.26,1.26,0,0,0-.31-0.88,3.76,3.76,0,0,0-1.29-.72l-0.53-.2a15.07,15.07,0,0,1-2.19-1,3,3,0,0,1-.93-0.93,2.33,2.33,0,0,1-.28-1.18,2.6,2.6,0,0,1,.79-2,2.77,2.77,0,0,1,2-.76,4,4,0,0,1,1.52.33,6.55,6.55,0,0,0,.88.33,0.42,0.42,0,0,0,.32-0.14,0.77,0.77,0,0,0,.18-0.39h0.77v2.89h-0.89a4.13,4.13,0,0,0-1.11-1.61,2.23,2.23,0,0,0-1.47-.57,1.62,1.62,0,0,0-1.06.36,1.1,1.1,0,0,0-.43.88,1.16,1.16,0,0,0,.34.86,5.43,5.43,0,0,0,1.61.83l0.29,0.11a11.33,11.33,0,0,1,2.17,1,2.3,2.3,0,0,1,.82.92,2.79,2.79,0,0,1,.28,1.26,2.72,2.72,0,0,1-.87,2.06,3,3,0,0,1-2.17.83,4.18,4.18,0,0,1-1.71-.4,8.1,8.1,0,0,0-1-.4,0.47,0.47,0,0,0-.37.18,0.94,0.94,0,0,0-.19.48h-0.84Z"/><path class="cls-3" d="M459,309.17l-2.87-6.75-0.12-.3a1.67,1.67,0,0,0-1.29-1.23v-0.84h4.17v0.84a1.84,1.84,0,0,0-.75.14,0.41,0.41,0,0,0-.22.39,0.89,0.89,0,0,0,0,.18,1,1,0,0,0,.05.18l2,5.08,1.87-4.71a1,1,0,0,0,.09-0.25,1.39,1.39,0,0,0,0-.27,0.56,0.56,0,0,0-.26-0.51,2.11,2.11,0,0,0-.91-0.21v-0.84h3.51v0.84a1.38,1.38,0,0,0-.78.36,3.12,3.12,0,0,0-.61,1l-3.09,7.47a10.08,10.08,0,0,1-1.66,2.94,2.45,2.45,0,0,1-1.83.82,2.09,2.09,0,0,1-1.41-.46,1.51,1.51,0,0,1-.53-1.2,1.31,1.31,0,0,1,.36-1,1.27,1.27,0,0,1,.95-0.36,1.15,1.15,0,0,1,.83.3,1.07,1.07,0,0,1,.32.81,1.16,1.16,0,0,1-.09.41,1.33,1.33,0,0,0-.09.27,0.2,0.2,0,0,0,.07.14,0.22,0.22,0,0,0,.16.07,1.72,1.72,0,0,0,1.05-.95A9.33,9.33,0,0,0,459,309.17Z"/><path class="cls-3" d="M467.45,304.6v2.73a1.4,1.4,0,0,0,.25,1,1.5,1.5,0,0,0,1,.31v0.83h-4.28V308.6a1.5,1.5,0,0,0,1-.31,1.4,1.4,0,0,0,.25-1V302.1a1.25,1.25,0,0,0-.21-0.88,1.48,1.48,0,0,0-.92-0.19v-0.84a12.12,12.12,0,0,0,1.41-.12,15,15,0,0,0,1.51-.3V302a5.61,5.61,0,0,1,1.53-1.69,3,3,0,0,1,1.75-.56,2,2,0,0,1,1.85.93,6.09,6.09,0,0,1,.57,3.05v3.59a1.41,1.41,0,0,0,.22.91,1.45,1.45,0,0,0,.88.35v0.83H470V308.6a1.5,1.5,0,0,0,1-.31,1.4,1.4,0,0,0,.25-1v-4a3.67,3.67,0,0,0-.29-1.7,1,1,0,0,0-1-.5,2.17,2.17,0,0,0-1.74,1A4,4,0,0,0,467.45,304.6Z"/><path class="cls-3" d="M476.09,300.88H475v-0.83a3.27,3.27,0,0,0,1.23-1.3,9.26,9.26,0,0,0,.88-2.41H478v3.71h2.34v0.83H478v6.3a2,2,0,0,0,.2,1,0.69,0.69,0,0,0,.63.32,0.94,0.94,0,0,0,.79-0.44,2.8,2.8,0,0,0,.42-1.26h0.81a3.37,3.37,0,0,1-.68,2.17,2.32,2.32,0,0,1-1.85.75,1.94,1.94,0,0,1-1.67-.69,3.77,3.77,0,0,1-.51-2.23v-5.92Z"/><path class="cls-3" d="M487.41,308.11a7,7,0,0,1-1.69,1.23,3.71,3.71,0,0,1-1.63.38,2.8,2.8,0,0,1-2-.67,2.24,2.24,0,0,1-.75-1.74,2.66,2.66,0,0,1,1.42-2.41,10.65,10.65,0,0,1,4.43-1.08v-1a2.68,2.68,0,0,0-.46-1.72,1.71,1.71,0,0,0-1.41-.57,2.43,2.43,0,0,0-.92.15,0.46,0.46,0,0,0-.37.36,0.26,0.26,0,0,0,0,0v0l0.22,0.4a0.81,0.81,0,0,1,.08.22,1.35,1.35,0,0,1,0,.28,1,1,0,0,1-.34.74,1.25,1.25,0,0,1-.86.3,1.12,1.12,0,0,1-.83-0.3,1.09,1.09,0,0,1-.31-0.81,1.81,1.81,0,0,1,.95-1.57,4.6,4.6,0,0,1,2.5-.61,3.94,3.94,0,0,1,2.68.79,3,3,0,0,1,.89,2.37v4.95a0.62,0.62,0,0,0,.07.36,0.3,0.3,0,0,0,.25.09,0.68,0.68,0,0,0,.33-0.15,0.69,0.69,0,0,1,.33-0.15,0.29,0.29,0,0,1,.25.11,0.51,0.51,0,0,1,.08.31,1.11,1.11,0,0,1-.49.83,1.65,1.65,0,0,1-1.08.4,1.2,1.2,0,0,1-.91-0.37A2.58,2.58,0,0,1,487.41,308.11Zm-0.16-3.43a7.48,7.48,0,0,0-2.89.73,1.64,1.64,0,0,0-.91,1.47,1.38,1.38,0,0,0,.41,1,1.55,1.55,0,0,0,1.12.39,2,2,0,0,0,1.71-.76,3.67,3.67,0,0,0,.58-2.24c0-.18,0-0.31,0-0.4S487.26,304.76,487.25,304.68Z"/><path class="cls-3" d="M490.76,309.43V308.6a3,3,0,0,0,1.06-.5,8.25,8.25,0,0,0,1.31-1.39l1.46-1.82-2-2.59a5.17,5.17,0,0,0-.95-1,2.3,2.3,0,0,0-.92-0.4v-0.83H495v0.83a1.78,1.78,0,0,0-.6.1,0.26,0.26,0,0,0-.18.25,0.38,0.38,0,0,0,0,.16,1,1,0,0,0,.13.2l1.4,1.89L497,302a1.94,1.94,0,0,0,.23-0.35,0.63,0.63,0,0,0,.07-0.26,0.36,0.36,0,0,0-.2-0.34,1.94,1.94,0,0,0-.75-0.12v-0.83H500v0.83a2.28,2.28,0,0,0-.89.31,4.21,4.21,0,0,0-.92.88l-1.8,2.2,2.43,3.21a3.74,3.74,0,0,0,.8.81,2.29,2.29,0,0,0,.79.32v0.83h-4.41V308.6a2,2,0,0,0,.72-0.16,0.36,0.36,0,0,0,.21-0.33,0.58,0.58,0,0,0,0-.17,0.41,0.41,0,0,0-.08-0.15l-1.6-2.11-1.6,2a0.93,0.93,0,0,0-.16.26,0.65,0.65,0,0,0-.06.25,0.34,0.34,0,0,0,.25.31,2.46,2.46,0,0,0,.81.14v0.83h-3.66Z"/><path class="cls-4" d="M667,277a1.58,1.58,0,0,0-.47-1,2.28,2.28,0,0,0-1.22-.4v-0.91h5v0.91a2.78,2.78,0,0,0-1.07.25,0.59,0.59,0,0,0-.29.54,1.18,1.18,0,0,0,.06.33l0.09,0.29,2,7.63,1.87-7.19c0-.1,0-0.2.08-0.29l0-.15a0.4,0.4,0,0,1,0-.08,2,2,0,0,0,.05-0.44,0.67,0.67,0,0,0-.3-0.6,2.63,2.63,0,0,0-1.08-.29v-0.91h3.94v0.91a2.09,2.09,0,0,0-1,.62,2.89,2.89,0,0,0-.6,1.16l-3,10.73H670l-2.49-8.95-2.46,8.95H664l-3.17-10.94a2.55,2.55,0,0,0-.55-1.1,2.08,2.08,0,0,0-1-.47v-0.91h4.94v0.91a2.78,2.78,0,0,0-1.07.25,0.59,0.59,0,0,0-.29.54,1.57,1.57,0,0,0,.09.41l0.05,0.19,2.06,7.64Z"/><path class="cls-4" d="M677.81,280.31a5.42,5.42,0,0,1,1.32-1.63,2.43,2.43,0,0,1,1.5-.51,2,2,0,0,1,1.34.46,1.45,1.45,0,0,1,.53,1.14,1.48,1.48,0,0,1-.35,1,1.21,1.21,0,0,1-.94.39,1.05,1.05,0,0,1-.74-0.28,0.9,0.9,0,0,1-.3-0.69c0-.06,0-0.1,0-0.13a0.55,0.55,0,0,1,0-.08l0.07-.36,0-.07a0.37,0.37,0,0,0,0-.07,0.24,0.24,0,0,0-.08-0.19,0.32,0.32,0,0,0-.21-0.07,1,1,0,0,0-.6.26,3.49,3.49,0,0,0-.66.73,4.48,4.48,0,0,0-.63,1.26,5.09,5.09,0,0,0-.2,1.49v2.73a1.4,1.4,0,0,0,.27,1,1.27,1.27,0,0,0,.93.28h0.47v0.83h-4.75V287a1.5,1.5,0,0,0,1-.31,1.4,1.4,0,0,0,.25-1V280.5a1.25,1.25,0,0,0-.21-0.88,1.48,1.48,0,0,0-.92-0.19v-0.84a12.13,12.13,0,0,0,1.41-.12,15,15,0,0,0,1.51-.3v2.14Z"/><path class="cls-4" d="M685.85,285.74a1.4,1.4,0,0,0,.25,1,1.5,1.5,0,0,0,1,.31v0.83h-4.28V287a1.49,1.49,0,0,0,1-.31,1.41,1.41,0,0,0,.24-1V280.5a1.26,1.26,0,0,0-.21-0.88,1.45,1.45,0,0,0-.91-0.19v-0.84a12.84,12.84,0,0,0,1.45-.12,13.85,13.85,0,0,0,1.54-.3v7.58Zm-2.29-10.55a1.17,1.17,0,0,1,.35-0.84,1.13,1.13,0,0,1,.83-0.36,1.21,1.21,0,1,1,0,2.42,1.13,1.13,0,0,1-.84-0.35A1.19,1.19,0,0,1,683.56,275.19Z"/><path class="cls-4" d="M688.91,279.28h-1.06v-0.83a3.27,3.27,0,0,0,1.23-1.3,9.3,9.3,0,0,0,.88-2.41h0.83v3.71h2.34v0.83h-2.34v6.3a2,2,0,0,0,.2,1,0.69,0.69,0,0,0,.63.32,0.93,0.93,0,0,0,.79-0.44,2.79,2.79,0,0,0,.42-1.26h0.81a3.36,3.36,0,0,1-.68,2.17,2.31,2.31,0,0,1-1.85.75,2,2,0,0,1-1.67-.69,3.78,3.78,0,0,1-.51-2.23v-5.92Z"/><path class="cls-4" d="M696.45,283.08a5,5,0,0,0,.73,2.87,2.31,2.31,0,0,0,2,1,2.8,2.8,0,0,0,1.57-.48,5,5,0,0,0,1.37-1.45l0.79,0.45a5.11,5.11,0,0,1-1.71,2,4.38,4.38,0,0,1-2.41.65,4.13,4.13,0,0,1-3.23-1.37,5.18,5.18,0,0,1-1.23-3.59,5.33,5.33,0,0,1,1.2-3.6,3.88,3.88,0,0,1,3.08-1.39,3.81,3.81,0,0,1,3,1.26,5.08,5.08,0,0,1,1.1,3.46v0.19h-6.28Zm0-.87h4.11s0-.09,0-0.16,0-.13,0-0.16a3.48,3.48,0,0,0-.55-2.07,1.73,1.73,0,0,0-1.48-.77,1.75,1.75,0,0,0-1.53.84A4.16,4.16,0,0,0,696.46,282.21Z"/><path class="cls-4" d="M712.53,288.12h-0.87L709,280.83h0a1.9,1.9,0,0,0-1.33-1.52l0-.84h3.88v0.84a1.64,1.64,0,0,0-.69.13,0.4,0.4,0,0,0-.2.38,1.57,1.57,0,0,0,0,.22,0.79,0.79,0,0,0,0,.16l1.87,5.18,1.53-4.44a2.91,2.91,0,0,0-.48-1.22,1.19,1.19,0,0,0-.84-0.4l0-.84h4l0,0.84a2.05,2.05,0,0,0-.8.14,0.41,0.41,0,0,0-.23.39,1.2,1.2,0,0,0,0,.17,1.21,1.21,0,0,0,0,.18l1.61,5.19,1.72-4.64a2.53,2.53,0,0,0,.13-0.37,1.31,1.31,0,0,0,0-.31,0.59,0.59,0,0,0-.25-0.52,1.79,1.79,0,0,0-.85-0.22l0-.84h3.33v0.84a1.37,1.37,0,0,0-.77.37,2.76,2.76,0,0,0-.54,1l-2.87,7.47h-1l-1.73-5.84Z"/><path class="cls-4" d="M727.81,286.51a7,7,0,0,1-1.69,1.23,3.71,3.71,0,0,1-1.63.38,2.8,2.8,0,0,1-2-.67,2.24,2.24,0,0,1-.75-1.74,2.66,2.66,0,0,1,1.42-2.41,10.64,10.64,0,0,1,4.43-1.08v-1a2.69,2.69,0,0,0-.46-1.72,1.71,1.71,0,0,0-1.41-.57,2.44,2.44,0,0,0-.92.15,0.46,0.46,0,0,0-.36.36,0.19,0.19,0,0,0,0,0v0l0.22,0.4a0.81,0.81,0,0,1,.08.22,1.35,1.35,0,0,1,0,.28,1,1,0,0,1-.34.74,1.25,1.25,0,0,1-.86.3,1.12,1.12,0,0,1-.83-0.3,1.09,1.09,0,0,1-.31-0.81,1.81,1.81,0,0,1,.95-1.57,4.6,4.6,0,0,1,2.5-.61,3.94,3.94,0,0,1,2.68.79,3,3,0,0,1,.89,2.37v4.95a0.62,0.62,0,0,0,.07.36,0.3,0.3,0,0,0,.25.09,0.69,0.69,0,0,0,.33-0.15,0.68,0.68,0,0,1,.33-0.15,0.29,0.29,0,0,1,.25.11,0.51,0.51,0,0,1,.08.31,1.11,1.11,0,0,1-.49.83,1.65,1.65,0,0,1-1.08.4,1.19,1.19,0,0,1-.91-0.37A2.58,2.58,0,0,1,727.81,286.51Zm-0.16-3.43a7.46,7.46,0,0,0-2.89.73,1.64,1.64,0,0,0-.91,1.47,1.38,1.38,0,0,0,.41,1,1.55,1.55,0,0,0,1.12.39,2,2,0,0,0,1.71-.76,3.67,3.67,0,0,0,.58-2.24c0-.18,0-0.31,0-0.4S727.65,283.16,727.65,283.08Z"/><path class="cls-4" d="M735.23,287.58l-2.87-6.75-0.12-.3a1.67,1.67,0,0,0-1.29-1.23v-0.84h4.17v0.84a1.84,1.84,0,0,0-.75.14,0.41,0.41,0,0,0-.22.39,0.89,0.89,0,0,0,0,.18,1,1,0,0,0,.05.18l2,5.08,1.87-4.71a1,1,0,0,0,.09-0.25,1.39,1.39,0,0,0,0-.27,0.56,0.56,0,0,0-.26-0.51,2.11,2.11,0,0,0-.91-0.21v-0.84h3.51v0.84a1.38,1.38,0,0,0-.78.36,3.12,3.12,0,0,0-.61,1L736,288.12a10.05,10.05,0,0,1-1.66,2.94,2.45,2.45,0,0,1-1.83.82,2.09,2.09,0,0,1-1.41-.46,1.51,1.51,0,0,1-.53-1.2,1.31,1.31,0,0,1,.36-1,1.28,1.28,0,0,1,.95-0.36,1.15,1.15,0,0,1,.83.3,1.07,1.07,0,0,1,.32.81,1.16,1.16,0,0,1-.09.41,1.33,1.33,0,0,0-.09.27,0.2,0.2,0,0,0,.07.14,0.22,0.22,0,0,0,.16.07,1.71,1.71,0,0,0,1-.95A9.28,9.28,0,0,0,735.23,287.58Z"/><path class="cls-4" d="M746.29,276.34a1.33,1.33,0,0,0-.21-0.9,1.42,1.42,0,0,0-.91-0.2v-0.83a10.77,10.77,0,0,0,1.4-.11q0.73-.11,1.58-0.32v11.75a1.4,1.4,0,0,0,.25,1,1.5,1.5,0,0,0,1,.31v0.83h-4.28V287a1.49,1.49,0,0,0,1-.31,1.41,1.41,0,0,0,.24-1v-9.4Z"/><path class="cls-4" d="M752.43,283.08a5,5,0,0,0,.73,2.87,2.31,2.31,0,0,0,2,1,2.8,2.8,0,0,0,1.57-.48,5,5,0,0,0,1.37-1.45l0.79,0.45a5.11,5.11,0,0,1-1.71,2,4.38,4.38,0,0,1-2.41.65,4.13,4.13,0,0,1-3.23-1.37,5.18,5.18,0,0,1-1.23-3.59,5.33,5.33,0,0,1,1.2-3.6,3.88,3.88,0,0,1,3.08-1.39,3.81,3.81,0,0,1,3,1.26,5.08,5.08,0,0,1,1.1,3.46v0.19h-6.28Zm0-.87h4.11s0-.09,0-0.16,0-.13,0-0.16a3.48,3.48,0,0,0-.55-2.07,1.73,1.73,0,0,0-1.48-.77,1.75,1.75,0,0,0-1.53.84A4.16,4.16,0,0,0,752.43,282.21Z"/><path class="cls-4" d="M760.19,288v-3.52H761a6.63,6.63,0,0,0,1.43,2.13,2.5,2.5,0,0,0,1.71.65,1.71,1.71,0,0,0,1.19-.42,1.35,1.35,0,0,0,.47-1,1.25,1.25,0,0,0-.31-0.88,3.74,3.74,0,0,0-1.29-.72l-0.53-.2a15.07,15.07,0,0,1-2.19-1,3,3,0,0,1-.93-0.93,2.33,2.33,0,0,1-.28-1.18,2.6,2.6,0,0,1,.79-2,2.77,2.77,0,0,1,2-.76,4,4,0,0,1,1.52.33,6.5,6.5,0,0,0,.88.33,0.42,0.42,0,0,0,.32-0.14,0.77,0.77,0,0,0,.18-0.39h0.77v2.89h-0.89a4.13,4.13,0,0,0-1.11-1.61,2.23,2.23,0,0,0-1.47-.57,1.62,1.62,0,0,0-1.06.36,1.1,1.1,0,0,0-.43.88,1.16,1.16,0,0,0,.34.86,5.43,5.43,0,0,0,1.61.83L764,282a11.33,11.33,0,0,1,2.17,1,2.3,2.3,0,0,1,.82.92,2.79,2.79,0,0,1,.28,1.26,2.72,2.72,0,0,1-.87,2.06,3,3,0,0,1-2.17.83,4.18,4.18,0,0,1-1.71-.4,8.1,8.1,0,0,0-1-.4,0.47,0.47,0,0,0-.37.18,0.94,0.94,0,0,0-.19.48h-0.84Z"/><path class="cls-4" d="M768.93,288v-3.52h0.84a6.63,6.63,0,0,0,1.43,2.13,2.5,2.5,0,0,0,1.71.65,1.71,1.71,0,0,0,1.19-.42,1.35,1.35,0,0,0,.47-1,1.25,1.25,0,0,0-.31-0.88,3.74,3.74,0,0,0-1.29-.72l-0.53-.2a15.07,15.07,0,0,1-2.19-1,3,3,0,0,1-.93-0.93,2.33,2.33,0,0,1-.28-1.18,2.6,2.6,0,0,1,.79-2,2.77,2.77,0,0,1,2-.76,4,4,0,0,1,1.52.33,6.5,6.5,0,0,0,.88.33,0.42,0.42,0,0,0,.32-0.14,0.77,0.77,0,0,0,.18-0.39h0.77v2.89H774.6a4.13,4.13,0,0,0-1.11-1.61A2.23,2.23,0,0,0,772,279a1.62,1.62,0,0,0-1.06.36,1.1,1.1,0,0,0-.43.88,1.16,1.16,0,0,0,.34.86,5.43,5.43,0,0,0,1.61.83l0.29,0.11a11.33,11.33,0,0,1,2.17,1,2.3,2.3,0,0,1,.82.92,2.79,2.79,0,0,1,.28,1.26,2.72,2.72,0,0,1-.87,2.06,3,3,0,0,1-2.17.83,4.18,4.18,0,0,1-1.71-.4,8.1,8.1,0,0,0-1-.4,0.47,0.47,0,0,0-.37.18,0.94,0.94,0,0,0-.19.48h-0.84Z"/><path class="cls-4" d="M789.94,286.18a5.23,5.23,0,0,1-1.7,1.46,4.43,4.43,0,0,1-2.07.49,4,4,0,0,1-3.12-1.33,4.92,4.92,0,0,1-1.21-3.45,5.29,5.29,0,0,1,1.34-3.74,4.46,4.46,0,0,1,3.42-1.45,3.56,3.56,0,0,1,2.35.76,2.37,2.37,0,0,1,.91,1.91,1.53,1.53,0,0,1-.35,1,1.15,1.15,0,0,1-.91.4,1.35,1.35,0,0,1-.91-0.3,1,1,0,0,1-.35-0.78,1.05,1.05,0,0,1,.07-0.38,1.2,1.2,0,0,1,.2-0.34l0.29-.36a0.58,0.58,0,0,0,.11-0.16,0.39,0.39,0,0,0,0-.15,0.63,0.63,0,0,0-.39-0.51,1.82,1.82,0,0,0-.92-0.22,2.24,2.24,0,0,0-2,1.07,5.51,5.51,0,0,0-.7,3,5,5,0,0,0,.65,2.79,2.12,2.12,0,0,0,1.87,1,3,3,0,0,0,1.34-.33,5.74,5.74,0,0,0,1.38-1Z"/><path class="cls-4" d="M795.09,288.12a3.8,3.8,0,0,1-3-1.4,5.31,5.31,0,0,1-1.19-3.57,5.39,5.39,0,0,1,1.17-3.6,4,4,0,0,1,6.07,0,5.38,5.38,0,0,1,1.18,3.6,5.31,5.31,0,0,1-1.19,3.57A3.79,3.79,0,0,1,795.09,288.12Zm0-.89a1.61,1.61,0,0,0,1.5-1,7.11,7.11,0,0,0,.51-3,7.2,7.2,0,0,0-.51-3.07,1.61,1.61,0,0,0-3,0,7.26,7.26,0,0,0-.5,3.07,7.16,7.16,0,0,0,.5,3A1.61,1.61,0,0,0,795.09,287.23Z"/><path class="cls-4" d="M806.92,276.34a1.27,1.27,0,0,0-.22-0.9,1.55,1.55,0,0,0-1-.2h-0.38v-0.83a14.79,14.79,0,0,0,1.65-.11q0.85-.11,1.78-0.32v11.92a1.28,1.28,0,0,0,.21.89,1.5,1.5,0,0,0,.93.19v0.84l-1.27.11-1.53.18v-1.7a2.93,2.93,0,0,1-1.13,1.26,3.27,3.27,0,0,1-1.71.43,3.34,3.34,0,0,1-2.75-1.39,5.65,5.65,0,0,1-1.08-3.57,5.72,5.72,0,0,1,1.07-3.61,3.34,3.34,0,0,1,2.76-1.38,2.82,2.82,0,0,1,1.55.43,3,3,0,0,1,1.08,1.25v-3.5ZM804.77,287a1.67,1.67,0,0,0,1.55-1,8.2,8.2,0,0,0,0-5.77,1.67,1.67,0,0,0-1.55-1,1.69,1.69,0,0,0-1.56,1,8,8,0,0,0,0,5.75A1.69,1.69,0,0,0,804.77,287Z"/><path class="cls-4" d="M812.78,283.08a5,5,0,0,0,.73,2.87,2.31,2.31,0,0,0,2,1,2.8,2.8,0,0,0,1.57-.48,5,5,0,0,0,1.37-1.45l0.79,0.45a5.11,5.11,0,0,1-1.71,2,4.38,4.38,0,0,1-2.41.65,4.13,4.13,0,0,1-3.23-1.37,5.18,5.18,0,0,1-1.23-3.59,5.33,5.33,0,0,1,1.2-3.6,3.88,3.88,0,0,1,3.08-1.39,3.81,3.81,0,0,1,3,1.26,5.08,5.08,0,0,1,1.1,3.46v0.19h-6.28Zm0-.87h4.11s0-.09,0-0.16,0-.13,0-0.16a3.48,3.48,0,0,0-.55-2.07,1.73,1.73,0,0,0-1.48-.77,1.75,1.75,0,0,0-1.53.84A4.16,4.16,0,0,0,812.79,282.21Z"/><path class="cls-4" d="M635.64,300.88h-1.06v-0.83a3.27,3.27,0,0,0,1.23-1.3,9.3,9.3,0,0,0,.88-2.41h0.83v3.71h2.34v0.83h-2.34v6.3a2,2,0,0,0,.2,1,0.68,0.68,0,0,0,.63.32,0.93,0.93,0,0,0,.79-0.44,2.79,2.79,0,0,0,.42-1.26h0.81a3.36,3.36,0,0,1-.68,2.17,2.31,2.31,0,0,1-1.85.75,2,2,0,0,1-1.67-.69,3.78,3.78,0,0,1-.51-2.23v-5.92Z"/><path class="cls-4" d="M645.27,309.72a3.8,3.8,0,0,1-3-1.4,5.31,5.31,0,0,1-1.19-3.57,5.39,5.39,0,0,1,1.17-3.6,4,4,0,0,1,6.07,0,5.38,5.38,0,0,1,1.18,3.6,5.31,5.31,0,0,1-1.19,3.57A3.79,3.79,0,0,1,645.27,309.72Zm0-.89a1.61,1.61,0,0,0,1.5-1,7.11,7.11,0,0,0,.51-3,7.2,7.2,0,0,0-.51-3.07,1.61,1.61,0,0,0-3,0,7.26,7.26,0,0,0-.5,3.07,7.16,7.16,0,0,0,.5,3A1.61,1.61,0,0,0,645.27,308.83Z"/><path class="cls-4" d="M660.95,308.11a7,7,0,0,1-1.69,1.23,3.71,3.71,0,0,1-1.63.38,2.8,2.8,0,0,1-2-.67,2.24,2.24,0,0,1-.75-1.74,2.66,2.66,0,0,1,1.42-2.41,10.64,10.64,0,0,1,4.43-1.08v-1a2.69,2.69,0,0,0-.46-1.72,1.71,1.71,0,0,0-1.41-.57,2.44,2.44,0,0,0-.92.15,0.46,0.46,0,0,0-.36.36,0.19,0.19,0,0,0,0,0v0l0.22,0.4a0.81,0.81,0,0,1,.08.22,1.35,1.35,0,0,1,0,.28,1,1,0,0,1-.34.74,1.25,1.25,0,0,1-.86.3,1.12,1.12,0,0,1-.83-0.3,1.09,1.09,0,0,1-.31-0.81,1.81,1.81,0,0,1,.95-1.57,4.6,4.6,0,0,1,2.5-.61,3.94,3.94,0,0,1,2.68.79,3,3,0,0,1,.89,2.37v4.95a0.62,0.62,0,0,0,.07.36,0.3,0.3,0,0,0,.25.09,0.68,0.68,0,0,0,.33-0.15,0.69,0.69,0,0,1,.33-0.15,0.29,0.29,0,0,1,.25.11,0.51,0.51,0,0,1,.08.31,1.11,1.11,0,0,1-.49.83,1.65,1.65,0,0,1-1.08.4,1.2,1.2,0,0,1-.91-0.37A2.58,2.58,0,0,1,660.95,308.11Zm-0.16-3.43a7.48,7.48,0,0,0-2.89.73,1.64,1.64,0,0,0-.91,1.47,1.38,1.38,0,0,0,.41,1,1.55,1.55,0,0,0,1.12.39,2,2,0,0,0,1.71-.76,3.67,3.67,0,0,0,.58-2.24c0-.18,0-0.31,0-0.4S660.8,304.76,660.79,304.68Z"/><path class="cls-4" d="M672.94,307.78a5.23,5.23,0,0,1-1.7,1.46,4.43,4.43,0,0,1-2.07.49,4,4,0,0,1-3.12-1.33,4.92,4.92,0,0,1-1.21-3.45,5.29,5.29,0,0,1,1.34-3.74,4.46,4.46,0,0,1,3.42-1.45,3.56,3.56,0,0,1,2.35.76,2.37,2.37,0,0,1,.91,1.91,1.53,1.53,0,0,1-.35,1,1.15,1.15,0,0,1-.91.4,1.35,1.35,0,0,1-.91-0.3,1,1,0,0,1-.35-0.78,1.05,1.05,0,0,1,.07-0.38,1.2,1.2,0,0,1,.2-0.34l0.29-.36a0.58,0.58,0,0,0,.11-0.16,0.39,0.39,0,0,0,0-.15,0.63,0.63,0,0,0-.39-0.51,1.82,1.82,0,0,0-.92-0.22,2.24,2.24,0,0,0-2,1.07,5.51,5.51,0,0,0-.7,3,5,5,0,0,0,.65,2.79,2.12,2.12,0,0,0,1.87,1,3,3,0,0,0,1.34-.33,5.74,5.74,0,0,0,1.38-1Z"/><path class="cls-4" d="M676.72,304.6v2.73a1.4,1.4,0,0,0,.25,1,1.5,1.5,0,0,0,1,.31v0.83h-4.28V308.6a1.5,1.5,0,0,0,1-.31,1.4,1.4,0,0,0,.25-1v-9.4a1.33,1.33,0,0,0-.2-0.88,1.25,1.25,0,0,0-.83-0.22V296a13,13,0,0,0,1.36-.13q0.72-.11,1.53-0.3v6.35a4.91,4.91,0,0,1,1.44-1.62,3.05,3.05,0,0,1,1.75-.56,2,2,0,0,1,1.85.93,6.09,6.09,0,0,1,.57,3.05v3.59a1,1,0,0,0,1.08,1.27v0.83h-4.16V308.6a1.5,1.5,0,0,0,1-.31,1.4,1.4,0,0,0,.25-1v-4a3.65,3.65,0,0,0-.29-1.7,1,1,0,0,0-1-.5,2.17,2.17,0,0,0-1.74,1A4,4,0,0,0,676.72,304.6Z"/><path class="cls-4" d="M687.35,307.34a1.4,1.4,0,0,0,.25,1,1.5,1.5,0,0,0,1,.31v0.83h-4.28V308.6a1.49,1.49,0,0,0,1-.31,1.41,1.41,0,0,0,.24-1V302.1a1.26,1.26,0,0,0-.21-0.88,1.45,1.45,0,0,0-.91-0.19v-0.84a12.84,12.84,0,0,0,1.45-.12,13.85,13.85,0,0,0,1.54-.3v7.58Zm-2.29-10.55a1.17,1.17,0,0,1,.35-0.84,1.13,1.13,0,0,1,.83-0.36,1.21,1.21,0,1,1,0,2.42,1.13,1.13,0,0,1-.84-0.35A1.19,1.19,0,0,1,685.07,296.79Z"/><path class="cls-4" d="M691.61,304.68a5,5,0,0,0,.73,2.87,2.31,2.31,0,0,0,2,1,2.79,2.79,0,0,0,1.57-.48,5,5,0,0,0,1.37-1.45l0.79,0.45a5.11,5.11,0,0,1-1.71,2,4.38,4.38,0,0,1-2.41.65,4.13,4.13,0,0,1-3.23-1.37,5.18,5.18,0,0,1-1.23-3.59,5.33,5.33,0,0,1,1.2-3.6,3.88,3.88,0,0,1,3.08-1.39,3.81,3.81,0,0,1,3,1.26,5.08,5.08,0,0,1,1.1,3.46v0.19h-6.28Zm0-.87h4.11s0-.09,0-0.16,0-.13,0-0.16a3.48,3.48,0,0,0-.55-2.07,1.73,1.73,0,0,0-1.48-.77,1.75,1.75,0,0,0-1.53.84A4.16,4.16,0,0,0,691.62,303.81Z"/><path class="cls-4" d="M702.64,309.72l-2.85-7.29,0-.07a1.91,1.91,0,0,0-1.37-1.46v-0.84h4.17l0,0.84a1.92,1.92,0,0,0-.77.14,0.41,0.41,0,0,0-.22.39,1.42,1.42,0,0,0,0,.2,0.62,0.62,0,0,0,0,.15l1.91,5.44,1.85-4.86a3.22,3.22,0,0,0,.14-0.41,1.39,1.39,0,0,0,0-.33,0.56,0.56,0,0,0-.27-0.51,2.13,2.13,0,0,0-.91-0.21l0-.84h3.52v0.84a1.51,1.51,0,0,0-.82.38,2.71,2.71,0,0,0-.58,1l-3,7.47h-0.9Z"/><path class="cls-4" d="M710.4,304.68a5,5,0,0,0,.73,2.87,2.31,2.31,0,0,0,2,1,2.79,2.79,0,0,0,1.57-.48,5,5,0,0,0,1.37-1.45l0.79,0.45a5.11,5.11,0,0,1-1.71,2,4.38,4.38,0,0,1-2.41.65,4.13,4.13,0,0,1-3.23-1.37,5.18,5.18,0,0,1-1.23-3.59,5.33,5.33,0,0,1,1.2-3.6,3.88,3.88,0,0,1,3.08-1.39,3.81,3.81,0,0,1,3,1.26,5.08,5.08,0,0,1,1.1,3.46v0.19H710.4Zm0-.87h4.11s0-.09,0-0.16,0-.13,0-0.16a3.48,3.48,0,0,0-.55-2.07,1.73,1.73,0,0,0-1.48-.77,1.75,1.75,0,0,0-1.53.84A4.16,4.16,0,0,0,710.41,303.81Z"/><path class="cls-4" d="M723.25,300.88h-1.06v-0.83a3.27,3.27,0,0,0,1.23-1.3,9.3,9.3,0,0,0,.88-2.41h0.83v3.71h2.34v0.83h-2.34v6.3a2,2,0,0,0,.2,1,0.68,0.68,0,0,0,.63.32,0.93,0.93,0,0,0,.79-0.44,2.79,2.79,0,0,0,.42-1.26H728a3.36,3.36,0,0,1-.68,2.17,2.31,2.31,0,0,1-1.85.75,2,2,0,0,1-1.67-.69,3.78,3.78,0,0,1-.51-2.23v-5.92Z"/><path class="cls-4" d="M731.51,304.6v2.73a1.4,1.4,0,0,0,.25,1,1.5,1.5,0,0,0,1,.31v0.83h-4.28V308.6a1.5,1.5,0,0,0,1-.31,1.4,1.4,0,0,0,.25-1v-9.4a1.33,1.33,0,0,0-.2-0.88,1.25,1.25,0,0,0-.83-0.22V296a13,13,0,0,0,1.36-.13q0.72-.11,1.53-0.3v6.35a4.91,4.91,0,0,1,1.44-1.62,3.05,3.05,0,0,1,1.75-.56,2,2,0,0,1,1.85.93,6.09,6.09,0,0,1,.57,3.05v3.59a1,1,0,0,0,1.08,1.27v0.83H734V308.6a1.5,1.5,0,0,0,1-.31,1.4,1.4,0,0,0,.25-1v-4a3.65,3.65,0,0,0-.29-1.7,1,1,0,0,0-1-.5,2.17,2.17,0,0,0-1.74,1A4,4,0,0,0,731.51,304.6Z"/><path class="cls-4" d="M741.37,304.68a5,5,0,0,0,.73,2.87,2.31,2.31,0,0,0,2,1,2.79,2.79,0,0,0,1.57-.48,5,5,0,0,0,1.37-1.45l0.79,0.45a5.11,5.11,0,0,1-1.71,2,4.38,4.38,0,0,1-2.41.65,4.13,4.13,0,0,1-3.23-1.37,5.18,5.18,0,0,1-1.23-3.59,5.33,5.33,0,0,1,1.2-3.6,3.88,3.88,0,0,1,3.08-1.39,3.81,3.81,0,0,1,3,1.26,5.08,5.08,0,0,1,1.1,3.46v0.19h-6.28Zm0-.87h4.11s0-.09,0-0.16,0-.13,0-0.16a3.48,3.48,0,0,0-.55-2.07,1.73,1.73,0,0,0-1.48-.77,1.75,1.75,0,0,0-1.53.84A4.16,4.16,0,0,0,741.38,303.81Z"/><path class="cls-4" d="M753.54,309.59v-3.52h0.84a6.62,6.62,0,0,0,1.43,2.13,2.49,2.49,0,0,0,1.71.65,1.71,1.71,0,0,0,1.19-.42,1.35,1.35,0,0,0,.47-1,1.25,1.25,0,0,0-.31-0.88,3.74,3.74,0,0,0-1.29-.72l-0.53-.2a15.07,15.07,0,0,1-2.19-1,3,3,0,0,1-.93-0.93,2.33,2.33,0,0,1-.28-1.18,2.6,2.6,0,0,1,.79-2,2.77,2.77,0,0,1,2-.76,4,4,0,0,1,1.52.33,6.5,6.5,0,0,0,.88.33,0.42,0.42,0,0,0,.32-0.14,0.77,0.77,0,0,0,.18-0.39h0.77v2.89h-0.89a4.13,4.13,0,0,0-1.11-1.61,2.23,2.23,0,0,0-1.47-.57,1.62,1.62,0,0,0-1.06.36,1.1,1.1,0,0,0-.43.88,1.16,1.16,0,0,0,.34.86,5.43,5.43,0,0,0,1.61.83l0.29,0.11a11.33,11.33,0,0,1,2.17,1,2.3,2.3,0,0,1,.82.92,2.79,2.79,0,0,1,.28,1.26,2.72,2.72,0,0,1-.87,2.06,3,3,0,0,1-2.17.83,4.18,4.18,0,0,1-1.71-.4,8.1,8.1,0,0,0-1-.4,0.47,0.47,0,0,0-.37.18,0.94,0.94,0,0,0-.19.48h-0.84Z"/><path class="cls-4" d="M767.94,308.11a7,7,0,0,1-1.69,1.23,3.71,3.71,0,0,1-1.63.38,2.8,2.8,0,0,1-2-.67,2.24,2.24,0,0,1-.75-1.74,2.66,2.66,0,0,1,1.42-2.41,10.64,10.64,0,0,1,4.43-1.08v-1a2.69,2.69,0,0,0-.46-1.72,1.71,1.71,0,0,0-1.41-.57,2.44,2.44,0,0,0-.92.15,0.46,0.46,0,0,0-.36.36,0.19,0.19,0,0,0,0,0v0l0.22,0.4a0.81,0.81,0,0,1,.08.22,1.35,1.35,0,0,1,0,.28,1,1,0,0,1-.34.74,1.25,1.25,0,0,1-.86.3,1.12,1.12,0,0,1-.83-0.3,1.09,1.09,0,0,1-.31-0.81,1.81,1.81,0,0,1,.95-1.57,4.6,4.6,0,0,1,2.5-.61,3.94,3.94,0,0,1,2.68.79,3,3,0,0,1,.89,2.37v4.95a0.62,0.62,0,0,0,.07.36,0.3,0.3,0,0,0,.25.09,0.68,0.68,0,0,0,.33-0.15,0.69,0.69,0,0,1,.33-0.15,0.29,0.29,0,0,1,.25.11,0.51,0.51,0,0,1,.08.31,1.11,1.11,0,0,1-.49.83,1.65,1.65,0,0,1-1.08.4,1.2,1.2,0,0,1-.91-0.37A2.58,2.58,0,0,1,767.94,308.11Zm-0.16-3.43a7.48,7.48,0,0,0-2.89.73,1.64,1.64,0,0,0-.91,1.47,1.38,1.38,0,0,0,.41,1,1.55,1.55,0,0,0,1.12.39,2,2,0,0,0,1.71-.76,3.67,3.67,0,0,0,.58-2.24c0-.18,0-0.31,0-0.4S767.79,304.76,767.78,304.68Z"/><path class="cls-4" d="M780.3,307.34a1.38,1.38,0,0,0,.25,1,1.54,1.54,0,0,0,1,.31v0.83h-4.3V308.6a1.5,1.5,0,0,0,1-.31,1.4,1.4,0,0,0,.25-1v-4a3.65,3.65,0,0,0-.29-1.7,1,1,0,0,0-1-.5,2.17,2.17,0,0,0-1.74,1,4,4,0,0,0-.76,2.46v2.73a1.4,1.4,0,0,0,.25,1,1.5,1.5,0,0,0,1,.31v0.83h-4.28V308.6a1.5,1.5,0,0,0,1-.31,1.4,1.4,0,0,0,.25-1V302.1a1.25,1.25,0,0,0-.21-0.88,1.48,1.48,0,0,0-.92-0.19v-0.84a12.13,12.13,0,0,0,1.41-.12,15,15,0,0,0,1.51-.3V302a5.61,5.61,0,0,1,1.53-1.69,3,3,0,0,1,1.75-.56,2.18,2.18,0,0,1,1.58.58,2.78,2.78,0,0,1,.76,1.67,5.8,5.8,0,0,1,1.52-1.69,3,3,0,0,1,1.74-.56,2,2,0,0,1,1.87.93,6.05,6.05,0,0,1,.58,3v3.59A1,1,0,0,0,787,308.6v0.83h-4.16V308.6a1.5,1.5,0,0,0,1-.31,1.4,1.4,0,0,0,.25-1v-4a3.65,3.65,0,0,0-.29-1.7,1,1,0,0,0-1-.5,2.19,2.19,0,0,0-1.75,1,3.94,3.94,0,0,0-.77,2.43v0Z"/><path class="cls-4" d="M790.13,304.68a5,5,0,0,0,.73,2.87,2.31,2.31,0,0,0,2,1,2.79,2.79,0,0,0,1.57-.48,5,5,0,0,0,1.37-1.45l0.79,0.45a5.11,5.11,0,0,1-1.71,2,4.38,4.38,0,0,1-2.41.65,4.13,4.13,0,0,1-3.23-1.37,5.18,5.18,0,0,1-1.23-3.59,5.33,5.33,0,0,1,1.2-3.6,3.88,3.88,0,0,1,3.08-1.39,3.81,3.81,0,0,1,3,1.26,5.08,5.08,0,0,1,1.1,3.46v0.19h-6.28Zm0-.87h4.11s0-.09,0-0.16,0-.13,0-0.16a3.48,3.48,0,0,0-.55-2.07,1.73,1.73,0,0,0-1.48-.77,1.75,1.75,0,0,0-1.53.84A4.16,4.16,0,0,0,790.14,303.81Z"/><path class="cls-4" d="M803,300.88h-1.06v-0.83a3.27,3.27,0,0,0,1.23-1.3,9.3,9.3,0,0,0,.88-2.41h0.83v3.71h2.34v0.83h-2.34v6.3a2,2,0,0,0,.2,1,0.68,0.68,0,0,0,.63.32,0.93,0.93,0,0,0,.79-0.44,2.79,2.79,0,0,0,.42-1.26h0.81A3.36,3.36,0,0,1,807,309a2.31,2.31,0,0,1-1.85.75,2,2,0,0,1-1.67-.69,3.78,3.78,0,0,1-.51-2.23v-5.92Z"/><path class="cls-4" d="M814.29,308.11a7,7,0,0,1-1.69,1.23,3.71,3.71,0,0,1-1.63.38,2.8,2.8,0,0,1-2-.67,2.24,2.24,0,0,1-.75-1.74,2.66,2.66,0,0,1,1.42-2.41,10.64,10.64,0,0,1,4.43-1.08v-1a2.69,2.69,0,0,0-.46-1.72,1.71,1.71,0,0,0-1.41-.57,2.44,2.44,0,0,0-.92.15,0.46,0.46,0,0,0-.36.36,0.19,0.19,0,0,0,0,0v0l0.22,0.4a0.81,0.81,0,0,1,.08.22,1.35,1.35,0,0,1,0,.28,1,1,0,0,1-.34.74,1.25,1.25,0,0,1-.86.3,1.12,1.12,0,0,1-.83-0.3,1.09,1.09,0,0,1-.31-0.81,1.81,1.81,0,0,1,.95-1.57,4.6,4.6,0,0,1,2.5-.61,3.94,3.94,0,0,1,2.68.79,3,3,0,0,1,.89,2.37v4.95a0.62,0.62,0,0,0,.07.36,0.3,0.3,0,0,0,.25.09,0.68,0.68,0,0,0,.33-0.15A0.69,0.69,0,0,1,817,308a0.29,0.29,0,0,1,.25.11,0.51,0.51,0,0,1,.08.31,1.11,1.11,0,0,1-.49.83,1.65,1.65,0,0,1-1.08.4,1.2,1.2,0,0,1-.91-0.37A2.58,2.58,0,0,1,814.29,308.11Zm-0.16-3.43a7.48,7.48,0,0,0-2.89.73,1.64,1.64,0,0,0-.91,1.47,1.38,1.38,0,0,0,.41,1,1.55,1.55,0,0,0,1.12.39,2,2,0,0,0,1.71-.76,3.67,3.67,0,0,0,.58-2.24c0-.18,0-0.31,0-0.4S814.14,304.76,814.13,304.68Z"/><path class="cls-4" d="M818.43,309.59v-3.52h0.84a6.62,6.62,0,0,0,1.43,2.13,2.49,2.49,0,0,0,1.71.65,1.71,1.71,0,0,0,1.19-.42,1.35,1.35,0,0,0,.47-1,1.25,1.25,0,0,0-.31-0.88,3.74,3.74,0,0,0-1.29-.72l-0.53-.2a15.07,15.07,0,0,1-2.19-1,3,3,0,0,1-.93-0.93,2.33,2.33,0,0,1-.28-1.18,2.6,2.6,0,0,1,.79-2,2.77,2.77,0,0,1,2-.76,4,4,0,0,1,1.52.33,6.5,6.5,0,0,0,.88.33,0.42,0.42,0,0,0,.32-0.14,0.77,0.77,0,0,0,.18-0.39H825v2.89H824.1a4.13,4.13,0,0,0-1.11-1.61,2.23,2.23,0,0,0-1.47-.57,1.62,1.62,0,0,0-1.06.36,1.1,1.1,0,0,0-.43.88,1.16,1.16,0,0,0,.34.86,5.43,5.43,0,0,0,1.61.83l0.29,0.11a11.33,11.33,0,0,1,2.17,1,2.3,2.3,0,0,1,.82.92,2.79,2.79,0,0,1,.28,1.26,2.72,2.72,0,0,1-.87,2.06,3,3,0,0,1-2.17.83,4.18,4.18,0,0,1-1.71-.4,8.1,8.1,0,0,0-1-.4,0.47,0.47,0,0,0-.37.18,0.94,0.94,0,0,0-.19.48h-0.84Z"/><path class="cls-4" d="M829.77,304.38l2.36-2.2a1.87,1.87,0,0,0,.34-0.4,0.7,0.7,0,0,0,.12-0.34,0.43,0.43,0,0,0-.29-0.42,3.6,3.6,0,0,0-1.13-.14v-0.83H836v0.83a4.35,4.35,0,0,0-1.23.34,3.77,3.77,0,0,0-1,.71L832,303.56l2.56,3.64,0.07,0.11a2.89,2.89,0,0,0,1.66,1.3v0.83H832V308.6a2.28,2.28,0,0,0,.7-0.11,0.29,0.29,0,0,0,.22-0.25,0.85,0.85,0,0,0-.19-0.41l-0.06-.1-2.09-3-0.84.82v1.79a1.4,1.4,0,0,0,.25,1,1.5,1.5,0,0,0,1,.31v0.83h-4.28V308.6a1.5,1.5,0,0,0,1-.31,1.4,1.4,0,0,0,.25-1v-9.4a1.28,1.28,0,0,0-.22-0.9,1.46,1.46,0,0,0-.94-0.2V296a12.47,12.47,0,0,0,1.41-.12q0.75-.11,1.62-0.32v8.79Z"/><path class="cls-4" d="M836.84,309.59v-3.52h0.84a6.62,6.62,0,0,0,1.43,2.13,2.49,2.49,0,0,0,1.71.65,1.71,1.71,0,0,0,1.19-.42,1.35,1.35,0,0,0,.47-1,1.25,1.25,0,0,0-.31-0.88,3.74,3.74,0,0,0-1.29-.72l-0.53-.2a15.07,15.07,0,0,1-2.19-1,3,3,0,0,1-.93-0.93,2.33,2.33,0,0,1-.28-1.18,2.6,2.6,0,0,1,.79-2,2.77,2.77,0,0,1,2-.76,4,4,0,0,1,1.52.33,6.5,6.5,0,0,0,.88.33,0.42,0.42,0,0,0,.32-0.14,0.77,0.77,0,0,0,.18-0.39h0.77v2.89h-0.89a4.13,4.13,0,0,0-1.11-1.61,2.23,2.23,0,0,0-1.47-.57,1.62,1.62,0,0,0-1.06.36,1.1,1.1,0,0,0-.43.88,1.16,1.16,0,0,0,.34.86,5.43,5.43,0,0,0,1.61.83l0.29,0.11a11.33,11.33,0,0,1,2.17,1,2.3,2.3,0,0,1,.82.92,2.79,2.79,0,0,1,.28,1.26,2.72,2.72,0,0,1-.87,2.06,3,3,0,0,1-2.17.83,4.18,4.18,0,0,1-1.71-.4,8.1,8.1,0,0,0-1-.4,0.47,0.47,0,0,0-.37.18,0.94,0.94,0,0,0-.19.48h-0.84Z"/><path class="cls-3" d="M389.18,116.83v-17h10.75V103h-7.44v4.2h6.62v3h-6.6v6.62h-3.34Z"/><path class="cls-3" d="M404.39,110l2.9-.43a0.84,0.84,0,0,0,.89-0.84c0-.84-0.65-1.54-2-1.54a2.1,2.1,0,0,0-2.26,1.92l-2.83-.6c0.19-1.85,1.9-3.89,5.06-3.89,3.74,0,5.14,2.11,5.14,4.49V115a13.26,13.26,0,0,0,.14,1.87h-2.93a8,8,0,0,1-.12-1.42,4,4,0,0,1-3.48,1.75c-2.52,0-4.06-1.7-4.06-3.55C400.86,111.5,402.42,110.33,404.39,110Zm3.79,2v-0.53l-2.66.41a1.49,1.49,0,0,0-1.46,1.49,1.39,1.39,0,0,0,1.54,1.37A2.4,2.4,0,0,0,408.19,112.05Z"/><path class="cls-3" d="M414.52,116.83V105h3v1.44a4.06,4.06,0,0,1,3.46-1.78,3.65,3.65,0,0,1,3.5,2,4.1,4.1,0,0,1,3.74-2c2.18,0,4.27,1.32,4.27,4.49v7.66h-3.1v-7a2,2,0,0,0-2.09-2.23,2.17,2.17,0,0,0-2.18,2.33v6.91H422v-7a2,2,0,0,0-2.09-2.23,2.16,2.16,0,0,0-2.21,2.33v6.91h-3.19Z"/><path class="cls-3" d="M437.37,99.16a2,2,0,1,1-2,2A2,2,0,0,1,437.37,99.16Zm-1.58,17.67V105H439v11.81h-3.19Z"/><path class="cls-3" d="M442.38,116.83V99.45h3.19v17.38h-3.19Z"/><path class="cls-3" d="M450.57,99.16a2,2,0,1,1-2,2A2,2,0,0,1,450.57,99.16ZM449,116.83V105h3.19v11.81H449Z"/><path class="cls-3" d="M458.39,110l2.9-.43a0.84,0.84,0,0,0,.89-0.84c0-.84-0.65-1.54-2-1.54a2.1,2.1,0,0,0-2.26,1.92l-2.83-.6c0.19-1.85,1.9-3.89,5.06-3.89,3.74,0,5.14,2.11,5.14,4.49V115a13.18,13.18,0,0,0,.14,1.87h-2.93a8,8,0,0,1-.12-1.42,3.94,3.94,0,0,1-3.48,1.75c-2.52,0-4.06-1.7-4.06-3.55C454.86,111.5,456.42,110.33,458.39,110Zm3.79,2v-0.53l-2.66.41a1.49,1.49,0,0,0-1.46,1.49,1.39,1.39,0,0,0,1.54,1.37A2.4,2.4,0,0,0,462.18,112.05Z"/><path class="cls-3" d="M475.72,108.19a4.78,4.78,0,0,0-1-.1c-1.63,0-3,.79-3,3.34v5.4h-3.19V105h3.1v1.75a3.51,3.51,0,0,1,3.36-1.85,7.28,7.28,0,0,1,.74,0v3.22Z"/><path class="cls-3" d="M404,133.58a2.91,2.91,0,0,0-3.1-2.4,2.41,2.41,0,0,0-2.66,2.16,2,2,0,0,0,1.85,1.92l2.38,0.46c3.1,0.6,4.75,2.62,4.75,5,0,2.62-2.18,5.26-6.14,5.26-4.51,0-6.5-2.9-6.77-5.33l3.07-.82a3.42,3.42,0,0,0,3.72,3.19c1.78,0,2.76-.89,2.76-2.09,0-1-.74-1.75-2.06-2l-2.38-.48c-2.71-.55-4.46-2.3-4.46-4.87,0-3,2.71-5.33,5.93-5.33,4.13,0,5.71,2.5,6.1,4.42Z"/><path class="cls-3" d="M410,150.29l2.78-6.14-5-10.32h3.58l3.14,6.91,2.9-6.91h3.41l-7.42,16.46H410Z"/><path class="cls-3" d="M425.91,145.63h-3.19V133.82h3.1v1.46a3.92,3.92,0,0,1,3.41-1.78c2.93,0,4.27,2.09,4.27,4.68v7.44H430.3v-6.89a2.08,2.08,0,0,0-2.18-2.35,2.22,2.22,0,0,0-2.21,2.45v6.79Z"/><path class="cls-3" d="M440.67,133.82H443v2.83h-2.38v4.94a1.18,1.18,0,0,0,1.39,1.37,4.65,4.65,0,0,0,1-.1v2.64a4.73,4.73,0,0,1-1.8.29,3.42,3.42,0,0,1-3.74-3.65v-5.5h-2.14v-2.83H436a1.7,1.7,0,0,0,1.82-1.87v-1.66h2.88v3.53Z"/><path class="cls-3" d="M448.64,138.84l2.9-.43a0.84,0.84,0,0,0,.89-0.84c0-.84-0.65-1.54-2-1.54a2.09,2.09,0,0,0-2.26,1.92l-2.83-.6c0.19-1.85,1.9-3.89,5.06-3.89,3.74,0,5.14,2.11,5.14,4.49v5.81a13.34,13.34,0,0,0,.14,1.87h-2.93a8,8,0,0,1-.12-1.42,4,4,0,0,1-3.48,1.75c-2.52,0-4.06-1.7-4.06-3.55C445.11,140.3,446.67,139.13,448.64,138.84Zm3.79,2v-0.53l-2.66.41a1.49,1.49,0,0,0-1.46,1.49,1.39,1.39,0,0,0,1.54,1.37A2.4,2.4,0,0,0,452.43,140.85Z"/><path class="cls-3" d="M461.55,139.7l-4.2-5.88h3.79c0.41,0.65,1.94,2.86,2.35,3.5l2.33-3.5h3.62l-4.13,5.78,4.27,6h-3.74L463.37,142c-0.43.65-2,3-2.42,3.62h-3.6Z"/><path class="cls-4" d="M679.42,131.23V119.3l-4.9,11.93h-2.76l-4.9-11.83v11.83H663.7v-17h4.37l5.11,12.29,5-12.29h4.51v17h-3.26Z"/><path class="cls-4" d="M697.75,125.33a6.19,6.19,0,1,1-6.19-6.27A6.06,6.06,0,0,1,697.75,125.33Zm-3.19,0a3,3,0,1,0-3,3.36A3,3,0,0,0,694.56,125.33Z"/><path class="cls-4" d="M707.47,122.59a4.79,4.79,0,0,0-1-.1c-1.63,0-3,.79-3,3.34v5.4h-3.19V119.42h3.1v1.75a3.51,3.51,0,0,1,3.36-1.85,7.3,7.3,0,0,1,.74,0v3.22Z"/><path class="cls-4" d="M720.19,127.85a5.32,5.32,0,0,1-5.38,3.74,6.27,6.27,0,0,1-.29-12.53c3.65,0,5.83,2.33,5.83,6.12,0,0.46,0,.94,0,1h-8.45a2.87,2.87,0,0,0,3,2.69,2.61,2.61,0,0,0,2.69-1.8Zm-3-3.86a2.38,2.38,0,0,0-2.64-2.33,2.56,2.56,0,0,0-2.64,2.33h5.28Z"/><path class="cls-4" d="M728,122.73a8.59,8.59,0,0,1,8.67-8.88c4.7,0,7.13,2.88,7.8,5.64l-3.12,1a4.45,4.45,0,0,0-4.68-3.43c-2.54,0-5.23,1.82-5.23,5.69a5.25,5.25,0,0,0,5.28,5.62,4.73,4.73,0,0,0,4.78-3.48l3.1,0.94a7.74,7.74,0,0,1-7.87,5.78A8.5,8.5,0,0,1,728,122.73Z"/><path class="cls-4" d="M758.23,125.33a6.19,6.19,0,1,1-6.19-6.27A6.06,6.06,0,0,1,758.23,125.33Zm-3.19,0a3,3,0,1,0-3,3.36A3,3,0,0,0,755,125.33Z"/><path class="cls-4" d="M763.94,131.23h-3.19V119.42h3.1v1.46a3.92,3.92,0,0,1,3.41-1.78c2.93,0,4.27,2.09,4.27,4.68v7.44h-3.19v-6.89a2.08,2.08,0,0,0-2.18-2.35,2.22,2.22,0,0,0-2.21,2.45v6.79Z"/><path class="cls-4" d="M777.07,125.33a3,3,0,0,0,3,3.34,2.7,2.7,0,0,0,2.71-2l2.81,0.94a5.48,5.48,0,0,1-5.52,4,6.11,6.11,0,0,1-6.22-6.26,6,6,0,0,1,6.12-6.27,5.41,5.41,0,0,1,5.54,4l-2.86,1a2.58,2.58,0,0,0-2.62-2A3,3,0,0,0,777.07,125.33Z"/><path class="cls-4" d="M789.55,113.56a2,2,0,1,1-2,2A2,2,0,0,1,789.55,113.56ZM788,131.23V119.42h3.19v11.81H788Z"/><path class="cls-4" d="M796.3,127.34a2,2,0,0,0,2.16,1.8A1.31,1.31,0,0,0,800,128a1.27,1.27,0,0,0-1.27-1.15l-1.56-.36c-2.28-.5-3.31-1.87-3.31-3.53,0-2.11,1.87-3.86,4.42-3.86,3.36,0,4.49,2.14,4.63,3.41l-2.66.6a1.8,1.8,0,0,0-1.94-1.58,1.36,1.36,0,0,0-1.51,1.18,1.12,1.12,0,0,0,1.08,1.06l1.68,0.36c2.33,0.48,3.5,1.9,3.5,3.62,0,1.92-1.49,3.89-4.58,3.89-3.55,0-4.78-2.3-4.92-3.65Z"/><path class="cls-4" d="M816.17,127.85a5.32,5.32,0,0,1-5.38,3.74,6.27,6.27,0,0,1-.29-12.53c3.65,0,5.83,2.33,5.83,6.12,0,0.46,0,.94,0,1h-8.45a2.88,2.88,0,0,0,3,2.69,2.61,2.61,0,0,0,2.69-1.8Zm-3-3.86a2.37,2.37,0,0,0-2.64-2.33,2.56,2.56,0,0,0-2.64,2.33h5.28Z"/></svg>