<svg id="Layer_1" data-name="Layer 1" xmlns="http://www.w3.org/2000/svg" viewBox="0 0 863.47 312.02"><defs><style>.cls-1{fill:#ffdb00;}.cls-2{fill:#ececec;}.cls-3{fill:#c3c3c3;}.cls-4{fill:#231f20;}</style></defs><title>Slide-10-Text</title><circle class="cls-1" cx="124" cy="124" r="124"/><circle class="cls-2" cx="431.74" cy="124" r="124"/><circle class="cls-2" cx="739.47" cy="124" r="124"/><path d="M36.94,113.81v-11h3.31v10.75c0,2.23,1.25,3.41,3.22,3.41s3.24-1.18,3.24-3.41V102.81H50v11c0,4.18-2.9,6.41-6.55,6.41S36.94,118,36.94,113.81Z"/><path d="M53.38,124.39V108h3.1v1.44a4.13,4.13,0,0,1,3.62-1.7c3.46,0,5.45,2.64,5.45,6.14s-2.23,6.22-5.57,6.22a4.15,4.15,0,0,1-3.41-1.44v5.71H53.38Zm6.1-13.78a3.35,3.35,0,0,0,0,6.65c1.63,0,2.93-1.22,2.93-3.34S61.11,110.61,59.48,110.61Z"/><path d="M79.33,117.69c0,0.79,0,1.66.1,2.14h-3a8.17,8.17,0,0,1-.12-1.37,3.7,3.7,0,0,1-3.31,1.66c-3.36,0-5.76-2.64-5.76-6.22s2.33-6.17,5.66-6.17c2,0,3,.84,3.34,1.46v-6.74h3.14v15.24Zm-6-.43c1.63,0,2.9-1.25,2.9-3.38s-1.27-3.29-2.9-3.29-2.93,1.2-2.93,3.31S71.65,117.26,73.33,117.26Z"/><path d="M85.52,113l2.9-.43a0.84,0.84,0,0,0,.89-0.84c0-.84-0.65-1.54-2-1.54a2.1,2.1,0,0,0-2.26,1.92l-2.83-.6c0.19-1.85,1.9-3.89,5.06-3.89,3.74,0,5.14,2.11,5.14,4.49V118a13.26,13.26,0,0,0,.14,1.87H89.65a8,8,0,0,1-.12-1.42A4,4,0,0,1,86,120.17c-2.52,0-4.06-1.7-4.06-3.55C82,114.5,83.55,113.33,85.52,113Zm3.79,2v-0.53l-2.66.41a1.49,1.49,0,0,0-1.46,1.49,1.39,1.39,0,0,0,1.54,1.37A2.4,2.4,0,0,0,89.31,115.05Z"/><path d="M99.51,108h2.38v2.83H99.51v4.94a1.18,1.18,0,0,0,1.39,1.37,4.64,4.64,0,0,0,1-.1v2.64a4.73,4.73,0,0,1-1.8.29,3.42,3.42,0,0,1-3.74-3.65v-5.5H94.21V108h0.6a1.7,1.7,0,0,0,1.82-1.87v-1.66h2.88V108Z"/><path d="M115.06,116.45a5.32,5.32,0,0,1-5.38,3.74,6.27,6.27,0,0,1-.29-12.53c3.65,0,5.83,2.33,5.83,6.12,0,0.46,0,.94,0,1h-8.45a2.88,2.88,0,0,0,3,2.69,2.61,2.61,0,0,0,2.69-1.8Zm-3-3.86a2.38,2.38,0,0,0-2.64-2.33,2.56,2.56,0,0,0-2.64,2.33h5.28Z"/><path d="M118.71,120h-2.88l8.5-17.45h2.9Z"/><path d="M127.11,111.33a8.59,8.59,0,0,1,8.66-8.88c4.7,0,7.13,2.88,7.8,5.64l-3.12,1a4.45,4.45,0,0,0-4.68-3.43c-2.54,0-5.23,1.82-5.23,5.69a5.25,5.25,0,0,0,5.28,5.62,4.73,4.73,0,0,0,4.78-3.48l3.1,0.94a7.74,7.74,0,0,1-7.87,5.78A8.5,8.5,0,0,1,127.11,111.33Z"/><path d="M149.17,119.83H146V102.45h3.19V109a4.22,4.22,0,0,1,3.19-1.3c3,0,4.39,2.09,4.39,4.68v7.44h-3.19v-6.89a2.08,2.08,0,0,0-2.18-2.35,2.21,2.21,0,0,0-2.21,2.3v6.94Z"/><path d="M162.8,113l2.9-.43a0.84,0.84,0,0,0,.89-0.84c0-.84-0.65-1.54-2-1.54a2.1,2.1,0,0,0-2.26,1.92l-2.83-.6c0.19-1.85,1.9-3.89,5.06-3.89,3.74,0,5.14,2.11,5.14,4.49V118a13.26,13.26,0,0,0,.14,1.87h-2.93a8,8,0,0,1-.12-1.42,4,4,0,0,1-3.48,1.75c-2.52,0-4.06-1.7-4.06-3.55C159.27,114.5,160.83,113.33,162.8,113Zm3.79,2v-0.53l-2.66.41a1.49,1.49,0,0,0-1.46,1.49,1.39,1.39,0,0,0,1.54,1.37A2.4,2.4,0,0,0,166.59,115.05Z"/><path d="M176.12,119.83h-3.19V108H176v1.46a3.92,3.92,0,0,1,3.41-1.78c2.93,0,4.27,2.09,4.27,4.68v7.44h-3.19v-6.89a2.08,2.08,0,0,0-2.18-2.35,2.22,2.22,0,0,0-2.21,2.45v6.79Z"/><path d="M189,119.71a2.64,2.64,0,0,0,2.76,2.23c2,0,3.14-1,3.14-3.29v-0.86a3.75,3.75,0,0,1-3.29,1.51,5.47,5.47,0,0,1-5.5-5.74,5.54,5.54,0,0,1,5.5-5.76,3.57,3.57,0,0,1,3.36,1.61V108H198v10.54c0,3.24-1.75,6.19-6.19,6.19-3.24,0-5.4-2-5.74-4.27Zm6-6.14a2.81,2.81,0,1,0-2.78,3A2.75,2.75,0,0,0,194.93,113.57Z"/><path d="M211.85,116.45a5.32,5.32,0,0,1-5.38,3.74,6.27,6.27,0,0,1-.29-12.53c3.65,0,5.83,2.33,5.83,6.12,0,0.46,0,.94,0,1h-8.45a2.88,2.88,0,0,0,3,2.69,2.61,2.61,0,0,0,2.69-1.8Zm-3-3.86a2.38,2.38,0,0,0-2.64-2.33,2.56,2.56,0,0,0-2.64,2.33h5.28Z"/><path d="M79.39,140.13a8.59,8.59,0,0,1,8.67-8.88c4.7,0,7.13,2.88,7.8,5.64l-3.12,1a4.45,4.45,0,0,0-4.68-3.43c-2.54,0-5.23,1.82-5.23,5.69a5.25,5.25,0,0,0,5.28,5.62,4.73,4.73,0,0,0,4.78-3.48l3.1,0.94A7.74,7.74,0,0,1,88.1,149,8.5,8.5,0,0,1,79.39,140.13Z"/><path d="M109.58,142.73a6.19,6.19,0,1,1-6.19-6.26A6.06,6.06,0,0,1,109.58,142.73Zm-3.19,0a3,3,0,1,0-3,3.36A3,3,0,0,0,106.39,142.73Z"/><path d="M115.29,148.63H112.1V136.82h3.1v1.46a3.92,3.92,0,0,1,3.41-1.78c2.93,0,4.27,2.09,4.27,4.68v7.44h-3.19v-6.89a2.08,2.08,0,0,0-2.18-2.35,2.22,2.22,0,0,0-2.21,2.45v6.79Z"/><path d="M130.05,136.82h2.38v2.83h-2.38v4.94a1.18,1.18,0,0,0,1.39,1.37,4.65,4.65,0,0,0,1-.1v2.64a4.73,4.73,0,0,1-1.8.29,3.42,3.42,0,0,1-3.74-3.65v-5.5h-2.14v-2.83h0.6a1.7,1.7,0,0,0,1.82-1.87v-1.66h2.88v3.53Z"/><path d="M145.6,145.25a5.32,5.32,0,0,1-5.38,3.75,6.27,6.27,0,0,1-.29-12.53c3.65,0,5.83,2.33,5.83,6.12,0,0.46,0,.94,0,1h-8.45a2.88,2.88,0,0,0,3,2.69,2.61,2.61,0,0,0,2.69-1.8Zm-3-3.86a2.38,2.38,0,0,0-2.64-2.33,2.56,2.56,0,0,0-2.64,2.33h5.28Z"/><path d="M151.48,148.63h-3.19V136.82h3.1v1.46a3.92,3.92,0,0,1,3.41-1.78c2.93,0,4.27,2.09,4.27,4.68v7.44h-3.19v-6.89a2.08,2.08,0,0,0-2.18-2.35,2.22,2.22,0,0,0-2.21,2.45v6.79Z"/><path d="M166.24,136.82h2.38v2.83h-2.38v4.94a1.18,1.18,0,0,0,1.39,1.37,4.65,4.65,0,0,0,1-.1v2.64a4.73,4.73,0,0,1-1.8.29,3.42,3.42,0,0,1-3.74-3.65v-5.5h-2.14v-2.83h0.6a1.7,1.7,0,0,0,1.82-1.87v-1.66h2.88v3.53Z"/><path class="cls-3" d="M391.91,115.94H385l-1.42,3.89h-3.5l6.53-17h3.84l6.48,17h-3.6Zm-5.81-3h4.7l-2.35-6.43Z"/><path class="cls-3" d="M409.89,117.69c0,0.79,0,1.66.1,2.14h-3a8.17,8.17,0,0,1-.12-1.37,3.7,3.7,0,0,1-3.31,1.66c-3.36,0-5.76-2.64-5.76-6.22s2.33-6.17,5.66-6.17c2,0,3,.84,3.34,1.46v-6.74h3.14v15.24Zm-6-.43c1.63,0,2.9-1.25,2.9-3.38s-1.27-3.29-2.9-3.29-2.93,1.2-2.93,3.31S402.21,117.26,403.89,117.26Z"/><path class="cls-3" d="M424.6,117.69c0,0.79,0,1.66.1,2.14h-3a8.17,8.17,0,0,1-.12-1.37,3.7,3.7,0,0,1-3.31,1.66c-3.36,0-5.76-2.64-5.76-6.22s2.33-6.17,5.66-6.17c2,0,3,.84,3.34,1.46v-6.74h3.14v15.24Zm-6-.43c1.63,0,2.9-1.25,2.9-3.38s-1.27-3.29-2.9-3.29-2.93,1.2-2.93,3.31S416.92,117.26,418.6,117.26Z"/><path class="cls-3" d="M445.26,119.83l-7.73-12.07v12.07h-3.31v-17h4.13l7.08,11.26V102.81h3.31v17h-3.48Z"/><path class="cls-3" d="M462.9,116.45a5.32,5.32,0,0,1-5.38,3.74,6.27,6.27,0,0,1-.29-12.53c3.65,0,5.83,2.33,5.83,6.12,0,0.46,0,.94,0,1h-8.45a2.88,2.88,0,0,0,3,2.69,2.61,2.61,0,0,0,2.69-1.8Zm-3-3.86a2.38,2.38,0,0,0-2.64-2.33,2.56,2.56,0,0,0-2.64,2.33h5.28Z"/><path class="cls-3" d="M475.45,108l2.54,7.61,2.18-7.61h3.17l-3.7,11.81h-3.19l-2.76-8.06L471,119.83h-3.24L464,108h3.36l2.18,7.58,2.57-7.58h3.36Z"/><path class="cls-3" d="M382.31,148.63v-17H393v3.12h-7.34v3.89h6.65v3h-6.65v3.94H393v3.12H382.31Z"/><path class="cls-3" d="M396,148.63V131.25h3.19v17.38H396Z"/><path class="cls-3" d="M413.22,145.25a5.32,5.32,0,0,1-5.38,3.75,6.27,6.27,0,0,1-.29-12.53c3.65,0,5.83,2.33,5.83,6.12,0,0.46,0,.94,0,1h-8.45a2.88,2.88,0,0,0,3,2.69,2.61,2.61,0,0,0,2.69-1.8Zm-3-3.86a2.38,2.38,0,0,0-2.64-2.33,2.56,2.56,0,0,0-2.64,2.33h5.28Z"/><path class="cls-3" d="M415.91,148.63V136.82h3v1.44a4.06,4.06,0,0,1,3.46-1.78,3.65,3.65,0,0,1,3.5,2,4.1,4.1,0,0,1,3.74-2c2.18,0,4.27,1.32,4.27,4.49v7.66h-3.1v-7a2,2,0,0,0-2.09-2.23,2.17,2.17,0,0,0-2.18,2.33v6.91H423.4v-7a2,2,0,0,0-2.09-2.23,2.16,2.16,0,0,0-2.21,2.33v6.91h-3.19Z"/><path class="cls-3" d="M447.76,145.25a5.32,5.32,0,0,1-5.38,3.75,6.27,6.27,0,0,1-.29-12.53c3.65,0,5.83,2.33,5.83,6.12,0,0.46,0,.94,0,1h-8.45a2.87,2.87,0,0,0,3,2.69,2.61,2.61,0,0,0,2.69-1.8Zm-3-3.86a2.38,2.38,0,0,0-2.64-2.33,2.56,2.56,0,0,0-2.64,2.33h5.28Z"/><path class="cls-3" d="M453.64,148.63h-3.19V136.82h3.1v1.46a3.92,3.92,0,0,1,3.41-1.78c2.93,0,4.27,2.09,4.27,4.68v7.44H458v-6.89a2.08,2.08,0,0,0-2.18-2.35,2.22,2.22,0,0,0-2.21,2.45v6.79Z"/><path class="cls-3" d="M468.4,136.82h2.38v2.83H468.4v4.94a1.18,1.18,0,0,0,1.39,1.37,4.65,4.65,0,0,0,1-.1v2.64a4.73,4.73,0,0,1-1.8.29,3.42,3.42,0,0,1-3.74-3.65v-5.5h-2.14v-2.83h0.6a1.7,1.7,0,0,0,1.82-1.87v-1.66h2.88v3.53Z"/><path class="cls-3" d="M475.48,144.74a2,2,0,0,0,2.16,1.8,1.31,1.31,0,0,0,1.56-1.18,1.27,1.27,0,0,0-1.27-1.15l-1.56-.36c-2.28-.5-3.31-1.87-3.31-3.53,0-2.11,1.87-3.86,4.42-3.86,3.36,0,4.49,2.14,4.63,3.41l-2.66.6a1.8,1.8,0,0,0-1.94-1.58,1.36,1.36,0,0,0-1.51,1.18,1.12,1.12,0,0,0,1.08,1.06l1.68,0.36c2.33,0.48,3.5,1.9,3.5,3.62,0,1.92-1.49,3.89-4.58,3.89-3.55,0-4.78-2.3-4.92-3.65Z"/><path class="cls-3" d="M709.6,119.83l-0.22-1.94a5.86,5.86,0,0,1-5,2.3c-4.58,0-8.5-3.36-8.5-8.86a8.56,8.56,0,0,1,8.71-8.88c4.46,0,6.94,2.62,7.78,5.23l-3.17,1.13a4.54,4.54,0,0,0-4.61-3.26c-2.57,0-5.35,1.75-5.35,5.78,0,3.84,2.52,5.83,5.38,5.83,3.14,0,4.37-2.11,4.56-3.31h-5.38V111h8.5v8.86H709.6Z"/><path class="cls-3" d="M726,116.45a5.32,5.32,0,0,1-5.38,3.74,6.27,6.27,0,0,1-.29-12.53c3.65,0,5.83,2.33,5.83,6.12,0,0.46,0,.94,0,1h-8.45a2.88,2.88,0,0,0,3,2.69,2.61,2.61,0,0,0,2.69-1.8Zm-3-3.86a2.38,2.38,0,0,0-2.64-2.33,2.56,2.56,0,0,0-2.64,2.33H723Z"/><path class="cls-3" d="M732.59,108H735v2.83h-2.38v4.94a1.18,1.18,0,0,0,1.39,1.37,4.65,4.65,0,0,0,1-.1v2.64a4.74,4.74,0,0,1-1.8.29,3.42,3.42,0,0,1-3.74-3.65v-5.5h-2.14V108h0.6a1.7,1.7,0,0,0,1.82-1.87v-1.66h2.88V108Z"/><path class="cls-3" d="M739.4,120h-2.88L745,102.6h2.9Z"/><path class="cls-3" d="M757.81,107.78a2.91,2.91,0,0,0-3.1-2.4,2.41,2.41,0,0,0-2.66,2.16,2,2,0,0,0,1.85,1.92l2.38,0.46c3.1,0.6,4.75,2.62,4.75,5,0,2.62-2.18,5.26-6.14,5.26-4.51,0-6.5-2.9-6.77-5.33l3.07-.82a3.42,3.42,0,0,0,3.72,3.19c1.78,0,2.76-.89,2.76-2.09,0-1-.74-1.75-2.06-2l-2.38-.48c-2.71-.55-4.46-2.3-4.46-4.87,0-3,2.71-5.33,5.93-5.33,4.13,0,5.71,2.5,6.1,4.42Z"/><path class="cls-3" d="M774.08,116.45a5.32,5.32,0,0,1-5.38,3.74,6.27,6.27,0,0,1-.29-12.53c3.65,0,5.83,2.33,5.83,6.12,0,0.46,0,.94,0,1h-8.45a2.88,2.88,0,0,0,3,2.69,2.61,2.61,0,0,0,2.69-1.8Zm-3-3.86a2.38,2.38,0,0,0-2.64-2.33,2.56,2.56,0,0,0-2.64,2.33h5.28Z"/><path class="cls-3" d="M780.71,108h2.38v2.83h-2.38v4.94a1.18,1.18,0,0,0,1.39,1.37,4.65,4.65,0,0,0,1-.1v2.64a4.74,4.74,0,0,1-1.8.29,3.42,3.42,0,0,1-3.74-3.65v-5.5H775.4V108H776a1.7,1.7,0,0,0,1.82-1.87v-1.66h2.88V108Z"/><path class="cls-3" d="M661.38,144.74h-6.91l-1.42,3.89h-3.5l6.53-17h3.84l6.48,17h-3.6Zm-5.81-3h4.7l-2.35-6.43Z"/><path class="cls-3" d="M671.75,136.82h2.38v2.83h-2.38v4.94a1.18,1.18,0,0,0,1.39,1.37,4.65,4.65,0,0,0,1-.1v2.64a4.74,4.74,0,0,1-1.8.29,3.42,3.42,0,0,1-3.74-3.65v-5.5h-2.14v-2.83H667a1.7,1.7,0,0,0,1.82-1.87v-1.66h2.88v3.53Z"/><path class="cls-3" d="M680.7,136.82h2.38v2.83H680.7v4.94a1.18,1.18,0,0,0,1.39,1.37,4.64,4.64,0,0,0,1-.1v2.64a4.73,4.73,0,0,1-1.8.29,3.42,3.42,0,0,1-3.74-3.65v-5.5h-2.14v-2.83H676a1.7,1.7,0,0,0,1.82-1.87v-1.66h2.88v3.53Z"/><path class="cls-3" d="M692.82,140a4.78,4.78,0,0,0-1-.1c-1.63,0-3,.79-3,3.34v5.4h-3.19V136.82h3.1v1.75a3.51,3.51,0,0,1,3.36-1.85,7.43,7.43,0,0,1,.74,0V140Z"/><path class="cls-3" d="M696.66,131a2,2,0,1,1-2,2A2,2,0,0,1,696.66,131Zm-1.58,17.67V136.82h3.19v11.81h-3.19Z"/><path class="cls-3" d="M701.67,148.63V131.25h3.14v6.86a4.2,4.2,0,0,1,3.58-1.61c3.46,0,5.45,2.66,5.45,6.17s-2.21,6.24-5.57,6.24a4,4,0,0,1-3.5-1.73v1.44h-3.1Zm6-9.26c-1.61,0-3,1.18-3,3.34s1.34,3.36,3,3.36,2.93-1.2,2.93-3.36S709.35,139.37,707.72,139.37Z"/><path class="cls-3" d="M723.95,147.36a3.73,3.73,0,0,1-3.26,1.58,4.35,4.35,0,0,1-4.49-4.66v-7.46h3.19v6.82a2.1,2.1,0,0,0,2.16,2.38,2.13,2.13,0,0,0,2.23-2.33v-6.86H727v9.67a19.45,19.45,0,0,0,.12,2.14h-3A8.11,8.11,0,0,1,723.95,147.36Z"/><path class="cls-3" d="M734.31,136.82h2.38v2.83h-2.38v4.94a1.18,1.18,0,0,0,1.39,1.37,4.64,4.64,0,0,0,1-.1v2.64a4.73,4.73,0,0,1-1.8.29,3.42,3.42,0,0,1-3.74-3.65v-5.5H729v-2.83h0.6a1.7,1.7,0,0,0,1.82-1.87v-1.66h2.88v3.53Z"/><path class="cls-3" d="M749.87,145.25a5.32,5.32,0,0,1-5.38,3.75,6.27,6.27,0,0,1-.29-12.53c3.65,0,5.83,2.33,5.83,6.12,0,0.46,0,.94,0,1h-8.45a2.88,2.88,0,0,0,3,2.69,2.61,2.61,0,0,0,2.69-1.8Zm-3-3.86a2.38,2.38,0,0,0-2.64-2.33,2.56,2.56,0,0,0-2.64,2.33h5.28Z"/><path class="cls-3" d="M769.52,131.61H773l-6.31,17h-3.41l-6.29-17h3.62l4.44,12.65Z"/><path class="cls-3" d="M776.31,141.84l2.9-.43a0.84,0.84,0,0,0,.89-0.84c0-.84-0.65-1.54-2-1.54a2.1,2.1,0,0,0-2.26,1.92l-2.83-.6c0.19-1.85,1.9-3.89,5.06-3.89,3.74,0,5.14,2.11,5.14,4.49v5.81a13.34,13.34,0,0,0,.14,1.87h-2.93a8,8,0,0,1-.12-1.42,4,4,0,0,1-3.48,1.75c-2.52,0-4.06-1.7-4.06-3.55C772.79,143.3,774.35,142.13,776.31,141.84Zm3.79,2v-0.53l-2.66.41a1.49,1.49,0,0,0-1.46,1.49,1.39,1.39,0,0,0,1.54,1.37A2.4,2.4,0,0,0,780.11,143.85Z"/><path class="cls-3" d="M786.44,148.63V131.25h3.19v17.38h-3.19Z"/><path class="cls-3" d="M800.63,147.36a3.73,3.73,0,0,1-3.26,1.58,4.35,4.35,0,0,1-4.49-4.66v-7.46h3.19v6.82a2.1,2.1,0,0,0,2.16,2.38,2.13,2.13,0,0,0,2.23-2.33v-6.86h3.19v9.67a19.45,19.45,0,0,0,.12,2.14h-3A8.11,8.11,0,0,1,800.63,147.36Z"/><path class="cls-3" d="M817.59,145.25a5.32,5.32,0,0,1-5.38,3.75,6.27,6.27,0,0,1-.29-12.53c3.65,0,5.83,2.33,5.83,6.12,0,0.46,0,.94,0,1h-8.45a2.88,2.88,0,0,0,3,2.69,2.61,2.61,0,0,0,2.69-1.8Zm-3-3.86a2.38,2.38,0,0,0-2.64-2.33,2.56,2.56,0,0,0-2.64,2.33h5.28Z"/><path class="cls-3" d="M822,144.74a2,2,0,0,0,2.16,1.8,1.31,1.31,0,0,0,1.56-1.18,1.27,1.27,0,0,0-1.27-1.15l-1.56-.36c-2.28-.5-3.31-1.87-3.31-3.53,0-2.11,1.87-3.86,4.42-3.86,3.36,0,4.49,2.14,4.63,3.41l-2.66.6a1.8,1.8,0,0,0-1.94-1.58,1.36,1.36,0,0,0-1.51,1.18,1.12,1.12,0,0,0,1.08,1.06l1.68,0.36c2.33,0.48,3.5,1.9,3.5,3.62,0,1.92-1.49,3.89-4.58,3.89-3.55,0-4.78-2.3-4.92-3.65Z"/><path class="cls-3" d="M100.54,287.83H99.17V282a3.12,3.12,0,0,0-.39-1.77,1.4,1.4,0,0,0-1.23-.55,3.93,3.93,0,0,0-2.7,1.56v6.63H93.49v-12.4h1.37V280A4.29,4.29,0,0,1,98,278.45q2.58,0,2.58,3.11v6.27Z"/><path class="cls-3" d="M111.43,287.42a6.48,6.48,0,0,1-2.72.63q-2.45,0-2.45-2.59v-5.6h-1.76v-1.19h1.76v-2.5h1.34v2.5h3.11v1.19H107.6v5.24a2,2,0,0,0,.37,1.3,1.21,1.21,0,0,0,1,.46,5.31,5.31,0,0,0,2.22-.5Z"/><path class="cls-3" d="M122.87,287.83H121.5v-6q0-2.18-.81-2.18a1.32,1.32,0,0,0-.91.75,4.68,4.68,0,0,0-.5.83v6.61h-1.36v-6q0-2.18-.82-2.18a1.33,1.33,0,0,0-.9.75,4.68,4.68,0,0,0-.5.83v6.61h-1.37v-9.16h1.32v1.38a3.76,3.76,0,0,1,.92-1.17,1.68,1.68,0,0,1,1.06-.43,1.38,1.38,0,0,1,1,.43,2.33,2.33,0,0,1,.61,1.17,3.72,3.72,0,0,1,.92-1.17,1.69,1.69,0,0,1,1.05-.43q1.66,0,1.66,3v6.41Z"/><path class="cls-3" d="M132.28,287.83h-3.74V276.62h-2.39v-1.19h3.76v11.21h2.37v1.19Z"/><path class="cls-3" d="M143.22,289.67l-0.54.76a10.34,10.34,0,0,1-3-3.45,9,9,0,0,1,0-8.32,10.21,10.21,0,0,1,3-3.44l0.54,0.76a9.14,9.14,0,0,0-2.32,3,10.64,10.64,0,0,0,0,7.7A9.43,9.43,0,0,0,143.22,289.67Z"/><path class="cls-3" d="M148.52,275.21a10.24,10.24,0,0,1,3,3.44,9,9,0,0,1,0,8.32,10.29,10.29,0,0,1-3,3.45l-0.54-.76a8.88,8.88,0,0,0,2.32-3,9.48,9.48,0,0,0,.71-3.84,9.09,9.09,0,0,0-.73-3.87,9.41,9.41,0,0,0-2.29-3Z"/><path class="cls-4" d="M100.63,309a6.48,6.48,0,0,1-2.72.63q-2.45,0-2.45-2.59v-5.6H93.7v-1.19h1.76v-2.5H96.8v2.5h3.11v1.19H96.8v5.24a2,2,0,0,0,.37,1.3,1.21,1.21,0,0,0,1,.46,5.31,5.31,0,0,0,2.22-.5Z"/><path class="cls-4" d="M111.62,304.89h-6.28a3.71,3.71,0,0,0,.9,2.57,2.85,2.85,0,0,0,2.21,1A8,8,0,0,0,111,308l0.24,1.1a6.85,6.85,0,0,1-2.83.54,4.33,4.33,0,0,1-3.29-1.31,4.91,4.91,0,0,1-1.25-3.53,5.13,5.13,0,0,1,1.12-3.48,3.65,3.65,0,0,1,2.9-1.3,3.39,3.39,0,0,1,2.65,1.2,4.67,4.67,0,0,1,1.06,3.21v0.43Zm-1.49-1.12a2.58,2.58,0,0,0-.67-1.81,2,2,0,0,0-1.49-.73,2.38,2.38,0,0,0-1.76.7,2.78,2.78,0,0,0-.78,1.84h4.7Z"/><path class="cls-4" d="M122.47,309.43h-1.55l-2.45-3.59-2.54,3.59h-1.46l3.26-4.59-3.26-4.57H116l2.46,3.56,2.5-3.56h1.46l-3.24,4.52Z"/><path class="cls-4" d="M133,309a6.48,6.48,0,0,1-2.72.63q-2.45,0-2.45-2.59v-5.6h-1.76v-1.19h1.76v-2.5h1.34v2.5h3.11v1.19H129.2v5.24a2,2,0,0,0,.37,1.3,1.21,1.21,0,0,0,1,.46,5.31,5.31,0,0,0,2.22-.5Z"/><path class="cls-4" d="M143.22,311.27l-0.54.76a10.34,10.34,0,0,1-3-3.45,9,9,0,0,1,0-8.32,10.21,10.21,0,0,1,3-3.44l0.54,0.76a9.14,9.14,0,0,0-2.32,3,10.64,10.64,0,0,0,0,7.7A9.42,9.42,0,0,0,143.22,311.27Z"/><path class="cls-4" d="M148.52,296.81a10.24,10.24,0,0,1,3,3.44,9,9,0,0,1,0,8.32,10.29,10.29,0,0,1-3,3.45l-0.54-.76a8.88,8.88,0,0,0,2.32-3,9.48,9.48,0,0,0,.71-3.84,9.09,9.09,0,0,0-.73-3.87,9.41,9.41,0,0,0-2.29-3Z"/></svg>