<svg id="Layer_1" data-name="Layer 1" xmlns="http://www.w3.org/2000/svg" viewBox="0 0 790.61 37.5"><defs><style>.cls-1{opacity:0.5;}.cls-2{fill:#feda00;}.cls-3{fill:#231f20;}.cls-4{fill:#f7acc1;}.cls-5{fill:#3cc0c0;}</style></defs><title>slide-15-fade </title><g class="cls-1"><rect class="cls-2" width="81.5" height="37.5" rx="8.26" ry="8.26"/><path class="cls-3" d="M25.6,21.65a.71.71,0,0,1,.72-.76.76.76,0,1,1-.72.76Z"/><path class="cls-3" d="M28.34,13.76h1.06v3.62h0a2,2,0,0,1,.76-.74,2.17,2.17,0,0,1,1.08-.3c.78,0,2,.48,2,2.48v3.45H32.22V18.94c0-.94-.35-1.73-1.34-1.73a1.52,1.52,0,0,0-1.42,1.06,1.28,1.28,0,0,0-.07.5v3.5H28.34Z"/><path class="cls-3" d="M36.17,14.84a.65.65,0,0,1-1.31,0,.64.64,0,0,1,.66-.66A.63.63,0,0,1,36.17,14.84ZM35,22.27v-5.8h1.06v5.8Z"/><path class="cls-3" d="M42.82,13.76v7c0,.52,0,1.1,0,1.5h-.95l0-1h0a2.15,2.15,0,0,1-2,1.14c-1.4,0-2.48-1.19-2.48-3,0-1.93,1.19-3.12,2.6-3.12a1.94,1.94,0,0,1,1.75.89h0V13.76Zm-1.06,5.07a1.85,1.85,0,0,0,0-.44,1.55,1.55,0,0,0-1.52-1.22c-1.09,0-1.74,1-1.74,2.24s.58,2.15,1.72,2.15a1.59,1.59,0,0,0,1.55-1.26,1.82,1.82,0,0,0,0-.46Z"/><path class="cls-3" d="M45.16,19.56a1.86,1.86,0,0,0,2,2,3.82,3.82,0,0,0,1.61-.3l.18.75a4.7,4.7,0,0,1-1.93.36,2.7,2.7,0,0,1-2.85-2.93c0-1.75,1-3.13,2.72-3.13a2.46,2.46,0,0,1,2.4,2.73,4,4,0,0,1,0,.49Zm3.09-.75a1.5,1.5,0,0,0-1.46-1.72,1.75,1.75,0,0,0-1.62,1.72Z"/><path class="cls-3" d="M52.87,13.95a7.91,7.91,0,0,0-1.51,4.91,8.08,8.08,0,0,0,1.51,4.87H52a7.74,7.74,0,0,1-1.57-4.87A7.91,7.91,0,0,1,52,13.95Z"/><path class="cls-3" d="M53.36,23.72a8.12,8.12,0,0,0,1.51-4.9,8,8,0,0,0-1.51-4.87h.82a7.64,7.64,0,0,1,1.57,4.88,7.79,7.79,0,0,1-1.57,4.89Z"/></g><g class="cls-1"><rect class="cls-2" x="101.3" width="81.5" height="37.5" rx="8.26" ry="8.26"/><path class="cls-3" d="M124.65,21.65a.71.71,0,0,1,.72-.76.76.76,0,1,1-.72.76Z"/><path class="cls-3" d="M127.24,21.19a2.78,2.78,0,0,0,1.39.42c.77,0,1.13-.38,1.13-.87s-.3-.78-1.08-1.07c-1-.37-1.54-.95-1.54-1.64a1.79,1.79,0,0,1,2-1.7,2.9,2.9,0,0,1,1.43.36l-.26.77a2.26,2.26,0,0,0-1.19-.34c-.62,0-1,.36-1,.79s.35.7,1.1,1c1,.38,1.52.89,1.52,1.75,0,1-.79,1.74-2.17,1.74A3.31,3.31,0,0,1,127,22Z"/><path class="cls-3" d="M132.14,13.76h1.06v3.62h0a2,2,0,0,1,.76-.74,2.17,2.17,0,0,1,1.08-.3c.78,0,2,.48,2,2.48v3.45H136V18.94c0-.94-.35-1.73-1.34-1.73a1.52,1.52,0,0,0-1.42,1.06,1.28,1.28,0,0,0-.07.5v3.5h-1.06Z"/><path class="cls-3" d="M144.05,19.32a2.84,2.84,0,0,1-2.89,3.08,2.76,2.76,0,0,1-2.78-3,2.83,2.83,0,0,1,2.88-3.08A2.75,2.75,0,0,1,144.05,19.32Zm-4.61.06c0,1.27.73,2.23,1.76,2.23s1.76-.95,1.76-2.26c0-1-.49-2.23-1.74-2.23S139.45,18.28,139.45,19.38Z"/><path class="cls-3" d="M145.72,16.47l.77,3c.17.65.32,1.25.43,1.85h0c.13-.59.32-1.21.52-1.83l.95-3h.89l.9,2.9c.22.69.38,1.31.52,1.89h0a17.57,17.57,0,0,1,.44-1.88l.83-2.91h1l-1.87,5.8h-1l-.89-2.77a19.45,19.45,0,0,1-.52-1.91h0a17.08,17.08,0,0,1-.53,1.92l-.94,2.76h-1l-1.75-5.8Z"/><path class="cls-3" d="M156.43,13.95a7.91,7.91,0,0,0-1.51,4.91,8.08,8.08,0,0,0,1.51,4.87h-.83A7.74,7.74,0,0,1,154,18.85a7.91,7.91,0,0,1,1.57-4.91Z"/><path class="cls-3" d="M156.91,23.72a8.12,8.12,0,0,0,1.51-4.9,8,8,0,0,0-1.51-4.87h.82a7.64,7.64,0,0,1,1.57,4.88,7.79,7.79,0,0,1-1.57,4.89Z"/></g><rect class="cls-4" x="202.6" width="81.5" height="37.5" rx="8.26" ry="8.26"/><path class="cls-3" d="M223.47,21.65a.71.71,0,0,1,.72-.76.76.76,0,1,1-.72.76Z"/><path class="cls-3" d="M226.31,22.27v-5h-.82v-.8h.82v-.28a2.74,2.74,0,0,1,.67-2,2,2,0,0,1,1.42-.54,2.45,2.45,0,0,1,.9.17l-.14.82a1.58,1.58,0,0,0-.67-.13c-.9,0-1.13.79-1.13,1.68v.31h1.4v.8h-1.4v5Z"/><path class="cls-3" d="M232.92,22.27l-.08-.73h0a2.16,2.16,0,0,1-1.77.86,1.65,1.65,0,0,1-1.77-1.67c0-1.4,1.25-2.17,3.49-2.16v-.12a1.2,1.2,0,0,0-1.32-1.34,2.89,2.89,0,0,0-1.51.43l-.24-.7a3.61,3.61,0,0,1,1.91-.52c1.77,0,2.21,1.21,2.21,2.37v2.17a8.12,8.12,0,0,0,.1,1.39Zm-.16-3c-1.15,0-2.46.18-2.46,1.31a.93.93,0,0,0,1,1,1.44,1.44,0,0,0,1.4-1,1.1,1.1,0,0,0,.06-.34Z"/><path class="cls-3" d="M240.51,13.76v7c0,.52,0,1.1,0,1.5h-.95l0-1h0a2.15,2.15,0,0,1-2,1.14c-1.4,0-2.48-1.19-2.48-3,0-1.93,1.19-3.12,2.6-3.12a1.94,1.94,0,0,1,1.75.89h0V13.76Zm-1.06,5.07a1.85,1.85,0,0,0,0-.44,1.55,1.55,0,0,0-1.52-1.22c-1.09,0-1.74,1-1.74,2.24s.58,2.15,1.72,2.15a1.59,1.59,0,0,0,1.55-1.26,1.82,1.82,0,0,0,0-.46Z"/><path class="cls-3" d="M242.85,19.56a1.86,1.86,0,0,0,2,2,3.82,3.82,0,0,0,1.61-.3l.18.75a4.7,4.7,0,0,1-1.93.36,2.7,2.7,0,0,1-2.85-2.93c0-1.75,1-3.13,2.72-3.13a2.46,2.46,0,0,1,2.4,2.73,4,4,0,0,1,0,.49Zm3.09-.75a1.5,1.5,0,0,0-1.46-1.72,1.75,1.75,0,0,0-1.62,1.72Z"/><path class="cls-3" d="M249.35,14.19v8.08h-1V14.19Z"/><path class="cls-3" d="M251.26,18c0-.6,0-1.09,0-1.57h.94l.06,1h0a2.13,2.13,0,0,1,1.92-1.09c.8,0,2.05.48,2.05,2.47v3.47h-1.06V18.93c0-.94-.35-1.72-1.34-1.72a1.5,1.5,0,0,0-1.42,1.08,1.52,1.52,0,0,0-.07.49v3.49h-1.06Z"/><path class="cls-3" d="M260.21,13.95a7.91,7.91,0,0,0-1.51,4.91,8.08,8.08,0,0,0,1.51,4.87h-.83a7.74,7.74,0,0,1-1.57-4.87,7.91,7.91,0,0,1,1.57-4.91Z"/><path class="cls-3" d="M260.69,23.72a8.12,8.12,0,0,0,1.51-4.9,8,8,0,0,0-1.51-4.87h.82a7.64,7.64,0,0,1,1.57,4.88,7.79,7.79,0,0,1-1.57,4.89Z"/><rect class="cls-4" x="303.9" width="81.5" height="37.5" rx="8.26" ry="8.26"/><path class="cls-3" d="M320.15,21.65a.71.71,0,0,1,.72-.76.76.76,0,1,1-.72.76Z"/><path class="cls-3" d="M323,22.27v-5h-.82v-.8H323v-.28a2.74,2.74,0,0,1,.67-2,2,2,0,0,1,1.42-.54,2.45,2.45,0,0,1,.9.17l-.14.82a1.58,1.58,0,0,0-.67-.13c-.9,0-1.13.79-1.13,1.68v.31h1.4v.8H324v5Z"/><path class="cls-3" d="M329.6,22.27l-.08-.73h0a2.16,2.16,0,0,1-1.77.86,1.65,1.65,0,0,1-1.77-1.67c0-1.4,1.25-2.17,3.49-2.16v-.12a1.2,1.2,0,0,0-1.32-1.34,2.89,2.89,0,0,0-1.51.43l-.24-.7a3.61,3.61,0,0,1,1.91-.52c1.77,0,2.21,1.21,2.21,2.37v2.17a8.12,8.12,0,0,0,.1,1.39Zm-.16-3c-1.15,0-2.46.18-2.46,1.31a.93.93,0,0,0,1,1,1.44,1.44,0,0,0,1.4-1,1.1,1.1,0,0,0,.06-.34Z"/><path class="cls-3" d="M337.19,13.76v7c0,.52,0,1.1,0,1.5h-.95l0-1h0a2.15,2.15,0,0,1-2,1.14c-1.4,0-2.48-1.19-2.48-3,0-1.93,1.19-3.12,2.6-3.12a1.94,1.94,0,0,1,1.75.89h0V13.76Zm-1.06,5.07a1.85,1.85,0,0,0,0-.44,1.55,1.55,0,0,0-1.52-1.22c-1.09,0-1.74,1-1.74,2.24s.58,2.15,1.72,2.15a1.59,1.59,0,0,0,1.55-1.26,1.82,1.82,0,0,0,0-.46Z"/><path class="cls-3" d="M339.53,19.56a1.86,1.86,0,0,0,2,2,3.82,3.82,0,0,0,1.61-.3l.18.75a4.7,4.7,0,0,1-1.93.36,2.7,2.7,0,0,1-2.85-2.93c0-1.75,1-3.13,2.72-3.13a2.46,2.46,0,0,1,2.4,2.73,4,4,0,0,1,0,.49Zm3.09-.75a1.5,1.5,0,0,0-1.46-1.72,1.75,1.75,0,0,0-1.62,1.72Z"/><path class="cls-3" d="M351.9,18.15c0,2.78-1.69,4.26-3.75,4.26s-3.63-1.66-3.63-4.1,1.6-4.25,3.75-4.25S351.9,15.75,351.9,18.15Zm-6.27.13c0,1.73.94,3.27,2.58,3.27s2.59-1.52,2.59-3.36c0-1.61-.84-3.29-2.58-3.29S345.63,16.5,345.63,18.28Z"/><path class="cls-3" d="M358.12,20.69c0,.6,0,1.13,0,1.58h-.94l-.06-.95h0a2.18,2.18,0,0,1-1.92,1.08c-.91,0-2-.5-2-2.54V16.47h1.06v3.21c0,1.1.34,1.85,1.3,1.85a1.53,1.53,0,0,0,1.39-1,1.54,1.54,0,0,0,.1-.54V16.47h1.06Z"/><path class="cls-3" d="M361.14,14.8v1.67h1.51v.8h-1.51V20.4c0,.72.2,1.13.79,1.13a2.38,2.38,0,0,0,.61-.07l0,.79a2.58,2.58,0,0,1-.94.14,1.46,1.46,0,0,1-1.14-.45,2.14,2.14,0,0,1-.41-1.51V17.27h-.9v-.8h.9V15.08Z"/><path class="cls-3" d="M366.13,13.95a7.91,7.91,0,0,0-1.51,4.91,8.08,8.08,0,0,0,1.51,4.87h-.83a7.74,7.74,0,0,1-1.57-4.87,7.91,7.91,0,0,1,1.57-4.91Z"/><path class="cls-3" d="M366.61,23.72a8.12,8.12,0,0,0,1.51-4.9,8,8,0,0,0-1.51-4.87h.82A7.64,7.64,0,0,1,369,18.83a7.79,7.79,0,0,1-1.57,4.89Z"/><rect class="cls-4" x="405.21" width="81.5" height="37.5" rx="8.26" ry="8.26"/><path class="cls-3" d="M414.11,21.65a.71.71,0,0,1,.72-.76.76.76,0,1,1-.72.76Z"/><path class="cls-3" d="M417,22.27v-5h-.82v-.8H417v-.28a2.74,2.74,0,0,1,.67-2,2,2,0,0,1,1.42-.54,2.44,2.44,0,0,1,.9.17l-.14.82a1.59,1.59,0,0,0-.67-.13c-.9,0-1.13.79-1.13,1.68v.31h1.4v.8H418v5Z"/><path class="cls-3" d="M423.57,22.27l-.08-.73h0a2.16,2.16,0,0,1-1.77.86,1.65,1.65,0,0,1-1.78-1.67c0-1.4,1.25-2.17,3.49-2.16v-.12a1.2,1.2,0,0,0-1.32-1.34,2.89,2.89,0,0,0-1.51.43l-.24-.7a3.61,3.61,0,0,1,1.91-.52c1.77,0,2.21,1.21,2.21,2.37v2.17a8.12,8.12,0,0,0,.1,1.39Zm-.16-3c-1.15,0-2.46.18-2.46,1.31a.93.93,0,0,0,1,1,1.44,1.44,0,0,0,1.4-1,1.09,1.09,0,0,0,.06-.34Z"/><path class="cls-3" d="M431.15,13.76v7c0,.52,0,1.1,0,1.5h-.95l0-1h0a2.15,2.15,0,0,1-2,1.14c-1.4,0-2.48-1.19-2.48-3,0-1.93,1.19-3.12,2.6-3.12a1.94,1.94,0,0,1,1.75.89h0V13.76Zm-1.06,5.07a1.85,1.85,0,0,0,0-.44,1.55,1.55,0,0,0-1.52-1.22c-1.09,0-1.74,1-1.74,2.24s.58,2.15,1.72,2.15A1.59,1.59,0,0,0,430,20.29a1.82,1.82,0,0,0,0-.46Z"/><path class="cls-3" d="M433.49,19.56a1.86,1.86,0,0,0,2,2,3.82,3.82,0,0,0,1.61-.3l.18.75a4.69,4.69,0,0,1-1.93.36,2.7,2.7,0,0,1-2.85-2.93c0-1.75,1-3.13,2.72-3.13a2.46,2.46,0,0,1,2.4,2.73,4,4,0,0,1,0,.49Zm3.09-.75a1.5,1.5,0,0,0-1.46-1.72,1.75,1.75,0,0,0-1.62,1.72Z"/><path class="cls-3" d="M440.09,15.08h-2.46v-.89h6v.89h-2.47v7.2h-1.06Z"/><path class="cls-3" d="M448.89,19.32A2.84,2.84,0,0,1,446,22.4a2.76,2.76,0,0,1-2.78-3,2.83,2.83,0,0,1,2.88-3.08A2.75,2.75,0,0,1,448.89,19.32Zm-4.61.06c0,1.27.73,2.23,1.76,2.23s1.76-.95,1.76-2.26c0-1-.49-2.23-1.74-2.23S444.28,18.28,444.28,19.38Z"/><path class="cls-3" d="M455.22,16.47c0,.42,0,.89,0,1.59v3.37a3.33,3.33,0,0,1-.83,2.65,3.07,3.07,0,0,1-2.11.7,3.74,3.74,0,0,1-1.93-.48l.26-.8a3.29,3.29,0,0,0,1.7.46c1.08,0,1.87-.56,1.87-2v-.65h0a2.07,2.07,0,0,1-1.85,1,2.59,2.59,0,0,1-2.47-2.83,2.79,2.79,0,0,1,2.61-3.08,1.93,1.93,0,0,1,1.81,1h0l0-.87Zm-1.09,2.29a1.54,1.54,0,0,0-1.54-1.6c-1,0-1.73.85-1.73,2.2,0,1.14.58,2.09,1.71,2.09A1.54,1.54,0,0,0,454,20.37a1.85,1.85,0,0,0,.08-.56Z"/><path class="cls-3" d="M461.93,16.47c0,.42,0,.89,0,1.59v3.37a3.33,3.33,0,0,1-.83,2.65,3.07,3.07,0,0,1-2.11.7A3.74,3.74,0,0,1,457,24.3l.26-.8A3.29,3.29,0,0,0,459,24c1.08,0,1.87-.56,1.87-2v-.65h0a2.07,2.07,0,0,1-1.85,1,2.59,2.59,0,0,1-2.47-2.83,2.79,2.79,0,0,1,2.61-3.08,1.93,1.93,0,0,1,1.81,1h0l0-.87Zm-1.09,2.29a1.54,1.54,0,0,0-1.54-1.6c-1,0-1.73.85-1.73,2.2,0,1.14.58,2.09,1.71,2.09a1.54,1.54,0,0,0,1.46-1.08,1.85,1.85,0,0,0,.08-.56Z"/><path class="cls-3" d="M463.64,13.76h1.06v8.52h-1.06Z"/><path class="cls-3" d="M467.06,19.56a1.86,1.86,0,0,0,2,2,3.82,3.82,0,0,0,1.61-.3l.18.75a4.69,4.69,0,0,1-1.93.36A2.7,2.7,0,0,1,466,19.47c0-1.75,1-3.13,2.72-3.13a2.46,2.46,0,0,1,2.4,2.73,4,4,0,0,1,0,.49Zm3.09-.75a1.5,1.5,0,0,0-1.46-1.72,1.75,1.75,0,0,0-1.62,1.72Z"/><path class="cls-3" d="M474.77,13.95a7.91,7.91,0,0,0-1.51,4.91,8.08,8.08,0,0,0,1.51,4.87h-.83a7.74,7.74,0,0,1-1.57-4.87,7.92,7.92,0,0,1,1.57-4.91Z"/><path class="cls-3" d="M475.25,23.72a8.12,8.12,0,0,0,1.51-4.9,8,8,0,0,0-1.51-4.87h.82a7.64,7.64,0,0,1,1.57,4.88,7.79,7.79,0,0,1-1.57,4.89Z"/><g class="cls-1"><rect class="cls-5" x="506.51" width="81.5" height="37.5" rx="8.26" ry="8.26"/><path class="cls-3" d="M524.35,21.65a.71.71,0,0,1,.72-.76.76.76,0,1,1-.72.76Z"/><path class="cls-3" d="M526.94,21.19a2.77,2.77,0,0,0,1.39.42c.77,0,1.13-.38,1.13-.87s-.3-.78-1.08-1.07c-1-.37-1.54-.95-1.54-1.64a1.79,1.79,0,0,1,2-1.7,2.9,2.9,0,0,1,1.43.36l-.26.77a2.26,2.26,0,0,0-1.19-.34c-.62,0-1,.36-1,.79s.35.7,1.1,1c1,.38,1.52.89,1.52,1.75,0,1-.79,1.74-2.17,1.74a3.3,3.3,0,0,1-1.63-.4Z"/><path class="cls-3" d="M531.84,13.76h1.06v8.52h-1.06Z"/><path class="cls-3" d="M535.85,14.84a.65.65,0,0,1-1.31,0,.64.64,0,0,1,.66-.66A.63.63,0,0,1,535.85,14.84Zm-1.18,7.44v-5.8h1.06v5.8Z"/><path class="cls-3" d="M542.49,13.76v7c0,.52,0,1.1,0,1.5h-.95l0-1h0a2.15,2.15,0,0,1-2,1.14c-1.4,0-2.48-1.19-2.48-3,0-1.93,1.19-3.12,2.6-3.12a1.94,1.94,0,0,1,1.75.89h0V13.76Zm-1.05,5.07a1.85,1.85,0,0,0,0-.44,1.55,1.55,0,0,0-1.52-1.22c-1.09,0-1.74,1-1.74,2.24s.58,2.15,1.71,2.15a1.59,1.59,0,0,0,1.55-1.26,1.82,1.82,0,0,0,0-.46Z"/><path class="cls-3" d="M544.83,19.56a1.86,1.86,0,0,0,2,2,3.82,3.82,0,0,0,1.61-.3l.18.75a4.7,4.7,0,0,1-1.93.36,2.7,2.7,0,0,1-2.85-2.93c0-1.75,1-3.13,2.72-3.13a2.46,2.46,0,0,1,2.4,2.73,4,4,0,0,1,0,.49Zm3.09-.75a1.5,1.5,0,0,0-1.46-1.72,1.75,1.75,0,0,0-1.62,1.72Z"/><path class="cls-3" d="M551.34,14.19V19c0,1.81.8,2.58,1.88,2.58s2-.79,2-2.58V14.19h1.06V18.9c0,2.48-1.31,3.5-3.06,3.5s-2.9-.95-2.9-3.45V14.19Z"/><path class="cls-3" d="M558,18.36c0-.74,0-1.34,0-1.89h.95l0,1h0a2.28,2.28,0,0,1,2.06-1.13c1.4,0,2.46,1.19,2.46,3,0,2.09-1.27,3.12-2.64,3.12a2,2,0,0,1-1.79-.91h0v3.15h-1Zm1,1.55a2.36,2.36,0,0,0,0,.43,1.63,1.63,0,0,0,1.58,1.23c1.12,0,1.76-.91,1.76-2.24,0-1.16-.61-2.16-1.73-2.16a1.69,1.69,0,0,0-1.6,1.31,1.75,1.75,0,0,0-.07.43Z"/><path class="cls-3" d="M567.14,13.95a7.91,7.91,0,0,0-1.51,4.91,8.09,8.09,0,0,0,1.51,4.87h-.83a7.74,7.74,0,0,1-1.57-4.87,7.92,7.92,0,0,1,1.57-4.91Z"/><path class="cls-3" d="M567.62,23.72a8.12,8.12,0,0,0,1.51-4.9,8,8,0,0,0-1.51-4.87h.82A7.64,7.64,0,0,1,570,18.83a7.79,7.79,0,0,1-1.57,4.89Z"/></g><g class="cls-1"><rect class="cls-5" x="607.81" width="81.5" height="37.5" rx="8.26" ry="8.26"/><path class="cls-3" d="M617.93,21.65a.71.71,0,0,1,.72-.75.76.76,0,1,1-.72.75Z"/><path class="cls-3" d="M620.52,21.19a2.78,2.78,0,0,0,1.39.42c.77,0,1.13-.38,1.13-.86s-.3-.78-1.08-1.07c-1-.37-1.54-.95-1.54-1.64a1.79,1.79,0,0,1,2-1.7,2.91,2.91,0,0,1,1.43.36l-.26.77a2.26,2.26,0,0,0-1.19-.34c-.62,0-1,.36-1,.79s.35.7,1.1,1c1,.38,1.52.89,1.52,1.75,0,1-.79,1.74-2.17,1.74a3.32,3.32,0,0,1-1.63-.4Z"/><path class="cls-3" d="M625.42,13.76h1.06v8.52h-1.06Z"/><path class="cls-3" d="M629.42,14.84a.65.65,0,0,1-1.31,0,.64.64,0,0,1,.66-.66A.63.63,0,0,1,629.42,14.84Zm-1.17,7.44v-5.8h1.06v5.8Z"/><path class="cls-3" d="M636.07,13.76v7c0,.52,0,1.1,0,1.5h-.95l0-1h0a2.15,2.15,0,0,1-2,1.14c-1.4,0-2.48-1.19-2.48-3,0-1.93,1.19-3.12,2.6-3.12a1.94,1.94,0,0,1,1.75.89h0V13.76ZM635,18.83a1.85,1.85,0,0,0,0-.44,1.55,1.55,0,0,0-1.52-1.22c-1.09,0-1.74,1-1.74,2.24s.58,2.15,1.72,2.15A1.59,1.59,0,0,0,635,20.29a1.83,1.83,0,0,0,0-.46Z"/><path class="cls-3" d="M638.41,19.56a1.86,1.86,0,0,0,2,2,3.82,3.82,0,0,0,1.61-.3l.18.75a4.7,4.7,0,0,1-1.93.36,2.7,2.7,0,0,1-2.85-2.93c0-1.75,1-3.13,2.72-3.13a2.46,2.46,0,0,1,2.4,2.73,4,4,0,0,1,0,.49Zm3.09-.75A1.5,1.5,0,0,0,640,17.09a1.75,1.75,0,0,0-1.62,1.72Z"/><path class="cls-3" d="M643.87,14.3a15,15,0,0,1,2.22-.17,4.62,4.62,0,0,1,3.27,1,3.72,3.72,0,0,1,1.14,2.9,4.27,4.27,0,0,1-1.16,3.14,5,5,0,0,1-3.57,1.16,16.68,16.68,0,0,1-1.89-.1Zm1,7.15a6.61,6.61,0,0,0,1.06.06,3.11,3.11,0,0,0,3.44-3.43c0-1.91-1.07-3.12-3.27-3.12a6,6,0,0,0-1.22.11Z"/><path class="cls-3" d="M657.13,19.32a2.84,2.84,0,0,1-2.89,3.08,2.76,2.76,0,0,1-2.78-3,2.83,2.83,0,0,1,2.88-3.08A2.75,2.75,0,0,1,657.13,19.32Zm-4.61.06c0,1.27.73,2.23,1.76,2.23s1.76-.95,1.76-2.25c0-1-.49-2.23-1.74-2.23S652.52,18.28,652.52,19.38Z"/><path class="cls-3" d="M658.8,16.47l.77,3c.17.65.32,1.25.43,1.85h0c.13-.59.32-1.21.52-1.83l.95-3h.89l.9,2.9c.22.7.38,1.31.52,1.89h0a17.56,17.56,0,0,1,.44-1.88l.83-2.91h1l-1.87,5.8h-1l-.89-2.77a19.73,19.73,0,0,1-.52-1.91h0a17.18,17.18,0,0,1-.53,1.92l-.94,2.76h-1l-1.75-5.8Z"/><path class="cls-3" d="M667.21,18c0-.6,0-1.09,0-1.57h.94l.06,1h0a2.14,2.14,0,0,1,1.92-1.09c.8,0,2.05.48,2.05,2.47v3.47H671.1V18.93c0-.94-.35-1.72-1.34-1.72a1.5,1.5,0,0,0-1.42,1.08,1.52,1.52,0,0,0-.07.49v3.49h-1.06Z"/><path class="cls-3" d="M676.16,13.95a7.9,7.9,0,0,0-1.51,4.91,8.08,8.08,0,0,0,1.51,4.87h-.83a7.75,7.75,0,0,1-1.57-4.87,7.91,7.91,0,0,1,1.57-4.91Z"/><path class="cls-3" d="M676.65,23.72a8.12,8.12,0,0,0,1.51-4.91,8,8,0,0,0-1.51-4.87h.82A7.64,7.64,0,0,1,679,18.83a7.79,7.79,0,0,1-1.57,4.89Z"/></g><g class="cls-1"><rect class="cls-5" x="709.11" width="81.5" height="37.5" rx="8.26" ry="8.26"/><path class="cls-3" d="M717.47,21.65a.71.71,0,0,1,.72-.76.76.76,0,1,1-.72.76Z"/><path class="cls-3" d="M720.06,21.19a2.78,2.78,0,0,0,1.39.42c.77,0,1.13-.38,1.13-.87s-.3-.78-1.08-1.07c-1-.37-1.54-.95-1.54-1.64a1.79,1.79,0,0,1,2-1.7,2.91,2.91,0,0,1,1.43.36l-.26.77a2.26,2.26,0,0,0-1.19-.34c-.62,0-1,.36-1,.79s.35.7,1.1,1c1,.38,1.52.89,1.52,1.75,0,1-.79,1.74-2.17,1.74a3.31,3.31,0,0,1-1.63-.4Z"/><path class="cls-3" d="M725,13.76H726v8.52H725Z"/><path class="cls-3" d="M729,14.84a.65.65,0,0,1-1.31,0,.64.64,0,0,1,.66-.66A.63.63,0,0,1,729,14.84Zm-1.17,7.44v-5.8h1.06v5.8Z"/><path class="cls-3" d="M735.61,13.76v7c0,.52,0,1.1,0,1.5h-.95l0-1h0a2.15,2.15,0,0,1-2,1.14c-1.4,0-2.48-1.19-2.48-3,0-1.93,1.19-3.12,2.6-3.12a1.94,1.94,0,0,1,1.75.89h0V13.76Zm-1.06,5.07a1.85,1.85,0,0,0,0-.44A1.55,1.55,0,0,0,733,17.16c-1.09,0-1.74,1-1.74,2.24s.58,2.15,1.72,2.15a1.59,1.59,0,0,0,1.55-1.26,1.82,1.82,0,0,0,0-.46Z"/><path class="cls-3" d="M738,19.56a1.86,1.86,0,0,0,2,2,3.82,3.82,0,0,0,1.61-.3l.18.75a4.69,4.69,0,0,1-1.93.36,2.7,2.7,0,0,1-2.85-2.93c0-1.75,1-3.13,2.72-3.13a2.46,2.46,0,0,1,2.4,2.73,4,4,0,0,1,0,.49Zm3.09-.75a1.5,1.5,0,0,0-1.46-1.72A1.75,1.75,0,0,0,738,18.81Z"/><path class="cls-3" d="M744.55,15.08h-2.46v-.89h6v.89h-2.47v7.2h-1.06Z"/><path class="cls-3" d="M753.34,19.32a2.84,2.84,0,0,1-2.89,3.08,2.76,2.76,0,0,1-2.78-3,2.83,2.83,0,0,1,2.88-3.08A2.75,2.75,0,0,1,753.34,19.32Zm-4.61.06c0,1.27.73,2.23,1.76,2.23s1.76-.95,1.76-2.26c0-1-.49-2.23-1.74-2.23S748.74,18.28,748.74,19.38Z"/><path class="cls-3" d="M759.68,16.47c0,.42,0,.89,0,1.59v3.37a3.33,3.33,0,0,1-.83,2.65,3.07,3.07,0,0,1-2.11.7,3.74,3.74,0,0,1-1.93-.48l.26-.8a3.29,3.29,0,0,0,1.7.46c1.08,0,1.87-.56,1.87-2v-.65h0a2.07,2.07,0,0,1-1.85,1,2.59,2.59,0,0,1-2.47-2.83,2.79,2.79,0,0,1,2.61-3.08,1.93,1.93,0,0,1,1.81,1h0l0-.87Zm-1.09,2.29a1.54,1.54,0,0,0-1.54-1.6c-1,0-1.73.85-1.73,2.2,0,1.14.58,2.09,1.71,2.09a1.54,1.54,0,0,0,1.46-1.08,1.85,1.85,0,0,0,.08-.56Z"/><path class="cls-3" d="M766.39,16.47c0,.42,0,.89,0,1.59v3.37a3.33,3.33,0,0,1-.83,2.65,3.07,3.07,0,0,1-2.11.7,3.74,3.74,0,0,1-1.93-.48l.26-.8a3.29,3.29,0,0,0,1.7.46c1.08,0,1.87-.56,1.87-2v-.65h0a2.07,2.07,0,0,1-1.85,1A2.59,2.59,0,0,1,761,19.42a2.79,2.79,0,0,1,2.61-3.08,1.93,1.93,0,0,1,1.81,1h0l0-.87Zm-1.09,2.29a1.54,1.54,0,0,0-1.54-1.6c-1,0-1.73.85-1.73,2.2,0,1.14.58,2.09,1.71,2.09a1.54,1.54,0,0,0,1.46-1.08,1.85,1.85,0,0,0,.08-.56Z"/><path class="cls-3" d="M768.09,13.76h1.06v8.52h-1.06Z"/><path class="cls-3" d="M771.51,19.56a1.86,1.86,0,0,0,2,2,3.82,3.82,0,0,0,1.61-.3l.18.75a4.69,4.69,0,0,1-1.93.36,2.7,2.7,0,0,1-2.85-2.93c0-1.75,1-3.13,2.72-3.13a2.46,2.46,0,0,1,2.4,2.73,4,4,0,0,1,0,.49Zm3.09-.75a1.5,1.5,0,0,0-1.46-1.72,1.75,1.75,0,0,0-1.62,1.72Z"/><path class="cls-3" d="M779.23,13.95a7.91,7.91,0,0,0-1.51,4.91,8.08,8.08,0,0,0,1.51,4.87h-.83a7.74,7.74,0,0,1-1.57-4.87,7.92,7.92,0,0,1,1.57-4.91Z"/><path class="cls-3" d="M779.71,23.72a8.12,8.12,0,0,0,1.51-4.9,8,8,0,0,0-1.51-4.87h.82a7.64,7.64,0,0,1,1.57,4.88,7.79,7.79,0,0,1-1.57,4.89Z"/></g></svg>