<svg id="Layer_1" data-name="Layer 1" xmlns="http://www.w3.org/2000/svg" viewBox="0 0 698.34 95.72"><defs><style>.cls-1{fill:#e31e27;}</style></defs><title>08-28-url</title><path d="M25.76,19.05H23.31V.18h2.45V8a4.43,4.43,0,0,1,3.81-1.82c3,0,4.48,2.16,4.48,5v7.95H31.6V11.52c0-1.75-.73-3.15-2.92-3.15-1.88,0-2.87,1.46-2.92,3.31Z"/><path d="M41.24,6.52H44V8.73H41.24v6.52c0,1.15.47,1.72,1.75,1.72a5,5,0,0,0,1-.1v2.08a5.35,5.35,0,0,1-1.67.23,3.25,3.25,0,0,1-3.49-3.57V8.73h-2.4V6.52h.68A1.75,1.75,0,0,0,39,4.59v-2h2.24Z"/><path d="M50.49,6.52H53.2V8.73H50.49v6.52c0,1.15.47,1.72,1.75,1.72a5,5,0,0,0,1-.1v2.08a5.35,5.35,0,0,1-1.67.23A3.25,3.25,0,0,1,48,15.61V8.73h-2.4V6.52h.68a1.75,1.75,0,0,0,1.93-1.93v-2h2.24Z"/><path d="M56.2,24V6.52h2.37v2a4.62,4.62,0,0,1,4.2-2.24c3.75,0,5.76,2.89,5.76,6.54s-2.16,6.62-5.84,6.62a4.66,4.66,0,0,1-4.07-2V24ZM62.32,8.39c-2.24,0-3.73,1.88-3.73,4.38s1.49,4.43,3.73,4.43S66,15.35,66,12.77,64.62,8.39,62.32,8.39Z"/><path d="M73.19,6.39A1.81,1.81,0,0,1,75,8.21,1.79,1.79,0,0,1,73.19,10a1.77,1.77,0,0,1-1.8-1.8A1.79,1.79,0,0,1,73.19,6.39Zm0,9.17A1.81,1.81,0,0,1,75,17.38a1.79,1.79,0,0,1-1.82,1.8,1.77,1.77,0,0,1-1.8-1.8A1.79,1.79,0,0,1,73.21,15.56Z"/><path d="M79.36,19.05H77L85.93.57H88.3Z"/><path d="M87,19.05H84.65L93.59.57H96Z"/><path d="M107.12,6.52l3.26,9.43,2.76-9.43h2.58l-4.07,12.54h-2.53l-3.34-9.54-3.26,9.54H99.95L95.83,6.52h2.68l2.81,9.43,3.26-9.43Z"/><path d="M127.78,6.52,131,15.95l2.76-9.43h2.58l-4.07,12.54h-2.53l-3.34-9.54-3.26,9.54h-2.58L116.5,6.52h2.68L122,15.95l3.26-9.43Z"/><path d="M148.45,6.52l3.26,9.43,2.76-9.43H157L153,19.05h-2.53l-3.34-9.54-3.26,9.54h-2.58L137.16,6.52h2.68l2.81,9.43,3.26-9.43Z"/><path d="M160,15.56a1.81,1.81,0,0,1,1.82,1.82,1.79,1.79,0,0,1-1.82,1.8,1.77,1.77,0,0,1-1.8-1.8A1.79,1.79,0,0,1,160,15.56Z"/><path d="M174.14,17.15a4.2,4.2,0,0,1-3.88,2.24c-3.67,0-5.94-2.92-5.94-6.65,0-3.54,2.4-6.57,5.94-6.57,2.21,0,3.41,1.09,3.83,2.11V.18h2.42V16.73a19.92,19.92,0,0,0,.13,2.32h-2.37a10.49,10.49,0,0,1-.13-1.69Zm-3.65.08c2.24,0,3.62-2,3.62-4.54s-1.35-4.35-3.6-4.35-3.7,1.82-3.7,4.4S168.15,17.23,170.49,17.23Z"/><path d="M192.46,12.77a6.42,6.42,0,1,1-12.82,0,6.42,6.42,0,1,1,12.82,0Zm-2.5,0c0-2.89-1.82-4.46-3.91-4.46s-3.91,1.56-3.91,4.46S184,17.25,186,17.25,190,15.69,190,12.77Z"/><path d="M195.58,19.05V6.52h2.35V8.18a4.32,4.32,0,0,1,3.81-2,3.92,3.92,0,0,1,3.75,2.37,4.5,4.5,0,0,1,4.2-2.37c2.19,0,4.33,1.49,4.33,4.77v8.13h-2.42V11.18c0-1.64-.81-2.87-2.66-2.87A2.92,2.92,0,0,0,206,11.47v7.58h-2.45V11.18c0-1.62-.78-2.87-2.66-2.87A2.91,2.91,0,0,0,198,11.49v7.56Z"/><path d="M220.94,11.88l3.39-.5c.76-.1,1-.5,1-.94,0-1.22-.81-2.24-2.71-2.24a2.66,2.66,0,0,0-2.84,2.53l-2.35-.55c.26-2.4,2.42-4.07,5.13-4.07,3.75,0,5.21,2.14,5.21,4.59V17a11.76,11.76,0,0,0,.16,2.06h-2.4a9.15,9.15,0,0,1-.13-1.69,4.57,4.57,0,0,1-4,2.08,3.9,3.9,0,0,1-4.2-3.75C217.13,13.45,218.78,12.2,220.94,11.88Zm4.35,1.8v-.57l-3.83.57a1.87,1.87,0,0,0-1.82,1.88,1.9,1.9,0,0,0,2,1.82C223.68,17.38,225.29,16.42,225.29,13.68Z"/><path d="M232.74,0A1.76,1.76,0,1,1,231,1.77,1.76,1.76,0,0,1,232.74,0Zm-1.2,19.05V6.52H234V19.05Z"/><path d="M240.59,19.05h-2.45V6.52h2.4v1.8a4.29,4.29,0,0,1,3.86-2.16c3,0,4.48,2.16,4.48,5v7.95h-2.45V11.52c0-1.75-.73-3.15-2.92-3.15-1.93,0-2.92,1.54-2.92,3.44Z"/><path d="M254.32,15.56a1.81,1.81,0,0,1,1.82,1.82,1.79,1.79,0,0,1-1.82,1.8,1.77,1.77,0,0,1-1.8-1.8A1.79,1.79,0,0,1,254.32,15.56Z"/><path d="M261.12,12.77c0,2.87,1.8,4.4,3.83,4.4a3.41,3.41,0,0,0,3.49-2.58l2.16.94A5.76,5.76,0,0,1,265,19.44a6.34,6.34,0,0,1-6.33-6.67,6.29,6.29,0,0,1,6.31-6.65,5.45,5.45,0,0,1,5.58,4l-2.22.94a3.29,3.29,0,0,0-3.36-2.66C262.95,8.39,261.12,9.85,261.12,12.77Z"/><path d="M285.12,12.77a6.42,6.42,0,1,1-12.82,0,6.42,6.42,0,1,1,12.82,0Zm-2.5,0c0-2.89-1.82-4.46-3.91-4.46s-3.91,1.56-3.91,4.46,1.82,4.48,3.91,4.48S282.62,15.69,282.62,12.77Z"/><path d="M288.25,19.05V6.52h2.35V8.18a4.32,4.32,0,0,1,3.81-2,3.92,3.92,0,0,1,3.75,2.37,4.5,4.5,0,0,1,4.2-2.37c2.19,0,4.33,1.49,4.33,4.77v8.13h-2.42V11.18c0-1.64-.81-2.87-2.66-2.87a2.92,2.92,0,0,0-2.89,3.15v7.58h-2.45V11.18c0-1.62-.78-2.87-2.66-2.87a2.91,2.91,0,0,0-2.92,3.18v7.56Z"/><path d="M312.25,6.39a1.81,1.81,0,0,1,1.82,1.82,1.79,1.79,0,0,1-1.82,1.8,1.77,1.77,0,0,1-1.8-1.8A1.79,1.79,0,0,1,312.25,6.39Zm0,9.17a1.81,1.81,0,0,1,1.82,1.82,1.79,1.79,0,0,1-1.82,1.8,1.77,1.77,0,0,1-1.8-1.8A1.79,1.79,0,0,1,312.27,15.56Z"/><path d="M320.79,19.05V7.14H316.7V5.34a4.22,4.22,0,0,0,4.35-3.18h2.24V19.05Z"/><path d="M326.5,7.92a6.17,6.17,0,0,1,0-.68,5.45,5.45,0,0,1,5.84-5.47C335.94,1.77,338,4.14,338,7a6.15,6.15,0,0,1-3.18,5.21l-3.34,2.14a4.14,4.14,0,0,0-2.06,2.37h8.68v2.37H326.29c.05-2.76,1.15-4.87,4-6.72l2.81-1.82A4.22,4.22,0,0,0,335.44,7a2.92,2.92,0,0,0-3.18-3C330,4,329,5.55,329,7.48c0,.23,0,.5.05.76Z"/><path d="M343.78,9.1l5-4.59h-8.08V2.16h11.47V4.46l-4.82,4.46A5,5,0,0,1,352.53,14c0,2.84-2.19,5.42-6.12,5.42s-6.12-2.55-6.28-5.32l2.5-.57a3.65,3.65,0,0,0,3.75,3.65c2.32,0,3.57-1.43,3.57-3.13a3.14,3.14,0,0,0-3.44-3.15,4.56,4.56,0,0,0-1.49.26Z"/><path d="M354.49,12.3l7.25-10.14h3.52V12.87h2.89v2.37h-2.89v3.81h-2.48V15.25h-8.29Zm8.29-7.69-5.94,8.26h5.94Z"/><path d="M370.9,19.05h-2.37L377.47.57h2.37Z"/><path d="M380.36,24V6.52h2.37v2a4.62,4.62,0,0,1,4.2-2.24c3.75,0,5.76,2.89,5.76,6.54s-2.16,6.62-5.84,6.62a4.66,4.66,0,0,1-4.07-2V24Zm6.12-15.61c-2.24,0-3.73,1.88-3.73,4.38s1.49,4.43,3.73,4.43,3.7-1.85,3.7-4.43S388.78,8.39,386.49,8.39Z"/><path d="M398.84,11.88l3.39-.5c.76-.1,1-.5,1-.94,0-1.22-.81-2.24-2.71-2.24a2.66,2.66,0,0,0-2.84,2.53l-2.35-.55c.26-2.4,2.42-4.07,5.13-4.07,3.75,0,5.21,2.14,5.21,4.59V17a11.73,11.73,0,0,0,.16,2.06h-2.4a9.21,9.21,0,0,1-.13-1.69,4.57,4.57,0,0,1-4,2.08,3.9,3.9,0,0,1-4.2-3.75C395,13.45,396.68,12.2,398.84,11.88Zm4.35,1.8v-.57l-3.83.57a1.87,1.87,0,0,0-1.82,1.88,1.9,1.9,0,0,0,2,1.82C401.58,17.38,403.19,16.42,403.19,13.68Z"/><path d="M412.73,6.52h2.71V8.73h-2.71v6.52c0,1.15.47,1.72,1.75,1.72a5,5,0,0,0,1-.1v2.08a5.35,5.35,0,0,1-1.67.23,3.25,3.25,0,0,1-3.49-3.57V8.73h-2.4V6.52h.68a1.75,1.75,0,0,0,1.93-1.93v-2h2.24Z"/><path d="M421.14,19.05h-2.45V.18h2.45V8A4.44,4.44,0,0,1,425,6.15c3,0,4.48,2.16,4.48,5v7.95H427V11.52c0-1.75-.73-3.15-2.92-3.15-1.88,0-2.87,1.46-2.92,3.31Z"/><path d="M433.63,19.05h-2.37L440.19.57h2.37Z"/><path d="M447.93,6.52h2.71V8.73h-2.71v6.52c0,1.15.47,1.72,1.75,1.72a5,5,0,0,0,1-.1v2.08a5.35,5.35,0,0,1-1.67.23,3.25,3.25,0,0,1-3.49-3.57V8.73h-2.4V6.52h.68a1.75,1.75,0,0,0,1.93-1.93v-2h2.24Z"/><path d="M465.55,12.77a6.42,6.42,0,1,1-12.82,0,6.42,6.42,0,1,1,12.82,0Zm-2.5,0c0-2.89-1.82-4.46-3.91-4.46s-3.91,1.56-3.91,4.46,1.82,4.48,3.91,4.48S463,15.69,463,12.77Z"/><path d="M468.44,19.05h-2.37L475,.57h2.37Z"/><path d="M484.86,9a7.64,7.64,0,0,0-1.07-.08c-2.06,0-3.44,1.09-3.44,3.86v6.28H477.9V6.52h2.4V8.7A3.92,3.92,0,0,1,484,6.31a4.59,4.59,0,0,1,.81.08Z"/><path d="M498.25,15.48a5.68,5.68,0,0,1-5.63,4c-3.36,0-6.31-2.45-6.31-6.7,0-3.94,2.84-6.62,6-6.62,3.86,0,6,2.66,6,6.57a5.65,5.65,0,0,1-.05.78h-9.44a3.72,3.72,0,0,0,3.78,3.8,3.41,3.41,0,0,0,3.52-2.53Zm-2.47-4a3.16,3.16,0,0,0-3.44-3.21,3.37,3.37,0,0,0-3.41,3.21Z"/><path d="M502.5,15a2.67,2.67,0,0,0,2.92,2.35c1.38,0,2.14-.78,2.14-1.67s-.57-1.38-1.62-1.62l-2.14-.47a3.57,3.57,0,0,1-3.13-3.52,4.27,4.27,0,0,1,4.46-4c3.44,0,4.51,2.24,4.77,3.36l-2.16.81a2.43,2.43,0,0,0-2.61-2.08A1.89,1.89,0,0,0,503,9.88c0,.76.47,1.3,1.43,1.51l2,.44c2.27.5,3.47,1.88,3.47,3.73s-1.48,3.88-4.59,3.88c-3.44,0-4.9-2.22-5.11-3.65Z"/><path d="M524.89,12.77a6.42,6.42,0,1,1-12.82,0,6.42,6.42,0,1,1,12.82,0Zm-2.5,0c0-2.89-1.82-4.46-3.91-4.46s-3.91,1.56-3.91,4.46,1.82,4.48,3.91,4.48S522.38,15.69,522.38,12.77Z"/><path d="M532.44,19.44c-2.92,0-4.69-2.19-4.69-5V6.52h2.45V14c0,1.72.78,3.23,2.84,3.23s3-1.3,3-3.21V6.52h2.45V16.73a20.9,20.9,0,0,0,.13,2.32h-2.35a11,11,0,0,1-.1-1.51A4.09,4.09,0,0,1,532.44,19.44Z"/><path d="M549.59,9a7.64,7.64,0,0,0-1.07-.08c-2.06,0-3.44,1.09-3.44,3.86v6.28h-2.45V6.52H545V8.7a3.93,3.93,0,0,1,3.75-2.4,4.59,4.59,0,0,1,.81.08Z"/><path d="M553.52,12.77c0,2.87,1.8,4.4,3.83,4.4a3.41,3.41,0,0,0,3.49-2.58l2.16.94a5.76,5.76,0,0,1-5.65,3.91A6.34,6.34,0,0,1,551,12.77a6.29,6.29,0,0,1,6.31-6.65,5.45,5.45,0,0,1,5.58,4l-2.21.94a3.29,3.29,0,0,0-3.36-2.66C555.35,8.39,553.52,9.85,553.52,12.77Z"/><path d="M576.66,15.48a5.68,5.68,0,0,1-5.63,4c-3.36,0-6.31-2.45-6.31-6.7,0-3.94,2.84-6.62,6-6.62,3.86,0,6,2.66,6,6.57a5.65,5.65,0,0,1-.05.78h-9.44a3.72,3.72,0,0,0,3.78,3.8,3.41,3.41,0,0,0,3.52-2.53Zm-2.47-4a3.16,3.16,0,0,0-3.44-3.21,3.37,3.37,0,0,0-3.41,3.21Z"/><path d="M582.24,13.76c0-.31,0-.57,0-.91a4.53,4.53,0,0,1,2.16-4.07L585.52,8a3.06,3.06,0,0,0,1.38-2.55,2.88,2.88,0,0,0-3.1-3,3.13,3.13,0,0,0-3.26,3.34,4.45,4.45,0,0,0,.18,1.28l-2.53-.31A4.51,4.51,0,0,1,578,5.52,5.38,5.38,0,0,1,583.8.18c3.65,0,5.71,2.58,5.71,5.24A5.34,5.34,0,0,1,586.85,10l-1.2.81a2.89,2.89,0,0,0-1.15,2.5,4.22,4.22,0,0,0,0,.5Zm1.12,2a1.74,1.74,0,0,1,1.72,1.72,1.71,1.71,0,0,1-1.72,1.69,1.69,1.69,0,0,1-1.69-1.69A1.71,1.71,0,0,1,583.36,15.77Z"/><path d="M595.53,11.88l3.39-.5c.76-.1,1-.5,1-.94,0-1.22-.81-2.24-2.71-2.24a2.66,2.66,0,0,0-2.84,2.53L592,10.19c.26-2.4,2.42-4.07,5.13-4.07,3.75,0,5.21,2.14,5.21,4.59V17a11.94,11.94,0,0,0,.16,2.06h-2.4a9.09,9.09,0,0,1-.13-1.69,4.57,4.57,0,0,1-4,2.08,3.91,3.91,0,0,1-4.2-3.75C591.72,13.45,593.37,12.2,595.53,11.88Zm4.35,1.8v-.57l-3.83.57a1.88,1.88,0,0,0-1.83,1.88,1.9,1.9,0,0,0,2,1.82C598.27,17.38,599.88,16.42,599.88,13.68Z"/><path d="M605.75,10V8h12.07v2Zm0,5.08V13.06h12.07v2.06Z"/><path d="M621.59,19.05V.18H624V8.29a4.57,4.57,0,0,1,4.14-2.14c3.8,0,5.76,2.92,5.76,6.57s-2.11,6.67-5.84,6.67A4.47,4.47,0,0,1,624,17.23v1.82Zm6.13-10.74c-2.16,0-3.73,1.69-3.73,4.4s1.56,4.48,3.73,4.48,3.7-1.77,3.7-4.48S630,8.31,627.71,8.31Z"/><path d="M647,16.6c-1.51,1.69-3.13,2.76-5.19,2.76-3.49,0-5.34-2.35-5.34-4.72s1.3-3.7,3.26-5.16l.26-.21-.34-.36c-.86-.91-2.21-2.32-2.21-4.12A4.61,4.61,0,0,1,642.25.18c2.79,0,4.9,1.75,4.9,4.51,0,1.82-1.3,3.13-2.61,4.09l-.94.7L647,13.06l4.12-4.59v3.36l-2.5,2.89,4.2,4.33h-3.47ZM645.33,15l.08-.1-3.75-3.94-.94.7a3.39,3.39,0,0,0-1.56,2.79A2.66,2.66,0,0,0,641.89,17C643.3,17,644.31,16.11,645.33,15Zm-3.91-7.77.57.63,1.25-.94a2.7,2.7,0,0,0,1.38-2.29,2.31,2.31,0,0,0-4.61,0A4.1,4.1,0,0,0,641.42,7.22Z"/><path d="M657.78,12.67l-4.51-6.15h3l3.08,4.4,3-4.4h2.89l-4.46,6.15c.76,1,3.86,5.37,4.61,6.39h-2.95l-3.23-4.61L656,19.05h-2.92Z"/><path d="M667.35,10V8h12.07v2Zm0,5.08V13.06h12.07v2.06Z"/><path d="M683.63,24.29l3.13-6.62L681.37,6.52h2.81l3.91,8.65,3.75-8.65h2.63l-8.16,17.77Z"/><path class="cls-1" d="M620,95.43V88.71a4.18,4.18,0,0,1-3.91,2.11c-3.6,0-5.94-3-5.94-6.65s2.22-6.54,5.89-6.54a4.22,4.22,0,0,1,4,2.24V77.94h2.37V95.43Zm-3.67-6.78c2.22,0,3.7-1.9,3.7-4.48s-1.49-4.38-3.7-4.38-3.67,1.8-3.67,4.38S614.05,88.66,616.3,88.66Z"/><path class="cls-1" d="M630.86,90.87c-2.92,0-4.69-2.19-4.69-5v-7.9h2.45v7.53c0,1.72.78,3.23,2.84,3.23s3-1.3,3-3.21V77.94h2.45V88.16a21.21,21.21,0,0,0,.13,2.32h-2.35a11.18,11.18,0,0,1-.1-1.51A4.09,4.09,0,0,1,630.86,90.87Z"/><path class="cls-1" d="M651.84,86.91a5.68,5.68,0,0,1-5.63,4c-3.36,0-6.31-2.45-6.31-6.7,0-3.94,2.84-6.62,6-6.62,3.86,0,6,2.66,6,6.57a5.44,5.44,0,0,1-.05.78h-9.43a3.72,3.72,0,0,0,3.78,3.8,3.41,3.41,0,0,0,3.52-2.53Zm-2.48-4a3.16,3.16,0,0,0-3.44-3.21,3.37,3.37,0,0,0-3.41,3.21Z"/><path class="cls-1" d="M662,80.42a7.55,7.55,0,0,0-1.07-.08c-2.06,0-3.44,1.09-3.44,3.86v6.28H655V77.94h2.4v2.19a3.93,3.93,0,0,1,3.75-2.4,4.6,4.6,0,0,1,.81.08Z"/><path class="cls-1" d="M665.44,95.72l3.13-6.62-5.39-11.16H666l3.91,8.65,3.75-8.65h2.63l-8.16,17.77Z"/><polygon class="cls-1" points="698.34 35.68 587.28 35.68 587.28 21.18 590.28 21.18 590.28 32.68 695.34 32.68 695.34 21.18 698.34 21.18 698.34 35.68"/><rect class="cls-1" x="641.31" y="34.18" width="3" height="28.25"/><path class="cls-1" d="M0,95.43V77.94H2.37v2a4.62,4.62,0,0,1,4.2-2.24c3.75,0,5.76,2.89,5.76,6.54s-2.16,6.62-5.84,6.62a4.66,4.66,0,0,1-4.07-2v6.65ZM6.12,79.82c-2.24,0-3.73,1.88-3.73,4.38s1.49,4.43,3.73,4.43,3.7-1.85,3.7-4.43S8.42,79.82,6.12,79.82Z"/><path class="cls-1" d="M22.41,80.42a7.55,7.55,0,0,0-1.07-.08c-2.06,0-3.44,1.09-3.44,3.86v6.28H15.45V77.94h2.4v2.19a3.92,3.92,0,0,1,3.75-2.4,4.58,4.58,0,0,1,.81.08Z"/><path class="cls-1" d="M36.67,84.2a6.42,6.42,0,1,1-6.41-6.65A6.33,6.33,0,0,1,36.67,84.2Zm-2.5,0c0-2.89-1.82-4.46-3.91-4.46s-3.91,1.56-3.91,4.46,1.82,4.48,3.91,4.48S34.16,87.12,34.16,84.2Z"/><path class="cls-1" d="M42.94,77.94h2.71v2.22H42.94v6.52c0,1.15.47,1.72,1.75,1.72a4.91,4.91,0,0,0,1-.1v2.08a5.37,5.37,0,0,1-1.67.23A3.25,3.25,0,0,1,40.49,87V80.16H38.1V77.94h.68A1.75,1.75,0,0,0,40.7,76V74h2.24Z"/><path class="cls-1" d="M60.56,84.2a6.42,6.42,0,1,1-6.41-6.65A6.33,6.33,0,0,1,60.56,84.2Zm-2.5,0c0-2.89-1.82-4.46-3.91-4.46s-3.91,1.56-3.91,4.46,1.82,4.48,3.91,4.48S58.06,87.12,58.06,84.2Z"/><path class="cls-1" d="M65.15,84.2c0,2.87,1.8,4.41,3.83,4.41A3.41,3.41,0,0,0,72.47,86l2.16.94A5.76,5.76,0,0,1,69,90.87a6.67,6.67,0,0,1,0-13.32,5.45,5.45,0,0,1,5.58,4l-2.22.94A3.29,3.29,0,0,0,69,79.82C67,79.82,65.15,81.28,65.15,84.2Z"/><path class="cls-1" d="M89.15,84.2a6.42,6.42,0,1,1-6.41-6.65A6.33,6.33,0,0,1,89.15,84.2Zm-2.5,0c0-2.89-1.82-4.46-3.91-4.46s-3.91,1.56-3.91,4.46,1.82,4.48,3.91,4.48S86.65,87.12,86.65,84.2Z"/><path class="cls-1" d="M92.27,90.48V71.61h2.45V90.48Z"/><polygon class="cls-1" points="75.11 35.68 19.61 35.68 19.61 21.18 22.61 21.18 22.61 32.68 72.11 32.68 72.11 21.18 75.11 21.18 75.11 35.68"/><rect class="cls-1" x="45.86" y="34.18" width="3" height="28.25"/><path class="cls-1" d="M319.75,95.43V77.94h2.37v2a4.62,4.62,0,0,1,4.2-2.24c3.75,0,5.76,2.89,5.76,6.54s-2.16,6.62-5.84,6.62a4.66,4.66,0,0,1-4.07-2v6.65Zm6.12-15.61c-2.24,0-3.73,1.88-3.73,4.38s1.49,4.43,3.73,4.43,3.7-1.85,3.7-4.43S328.16,79.82,325.87,79.82Z"/><path class="cls-1" d="M347,84.2a6.42,6.42,0,1,1-6.41-6.65A6.33,6.33,0,0,1,347,84.2Zm-2.5,0c0-2.89-1.82-4.46-3.91-4.46s-3.91,1.56-3.91,4.46,1.82,4.48,3.91,4.48S344.48,87.12,344.48,84.2Z"/><path class="cls-1" d="M357.06,80.42a7.55,7.55,0,0,0-1.07-.08c-2.06,0-3.44,1.09-3.44,3.86v6.28H350.1V77.94h2.4v2.19a3.92,3.92,0,0,1,3.75-2.4,4.58,4.58,0,0,1,.81.08Z"/><path class="cls-1" d="M363.6,77.94h2.71v2.22H363.6v6.52c0,1.15.47,1.72,1.75,1.72a4.9,4.9,0,0,0,1-.1v2.08a5.36,5.36,0,0,1-1.67.23A3.25,3.25,0,0,1,361.15,87V80.16h-2.4V77.94h.68A1.75,1.75,0,0,0,361.36,76V74h2.24Z"/><polygon class="cls-1" points="367.53 35.68 317.61 35.68 317.61 21.18 320.61 21.18 320.61 32.68 364.53 32.68 364.53 21.18 367.53 21.18 367.53 35.68"/><rect class="cls-1" x="341.07" y="34.18" width="3" height="28.25"/><path class="cls-1" d="M404.54,80.42a7.54,7.54,0,0,0-1.07-.08c-2.06,0-3.44,1.09-3.44,3.86v6.28h-2.45V77.94H400v2.19a3.92,3.92,0,0,1,3.75-2.4,4.57,4.57,0,0,1,.81.08Z"/><path class="cls-1" d="M417.93,86.91a5.68,5.68,0,0,1-5.63,4c-3.36,0-6.31-2.45-6.31-6.7,0-3.94,2.84-6.62,6-6.62,3.86,0,6,2.66,6,6.57a5.47,5.47,0,0,1-.05.78h-9.43a3.72,3.72,0,0,0,3.78,3.8,3.42,3.42,0,0,0,3.52-2.53Zm-2.48-4A3.16,3.16,0,0,0,412,79.72a3.37,3.37,0,0,0-3.41,3.21Z"/><path class="cls-1" d="M422.18,86.44a2.67,2.67,0,0,0,2.92,2.35c1.38,0,2.14-.78,2.14-1.67s-.57-1.38-1.62-1.62L423.48,85a3.57,3.57,0,0,1-3.13-3.52,4.27,4.27,0,0,1,4.46-4c3.44,0,4.51,2.24,4.77,3.36l-2.16.81a2.43,2.43,0,0,0-2.61-2.08,1.89,1.89,0,0,0-2.08,1.67c0,.76.47,1.3,1.43,1.51l2,.44c2.27.5,3.47,1.88,3.47,3.73s-1.49,3.88-4.59,3.88c-3.44,0-4.9-2.21-5.11-3.65Z"/><path class="cls-1" d="M444.56,84.2a6.42,6.42,0,1,1-6.41-6.65A6.33,6.33,0,0,1,444.56,84.2Zm-2.5,0c0-2.89-1.83-4.46-3.91-4.46s-3.91,1.56-3.91,4.46,1.82,4.48,3.91,4.48S442.06,87.12,442.06,84.2Z"/><path class="cls-1" d="M452.12,90.87c-2.92,0-4.69-2.19-4.69-5v-7.9h2.45v7.53c0,1.72.78,3.23,2.84,3.23s3-1.3,3-3.21V77.94h2.45V88.16a21.21,21.21,0,0,0,.13,2.32h-2.35a11.18,11.18,0,0,1-.1-1.51A4.09,4.09,0,0,1,452.12,90.87Z"/><path class="cls-1" d="M469.26,80.42a7.54,7.54,0,0,0-1.07-.08c-2.06,0-3.44,1.09-3.44,3.86v6.28h-2.45V77.94h2.4v2.19a3.92,3.92,0,0,1,3.75-2.4,4.57,4.57,0,0,1,.81.08Z"/><path class="cls-1" d="M473.2,84.2c0,2.87,1.8,4.41,3.83,4.41A3.41,3.41,0,0,0,480.52,86l2.16.94A5.76,5.76,0,0,1,477,90.87a6.67,6.67,0,0,1,0-13.32,5.45,5.45,0,0,1,5.58,4l-2.21.94A3.29,3.29,0,0,0,477,79.82C475,79.82,473.2,81.28,473.2,84.2Z"/><path class="cls-1" d="M496.34,86.91a5.68,5.68,0,0,1-5.63,4c-3.36,0-6.31-2.45-6.31-6.7,0-3.94,2.84-6.62,6-6.62,3.86,0,6,2.66,6,6.57a5.62,5.62,0,0,1-.05.78h-9.43a3.72,3.72,0,0,0,3.78,3.8,3.41,3.41,0,0,0,3.52-2.53Zm-2.48-4a3.16,3.16,0,0,0-3.44-3.21A3.37,3.37,0,0,0,487,82.92Z"/><path class="cls-1" d="M506.06,95.43V77.94h2.37v2a4.62,4.62,0,0,1,4.2-2.24c3.75,0,5.76,2.89,5.76,6.54s-2.16,6.62-5.84,6.62a4.66,4.66,0,0,1-4.07-2v6.65Zm6.13-15.61c-2.24,0-3.73,1.88-3.73,4.38s1.49,4.43,3.73,4.43,3.7-1.85,3.7-4.43S514.48,79.82,512.18,79.82Z"/><path class="cls-1" d="M524.53,83.31l3.39-.5c.76-.1,1-.5,1-.94,0-1.22-.81-2.24-2.71-2.24a2.66,2.66,0,0,0-2.84,2.53L521,81.62c.26-2.4,2.42-4.07,5.13-4.07,3.75,0,5.21,2.14,5.21,4.59v6.28a11.69,11.69,0,0,0,.16,2.06h-2.4a9.22,9.22,0,0,1-.13-1.69,4.57,4.57,0,0,1-4,2.08,3.9,3.9,0,0,1-4.2-3.75C520.73,84.88,522.37,83.63,524.53,83.31Zm4.35,1.8v-.57l-3.83.57A1.87,1.87,0,0,0,523.23,87a1.9,1.9,0,0,0,2,1.82C527.27,88.81,528.89,87.85,528.89,85.11Z"/><path class="cls-1" d="M538.42,77.94h2.71v2.22h-2.71v6.52c0,1.15.47,1.72,1.75,1.72a4.91,4.91,0,0,0,1-.1v2.08a5.37,5.37,0,0,1-1.67.23A3.25,3.25,0,0,1,536,87V80.16h-2.4V77.94h.68A1.75,1.75,0,0,0,536.18,76V74h2.24Z"/><path class="cls-1" d="M546.84,90.48h-2.45V71.61h2.45V79.4a4.44,4.44,0,0,1,3.81-1.82c3,0,4.48,2.16,4.48,5v7.95h-2.45V82.95c0-1.75-.73-3.15-2.92-3.15-1.88,0-2.87,1.46-2.92,3.31Z"/><polygon class="cls-1" points="577.01 35.68 375.43 35.68 375.43 21.18 378.43 21.18 378.43 32.68 574.01 32.68 574.01 21.18 577.01 21.18 577.01 35.68"/><rect class="cls-1" x="474.72" y="34.18" width="3" height="28.25"/><path class="cls-1" d="M178,90.48h-2.45V71.61H178V79.4a4.43,4.43,0,0,1,3.81-1.82c3,0,4.48,2.16,4.48,5v7.95h-2.45V82.95c0-1.75-.73-3.15-2.92-3.15-1.88,0-2.87,1.46-2.92,3.31Z"/><path class="cls-1" d="M202,84.2a6.42,6.42,0,1,1-6.41-6.65A6.33,6.33,0,0,1,202,84.2Zm-2.5,0c0-2.89-1.82-4.46-3.91-4.46s-3.91,1.56-3.91,4.46,1.82,4.48,3.91,4.48S199.45,87.12,199.45,84.2Z"/><path class="cls-1" d="M206.12,86.44A2.67,2.67,0,0,0,209,88.79c1.38,0,2.14-.78,2.14-1.67s-.57-1.38-1.62-1.62L207.42,85a3.57,3.57,0,0,1-3.13-3.52,4.27,4.27,0,0,1,4.46-4c3.44,0,4.51,2.24,4.77,3.36l-2.16.81a2.43,2.43,0,0,0-2.61-2.08,1.89,1.89,0,0,0-2.08,1.67c0,.76.47,1.3,1.43,1.51l2,.44c2.27.5,3.47,1.88,3.47,3.73s-1.49,3.88-4.59,3.88c-3.44,0-4.9-2.21-5.11-3.65Z"/><path class="cls-1" d="M220.14,77.94h2.71v2.22h-2.71v6.52c0,1.15.47,1.72,1.75,1.72a4.91,4.91,0,0,0,1-.1v2.08a5.37,5.37,0,0,1-1.67.23A3.25,3.25,0,0,1,217.69,87V80.16h-2.4V77.94H216A1.75,1.75,0,0,0,217.9,76V74h2.24Z"/><polygon class="cls-1" points="306.87 35.68 90.6 35.68 90.6 21.18 93.6 21.18 93.6 32.68 303.87 32.68 303.87 21.18 306.87 21.18 306.87 35.68"/><rect class="cls-1" x="197.23" y="34.18" width="3" height="28.25"/></svg>