<svg id="Layer_1" data-name="Layer 1" xmlns="http://www.w3.org/2000/svg" viewBox="0 0 580.67 37.36"><defs><style>.cls-1{fill:#feda00;}.cls-2{fill:#231f20;}.cls-3{fill:#3cc0c0;}.cls-4{fill:#e41f27;}.cls-5{fill:#f7acc1;}.cls-6{fill:#92d4cf;}</style></defs><title>08-39-settings list</title><rect class="cls-1" width="57.1" height="37.36" rx="4.13" ry="4.13"/><path class="cls-2" d="M12.86,15.36h2V17h-2v4.89c0,.86.35,1.29,1.31,1.29a3.73,3.73,0,0,0,.72-.08v1.56a4,4,0,0,1-1.25.18A2.44,2.44,0,0,1,11,22.18V17H9.22V15.36h.51a1.32,1.32,0,0,0,1.45-1.45V12.39h1.68Z"/><path class="cls-2" d="M17.76,28.69l2.35-5-4-8.37h2.11l2.93,6.49,2.81-6.49h2L19.78,28.69Z"/><path class="cls-2" d="M27.65,28.48V15.36h1.78v1.47a3.47,3.47,0,0,1,3.15-1.68c2.81,0,4.32,2.17,4.32,4.91s-1.62,5-4.38,5a3.5,3.5,0,0,1-3-1.52v5Zm4.59-11.71c-1.68,0-2.8,1.41-2.8,3.28s1.11,3.32,2.8,3.32S35,22,35,20.05,34,16.77,32.24,16.77Z"/><path class="cls-2" d="M47.43,22.09a4.26,4.26,0,0,1-4.22,3,4.69,4.69,0,0,1-4.73-5,4.69,4.69,0,0,1,4.5-5c2.89,0,4.52,2,4.52,4.93a4.14,4.14,0,0,1,0,.59H40.37a2.79,2.79,0,0,0,2.83,2.85,2.56,2.56,0,0,0,2.64-1.9Zm-1.86-3A2.37,2.37,0,0,0,43,16.69a2.53,2.53,0,0,0-2.56,2.4Z"/><rect class="cls-3" x="63.7" width="57.1" height="37.36" rx="4.13" ry="4.13"/><path class="cls-2" d="M85.64,25.06a3.48,3.48,0,0,1-3.52-3.77V15.36H84V21c0,1.29.59,2.42,2.13,2.42A2.13,2.13,0,0,0,88.32,21V15.36h1.84V23a15.83,15.83,0,0,0,.1,1.74H88.49a8.24,8.24,0,0,1-.08-1.13A3.07,3.07,0,0,1,85.64,25.06Z"/><path class="cls-2" d="M98.5,17.22a5.74,5.74,0,0,0-.8-.06c-1.54,0-2.58.82-2.58,2.89v4.71H93.28v-9.4h1.8V17a2.94,2.94,0,0,1,2.81-1.8,3.46,3.46,0,0,1,.61.06Z"/><path class="cls-2" d="M100.45,24.76V10.61h1.84V24.76Z"/><rect class="cls-4" x="132.29" width="57.1" height="37.36" rx="4.13" ry="4.13"/><path class="cls-2" d="M149.56,23.34A3.15,3.15,0,0,1,146.64,25c-2.76,0-4.46-2.19-4.46-5s1.8-4.93,4.46-4.93a2.89,2.89,0,0,1,2.87,1.58V10.61h1.82V23a14.89,14.89,0,0,0,.1,1.74h-1.78a7.88,7.88,0,0,1-.1-1.27Zm-2.74.06c1.68,0,2.72-1.47,2.72-3.4s-1-3.26-2.7-3.26-2.78,1.37-2.78,3.3S145.06,23.39,146.82,23.39Z"/><path class="cls-2" d="M156.73,19.39l2.54-.37c.57-.08.72-.37.72-.7,0-.92-.61-1.68-2-1.68a2,2,0,0,0-2.13,1.9l-1.76-.41a3.63,3.63,0,0,1,3.85-3c2.81,0,3.91,1.6,3.91,3.44v4.71a8.85,8.85,0,0,0,.12,1.54h-1.8a6.86,6.86,0,0,1-.1-1.27,3.43,3.43,0,0,1-3,1.56,2.93,2.93,0,0,1-3.15-2.81C153.87,20.56,155.1,19.62,156.73,19.39ZM160,20.74v-.43l-2.87.43a1.41,1.41,0,0,0-1.37,1.41,1.43,1.43,0,0,0,1.52,1.37A2.47,2.47,0,0,0,160,20.74Z"/><path class="cls-2" d="M167.14,15.36h2V17h-2v4.89c0,.86.35,1.29,1.31,1.29a3.73,3.73,0,0,0,.72-.08v1.56a4,4,0,0,1-1.25.18,2.44,2.44,0,0,1-2.62-2.68V17h-1.8V15.36H164a1.32,1.32,0,0,0,1.45-1.45V12.39h1.68Z"/><path class="cls-2" d="M173.88,19.39l2.54-.37c.57-.08.72-.37.72-.7,0-.92-.61-1.68-2-1.68a2,2,0,0,0-2.13,1.9l-1.76-.41a3.63,3.63,0,0,1,3.85-3c2.81,0,3.91,1.6,3.91,3.44v4.71a8.85,8.85,0,0,0,.12,1.54h-1.8a6.86,6.86,0,0,1-.1-1.27,3.43,3.43,0,0,1-3,1.56A2.93,2.93,0,0,1,171,22.24C171,20.56,172.26,19.62,173.88,19.39Zm3.26,1.35v-.43l-2.87.43a1.41,1.41,0,0,0-1.37,1.41,1.43,1.43,0,0,0,1.52,1.37A2.47,2.47,0,0,0,177.15,20.74Z"/><rect class="cls-5" x="200.87" width="76.28" height="37.36" rx="4.13" ry="4.13"/><path class="cls-2" d="M207.12,21.73a2,2,0,0,0,2.19,1.76c1,0,1.6-.59,1.6-1.25s-.43-1-1.21-1.21l-1.6-.35A2.68,2.68,0,0,1,205.76,18a3.2,3.2,0,0,1,3.34-3,3.34,3.34,0,0,1,3.58,2.52l-1.62.61a1.82,1.82,0,0,0-2-1.56,1.42,1.42,0,0,0-1.56,1.25c0,.57.35,1,1.08,1.13l1.52.33c1.7.37,2.6,1.41,2.6,2.8s-1.11,2.91-3.44,2.91c-2.58,0-3.67-1.66-3.83-2.74Z"/><path class="cls-2" d="M218.5,25.06A3.48,3.48,0,0,1,215,21.28V15.36h1.84V21c0,1.29.59,2.42,2.13,2.42a2.13,2.13,0,0,0,2.23-2.4V15.36H223V23a15.83,15.83,0,0,0,.1,1.74h-1.76a8.24,8.24,0,0,1-.08-1.13A3.07,3.07,0,0,1,218.5,25.06Z"/><path class="cls-2" d="M227.13,20.05c0,2.15,1.35,3.3,2.87,3.3a2.56,2.56,0,0,0,2.62-1.94l1.62.7A4.32,4.32,0,0,1,230,25.06a4.76,4.76,0,0,1-4.75-5,4.71,4.71,0,0,1,4.73-5,4.09,4.09,0,0,1,4.18,3l-1.66.7a2.47,2.47,0,0,0-2.52-2C228.5,16.77,227.13,17.86,227.13,20.05Z"/><path class="cls-2" d="M237.39,20.05c0,2.15,1.35,3.3,2.87,3.3a2.56,2.56,0,0,0,2.62-1.94l1.62.7a4.32,4.32,0,0,1-4.24,2.93,4.76,4.76,0,0,1-4.75-5,4.71,4.71,0,0,1,4.73-5,4.09,4.09,0,0,1,4.18,3l-1.66.7a2.47,2.47,0,0,0-2.52-2C238.76,16.77,237.39,17.86,237.39,20.05Z"/><path class="cls-2" d="M254.75,22.09a4.26,4.26,0,0,1-4.22,3,4.69,4.69,0,0,1-4.73-5,4.69,4.69,0,0,1,4.5-5c2.89,0,4.52,2,4.52,4.93a4.14,4.14,0,0,1,0,.59h-7.08a2.79,2.79,0,0,0,2.83,2.85,2.56,2.56,0,0,0,2.64-1.9Zm-1.86-3a2.37,2.37,0,0,0-2.58-2.4,2.53,2.53,0,0,0-2.56,2.4Z"/><path class="cls-2" d="M257.93,21.73a2,2,0,0,0,2.19,1.76c1,0,1.6-.59,1.6-1.25s-.43-1-1.21-1.21l-1.6-.35A2.68,2.68,0,0,1,256.56,18a3.2,3.2,0,0,1,3.34-3,3.34,3.34,0,0,1,3.58,2.52l-1.62.61a1.82,1.82,0,0,0-2-1.56,1.42,1.42,0,0,0-1.56,1.25c0,.57.35,1,1.08,1.13l1.52.33c1.7.37,2.6,1.41,2.6,2.8s-1.11,2.91-3.44,2.91c-2.58,0-3.67-1.66-3.83-2.74Z"/><path class="cls-2" d="M266.76,21.73A2,2,0,0,0,269,23.49c1,0,1.6-.59,1.6-1.25s-.43-1-1.21-1.21l-1.6-.35A2.68,2.68,0,0,1,265.4,18a3.2,3.2,0,0,1,3.34-3,3.34,3.34,0,0,1,3.58,2.52l-1.62.61a1.82,1.82,0,0,0-2-1.56,1.42,1.42,0,0,0-1.56,1.25c0,.57.35,1,1.08,1.13l1.52.33c1.7.37,2.6,1.41,2.6,2.8s-1.11,2.91-3.44,2.91c-2.58,0-3.67-1.66-3.83-2.74Z"/><rect class="cls-6" x="288.64" width="57.1" height="37.36" rx="4.13" ry="4.13"/><path class="cls-2" d="M305.35,22.09a4.26,4.26,0,0,1-4.22,3,4.69,4.69,0,0,1-4.73-5,4.69,4.69,0,0,1,4.5-5c2.89,0,4.52,2,4.52,4.93a4.14,4.14,0,0,1,0,.59H298.3a2.79,2.79,0,0,0,2.83,2.85,2.56,2.56,0,0,0,2.64-1.9Zm-1.86-3a2.37,2.37,0,0,0-2.58-2.4,2.53,2.53,0,0,0-2.56,2.4Z"/><path class="cls-2" d="M313,17.22a5.73,5.73,0,0,0-.8-.06c-1.54,0-2.58.82-2.58,2.89v4.71h-1.84v-9.4h1.8V17a2.94,2.94,0,0,1,2.81-1.8,3.45,3.45,0,0,1,.61.06Z"/><path class="cls-2" d="M320.14,17.22a5.73,5.73,0,0,0-.8-.06c-1.54,0-2.58.82-2.58,2.89v4.71h-1.84v-9.4h1.8V17a2.94,2.94,0,0,1,2.81-1.8,3.45,3.45,0,0,1,.61.06Z"/><path class="cls-2" d="M330.83,20.05a4.81,4.81,0,1,1-9.62,0,4.81,4.81,0,1,1,9.62,0Zm-1.88,0c0-2.17-1.37-3.34-2.93-3.34s-2.93,1.17-2.93,3.34,1.37,3.36,2.93,3.36S329,22.24,329,20.05Z"/><path class="cls-2" d="M338.39,17.22a5.73,5.73,0,0,0-.8-.06c-1.54,0-2.58.82-2.58,2.89v4.71h-1.84v-9.4H335V17a2.94,2.94,0,0,1,2.81-1.8,3.45,3.45,0,0,1,.61.06Z"/><rect class="cls-1" x="357.23" width="113.73" height="37.36" rx="4.13" ry="4.13"/><path class="cls-2" d="M364.76,24.76V10.61h1.82v6.08a3.43,3.43,0,0,1,3.11-1.6c2.85,0,4.32,2.19,4.32,4.93s-1.58,5-4.38,5a3.35,3.35,0,0,1-3-1.62v1.37Zm4.59-8.05c-1.62,0-2.79,1.27-2.79,3.3s1.17,3.36,2.79,3.36S372.13,22,372.13,20,371.06,16.71,369.35,16.71Z"/><path class="cls-2" d="M384.54,22.09a4.26,4.26,0,0,1-4.22,3,4.69,4.69,0,0,1-4.73-5,4.69,4.69,0,0,1,4.5-5c2.89,0,4.52,2,4.52,4.93a4.14,4.14,0,0,1,0,.59h-7.08a2.79,2.79,0,0,0,2.83,2.85,2.56,2.56,0,0,0,2.64-1.9Zm-1.86-3a2.37,2.37,0,0,0-2.58-2.4,2.53,2.53,0,0,0-2.56,2.4Z"/><path class="cls-2" d="M389.4,17v7.74h-1.9V17h-1.74V15.36h1.74V13.78a3,3,0,0,1,3.09-3.23,2.37,2.37,0,0,1,1.09.2v1.64a2.12,2.12,0,0,0-.8-.12,1.41,1.41,0,0,0-1.49,1.6v1.49h2.27V17Z"/><path class="cls-2" d="M402.09,20.05a4.81,4.81,0,1,1-9.62,0,4.81,4.81,0,1,1,9.62,0Zm-1.88,0c0-2.17-1.37-3.34-2.93-3.34s-2.93,1.17-2.93,3.34,1.37,3.36,2.93,3.36S400.21,22.24,400.21,20.05Z"/><path class="cls-2" d="M409.65,17.22a5.73,5.73,0,0,0-.8-.06c-1.54,0-2.58.82-2.58,2.89v4.71h-1.84v-9.4h1.8V17A2.94,2.94,0,0,1,409,15.2a3.45,3.45,0,0,1,.61.06Z"/><path class="cls-2" d="M419.69,22.09a4.26,4.26,0,0,1-4.22,3,4.69,4.69,0,0,1-4.73-5,4.69,4.69,0,0,1,4.5-5c2.89,0,4.52,2,4.52,4.93a4.14,4.14,0,0,1,0,.59h-7.08a2.79,2.79,0,0,0,2.83,2.85,2.56,2.56,0,0,0,2.64-1.9Zm-1.86-3a2.37,2.37,0,0,0-2.58-2.4,2.53,2.53,0,0,0-2.56,2.4Z"/><path class="cls-2" d="M429.4,14.66a2.81,2.81,0,0,0-2.93-2.37,2.45,2.45,0,0,0-2.68,2.31,2,2,0,0,0,1.78,2l2.07.45c2.31.51,3.6,2,3.6,3.89,0,2.15-1.84,4.1-4.79,4.1-3.34,0-4.93-2.15-5.18-4.12l1.84-.59a3.15,3.15,0,0,0,3.32,3c1.92,0,2.85-1,2.85-2.21A2.26,2.26,0,0,0,427.21,19l-2-.43a3.83,3.83,0,0,1-3.38-3.79,4.42,4.42,0,0,1,4.57-4.12c3.13,0,4.38,1.94,4.69,3.44Z"/><path class="cls-2" d="M441.68,22.09a4.26,4.26,0,0,1-4.22,3,4.69,4.69,0,0,1-4.73-5,4.69,4.69,0,0,1,4.5-5c2.89,0,4.52,2,4.52,4.93a4.14,4.14,0,0,1,0,.59h-7.08a2.79,2.79,0,0,0,2.83,2.85,2.56,2.56,0,0,0,2.64-1.9Zm-1.86-3a2.37,2.37,0,0,0-2.58-2.4,2.53,2.53,0,0,0-2.56,2.4Z"/><path class="cls-2" d="M445.91,24.76h-1.84v-9.4h1.8v1.35a3.22,3.22,0,0,1,2.89-1.62c2.25,0,3.36,1.62,3.36,3.71v6h-1.84V19.11c0-1.31-.55-2.37-2.19-2.37-1.45,0-2.19,1.15-2.19,2.58Z"/><path class="cls-2" d="M461.65,23.34A3.15,3.15,0,0,1,458.73,25c-2.76,0-4.46-2.19-4.46-5s1.8-4.93,4.46-4.93a2.89,2.89,0,0,1,2.87,1.58V10.61h1.82V23a14.89,14.89,0,0,0,.1,1.74h-1.78a7.88,7.88,0,0,1-.1-1.27Zm-2.74.06c1.68,0,2.72-1.47,2.72-3.4s-1-3.26-2.7-3.26-2.78,1.37-2.78,3.3S457.15,23.39,458.91,23.39Z"/><rect class="cls-3" x="484.19" width="96.47" height="37.36" rx="4.13" ry="4.13"/><path class="cls-2" d="M493.71,20.05c0,2.15,1.35,3.3,2.87,3.3a2.56,2.56,0,0,0,2.62-1.94l1.62.7a4.32,4.32,0,0,1-4.24,2.93,4.76,4.76,0,0,1-4.75-5,4.71,4.71,0,0,1,4.73-5,4.09,4.09,0,0,1,4.18,3l-1.66.7a2.47,2.47,0,0,0-2.52-2C495.08,16.77,493.71,17.86,493.71,20.05Z"/><path class="cls-2" d="M511.71,20.05a4.81,4.81,0,1,1-9.62,0,4.81,4.81,0,1,1,9.62,0Zm-1.88,0c0-2.17-1.37-3.34-2.93-3.34S504,17.88,504,20.05s1.37,3.36,2.93,3.36S509.83,22.24,509.83,20.05Z"/><path class="cls-2" d="M514.05,24.76v-9.4h1.76v1.25a3.24,3.24,0,0,1,2.85-1.52,2.94,2.94,0,0,1,2.81,1.78,3.38,3.38,0,0,1,3.15-1.78,3.22,3.22,0,0,1,3.24,3.58v6.1h-1.82v-5.9a1.89,1.89,0,0,0-2-2.15,2.19,2.19,0,0,0-2.17,2.37v5.69h-1.84v-5.9a1.89,1.89,0,0,0-2-2.15,2.18,2.18,0,0,0-2.19,2.38v5.67Z"/><path class="cls-2" d="M530.8,28.48V15.36h1.78v1.47a3.47,3.47,0,0,1,3.15-1.68c2.81,0,4.32,2.17,4.32,4.91s-1.62,5-4.38,5a3.5,3.5,0,0,1-3-1.52v5Zm4.59-11.71c-1.68,0-2.79,1.41-2.79,3.28s1.11,3.32,2.79,3.32,2.78-1.39,2.78-3.32S537.11,16.77,535.39,16.77Z"/><path class="cls-2" d="M542.39,24.76V10.61h1.84V24.76Z"/><path class="cls-2" d="M555.54,22.09a4.26,4.26,0,0,1-4.22,3,4.69,4.69,0,0,1-4.73-5,4.69,4.69,0,0,1,4.5-5c2.89,0,4.52,2,4.52,4.93a4.14,4.14,0,0,1,0,.59h-7.08a2.79,2.79,0,0,0,2.83,2.85,2.56,2.56,0,0,0,2.64-1.9Zm-1.86-3a2.37,2.37,0,0,0-2.58-2.4,2.53,2.53,0,0,0-2.56,2.4Z"/><path class="cls-2" d="M560.4,15.36h2V17h-2v4.89c0,.86.35,1.29,1.31,1.29a3.73,3.73,0,0,0,.72-.08v1.56a4,4,0,0,1-1.25.18,2.44,2.44,0,0,1-2.62-2.68V17h-1.8V15.36h.51a1.32,1.32,0,0,0,1.45-1.45V12.39h1.68Z"/><path class="cls-2" d="M573,22.09a4.26,4.26,0,0,1-4.22,3A4.69,4.69,0,0,1,564,20a4.69,4.69,0,0,1,4.5-5c2.89,0,4.52,2,4.52,4.93a4.14,4.14,0,0,1,0,.59h-7.08a2.79,2.79,0,0,0,2.83,2.85,2.56,2.56,0,0,0,2.64-1.9Zm-1.86-3a2.37,2.37,0,0,0-2.58-2.4,2.53,2.53,0,0,0-2.56,2.4Z"/></svg>