<svg id="Layer_1" data-name="Layer 1" xmlns="http://www.w3.org/2000/svg" viewBox="0 0 315 442"><defs><style>.cls-1{fill:#231f20;}</style></defs><title>08-39-table</title><path class="cls-1" d="M26.47,25.05a5.91,5.91,0,0,1,6-6.07,5.16,5.16,0,0,1,5.4,3.91l-2.44.77a2.81,2.81,0,0,0-3-2.16,3.31,3.31,0,0,0-3.31,3.55,3.29,3.29,0,0,0,3.34,3.44,3,3,0,0,0,3-2.18L38,27a5.36,5.36,0,0,1-5.52,4.06A5.84,5.84,0,0,1,26.47,25.05Z"/><path class="cls-1" d="M47.42,26.76a4.32,4.32,0,1,1-4.32-4.31A4.21,4.21,0,0,1,47.42,26.76Zm-2.49,0a1.84,1.84,0,1,0-3.67,0,1.84,1.84,0,1,0,3.67,0Z"/><path class="cls-1" d="M57,29.38c0,.74,0,1.28.07,1.46H54.7a5.56,5.56,0,0,1-.07-.79,2.62,2.62,0,0,1-2.18,1,4,4,0,0,1-4-4.27,4,4,0,0,1,3.95-4.24,2.46,2.46,0,0,1,2.19.83V19H57Zm-4.26-.59a1.84,1.84,0,0,0,1.83-2,1.84,1.84,0,1,0-3.67,0A1.84,1.84,0,0,0,52.77,28.79Z"/><path class="cls-1" d="M66.67,28.49a3.65,3.65,0,0,1-3.75,2.59,4.14,4.14,0,0,1-4.24-4.34,4.1,4.1,0,0,1,4.06-4.29,3.8,3.8,0,0,1,4.08,4.17,5.21,5.21,0,0,1,0,.77H61.11A1.76,1.76,0,0,0,63,29a1.57,1.57,0,0,0,1.64-1.06Zm-2.26-2.7a1.46,1.46,0,0,0-1.64-1.37,1.55,1.55,0,0,0-1.62,1.38Z"/><path class="cls-1" d="M139.43,26.51h-.92v4.32h-2.59V19.23h4.6a3.54,3.54,0,0,1,3.77,3.63A3.33,3.33,0,0,1,142,26.14l2.36,4.7h-2.85Zm.61-2.23c1.06,0,1.64-.59,1.64-1.41s-.57-1.41-1.64-1.41h-1.52v2.82Z"/><path class="cls-1" d="M153.27,28.49a3.65,3.65,0,0,1-3.75,2.59,4.14,4.14,0,0,1-4.24-4.34,4.1,4.1,0,0,1,4.06-4.29,3.8,3.8,0,0,1,4.08,4.17,5.24,5.24,0,0,1,0,.77H147.7A1.76,1.76,0,0,0,149.55,29a1.57,1.57,0,0,0,1.64-1.06ZM151,25.79a1.46,1.46,0,0,0-1.64-1.37,1.55,1.55,0,0,0-1.62,1.38Z"/><path class="cls-1" d="M156.94,26.14l1.92-.29c.44-.07.59-.28.59-.56,0-.47-.41-.88-1.2-.88a1.31,1.31,0,0,0-1.39,1.2l-2.16-.44c.1-1.16,1.18-2.7,3.57-2.7,2.64,0,3.6,1.47,3.6,3.14v4a8,8,0,0,0,.1,1.26h-2.24a4,4,0,0,1-.08-.92,2.85,2.85,0,0,1-5.11-1.33A2.5,2.5,0,0,1,156.94,26.14Zm2.5,1.51v-.36l-1.54.25c-.52.08-.92.33-.92.9s.28.83,1,.83S159.44,28.9,159.44,27.64Z"/><path class="cls-1" d="M165.4,28.15a1.16,1.16,0,0,0,1.28,1.1c.64,0,.95-.34.95-.7s-.2-.54-.8-.67l-.93-.21c-1.74-.38-2.42-1.36-2.42-2.5a2.88,2.88,0,0,1,3.13-2.7c2.36,0,3.18,1.47,3.26,2.42l-2.06.38a1.07,1.07,0,0,0-1.16-1,.79.79,0,0,0-.88.7c0,.34.28.54.64.61l1.08.21c1.69.34,2.51,1.36,2.51,2.55,0,1.39-1.06,2.75-3.24,2.75-2.55,0-3.37-1.65-3.44-2.55Z"/><path class="cls-1" d="M179.63,26.76a4.32,4.32,0,1,1-4.32-4.31A4.21,4.21,0,0,1,179.63,26.76Zm-2.49,0a1.84,1.84,0,1,0-3.67,0,1.84,1.84,0,1,0,3.67,0Z"/><path class="cls-1" d="M183.73,30.83h-2.49V22.7h2.41v.93a2.67,2.67,0,0,1,2.28-1.15c2,0,3,1.46,3,3.24v5.11h-2.49V26.15a1.26,1.26,0,0,0-1.33-1.41,1.32,1.32,0,0,0-1.34,1.42Z"/><path class="cls-1" d="M28.5,78.92a4,4,0,0,1-.08-.74,3.59,3.59,0,0,1,3.88-3.55,3.51,3.51,0,0,1,3.83,3.42,3.82,3.82,0,0,1-2.06,3.29l-2,1.24a2.16,2.16,0,0,0-.92,1h5.09V85.5H28.34A4.85,4.85,0,0,1,30.84,81l1.75-1a2.07,2.07,0,0,0,1.26-1.83,1.45,1.45,0,0,0-1.6-1.46,1.6,1.6,0,0,0-1.69,1.77,2.32,2.32,0,0,0,.08.59Z"/><path class="cls-1" d="M38.31,76.41a4,4,0,0,1,3.5-1.78,4,4,0,0,1,3.49,1.78,8,8,0,0,1,0,7.56,4,4,0,0,1-3.49,1.78A4,4,0,0,1,38.31,84a8.13,8.13,0,0,1,0-7.56Zm1.9,6.48a1.77,1.77,0,0,0,1.6.87,1.73,1.73,0,0,0,1.59-.87,6.49,6.49,0,0,0,0-5.4,1.73,1.73,0,0,0-1.59-.87,1.77,1.77,0,0,0-1.6.87,6.65,6.65,0,0,0,0,5.4Z"/><path class="cls-1" d="M48.49,76.41A4,4,0,0,1,52,74.63a4,4,0,0,1,3.49,1.78,8,8,0,0,1,0,7.56A4,4,0,0,1,52,85.76,4,4,0,0,1,48.49,84a8.13,8.13,0,0,1,0-7.56Zm1.9,6.48a1.77,1.77,0,0,0,1.6.87,1.73,1.73,0,0,0,1.59-.87,6.49,6.49,0,0,0,0-5.4A1.73,1.73,0,0,0,52,76.63a1.77,1.77,0,0,0-1.6.87,6.65,6.65,0,0,0,0,5.4Z"/><path class="cls-1" d="M143.19,73.65a6.05,6.05,0,1,1-6,6.06A5.85,5.85,0,0,1,143.19,73.65Zm0,9.91a3.87,3.87,0,1,0-3.62-3.86A3.58,3.58,0,0,0,143.19,83.55Z"/><path class="cls-1" d="M154.84,80.69l-1.44,1.59V85.5h-2.26V73.89h2.26v5.26L158,73.89h3L156.41,79,161,85.5h-2.83Z"/><path class="cls-1" d="M30.32,133.88l2.78-2.39H28.45v-1.95H36v1.82l-2.75,2.29a3.17,3.17,0,0,1,3.08,3.24c0,1.83-1.51,3.52-4.08,3.52A3.82,3.82,0,0,1,28.11,137l2.18-.43a1.87,1.87,0,0,0,1.93,1.87,1.63,1.63,0,0,0,1.8-1.6,1.55,1.55,0,0,0-1.74-1.57,2.64,2.64,0,0,0-1,.16Z"/><path class="cls-1" d="M38.36,131.08a4,4,0,0,1,3.5-1.78,4,4,0,0,1,3.49,1.78,8,8,0,0,1,0,7.56,4,4,0,0,1-3.49,1.78,4,4,0,0,1-3.5-1.78,8.13,8.13,0,0,1,0-7.56Zm1.9,6.48a1.77,1.77,0,0,0,1.6.87,1.73,1.73,0,0,0,1.59-.87,6.49,6.49,0,0,0,0-5.4,1.73,1.73,0,0,0-1.59-.87,1.77,1.77,0,0,0-1.6.87,6.65,6.65,0,0,0,0,5.4Z"/><path class="cls-1" d="M49.85,140.17v-7.11H47.3v-1.52a2.71,2.71,0,0,0,2.85-2H52.1v10.63Z"/><path class="cls-1" d="M148.64,140.17V132l-3.34,8.14h-1.88l-3.34-8.07v8.07h-2.16V128.56h3l3.49,8.38,3.41-8.38h3.08v11.61Z"/><path class="cls-1" d="M161.16,136.14a4.22,4.22,0,1,1-4.22-4.27A4.14,4.14,0,0,1,161.16,136.14Zm-2.18,0a2.06,2.06,0,1,0-2,2.29A2.07,2.07,0,0,0,159,136.14Z"/><path class="cls-1" d="M167.1,140.17h-2.18l-3.29-8.06H164l2,5.4,1.92-5.4h2.29Z"/><path class="cls-1" d="M178.53,137.86a3.63,3.63,0,0,1-3.67,2.55,4.28,4.28,0,0,1-.2-8.55c2.49,0,4,1.59,4,4.17,0,.31,0,.64,0,.67h-5.76a2,2,0,0,0,2,1.83,1.78,1.78,0,0,0,1.83-1.23Zm-2-2.64a1.62,1.62,0,0,0-1.8-1.59,1.74,1.74,0,0,0-1.8,1.59Z"/><path class="cls-1" d="M188,138.71c0,.54,0,1.13.07,1.46H186a5.51,5.51,0,0,1-.08-.93,2.53,2.53,0,0,1-2.26,1.13,4.24,4.24,0,0,1-.07-8.45,2.41,2.41,0,0,1,2.28,1v-4.6H188Zm-4.09-.29a2,2,0,0,0,2-2.31,2,2,0,0,0-2-2.24,2.3,2.3,0,0,0,0,4.55Z"/><path class="cls-1" d="M196.87,135.8v4.37h-2.26V128.56H199a3.62,3.62,0,1,1,0,7.24Zm1.8-1.95a1.67,1.67,0,1,0,0-3.32h-1.79v3.32Z"/><path class="cls-1" d="M211.09,137.86a3.63,3.63,0,0,1-3.67,2.55,4.28,4.28,0,0,1-.2-8.55c2.49,0,4,1.59,4,4.17,0,.31,0,.64,0,.67H205.4a2,2,0,0,0,2,1.83,1.78,1.78,0,0,0,1.83-1.23Zm-2-2.64a1.62,1.62,0,0,0-1.8-1.59,1.74,1.74,0,0,0-1.8,1.59Z"/><path class="cls-1" d="M217.83,134.27a3.29,3.29,0,0,0-.66-.07c-1.11,0-2.08.54-2.08,2.28v3.68h-2.18v-8.06H215v1.2a2.4,2.4,0,0,1,2.29-1.26,4.87,4.87,0,0,1,.51,0Z"/><path class="cls-1" d="M219.37,140.17v-8.06h2.08v1a2.77,2.77,0,0,1,2.36-1.21,2.49,2.49,0,0,1,2.39,1.34,3,3,0,0,1,5.47,1.72v5.22h-2.11v-4.78a1.34,1.34,0,0,0-1.42-1.52,1.48,1.48,0,0,0-1.49,1.59v4.72h-2.16v-4.78a1.35,1.35,0,0,0-1.42-1.52,1.47,1.47,0,0,0-1.51,1.59v4.72Z"/><path class="cls-1" d="M235.8,135.53l2-.29c.46-.07.61-.29.61-.57,0-.57-.44-1-1.36-1a1.43,1.43,0,0,0-1.54,1.31l-1.93-.41a3.2,3.2,0,0,1,3.46-2.65c2.55,0,3.5,1.44,3.5,3.06v4a9.08,9.08,0,0,0,.1,1.28h-2a5.49,5.49,0,0,1-.08-1,2.69,2.69,0,0,1-2.37,1.19,2.54,2.54,0,0,1-2.77-2.42A2.48,2.48,0,0,1,235.8,135.53Zm2.59,1.38v-.36l-1.82.28a1,1,0,0,0-1,1,1,1,0,0,0,1,.93A1.64,1.64,0,0,0,238.38,136.91Z"/><path class="cls-1" d="M244.89,140.17h-2.18v-8.06h2.11v1a2.68,2.68,0,0,1,2.33-1.21c2,0,2.91,1.42,2.91,3.19v5.08h-2.18v-4.7a1.42,1.42,0,0,0-1.49-1.6,1.52,1.52,0,0,0-1.51,1.67Z"/><path class="cls-1" d="M259.49,137.86a3.63,3.63,0,0,1-3.67,2.55,4.28,4.28,0,0,1-.2-8.55c2.49,0,4,1.59,4,4.17,0,.31,0,.64,0,.67h-5.76a2,2,0,0,0,2,1.83,1.78,1.78,0,0,0,1.83-1.23Zm-2-2.64a1.62,1.62,0,0,0-1.8-1.59,1.74,1.74,0,0,0-1.8,1.59Z"/><path class="cls-1" d="M263.51,140.17h-2.18v-8.06h2.11v1a2.68,2.68,0,0,1,2.33-1.21c2,0,2.91,1.42,2.91,3.19v5.08H266.5v-4.7a1.42,1.42,0,0,0-1.49-1.6,1.52,1.52,0,0,0-1.51,1.67Z"/><path class="cls-1" d="M273.58,132.11h1.62V134h-1.62v3.37c0,.7.33.93,1,.93a3.19,3.19,0,0,0,.67-.07v1.8a3.23,3.23,0,0,1-1.23.2,2.33,2.33,0,0,1-2.55-2.49V134H270v-1.93h.41a1.16,1.16,0,0,0,1.24-1.28v-1.13h2Z"/><path class="cls-1" d="M276.66,140.17V128.31h2.18v11.85Z"/><path class="cls-1" d="M281.63,143.34l1.9-4.19-3.42-7h2.44l2.14,4.72,2-4.72H289l-5.06,11.23Z"/><path class="cls-1" d="M30.32,188.55l2.78-2.39H28.45v-1.95H36V186l-2.75,2.29a3.17,3.17,0,0,1,3.08,3.24c0,1.83-1.51,3.52-4.08,3.52a3.82,3.82,0,0,1-4.11-3.39l2.18-.43a1.87,1.87,0,0,0,1.93,1.87,1.63,1.63,0,0,0,1.8-1.6A1.55,1.55,0,0,0,32.28,190a2.64,2.64,0,0,0-1,.16Z"/><path class="cls-1" d="M38.36,185.75a4,4,0,0,1,3.5-1.78,4,4,0,0,1,3.49,1.78,8,8,0,0,1,0,7.56,4,4,0,0,1-3.49,1.78,4,4,0,0,1-3.5-1.78,8.13,8.13,0,0,1,0-7.56Zm1.9,6.48a1.77,1.77,0,0,0,1.6.87,1.73,1.73,0,0,0,1.59-.87,6.49,6.49,0,0,0,0-5.4,1.73,1.73,0,0,0-1.59-.87,1.77,1.77,0,0,0-1.6.87,6.65,6.65,0,0,0,0,5.4Z"/><path class="cls-1" d="M47.61,188.25a4,4,0,0,1-.08-.74A3.59,3.59,0,0,1,51.41,184a3.51,3.51,0,0,1,3.83,3.42,3.82,3.82,0,0,1-2.06,3.29l-2,1.24a2.16,2.16,0,0,0-.92,1h5.09v1.95H47.45A4.85,4.85,0,0,1,50,190.3l1.75-1A2.07,2.07,0,0,0,53,187.42a1.45,1.45,0,0,0-1.6-1.46,1.6,1.6,0,0,0-1.69,1.77,2.32,2.32,0,0,0,.08.59Z"/><path class="cls-1" d="M148.64,194.83V186.7l-3.34,8.14h-1.88l-3.34-8.07v8.07h-2.16V183.23h3l3.49,8.38,3.41-8.38h3.08v11.61Z"/><path class="cls-1" d="M161.16,190.81a4.22,4.22,0,1,1-4.22-4.27A4.14,4.14,0,0,1,161.16,190.81Zm-2.18,0a2.06,2.06,0,1,0-2,2.29A2.07,2.07,0,0,0,159,190.81Z"/><path class="cls-1" d="M167.1,194.83h-2.18l-3.29-8.06H164l2,5.4,1.92-5.4h2.29Z"/><path class="cls-1" d="M178.53,192.53a3.63,3.63,0,0,1-3.67,2.55,4.28,4.28,0,0,1-.2-8.55c2.49,0,4,1.59,4,4.17,0,.31,0,.64,0,.67h-5.76a2,2,0,0,0,2,1.83,1.78,1.78,0,0,0,1.83-1.23Zm-2-2.64a1.62,1.62,0,0,0-1.8-1.59,1.74,1.74,0,0,0-1.8,1.59Z"/><path class="cls-1" d="M188,193.38c0,.54,0,1.13.07,1.46H186a5.51,5.51,0,0,1-.08-.93,2.52,2.52,0,0,1-2.26,1.13,4.24,4.24,0,0,1-.07-8.45,2.41,2.41,0,0,1,2.28,1V183H188Zm-4.09-.29a2,2,0,0,0,2-2.31,2,2,0,0,0-2-2.24,2.3,2.3,0,0,0,0,4.55Z"/><path class="cls-1" d="M199.49,185.37v9.46h-2.28v-9.46h-3.67v-2.15h9.61v2.15Z"/><path class="cls-1" d="M210.25,192.53a3.63,3.63,0,0,1-3.67,2.55,4.28,4.28,0,0,1-.2-8.55c2.49,0,4,1.59,4,4.17,0,.31,0,.64,0,.67h-5.76a2,2,0,0,0,2,1.83,1.78,1.78,0,0,0,1.83-1.23Zm-2-2.64a1.62,1.62,0,0,0-1.8-1.59,1.74,1.74,0,0,0-1.8,1.59Z"/><path class="cls-1" d="M212.09,194.83v-8.06h2.08v1a2.77,2.77,0,0,1,2.36-1.21,2.49,2.49,0,0,1,2.39,1.34,3,3,0,0,1,5.47,1.72v5.22h-2.11v-4.78a1.34,1.34,0,0,0-1.42-1.52,1.48,1.48,0,0,0-1.49,1.59v4.72H217.2v-4.78a1.35,1.35,0,0,0-1.42-1.52,1.47,1.47,0,0,0-1.51,1.59v4.72Z"/><path class="cls-1" d="M226.6,197.94V186.78h2.11v1a2.82,2.82,0,0,1,2.47-1.16c2.36,0,3.72,1.8,3.72,4.19s-1.52,4.24-3.8,4.24a2.83,2.83,0,0,1-2.32-1v3.9Zm4.16-9.4a2.29,2.29,0,1,0,2,2.26A2,2,0,0,0,230.75,188.55Z"/><path class="cls-1" d="M244.46,190.81a4.22,4.22,0,1,1-4.22-4.27A4.14,4.14,0,0,1,244.46,190.81Zm-2.18,0a2.06,2.06,0,1,0-2,2.29A2.07,2.07,0,0,0,242.28,190.81Z"/><path class="cls-1" d="M251.09,188.94a3.26,3.26,0,0,0-.66-.07c-1.11,0-2.08.54-2.08,2.28v3.68h-2.18v-8.06h2.11V188a2.4,2.4,0,0,1,2.29-1.26,4.87,4.87,0,0,1,.51,0Z"/><path class="cls-1" d="M254.6,190.2l2-.29c.46-.07.61-.29.61-.57,0-.57-.44-1-1.36-1a1.43,1.43,0,0,0-1.54,1.31l-1.93-.41a3.2,3.2,0,0,1,3.45-2.65c2.55,0,3.5,1.44,3.5,3.06v4a8.91,8.91,0,0,0,.1,1.28h-2a5.48,5.48,0,0,1-.08-1,2.69,2.69,0,0,1-2.37,1.19,2.54,2.54,0,0,1-2.77-2.42A2.48,2.48,0,0,1,254.6,190.2Zm2.59,1.38v-.36l-1.82.28a1,1,0,0,0-1,1,1,1,0,0,0,1,.93A1.64,1.64,0,0,0,257.18,191.58Z"/><path class="cls-1" d="M266.42,188.94a3.26,3.26,0,0,0-.65-.07c-1.11,0-2.08.54-2.08,2.28v3.68h-2.18v-8.06h2.11V188a2.39,2.39,0,0,1,2.29-1.26,4.87,4.87,0,0,1,.51,0Z"/><path class="cls-1" d="M269,182.78a1.34,1.34,0,1,1-1.34,1.36A1.34,1.34,0,0,1,269,182.78ZM268,194.83v-8.06h2.18v8.06Z"/><path class="cls-1" d="M272.46,194.83V183h2.18v11.85Z"/><path class="cls-1" d="M277.44,198l1.9-4.19-3.42-7h2.44l2.14,4.72,2-4.72h2.33L279.75,198Z"/><path class="cls-1" d="M28.34,244.87l4.47-6h2.78v6.42h1.75v1.93H35.59v2.28H33.36v-2.28h-5Zm5-3.63-3,4.06h3Z"/><path class="cls-1" d="M39.19,240.41a4,4,0,0,1,3.5-1.78,4,4,0,0,1,3.49,1.78,8,8,0,0,1,0,7.56,4,4,0,0,1-3.49,1.79,4,4,0,0,1-3.5-1.79,8.13,8.13,0,0,1,0-7.56Zm1.9,6.48a1.77,1.77,0,0,0,1.6.87,1.73,1.73,0,0,0,1.59-.87,6.49,6.49,0,0,0,0-5.4,1.73,1.73,0,0,0-1.59-.87,1.77,1.77,0,0,0-1.6.87,6.65,6.65,0,0,0,0,5.4Z"/><path class="cls-1" d="M49.38,240.41a4,4,0,0,1,3.5-1.78,4,4,0,0,1,3.49,1.78,8,8,0,0,1,0,7.56,4,4,0,0,1-3.49,1.79,4,4,0,0,1-3.5-1.79,8.13,8.13,0,0,1,0-7.56Zm1.9,6.48a1.77,1.77,0,0,0,1.6.87,1.73,1.73,0,0,0,1.59-.87,6.49,6.49,0,0,0,0-5.4,1.73,1.73,0,0,0-1.59-.87,1.77,1.77,0,0,0-1.6.87,6.65,6.65,0,0,0,0,5.4Z"/><path class="cls-1" d="M142.09,237.89c2.26,0,3.54,1.33,3.54,3.13a2.58,2.58,0,0,1-1.69,2.49,2.74,2.74,0,0,1,2,2.75c0,1.88-1.41,3.24-3.59,3.24h-4.49V237.89Zm-.34,4.8a1.45,1.45,0,0,0,1.65-1.46c0-.88-.57-1.44-1.67-1.44h-1.59v2.9Zm.23,4.93c1.1,0,1.75-.57,1.75-1.51a1.51,1.51,0,0,0-1.72-1.56h-1.87v3.06Z"/><path class="cls-1" d="M149.65,244.87l2-.29c.46-.07.61-.29.61-.57,0-.57-.44-1-1.36-1a1.43,1.43,0,0,0-1.54,1.31l-1.93-.41a3.2,3.2,0,0,1,3.45-2.65c2.55,0,3.5,1.44,3.5,3.06v4a9,9,0,0,0,.1,1.28h-2a5.48,5.48,0,0,1-.08-1,2.69,2.69,0,0,1-2.37,1.2,2.54,2.54,0,0,1-2.77-2.42A2.48,2.48,0,0,1,149.65,244.87Zm2.59,1.38v-.36l-1.82.28a1,1,0,0,0-1,1,1,1,0,0,0,1,.93A1.64,1.64,0,0,0,152.23,246.24Z"/><path class="cls-1" d="M164.2,248c0,.54,0,1.13.07,1.46h-2.08a5.5,5.5,0,0,1-.08-.93,2.53,2.53,0,0,1-2.26,1.13,4.24,4.24,0,0,1-.07-8.45,2.41,2.41,0,0,1,2.28,1v-4.6h2.15Zm-4.09-.29a2,2,0,0,0,2-2.31,2,2,0,0,0-2-2.24,2.3,2.3,0,0,0,0,4.55Z"/><path class="cls-1" d="M174.22,245H173v4.47h-2.28V237.89h4.54a3.48,3.48,0,0,1,3.7,3.57,3.29,3.29,0,0,1-2.47,3.29L179,249.5H176.5Zm.66-1.95a1.62,1.62,0,1,0,0-3.23H173v3.23Z"/><path class="cls-1" d="M187.83,247.19a3.63,3.63,0,0,1-3.67,2.55,4.28,4.28,0,0,1-.2-8.55c2.49,0,4,1.59,4,4.17,0,.31,0,.64,0,.67h-5.76a2,2,0,0,0,2,1.83,1.78,1.78,0,0,0,1.83-1.23Zm-2-2.64A1.62,1.62,0,0,0,184,243a1.74,1.74,0,0,0-1.8,1.59Z"/><path class="cls-1" d="M195.23,252.61V248.7a2.54,2.54,0,0,1-2.24,1,4,4,0,0,1-3.93-4.24,3.9,3.9,0,0,1,3.86-4.21,2.51,2.51,0,0,1,2.36,1.13v-.93h2.08v11.17Zm-2-4.86a2.05,2.05,0,0,0,2-2.29,2,2,0,1,0-4,0A2.05,2.05,0,0,0,193.25,247.75Z"/><path class="cls-1" d="M204.83,248.63a2.55,2.55,0,0,1-2.23,1.08,3,3,0,0,1-3.06-3.18v-5.09h2.18v4.65a1.43,1.43,0,0,0,1.47,1.62,1.45,1.45,0,0,0,1.52-1.59v-4.68h2.18V248a13.43,13.43,0,0,0,.08,1.46H204.9A5.45,5.45,0,0,1,204.83,248.63Z"/><path class="cls-1" d="M216.41,247.19a3.63,3.63,0,0,1-3.67,2.55,4.28,4.28,0,0,1-.2-8.55c2.49,0,4,1.59,4,4.17,0,.31,0,.64,0,.67h-5.76a2,2,0,0,0,2,1.83,1.78,1.78,0,0,0,1.83-1.23Zm-2-2.64a1.62,1.62,0,0,0-1.8-1.59,1.74,1.74,0,0,0-1.8,1.59Z"/><path class="cls-1" d="M219.42,246.85a1.34,1.34,0,0,0,1.47,1.23c.72,0,1.06-.38,1.06-.8s-.25-.66-.87-.79l-1.06-.25c-1.56-.34-2.26-1.28-2.26-2.41a2.81,2.81,0,0,1,3-2.64c2.29,0,3.06,1.46,3.16,2.33l-1.82.41a1.23,1.23,0,0,0-1.33-1.08.93.93,0,0,0-1,.8c0,.39.29.64.74.72l1.15.25c1.59.33,2.39,1.29,2.39,2.47s-1,2.65-3.13,2.65c-2.42,0-3.26-1.57-3.36-2.49Z"/><path class="cls-1" d="M228.48,241.45h1.62v1.93h-1.62v3.37c0,.7.33.93.95.93a3.13,3.13,0,0,0,.67-.07v1.8a3.22,3.22,0,0,1-1.23.2,2.33,2.33,0,0,1-2.55-2.49v-3.75h-1.46v-1.93h.41a1.16,1.16,0,0,0,1.24-1.28V239h2Z"/><path class="cls-1" d="M28.33,299.53l4.47-6h2.78V300h1.75v1.93H35.59v2.28H33.36v-2.28h-5Zm5-3.63-3,4.06h3Z"/><path class="cls-1" d="M39.19,295.08a4,4,0,0,1,3.5-1.78,4,4,0,0,1,3.49,1.78,8,8,0,0,1,0,7.56,4,4,0,0,1-3.49,1.78,4,4,0,0,1-3.5-1.78,8.13,8.13,0,0,1,0-7.56Zm1.9,6.48a1.77,1.77,0,0,0,1.6.87,1.73,1.73,0,0,0,1.59-.87,6.48,6.48,0,0,0,0-5.4,1.73,1.73,0,0,0-1.59-.87,1.77,1.77,0,0,0-1.6.87,6.65,6.65,0,0,0,0,5.4Z"/><path class="cls-1" d="M50.28,297.88l2.78-2.39H48.41v-1.95h7.52v1.82l-2.75,2.29a3.17,3.17,0,0,1,3.08,3.24c0,1.83-1.51,3.52-4.08,3.52A3.82,3.82,0,0,1,48.07,301l2.18-.43a1.87,1.87,0,0,0,1.93,1.87,1.63,1.63,0,0,0,1.8-1.6,1.55,1.55,0,0,0-1.74-1.57,2.66,2.66,0,0,0-1,.16Z"/><path class="cls-1" d="M137.92,304.17V292.56h7.33v2.14h-5.08v2.87h4.52v2.08h-4.5v4.52Z"/><path class="cls-1" d="M154.28,300.14a4.22,4.22,0,1,1-4.22-4.27A4.13,4.13,0,0,1,154.28,300.14Zm-2.18,0a2.06,2.06,0,1,0-2,2.29A2.07,2.07,0,0,0,152.1,300.14Z"/><path class="cls-1" d="M160.91,298.27a3.29,3.29,0,0,0-.65-.07c-1.11,0-2.08.54-2.08,2.28v3.68H156v-8.06h2.11v1.2A2.39,2.39,0,0,1,160.4,296a4.87,4.87,0,0,1,.51,0Z"/><path class="cls-1" d="M162.45,304.17V292.31h2.14V297a2.86,2.86,0,0,1,2.44-1.1c2.36,0,3.72,1.82,3.72,4.21s-1.51,4.26-3.8,4.26a2.73,2.73,0,0,1-2.39-1.18v1Zm4.13-6.32a2,2,0,0,0-2,2.28,2.06,2.06,0,0,0,2,2.29,2.3,2.3,0,0,0,0-4.57Z"/><path class="cls-1" d="M173.55,292.12a1.34,1.34,0,1,1-1.34,1.36A1.34,1.34,0,0,1,173.55,292.12Zm-1.08,12.05v-8.06h2.18v8.06Z"/><path class="cls-1" d="M184.65,302.71c0,.54,0,1.13.07,1.46h-2.08a5.51,5.51,0,0,1-.08-.93,2.52,2.52,0,0,1-2.26,1.13,4.24,4.24,0,0,1-.07-8.45,2.41,2.41,0,0,1,2.28,1v-4.6h2.14Zm-4.09-.29a2,2,0,0,0,2-2.31,2,2,0,0,0-2-2.24,2.3,2.3,0,0,0,0,4.55Z"/><path class="cls-1" d="M194.69,302.71c0,.54,0,1.13.07,1.46h-2.08a5.51,5.51,0,0,1-.08-.93,2.53,2.53,0,0,1-2.26,1.13,4.24,4.24,0,0,1-.07-8.45,2.41,2.41,0,0,1,2.28,1v-4.6h2.14Zm-4.09-.29a2,2,0,0,0,2-2.31,2,2,0,0,0-2-2.24,2.3,2.3,0,0,0,0,4.55Z"/><path class="cls-1" d="M204.27,301.86a3.63,3.63,0,0,1-3.67,2.55,4.28,4.28,0,0,1-.2-8.55c2.49,0,4,1.59,4,4.17,0,.31,0,.64,0,.67h-5.76a2,2,0,0,0,2,1.83,1.78,1.78,0,0,0,1.83-1.23Zm-2-2.64a1.62,1.62,0,0,0-1.8-1.59,1.74,1.74,0,0,0-1.8,1.59Z"/><path class="cls-1" d="M208.29,304.17h-2.18v-8.06h2.11v1a2.68,2.68,0,0,1,2.33-1.21c2,0,2.91,1.42,2.91,3.19v5.08h-2.18v-4.7a1.42,1.42,0,0,0-1.49-1.6,1.52,1.52,0,0,0-1.51,1.67Z"/><path class="cls-1" d="M28.34,354.2l4.47-6h2.78v6.42h1.75v1.93H35.59v2.28H33.36v-2.28h-5Zm5-3.63-3,4.06h3Z"/><path class="cls-1" d="M39.19,349.75A4,4,0,0,1,42.7,348a4,4,0,0,1,3.49,1.78,8,8,0,0,1,0,7.56,4,4,0,0,1-3.49,1.79,4,4,0,0,1-3.5-1.79,8.13,8.13,0,0,1,0-7.56Zm1.9,6.48a1.77,1.77,0,0,0,1.6.87,1.73,1.73,0,0,0,1.59-.87,6.48,6.48,0,0,0,0-5.4A1.73,1.73,0,0,0,42.7,350a1.77,1.77,0,0,0-1.6.87,6.65,6.65,0,0,0,0,5.4Z"/><path class="cls-1" d="M48.33,354.2l4.47-6h2.78v6.42h1.75v1.93H55.58v2.28H53.36v-2.28h-5Zm5-3.63-3,4.06h3Z"/><path class="cls-1" d="M145.45,358.83l-5.27-8.24v8.24h-2.26V347.22h2.82l4.83,7.68v-7.68h2.26v11.61Z"/><path class="cls-1" d="M158.11,354.81a4.22,4.22,0,1,1-4.22-4.27A4.13,4.13,0,0,1,158.11,354.81Zm-2.18,0a2.06,2.06,0,1,0-2,2.29A2.07,2.07,0,0,0,155.93,354.81Z"/><path class="cls-1" d="M162.48,350.78h1.62v1.93h-1.62v3.37c0,.7.33.93.95.93a3.19,3.19,0,0,0,.67-.07v1.8a3.22,3.22,0,0,1-1.23.2,2.33,2.33,0,0,1-2.55-2.49v-3.75h-1.46v-1.93h.41a1.16,1.16,0,0,0,1.24-1.28v-1.13h2Z"/><path class="cls-1" d="M170.12,358.83V347.22h7.33v2.14h-5.08v2.87h4.52v2.08h-4.5v4.52Z"/><path class="cls-1" d="M186.47,354.81a4.22,4.22,0,1,1-4.22-4.27A4.13,4.13,0,0,1,186.47,354.81Zm-2.18,0a2.06,2.06,0,1,0-2,2.29A2.07,2.07,0,0,0,184.3,354.81Z"/><path class="cls-1" d="M193.37,358a2.55,2.55,0,0,1-2.23,1.08,3,3,0,0,1-3.06-3.18v-5.09h2.18v4.65a1.43,1.43,0,0,0,1.47,1.62,1.45,1.45,0,0,0,1.52-1.59v-4.68h2.18v6.6a13.43,13.43,0,0,0,.08,1.46h-2.08A5.46,5.46,0,0,1,193.37,358Z"/><path class="cls-1" d="M199.94,358.83h-2.18v-8.06h2.11v1a2.68,2.68,0,0,1,2.33-1.21c2,0,2.91,1.42,2.91,3.19v5.08h-2.18v-4.7a1.42,1.42,0,0,0-1.49-1.6,1.52,1.52,0,0,0-1.51,1.67Z"/><path class="cls-1" d="M215,357.38c0,.54,0,1.13.07,1.46H213a5.51,5.51,0,0,1-.08-.93,2.53,2.53,0,0,1-2.26,1.13,4.24,4.24,0,0,1-.07-8.45,2.41,2.41,0,0,1,2.28,1V347H215Zm-4.09-.29a2,2,0,0,0,2-2.31,2,2,0,0,0-2-2.24,2.3,2.3,0,0,0,0,4.55Z"/><path class="cls-1" d="M30.4,410a1.86,1.86,0,0,0,1.93,1.79,1.76,1.76,0,1,0,0-3.52,2.17,2.17,0,0,0-1.64.72c-.21-.08-1.83-.64-2.06-.7l1.26-5.45h6v1.95H31.38l-.52,2.34a2.92,2.92,0,0,1,1.92-.66,3.35,3.35,0,0,1,3.63,3.55,3.76,3.76,0,0,1-4.08,3.7,3.84,3.84,0,0,1-4-3.24Z"/><path class="cls-1" d="M38.44,404.41a4,4,0,0,1,3.5-1.78,4,4,0,0,1,3.49,1.78,8,8,0,0,1,0,7.56,4,4,0,0,1-3.49,1.78,4,4,0,0,1-3.5-1.78,8.13,8.13,0,0,1,0-7.56Zm1.9,6.48a1.77,1.77,0,0,0,1.6.87,1.73,1.73,0,0,0,1.59-.87,6.48,6.48,0,0,0,0-5.4,1.73,1.73,0,0,0-1.59-.87,1.77,1.77,0,0,0-1.6.87,6.65,6.65,0,0,0,0,5.4Z"/><path class="cls-1" d="M48.62,404.41a4,4,0,0,1,3.5-1.78,4,4,0,0,1,3.49,1.78,8,8,0,0,1,0,7.56,4,4,0,0,1-3.49,1.78,4,4,0,0,1-3.5-1.78,8.13,8.13,0,0,1,0-7.56Zm1.9,6.48a1.77,1.77,0,0,0,1.6.87,1.73,1.73,0,0,0,1.59-.87,6.48,6.48,0,0,0,0-5.4,1.73,1.73,0,0,0-1.59-.87,1.77,1.77,0,0,0-1.6.87,6.65,6.65,0,0,0,0,5.4Z"/><path class="cls-1" d="M137.92,413.5V401.89h2.29V413.5Z"/><path class="cls-1" d="M144.88,413.5H142.7v-8.06h2.11v1a2.68,2.68,0,0,1,2.33-1.21c2,0,2.91,1.42,2.91,3.19v5.08h-2.18v-4.7a1.42,1.42,0,0,0-1.49-1.6,1.52,1.52,0,0,0-1.51,1.67Z"/><path class="cls-1" d="M155,405.44h1.62v1.93H155v3.37c0,.7.33.93.95.93a3.19,3.19,0,0,0,.67-.07v1.8a3.23,3.23,0,0,1-1.23.2,2.33,2.33,0,0,1-2.55-2.49v-3.75h-1.46v-1.93h.41a1.16,1.16,0,0,0,1.24-1.28V403h2Z"/><path class="cls-1" d="M165.56,411.19a3.63,3.63,0,0,1-3.67,2.55,4.28,4.28,0,0,1-.2-8.55c2.49,0,4,1.59,4,4.17,0,.31,0,.64,0,.67h-5.76a2,2,0,0,0,2,1.83,1.78,1.78,0,0,0,1.83-1.23Zm-2-2.64a1.62,1.62,0,0,0-1.8-1.59,1.74,1.74,0,0,0-1.8,1.59Z"/><path class="cls-1" d="M172.31,407.61a3.31,3.31,0,0,0-.66-.07c-1.11,0-2.08.54-2.08,2.28v3.68H167.4v-8.06h2.11v1.2a2.4,2.4,0,0,1,2.29-1.26,4.91,4.91,0,0,1,.51,0Z"/><path class="cls-1" d="M176,413.5h-2.18v-8.06H176v1a2.68,2.68,0,0,1,2.33-1.21c2,0,2.91,1.42,2.91,3.19v5.08H179v-4.7a1.42,1.42,0,0,0-1.49-1.6,1.52,1.52,0,0,0-1.51,1.67Z"/><path class="cls-1" d="M185.33,408.87l2-.29c.46-.07.61-.29.61-.57,0-.57-.44-1-1.36-1a1.43,1.43,0,0,0-1.54,1.31l-1.93-.41a3.2,3.2,0,0,1,3.46-2.65c2.55,0,3.5,1.44,3.5,3.06v4a9.08,9.08,0,0,0,.1,1.28h-2a5.49,5.49,0,0,1-.08-1,2.69,2.69,0,0,1-2.37,1.2,2.54,2.54,0,0,1-2.77-2.42A2.48,2.48,0,0,1,185.33,408.87Zm2.59,1.38v-.36l-1.82.28a1,1,0,0,0-1,1,1,1,0,0,0,1,.93A1.64,1.64,0,0,0,187.91,410.24Z"/><path class="cls-1" d="M192.24,413.5V401.65h2.18V413.5Z"/><path class="cls-1" d="M206.73,405.28a2,2,0,0,0-2.11-1.64,1.64,1.64,0,0,0-1.82,1.47c0,.64.41,1.15,1.26,1.31l1.62.31c2.11.41,3.24,1.78,3.24,3.42s-1.49,3.58-4.19,3.58c-3.08,0-4.44-2-4.62-3.63l2.1-.56a2.33,2.33,0,0,0,2.54,2.18c1.21,0,1.88-.61,1.88-1.42s-.51-1.2-1.41-1.38l-1.62-.33a3.38,3.38,0,0,1-3-3.32,3.84,3.84,0,0,1,4-3.63c2.82,0,3.9,1.7,4.16,3Z"/><path class="cls-1" d="M217.83,411.19a3.63,3.63,0,0,1-3.67,2.55,4.28,4.28,0,0,1-.2-8.55c2.49,0,4,1.59,4,4.17,0,.31,0,.64,0,.67h-5.76a2,2,0,0,0,2,1.83,1.78,1.78,0,0,0,1.83-1.23Zm-2-2.64A1.62,1.62,0,0,0,214,407a1.74,1.74,0,0,0-1.8,1.59Z"/><path class="cls-1" d="M224.58,407.61a3.31,3.31,0,0,0-.66-.07c-1.11,0-2.08.54-2.08,2.28v3.68h-2.18v-8.06h2.11v1.2a2.4,2.4,0,0,1,2.29-1.26,4.91,4.91,0,0,1,.51,0Z"/><path class="cls-1" d="M230.84,413.5h-2.18l-3.29-8.06h2.39l2,5.4,1.92-5.4H234Z"/><path class="cls-1" d="M242.26,411.19a3.63,3.63,0,0,1-3.67,2.55,4.28,4.28,0,0,1-.2-8.55c2.49,0,4,1.59,4,4.17,0,.31,0,.64,0,.67h-5.76a2,2,0,0,0,2,1.83,1.78,1.78,0,0,0,1.83-1.23Zm-2-2.64a1.62,1.62,0,0,0-1.8-1.59,1.74,1.74,0,0,0-1.8,1.59Z"/><path class="cls-1" d="M249,407.61a3.31,3.31,0,0,0-.65-.07c-1.11,0-2.08.54-2.08,2.28v3.68H244.1v-8.06h2.11v1.2a2.4,2.4,0,0,1,2.29-1.26,4.91,4.91,0,0,1,.51,0Z"/><path class="cls-1" d="M254.71,413.5V401.89H262V404h-5v2.65h4.54v2H257v2.68h5v2.13Z"/><path class="cls-1" d="M268.89,407.61a3.31,3.31,0,0,0-.66-.07c-1.11,0-2.08.54-2.08,2.28v3.68H264v-8.06h2.11v1.2a2.4,2.4,0,0,1,2.29-1.26,4.91,4.91,0,0,1,.51,0Z"/><path class="cls-1" d="M275.34,407.61a3.29,3.29,0,0,0-.65-.07c-1.11,0-2.08.54-2.08,2.28v3.68h-2.18v-8.06h2.11v1.2a2.39,2.39,0,0,1,2.29-1.26,4.87,4.87,0,0,1,.51,0Z"/><path class="cls-1" d="M284.64,409.47a4.22,4.22,0,1,1-4.22-4.27A4.13,4.13,0,0,1,284.64,409.47Zm-2.18,0a2.06,2.06,0,1,0-2,2.29A2.07,2.07,0,0,0,282.47,409.47Z"/><path class="cls-1" d="M291.28,407.61a3.29,3.29,0,0,0-.65-.07c-1.11,0-2.08.54-2.08,2.28v3.68h-2.18v-8.06h2.11v1.2a2.39,2.39,0,0,1,2.29-1.26,4.87,4.87,0,0,1,.51,0Z"/><path class="cls-1" d="M315,442H0V0H315ZM2,440H313V2H2Z"/><rect class="cls-1" x="1" y="55" width="313" height="2"/><rect class="cls-1" x="1" y="110" width="313" height="2"/><rect class="cls-1" x="1" y="165" width="313" height="2"/><rect class="cls-1" x="1" y="220" width="313" height="2"/><rect class="cls-1" x="1" y="275" width="313" height="2"/><rect class="cls-1" x="1" y="330" width="313" height="2"/><rect class="cls-1" x="1" y="385" width="313" height="2"/><rect class="cls-1" x="93" y="1" width="2" height="440"/></svg>