<svg id="Layer_1" data-name="Layer 1" xmlns="http://www.w3.org/2000/svg" viewBox="0 0 803.2 90.87"><defs><style>.cls-1{fill:#e31e27;}</style></defs><title>08-59-host</title><path class="cls-1" d="M196.21,90.48V82.27h-9.43v8.21h-2.55V72h2.55v7.9h9.43V72h2.55V90.48Z"/><path class="cls-1" d="M215,84.2a6.42,6.42,0,1,1-6.41-6.65A6.33,6.33,0,0,1,215,84.2Zm-2.5,0c0-2.89-1.82-4.46-3.91-4.46s-3.91,1.56-3.91,4.46,1.82,4.48,3.91,4.48S212.47,87.12,212.47,84.2Z"/><path class="cls-1" d="M219.14,86.44a2.67,2.67,0,0,0,2.92,2.35c1.38,0,2.14-.78,2.14-1.67s-.57-1.38-1.62-1.62L220.44,85a3.57,3.57,0,0,1-3.13-3.52,4.27,4.27,0,0,1,4.46-4c3.44,0,4.51,2.24,4.77,3.36l-2.16.81a2.43,2.43,0,0,0-2.61-2.08,1.89,1.89,0,0,0-2.08,1.67c0,.76.47,1.3,1.43,1.51l2,.44c2.27.5,3.47,1.88,3.47,3.73s-1.49,3.88-4.59,3.88c-3.44,0-4.9-2.21-5.11-3.65Z"/><path class="cls-1" d="M233.16,77.94h2.71v2.22h-2.71v6.52c0,1.15.47,1.72,1.75,1.72a4.91,4.91,0,0,0,1-.1v2.08a5.37,5.37,0,0,1-1.67.23A3.25,3.25,0,0,1,230.71,87V80.16h-2.4V77.94H229A1.75,1.75,0,0,0,230.92,76V74h2.24Z"/><polygon class="cls-1" points="337.21 35.68 81.71 35.68 81.71 21.18 84.71 21.18 84.71 32.68 334.21 32.68 334.21 21.18 337.21 21.18 337.21 35.68"/><rect class="cls-1" x="207.96" y="34.18" width="3" height="28.25"/><path d="M2.45,19.05H0V.18H2.45V8a4.43,4.43,0,0,1,3.8-1.82c3,0,4.48,2.16,4.48,5v7.95H8.29V11.52c0-1.75-.73-3.15-2.92-3.15-1.88,0-2.87,1.46-2.92,3.31Z"/><path d="M17.93,6.52h2.71V8.73H17.93v6.52c0,1.15.47,1.72,1.75,1.72a5,5,0,0,0,1-.1v2.08a5.35,5.35,0,0,1-1.67.23,3.25,3.25,0,0,1-3.49-3.57V8.73h-2.4V6.52h.68a1.75,1.75,0,0,0,1.93-1.93v-2h2.24Z"/><path d="M27.18,6.52h2.71V8.73H27.18v6.52c0,1.15.47,1.72,1.75,1.72a4.94,4.94,0,0,0,1-.1v2.08a5.34,5.34,0,0,1-1.67.23,3.25,3.25,0,0,1-3.49-3.57V8.73h-2.4V6.52H23a1.75,1.75,0,0,0,1.93-1.93v-2h2.24Z"/><path d="M32.89,24V6.52h2.37v2a4.62,4.62,0,0,1,4.2-2.24c3.75,0,5.76,2.89,5.76,6.54S43,19.39,39.38,19.39a4.66,4.66,0,0,1-4.07-2V24ZM39,8.39c-2.24,0-3.73,1.88-3.73,4.38S36.77,17.2,39,17.2s3.7-1.85,3.7-4.43S41.3,8.39,39,8.39Z"/><path d="M49.38,15a2.67,2.67,0,0,0,2.92,2.35c1.38,0,2.14-.78,2.14-1.67s-.57-1.38-1.62-1.62l-2.14-.47a3.57,3.57,0,0,1-3.13-3.52,4.27,4.27,0,0,1,4.46-4c3.44,0,4.51,2.24,4.77,3.36l-2.16.81A2.43,2.43,0,0,0,52,8.21a1.89,1.89,0,0,0-2.08,1.67c0,.76.47,1.3,1.43,1.51l2,.44c2.27.5,3.47,1.88,3.47,3.73s-1.49,3.88-4.59,3.88c-3.44,0-4.9-2.22-5.11-3.65Z"/><path d="M61.79,6.39a1.81,1.81,0,0,1,1.82,1.82A1.79,1.79,0,0,1,61.79,10,1.77,1.77,0,0,1,60,8.21,1.79,1.79,0,0,1,61.79,6.39Zm0,9.17a1.81,1.81,0,0,1,1.83,1.82,1.79,1.79,0,0,1-1.83,1.8,1.77,1.77,0,0,1-1.8-1.8A1.79,1.79,0,0,1,61.81,15.56Z"/><path d="M68,19.05H65.59L74.53.57H76.9Z"/><path d="M75.62,19.05H73.25L82.19.57h2.37Z"/><path d="M95.71,6.52,99,15.95l2.76-9.43h2.58l-4.07,12.54H97.72L94.38,9.51l-3.26,9.54H88.55L84.43,6.52h2.68l2.82,9.43,3.26-9.43Z"/><path d="M116.38,6.52l3.26,9.43,2.76-9.43H125l-4.07,12.54h-2.53L115,9.51l-3.26,9.54h-2.58L105.09,6.52h2.68l2.81,9.43,3.26-9.43Z"/><path d="M137,6.52l3.26,9.43,2.76-9.43h2.58l-4.07,12.54H139l-3.34-9.54-3.26,9.54h-2.58L125.76,6.52h2.68l2.82,9.43,3.26-9.43Z"/><path d="M148.61,15.56a1.81,1.81,0,0,1,1.82,1.82,1.79,1.79,0,0,1-1.82,1.8,1.77,1.77,0,0,1-1.8-1.8A1.79,1.79,0,0,1,148.61,15.56Z"/><path d="M155.54,19.18A3.33,3.33,0,0,0,159,22.26c2.63,0,3.83-1.35,3.83-4.07v-1.8A4.17,4.17,0,0,1,159,18.45a5.71,5.71,0,0,1-5.76-6.07A5.76,5.76,0,0,1,159,6.28c1.93,0,3.23.73,3.86,2V6.52h2.42v11.6c0,3.18-1.56,6.28-6.28,6.28-3.13,0-5.47-2-5.79-4.67Zm7.35-6.8c0-2.42-1.46-4-3.57-4s-3.62,1.59-3.62,4,1.41,4,3.62,4S162.89,14.8,162.89,12.38Z"/><path d="M180.93,12.77a6.42,6.42,0,1,1-12.82,0,6.42,6.42,0,1,1,12.82,0Zm-2.5,0c0-2.89-1.83-4.46-3.91-4.46s-3.91,1.56-3.91,4.46,1.82,4.48,3.91,4.48S178.42,15.69,178.42,12.77Z"/><path d="M195.83,12.77a6.42,6.42,0,1,1-12.82,0,6.42,6.42,0,1,1,12.82,0Zm-2.5,0c0-2.89-1.83-4.46-3.91-4.46s-3.91,1.56-3.91,4.46,1.82,4.48,3.91,4.48S193.33,15.69,193.33,12.77Z"/><path d="M200.42,19.18a3.33,3.33,0,0,0,3.41,3.08c2.63,0,3.83-1.35,3.83-4.07v-1.8a4.17,4.17,0,0,1-3.83,2.06,5.71,5.71,0,0,1-5.76-6.07,5.76,5.76,0,0,1,5.76-6.1c1.93,0,3.23.73,3.86,2V6.52h2.42v11.6c0,3.18-1.56,6.28-6.28,6.28-3.13,0-5.47-2-5.79-4.67Zm7.35-6.8c0-2.42-1.46-4-3.57-4s-3.62,1.59-3.62,4,1.41,4,3.62,4S207.76,14.8,207.76,12.38Z"/><path d="M214,19.05V.18h2.45V19.05Z"/><path d="M231.56,15.48a5.68,5.68,0,0,1-5.63,4c-3.36,0-6.31-2.45-6.31-6.7,0-3.94,2.84-6.62,6-6.62,3.86,0,6,2.66,6,6.57a5.47,5.47,0,0,1-.05.78h-9.43a3.72,3.72,0,0,0,3.78,3.8,3.42,3.42,0,0,0,3.52-2.53Zm-2.48-4a3.16,3.16,0,0,0-3.44-3.21,3.37,3.37,0,0,0-3.41,3.21Z"/><path d="M237.78,11.88l3.39-.5c.76-.1,1-.5,1-.94,0-1.22-.81-2.24-2.71-2.24a2.66,2.66,0,0,0-2.84,2.53l-2.35-.55c.26-2.4,2.42-4.07,5.13-4.07,3.75,0,5.21,2.14,5.21,4.59V17a11.83,11.83,0,0,0,.16,2.06h-2.4a9.09,9.09,0,0,1-.13-1.69,4.57,4.57,0,0,1-4,2.08,3.91,3.91,0,0,1-4.2-3.75C234,13.45,235.62,12.2,237.78,11.88Zm4.35,1.8v-.57l-3.83.57a1.87,1.87,0,0,0-1.82,1.88,1.9,1.9,0,0,0,2,1.82C240.52,17.38,242.13,16.42,242.13,13.68Z"/><path d="M248.39,24V6.52h2.37v2A4.62,4.62,0,0,1,255,6.23c3.75,0,5.76,2.89,5.76,6.54s-2.16,6.62-5.84,6.62a4.66,4.66,0,0,1-4.07-2V24Zm6.13-15.61c-2.24,0-3.73,1.88-3.73,4.38s1.49,4.43,3.73,4.43,3.7-1.85,3.7-4.43S256.81,8.39,254.51,8.39Z"/><path d="M265,0a1.76,1.76,0,1,1-1.75,1.77A1.76,1.76,0,0,1,265,0Zm-1.2,19.05V6.52h2.42V19.05Z"/><path d="M271.48,15a2.67,2.67,0,0,0,2.92,2.35c1.38,0,2.14-.78,2.14-1.67s-.57-1.38-1.62-1.62l-2.14-.47a3.57,3.57,0,0,1-3.13-3.52,4.27,4.27,0,0,1,4.46-4c3.44,0,4.51,2.24,4.77,3.36l-2.16.81a2.43,2.43,0,0,0-2.61-2.08A1.89,1.89,0,0,0,272,9.88c0,.76.47,1.3,1.43,1.51l2,.44c2.27.5,3.47,1.88,3.47,3.73s-1.49,3.88-4.59,3.88c-3.44,0-4.9-2.22-5.11-3.65Z"/><path d="M283.75,15.56a1.81,1.81,0,0,1,1.82,1.82,1.79,1.79,0,0,1-1.82,1.8,1.77,1.77,0,0,1-1.8-1.8A1.79,1.79,0,0,1,283.75,15.56Z"/><path d="M290.55,12.77c0,2.87,1.8,4.4,3.83,4.4a3.41,3.41,0,0,0,3.49-2.58l2.16.94a5.76,5.76,0,0,1-5.66,3.91A6.34,6.34,0,0,1,288,12.77a6.29,6.29,0,0,1,6.31-6.65,5.45,5.45,0,0,1,5.58,4l-2.22.94a3.29,3.29,0,0,0-3.36-2.66C292.37,8.39,290.55,9.85,290.55,12.77Z"/><path d="M314.55,12.77a6.42,6.42,0,1,1-12.82,0,6.42,6.42,0,1,1,12.82,0Zm-2.5,0c0-2.89-1.82-4.46-3.91-4.46s-3.91,1.56-3.91,4.46,1.82,4.48,3.91,4.48S312,15.69,312,12.77Z"/><path d="M317.68,19.05V6.52H320V8.18a4.32,4.32,0,0,1,3.81-2,3.92,3.92,0,0,1,3.75,2.37,4.5,4.5,0,0,1,4.2-2.37c2.19,0,4.33,1.49,4.33,4.77v8.13h-2.42V11.18c0-1.64-.81-2.87-2.66-2.87a2.92,2.92,0,0,0-2.89,3.15v7.58h-2.45V11.18c0-1.62-.78-2.87-2.66-2.87a2.91,2.91,0,0,0-2.92,3.18v7.56Z"/><path d="M340.3,19.05h-2.37L346.86.57h2.37Z"/><path d="M351.32,19.05V.18h2.42V8.29a4.57,4.57,0,0,1,4.14-2.14c3.8,0,5.76,2.92,5.76,6.57s-2.11,6.67-5.84,6.67a4.47,4.47,0,0,1-4.07-2.16v1.82Zm6.12-10.74c-2.16,0-3.73,1.69-3.73,4.4s1.56,4.48,3.73,4.48,3.7-1.77,3.7-4.48S359.71,8.31,357.44,8.31Z"/><path d="M378.55,12.77a6.42,6.42,0,1,1-12.82,0,6.42,6.42,0,1,1,12.82,0Zm-2.5,0c0-2.89-1.82-4.46-3.91-4.46s-3.91,1.56-3.91,4.46,1.82,4.48,3.91,4.48S376,15.69,376,12.77Z"/><path d="M393.46,12.77a6.42,6.42,0,1,1-12.82,0,6.42,6.42,0,1,1,12.82,0Zm-2.5,0c0-2.89-1.82-4.46-3.91-4.46s-3.91,1.56-3.91,4.46S385,17.25,387,17.25,391,15.69,391,12.77Z"/><path d="M402.47,11.81l5.45,7.25h-3.08l-4.09-5.53L399,15.27v3.78h-2.42V.18H399V12.07l5.42-5.55h3.39Z"/><path d="M411.3,15a2.67,2.67,0,0,0,2.92,2.35c1.38,0,2.14-.78,2.14-1.67s-.57-1.38-1.62-1.62l-2.14-.47a3.57,3.57,0,0,1-3.13-3.52,4.27,4.27,0,0,1,4.46-4c3.44,0,4.51,2.24,4.77,3.36l-2.16.81a2.43,2.43,0,0,0-2.61-2.08,1.89,1.89,0,0,0-2.08,1.67c0,.76.47,1.3,1.43,1.51l2,.44c2.27.5,3.47,1.88,3.47,3.73s-1.49,3.88-4.59,3.88c-3.44,0-4.9-2.22-5.11-3.65Z"/><path d="M422.59,19.05h-2.37L429.16.57h2.37Z"/><path d="M439.08,19.05h-2.48L431.53,6.52h2.76l3.57,9.67,3.6-9.67h2.63Z"/><path d="M449.09,19.05V7.14H445V5.34a4.22,4.22,0,0,0,4.35-3.18h2.24V19.05Z"/><path d="M455.92,19.05h-2.37L462.48.57h2.37Z"/><path d="M472.41,19.05h-2.48L464.85,6.52h2.76l3.57,9.67,3.6-9.67h2.63Z"/><path d="M491.15,12.77a6.42,6.42,0,1,1-12.82,0,6.42,6.42,0,1,1,12.82,0Zm-2.5,0c0-2.89-1.83-4.46-3.91-4.46s-3.91,1.56-3.91,4.46,1.82,4.48,3.91,4.48S488.65,15.69,488.65,12.77Z"/><path d="M494.27,19.05V.18h2.45V19.05Z"/><path d="M505.32,19.44c-2.92,0-4.69-2.19-4.69-5V6.52h2.45V14c0,1.72.78,3.23,2.84,3.23s3-1.3,3-3.21V6.52h2.45V16.73a20.9,20.9,0,0,0,.13,2.32h-2.35a11.15,11.15,0,0,1-.1-1.51A4.09,4.09,0,0,1,505.32,19.44Z"/><path d="M515.51,19.05V6.52h2.35V8.18a4.32,4.32,0,0,1,3.81-2,3.92,3.92,0,0,1,3.75,2.37,4.5,4.5,0,0,1,4.2-2.37c2.19,0,4.33,1.49,4.33,4.77v8.13h-2.42V11.18c0-1.64-.81-2.87-2.66-2.87A2.92,2.92,0,0,0,526,11.47v7.58h-2.45V11.18c0-1.62-.78-2.87-2.66-2.87a2.91,2.91,0,0,0-2.92,3.18v7.56Z"/><path d="M548.76,15.48a5.68,5.68,0,0,1-5.63,4c-3.36,0-6.31-2.45-6.31-6.7,0-3.94,2.84-6.62,6-6.62,3.86,0,6,2.66,6,6.57a5.62,5.62,0,0,1-.05.78h-9.43a3.72,3.72,0,0,0,3.78,3.8,3.41,3.41,0,0,0,3.52-2.53Zm-2.48-4a3.16,3.16,0,0,0-3.44-3.21,3.37,3.37,0,0,0-3.41,3.21Z"/><path d="M553,15a2.67,2.67,0,0,0,2.92,2.35c1.38,0,2.14-.78,2.14-1.67s-.57-1.38-1.62-1.62l-2.14-.47a3.57,3.57,0,0,1-3.13-3.52,4.27,4.27,0,0,1,4.46-4c3.44,0,4.51,2.24,4.77,3.36l-2.16.81a2.43,2.43,0,0,0-2.61-2.08,1.89,1.89,0,0,0-2.08,1.67c0,.76.47,1.3,1.43,1.51l2,.44c2.27.5,3.47,1.88,3.47,3.73s-1.49,3.88-4.59,3.88c-3.44,0-4.9-2.22-5.11-3.65Z"/><path d="M566.77,13.76c0-.31,0-.57,0-.91a4.53,4.53,0,0,1,2.16-4.07L570.05,8a3.06,3.06,0,0,0,1.38-2.55,2.88,2.88,0,0,0-3.1-3,3.13,3.13,0,0,0-3.26,3.34,4.41,4.41,0,0,0,.18,1.28l-2.53-.31a4.55,4.55,0,0,1-.16-1.25A5.38,5.38,0,0,1,568.33.18C572,.18,574,2.76,574,5.42A5.34,5.34,0,0,1,571.38,10l-1.2.81a2.89,2.89,0,0,0-1.15,2.5,4.22,4.22,0,0,0,0,.5Zm1.12,2a1.74,1.74,0,0,1,1.72,1.72,1.71,1.71,0,0,1-1.72,1.69,1.69,1.69,0,0,1-1.69-1.69A1.71,1.71,0,0,1,567.89,15.77Z"/><path d="M585.33,24V17.28a4.18,4.18,0,0,1-3.91,2.11c-3.6,0-5.94-3-5.94-6.65s2.22-6.54,5.89-6.54a4.22,4.22,0,0,1,4,2.24V6.52h2.37V24Zm-3.67-6.78c2.22,0,3.7-1.9,3.7-4.48s-1.49-4.38-3.7-4.38S578,10.16,578,12.74,579.41,17.23,581.65,17.23Z"/><path d="M591.27,10V8h12.07v2Zm0,5.08V13.06h12.07v2.06Z"/><path d="M608.31,0a1.76,1.76,0,1,1-1.75,1.77A1.76,1.76,0,0,1,608.31,0Zm-1.2,19.05V6.52h2.42V19.05Z"/><path d="M614.74,15a2.67,2.67,0,0,0,2.92,2.35c1.38,0,2.14-.78,2.14-1.67s-.57-1.38-1.62-1.62L616,13.6a3.57,3.57,0,0,1-3.13-3.52,4.27,4.27,0,0,1,4.46-4c3.44,0,4.51,2.24,4.77,3.36l-2.16.81a2.43,2.43,0,0,0-2.61-2.08,1.89,1.89,0,0,0-2.08,1.67c0,.76.47,1.3,1.43,1.51l2,.44c2.27.5,3.47,1.88,3.47,3.73s-1.49,3.88-4.59,3.88c-3.44,0-4.9-2.22-5.11-3.65Z"/><path d="M625.48,19.05V.18h2.42V8.29A4.57,4.57,0,0,1,632,6.15c3.81,0,5.76,2.92,5.76,6.57s-2.11,6.67-5.84,6.67a4.47,4.47,0,0,1-4.07-2.16v1.82ZM631.6,8.31c-2.16,0-3.73,1.69-3.73,4.4s1.56,4.48,3.73,4.48,3.7-1.77,3.7-4.48S633.87,8.31,631.6,8.31Z"/><path d="M643.38,19.05h-2.45V6.52h2.4v1.8a4.29,4.29,0,0,1,3.86-2.16c3,0,4.48,2.16,4.48,5v7.95h-2.45V11.52c0-1.75-.73-3.15-2.92-3.15-1.93,0-2.92,1.54-2.92,3.44Z"/><path d="M657.24,6.39a1.81,1.81,0,0,1,1.82,1.82,1.79,1.79,0,0,1-1.82,1.8,1.77,1.77,0,0,1-1.8-1.8A1.79,1.79,0,0,1,657.24,6.39Zm0,9.17a1.81,1.81,0,0,1,1.82,1.82,1.79,1.79,0,0,1-1.82,1.8,1.77,1.77,0,0,1-1.8-1.8A1.79,1.79,0,0,1,657.27,15.56Z"/><path d="M663.86,4.48a6.32,6.32,0,0,1,10.37,0,10.88,10.88,0,0,1,1.51,6.12,10.88,10.88,0,0,1-1.51,6.13,6.32,6.32,0,0,1-10.37,0,10.88,10.88,0,0,1-1.51-6.12A10.88,10.88,0,0,1,663.86,4.48Zm2.5,11.6a3.84,3.84,0,0,0,5.37,0c1-1.07,1.49-2.89,1.49-5.47s-.47-4.4-1.49-5.47a3.84,3.84,0,0,0-5.37,0c-1,1.07-1.49,2.89-1.49,5.47S665.35,15,666.36,16.08Z"/><path d="M689.82,4.8a6.34,6.34,0,0,0-3-.73c-3.52,0-5.73,2.58-5.94,6a5.08,5.08,0,0,1,4.46-2.19,5.41,5.41,0,0,1,5.79,5.76c0,3.62-2.95,5.76-6.25,5.76s-6.59-2.24-6.59-7.82c0-6.28,3.78-9.85,8.71-9.85a6.63,6.63,0,0,1,3.65.94Zm-5,12.43a3.45,3.45,0,0,0,3.65-3.54,3.65,3.65,0,0,0-7.3,0A3.53,3.53,0,0,0,684.87,17.23Z"/><path d="M704.62,4.61c-1.56,1.25-6.33,5.5-7.14,14.44h-2.63c.76-9.83,7-14.54,7-14.54h-9.51V2.16h12.33Z"/><path d="M707.33,16.34a6.54,6.54,0,0,0,3.08.81c4.09,0,5.76-2.68,5.86-6a4.76,4.76,0,0,1-4.38,2.16A5.6,5.6,0,0,1,706,7.61a6,6,0,0,1,6.23-5.84c3.31,0,6.57,2.37,6.57,7.77,0,6.2-2.76,9.9-8.44,9.9a8.17,8.17,0,0,1-3.91-1Zm5-12.33a3.52,3.52,0,0,0-3.65,3.54,3.46,3.46,0,0,0,3.65,3.57,3.56,3.56,0,1,0,0-7.11Z"/><path d="M732.6,4.61c-1.56,1.25-6.33,5.5-7.14,14.44h-2.63c.76-9.83,7-14.54,7-14.54h-9.51V2.16H732.6Z"/><path d="M746,4.61c-1.56,1.25-6.33,5.5-7.14,14.44H736.2c.76-9.83,7-14.54,7-14.54h-9.51V2.16H746Z"/><path d="M749.07,13.73a3.65,3.65,0,0,0,3.8,3.49,3.4,3.4,0,0,0,3.62-3.41,3.38,3.38,0,0,0-3.65-3.49,4.33,4.33,0,0,0-3.08,1.23c-.89-.34-1.64-.68-2.5-1l2.19-8.39h8.91V4.51h-7.22l-1.25,4.85a4.73,4.73,0,0,1,3.44-1.25c3.31,0,5.73,2.11,5.73,5.6,0,3.18-2.45,5.76-6.2,5.76-3.6,0-6-2.35-6.25-5Z"/><path d="M760.9,12.3l7.25-10.14h3.52V12.87h2.89v2.37h-2.89v3.81h-2.48V15.25H760.9Zm8.29-7.69-5.94,8.26h5.94Z"/><path d="M779.56,9.1l5-4.59h-8.08V2.16h11.47V4.46L783.1,8.91A5,5,0,0,1,788.32,14c0,2.84-2.19,5.42-6.12,5.42s-6.12-2.55-6.28-5.32l2.5-.57a3.65,3.65,0,0,0,3.75,3.65c2.32,0,3.57-1.43,3.57-3.13a3.14,3.14,0,0,0-3.44-3.15,4.55,4.55,0,0,0-1.49.26Z"/><path d="M791.68,16.34a6.54,6.54,0,0,0,3.08.81c4.09,0,5.76-2.68,5.86-6a4.76,4.76,0,0,1-4.38,2.16,5.6,5.6,0,0,1-5.84-5.71,6,6,0,0,1,6.23-5.84c3.31,0,6.57,2.37,6.57,7.77,0,6.2-2.76,9.9-8.44,9.9a8.17,8.17,0,0,1-3.91-1Zm5-12.33A3.52,3.52,0,0,0,793,7.56a3.46,3.46,0,0,0,3.65,3.57,3.56,3.56,0,1,0,0-7.11Z"/></svg>