<svg id="Layer_1" data-name="Layer 1" xmlns="http://www.w3.org/2000/svg" viewBox="0 0 820.3 90.87"><defs><style>.cls-1{fill:#e31e27;}</style></defs><title>08-58-protocol</title><path d="M19.55,19.05H17.1V.18h2.45V8a4.43,4.43,0,0,1,3.8-1.82c3,0,4.48,2.16,4.48,5v7.95H25.39V11.52c0-1.75-.73-3.15-2.92-3.15-1.88,0-2.87,1.46-2.92,3.31Z"/><path d="M35,6.52h2.71V8.73H35v6.52c0,1.15.47,1.72,1.75,1.72a5,5,0,0,0,1-.1v2.08a5.35,5.35,0,0,1-1.67.23,3.25,3.25,0,0,1-3.49-3.57V8.73h-2.4V6.52h.68a1.75,1.75,0,0,0,1.93-1.93v-2H35Z"/><path d="M44.28,6.52H47V8.73H44.28v6.52c0,1.15.47,1.72,1.75,1.72a4.94,4.94,0,0,0,1-.1v2.08a5.34,5.34,0,0,1-1.67.23,3.25,3.25,0,0,1-3.49-3.57V8.73h-2.4V6.52h.68A1.75,1.75,0,0,0,42,4.59v-2h2.24Z"/><path d="M50,24V6.52h2.37v2a4.62,4.62,0,0,1,4.2-2.24c3.75,0,5.76,2.89,5.76,6.54s-2.16,6.62-5.84,6.62a4.66,4.66,0,0,1-4.07-2V24ZM56.11,8.39c-2.24,0-3.73,1.88-3.73,4.38s1.49,4.43,3.73,4.43,3.7-1.85,3.7-4.43S58.4,8.39,56.11,8.39Z"/><path d="M66.48,15a2.67,2.67,0,0,0,2.92,2.35c1.38,0,2.14-.78,2.14-1.67s-.57-1.38-1.62-1.62l-2.14-.47a3.57,3.57,0,0,1-3.13-3.52,4.27,4.27,0,0,1,4.46-4c3.44,0,4.51,2.24,4.77,3.36l-2.16.81a2.43,2.43,0,0,0-2.61-2.08A1.89,1.89,0,0,0,67,9.88c0,.76.47,1.3,1.43,1.51l2,.44c2.27.5,3.47,1.88,3.47,3.73s-1.49,3.88-4.59,3.88c-3.44,0-4.9-2.22-5.11-3.65Z"/><path d="M78.89,6.39a1.81,1.81,0,0,1,1.82,1.82A1.79,1.79,0,0,1,78.89,10a1.77,1.77,0,0,1-1.8-1.8A1.79,1.79,0,0,1,78.89,6.39Zm0,9.17a1.81,1.81,0,0,1,1.83,1.82,1.79,1.79,0,0,1-1.83,1.8,1.77,1.77,0,0,1-1.8-1.8A1.79,1.79,0,0,1,78.91,15.56Z"/><path d="M85.06,19.05H82.69L91.63.57H94Z"/><path d="M92.72,19.05H90.35L99.29.57h2.37Z"/><path d="M112.81,6.52l3.26,9.43,2.76-9.43h2.58l-4.07,12.54h-2.53l-3.34-9.54-3.26,9.54h-2.58L101.53,6.52h2.68L107,15.95l3.26-9.43Z"/><path d="M133.48,6.52l3.26,9.43,2.76-9.43h2.58L138,19.05h-2.53l-3.34-9.54-3.26,9.54h-2.58L122.19,6.52h2.68l2.81,9.43L131,6.52Z"/><path d="M154.14,6.52l3.26,9.43,2.76-9.43h2.58l-4.07,12.54h-2.53l-3.34-9.54-3.26,9.54H147L142.86,6.52h2.68l2.82,9.43,3.26-9.43Z"/><path d="M165.71,15.56a1.81,1.81,0,0,1,1.82,1.82,1.79,1.79,0,0,1-1.82,1.8,1.77,1.77,0,0,1-1.8-1.8A1.79,1.79,0,0,1,165.71,15.56Z"/><path d="M172.64,19.18a3.33,3.33,0,0,0,3.41,3.08c2.63,0,3.83-1.35,3.83-4.07v-1.8a4.17,4.17,0,0,1-3.83,2.06,5.71,5.71,0,0,1-5.76-6.07,5.76,5.76,0,0,1,5.76-6.1c1.93,0,3.23.73,3.86,2V6.52h2.42v11.6c0,3.18-1.56,6.28-6.28,6.28-3.13,0-5.47-2-5.79-4.67Zm7.35-6.8c0-2.42-1.46-4-3.57-4s-3.62,1.59-3.62,4,1.41,4,3.62,4S180,14.8,180,12.38Z"/><path d="M198,12.77a6.42,6.42,0,1,1-12.82,0,6.42,6.42,0,1,1,12.82,0Zm-2.5,0c0-2.89-1.83-4.46-3.91-4.46s-3.91,1.56-3.91,4.46,1.82,4.48,3.91,4.48S195.52,15.69,195.52,12.77Z"/><path d="M212.93,12.77a6.42,6.42,0,1,1-12.82,0,6.42,6.42,0,1,1,12.82,0Zm-2.5,0c0-2.89-1.83-4.46-3.91-4.46s-3.91,1.56-3.91,4.46,1.82,4.48,3.91,4.48S210.43,15.69,210.43,12.77Z"/><path d="M217.52,19.18a3.33,3.33,0,0,0,3.41,3.08c2.63,0,3.83-1.35,3.83-4.07v-1.8a4.17,4.17,0,0,1-3.83,2.06,5.71,5.71,0,0,1-5.76-6.07,5.76,5.76,0,0,1,5.76-6.1c1.93,0,3.23.73,3.86,2V6.52h2.42v11.6c0,3.18-1.56,6.28-6.28,6.28-3.13,0-5.47-2-5.79-4.67Zm7.35-6.8c0-2.42-1.46-4-3.57-4s-3.62,1.59-3.62,4,1.41,4,3.62,4S224.87,14.8,224.87,12.38Z"/><path d="M231.12,19.05V.18h2.45V19.05Z"/><path d="M248.66,15.48a5.68,5.68,0,0,1-5.63,4c-3.36,0-6.31-2.45-6.31-6.7,0-3.94,2.84-6.62,6-6.62,3.86,0,6,2.66,6,6.57a5.47,5.47,0,0,1-.05.78h-9.43a3.72,3.72,0,0,0,3.78,3.8,3.42,3.42,0,0,0,3.52-2.53Zm-2.48-4a3.16,3.16,0,0,0-3.44-3.21,3.37,3.37,0,0,0-3.41,3.21Z"/><path d="M254.88,11.88l3.39-.5c.76-.1,1-.5,1-.94,0-1.22-.81-2.24-2.71-2.24a2.66,2.66,0,0,0-2.84,2.53l-2.35-.55c.26-2.4,2.42-4.07,5.13-4.07,3.75,0,5.21,2.14,5.21,4.59V17a11.83,11.83,0,0,0,.16,2.06h-2.4a9.09,9.09,0,0,1-.13-1.69,4.57,4.57,0,0,1-4,2.08,3.91,3.91,0,0,1-4.2-3.75C251.08,13.45,252.72,12.2,254.88,11.88Zm4.35,1.8v-.57l-3.83.57a1.87,1.87,0,0,0-1.82,1.88,1.9,1.9,0,0,0,2,1.82C257.62,17.38,259.24,16.42,259.24,13.68Z"/><path d="M265.49,24V6.52h2.37v2a4.62,4.62,0,0,1,4.2-2.24c3.75,0,5.76,2.89,5.76,6.54s-2.16,6.62-5.84,6.62a4.66,4.66,0,0,1-4.07-2V24Zm6.13-15.61c-2.24,0-3.73,1.88-3.73,4.38s1.49,4.43,3.73,4.43,3.7-1.85,3.7-4.43S273.91,8.39,271.61,8.39Z"/><path d="M282.14,0a1.76,1.76,0,1,1-1.75,1.77A1.76,1.76,0,0,1,282.14,0Zm-1.2,19.05V6.52h2.42V19.05Z"/><path d="M288.58,15a2.67,2.67,0,0,0,2.92,2.35c1.38,0,2.14-.78,2.14-1.67s-.57-1.38-1.62-1.62l-2.14-.47a3.57,3.57,0,0,1-3.13-3.52,4.27,4.27,0,0,1,4.46-4c3.44,0,4.51,2.24,4.77,3.36l-2.16.81a2.43,2.43,0,0,0-2.61-2.08,1.89,1.89,0,0,0-2.08,1.67c0,.76.47,1.3,1.43,1.51l2,.44c2.27.5,3.47,1.88,3.47,3.73s-1.49,3.88-4.59,3.88c-3.44,0-4.9-2.22-5.11-3.65Z"/><path d="M300.85,15.56a1.81,1.81,0,0,1,1.82,1.82,1.79,1.79,0,0,1-1.82,1.8,1.77,1.77,0,0,1-1.8-1.8A1.79,1.79,0,0,1,300.85,15.56Z"/><path d="M307.65,12.77c0,2.87,1.8,4.4,3.83,4.4A3.41,3.41,0,0,0,315,14.59l2.16.94a5.76,5.76,0,0,1-5.66,3.91,6.34,6.34,0,0,1-6.33-6.67,6.29,6.29,0,0,1,6.31-6.65,5.45,5.45,0,0,1,5.58,4l-2.22.94a3.29,3.29,0,0,0-3.36-2.66C309.47,8.39,307.65,9.85,307.65,12.77Z"/><path d="M331.65,12.77a6.42,6.42,0,1,1-12.82,0,6.42,6.42,0,1,1,12.82,0Zm-2.5,0c0-2.89-1.82-4.46-3.91-4.46s-3.91,1.56-3.91,4.46,1.82,4.48,3.91,4.48S329.15,15.69,329.15,12.77Z"/><path d="M334.78,19.05V6.52h2.35V8.18a4.32,4.32,0,0,1,3.81-2,3.92,3.92,0,0,1,3.75,2.37,4.5,4.5,0,0,1,4.2-2.37c2.19,0,4.33,1.49,4.33,4.77v8.13h-2.42V11.18c0-1.64-.81-2.87-2.66-2.87a2.92,2.92,0,0,0-2.89,3.15v7.58h-2.45V11.18c0-1.62-.78-2.87-2.66-2.87a2.91,2.91,0,0,0-2.92,3.18v7.56Z"/><path d="M357.4,19.05H355L364,.57h2.37Z"/><path d="M368.42,19.05V.18h2.42V8.29A4.57,4.57,0,0,1,375,6.15c3.8,0,5.76,2.92,5.76,6.57s-2.11,6.67-5.84,6.67a4.47,4.47,0,0,1-4.07-2.16v1.82Zm6.12-10.74c-2.16,0-3.73,1.69-3.73,4.4s1.56,4.48,3.73,4.48,3.7-1.77,3.7-4.48S376.81,8.31,374.54,8.31Z"/><path d="M395.65,12.77a6.42,6.42,0,1,1-12.82,0,6.42,6.42,0,1,1,12.82,0Zm-2.5,0c0-2.89-1.82-4.46-3.91-4.46s-3.91,1.56-3.91,4.46,1.82,4.48,3.91,4.48S393.15,15.69,393.15,12.77Z"/><path d="M410.56,12.77a6.42,6.42,0,1,1-12.82,0,6.42,6.42,0,1,1,12.82,0Zm-2.5,0c0-2.89-1.82-4.46-3.91-4.46s-3.91,1.56-3.91,4.46,1.82,4.48,3.91,4.48S408.05,15.69,408.05,12.77Z"/><path d="M419.57,11.81,425,19.05h-3.08l-4.09-5.53-1.75,1.75v3.78h-2.42V.18h2.42V12.07l5.42-5.55h3.39Z"/><path d="M428.41,15a2.67,2.67,0,0,0,2.92,2.35c1.38,0,2.14-.78,2.14-1.67s-.57-1.38-1.62-1.62l-2.14-.47a3.57,3.57,0,0,1-3.13-3.52,4.27,4.27,0,0,1,4.46-4c3.44,0,4.51,2.24,4.77,3.36l-2.16.81A2.43,2.43,0,0,0,431,8.21,1.89,1.89,0,0,0,429,9.88c0,.76.47,1.3,1.43,1.51l2,.44c2.27.5,3.47,1.88,3.47,3.73s-1.49,3.88-4.59,3.88c-3.44,0-4.9-2.22-5.11-3.65Z"/><path d="M439.69,19.05h-2.37L446.26.57h2.37Z"/><path d="M456.18,19.05h-2.48L448.63,6.52h2.76L455,16.18l3.6-9.67h2.63Z"/><path d="M466.19,19.05V7.14H462.1V5.34a4.22,4.22,0,0,0,4.35-3.18h2.24V19.05Z"/><path d="M473,19.05h-2.37L479.58.57H482Z"/><path d="M489.51,19.05H487L482,6.52h2.76l3.57,9.67,3.6-9.67h2.63Z"/><path d="M508.25,12.77a6.42,6.42,0,1,1-12.82,0,6.42,6.42,0,1,1,12.82,0Zm-2.5,0c0-2.89-1.83-4.46-3.91-4.46s-3.91,1.56-3.91,4.46,1.82,4.48,3.91,4.48S505.75,15.69,505.75,12.77Z"/><path d="M511.38,19.05V.18h2.45V19.05Z"/><path d="M522.42,19.44c-2.92,0-4.69-2.19-4.69-5V6.52h2.45V14c0,1.72.78,3.23,2.84,3.23s3-1.3,3-3.21V6.52h2.45V16.73a20.9,20.9,0,0,0,.13,2.32h-2.35a11.15,11.15,0,0,1-.1-1.51A4.09,4.09,0,0,1,522.42,19.44Z"/><path d="M532.61,19.05V6.52H535V8.18a4.32,4.32,0,0,1,3.81-2,3.92,3.92,0,0,1,3.75,2.37,4.5,4.5,0,0,1,4.2-2.37c2.19,0,4.33,1.49,4.33,4.77v8.13h-2.42V11.18c0-1.64-.81-2.87-2.66-2.87a2.92,2.92,0,0,0-2.89,3.15v7.58h-2.45V11.18c0-1.62-.78-2.87-2.66-2.87A2.91,2.91,0,0,0,535,11.49v7.56Z"/><path d="M565.87,15.48a5.68,5.68,0,0,1-5.63,4c-3.36,0-6.31-2.45-6.31-6.7,0-3.94,2.84-6.62,6-6.62,3.86,0,6,2.66,6,6.57a5.62,5.62,0,0,1-.05.78h-9.43a3.72,3.72,0,0,0,3.78,3.8,3.41,3.41,0,0,0,3.52-2.53Zm-2.48-4a3.16,3.16,0,0,0-3.44-3.21,3.37,3.37,0,0,0-3.41,3.21Z"/><path d="M570.11,15A2.67,2.67,0,0,0,573,17.36c1.38,0,2.14-.78,2.14-1.67s-.57-1.38-1.62-1.62l-2.14-.47a3.57,3.57,0,0,1-3.13-3.52,4.27,4.27,0,0,1,4.46-4c3.44,0,4.51,2.24,4.77,3.36l-2.16.81a2.43,2.43,0,0,0-2.61-2.08,1.89,1.89,0,0,0-2.08,1.67c0,.76.47,1.3,1.43,1.51l2,.44c2.27.5,3.47,1.88,3.47,3.73s-1.49,3.88-4.59,3.88c-3.44,0-4.9-2.22-5.11-3.65Z"/><path d="M583.87,13.76c0-.31,0-.57,0-.91A4.53,4.53,0,0,1,586,8.78L587.15,8a3.06,3.06,0,0,0,1.38-2.55,2.88,2.88,0,0,0-3.1-3,3.13,3.13,0,0,0-3.26,3.34,4.41,4.41,0,0,0,.18,1.28l-2.53-.31a4.55,4.55,0,0,1-.16-1.25A5.38,5.38,0,0,1,585.43.18c3.65,0,5.71,2.58,5.71,5.24A5.34,5.34,0,0,1,588.48,10l-1.2.81a2.89,2.89,0,0,0-1.15,2.5,4.22,4.22,0,0,0,0,.5Zm1.12,2a1.74,1.74,0,0,1,1.72,1.72A1.71,1.71,0,0,1,585,19.18a1.69,1.69,0,0,1-1.69-1.69A1.71,1.71,0,0,1,585,15.77Z"/><path d="M602.43,24V17.28a4.18,4.18,0,0,1-3.91,2.11c-3.6,0-5.94-3-5.94-6.65s2.22-6.54,5.89-6.54a4.22,4.22,0,0,1,4,2.24V6.52h2.37V24Zm-3.67-6.78c2.22,0,3.7-1.9,3.7-4.48s-1.49-4.38-3.7-4.38-3.67,1.8-3.67,4.38S596.51,17.23,598.75,17.23Z"/><path d="M608.37,10V8h12.07v2Zm0,5.08V13.06h12.07v2.06Z"/><path d="M625.41,0a1.76,1.76,0,1,1-1.75,1.77A1.76,1.76,0,0,1,625.41,0Zm-1.2,19.05V6.52h2.42V19.05Z"/><path d="M631.84,15a2.67,2.67,0,0,0,2.92,2.35c1.38,0,2.14-.78,2.14-1.67s-.57-1.38-1.62-1.62l-2.14-.47A3.57,3.57,0,0,1,630,10.09a4.27,4.27,0,0,1,4.46-4c3.44,0,4.51,2.24,4.77,3.36l-2.16.81a2.43,2.43,0,0,0-2.61-2.08,1.89,1.89,0,0,0-2.08,1.67c0,.76.47,1.3,1.43,1.51l2,.44c2.27.5,3.47,1.88,3.47,3.73s-1.49,3.88-4.59,3.88c-3.44,0-4.9-2.22-5.11-3.65Z"/><path d="M642.58,19.05V.18H645V8.29a4.57,4.57,0,0,1,4.14-2.14c3.81,0,5.76,2.92,5.76,6.57s-2.11,6.67-5.84,6.67A4.47,4.47,0,0,1,645,17.23v1.82Zm6.13-10.74c-2.16,0-3.73,1.69-3.73,4.4s1.56,4.48,3.73,4.48,3.7-1.77,3.7-4.48S651,8.31,648.71,8.31Z"/><path d="M660.48,19.05H658V6.52h2.4v1.8a4.29,4.29,0,0,1,3.86-2.16c3,0,4.48,2.16,4.48,5v7.95h-2.45V11.52c0-1.75-.73-3.15-2.92-3.15-1.93,0-2.92,1.54-2.92,3.44Z"/><path d="M674.34,6.39a1.81,1.81,0,0,1,1.82,1.82,1.79,1.79,0,0,1-1.82,1.8,1.77,1.77,0,0,1-1.8-1.8A1.79,1.79,0,0,1,674.34,6.39Zm0,9.17a1.81,1.81,0,0,1,1.82,1.82,1.79,1.79,0,0,1-1.82,1.8,1.77,1.77,0,0,1-1.8-1.8A1.79,1.79,0,0,1,674.37,15.56Z"/><path d="M681,4.48a6.32,6.32,0,0,1,10.37,0,10.88,10.88,0,0,1,1.51,6.12,10.88,10.88,0,0,1-1.51,6.13,6.32,6.32,0,0,1-10.37,0,10.88,10.88,0,0,1-1.51-6.12A10.88,10.88,0,0,1,681,4.48Zm2.5,11.6a3.84,3.84,0,0,0,5.37,0c1-1.07,1.49-2.89,1.49-5.47s-.47-4.4-1.49-5.47a3.84,3.84,0,0,0-5.37,0C682.45,6.2,682,8,682,10.61S682.45,15,683.46,16.08Z"/><path d="M706.92,4.8a6.34,6.34,0,0,0-3-.73c-3.52,0-5.73,2.58-5.94,6a5.08,5.08,0,0,1,4.46-2.19,5.41,5.41,0,0,1,5.79,5.76c0,3.62-2.95,5.76-6.25,5.76s-6.59-2.24-6.59-7.82c0-6.28,3.78-9.85,8.71-9.85a6.63,6.63,0,0,1,3.65.94Zm-5,12.43a3.45,3.45,0,0,0,3.65-3.54,3.65,3.65,0,0,0-7.3,0A3.53,3.53,0,0,0,702,17.23Z"/><path d="M721.72,4.61c-1.56,1.25-6.33,5.5-7.14,14.44h-2.63c.76-9.83,7-14.54,7-14.54h-9.51V2.16h12.33Z"/><path d="M724.43,16.34a6.54,6.54,0,0,0,3.08.81c4.09,0,5.76-2.68,5.86-6A4.76,4.76,0,0,1,729,13.32a5.6,5.6,0,0,1-5.84-5.71,6,6,0,0,1,6.23-5.84c3.31,0,6.57,2.37,6.57,7.77,0,6.2-2.76,9.9-8.44,9.9a8.17,8.17,0,0,1-3.91-1Zm5-12.33a3.52,3.52,0,0,0-3.65,3.54,3.46,3.46,0,0,0,3.65,3.57,3.56,3.56,0,1,0,0-7.11Z"/><path d="M749.71,4.61c-1.56,1.25-6.33,5.5-7.14,14.44h-2.63c.76-9.83,7-14.54,7-14.54h-9.51V2.16h12.33Z"/><path d="M763.07,4.61c-1.56,1.25-6.33,5.5-7.14,14.44H753.3c.76-9.83,7-14.54,7-14.54h-9.51V2.16h12.33Z"/><path d="M766.17,13.73a3.65,3.65,0,0,0,3.8,3.49,3.4,3.4,0,0,0,3.62-3.41A3.38,3.38,0,0,0,770,10.32a4.33,4.33,0,0,0-3.08,1.23c-.89-.34-1.64-.68-2.5-1l2.19-8.39h8.91V4.51h-7.22L767,9.36a4.73,4.73,0,0,1,3.44-1.25c3.31,0,5.73,2.11,5.73,5.6,0,3.18-2.45,5.76-6.2,5.76-3.6,0-6-2.35-6.25-5Z"/><path d="M778,12.3l7.25-10.14h3.52V12.87h2.89v2.37h-2.89v3.81h-2.48V15.25H778Zm8.29-7.69-5.94,8.26h5.94Z"/><path d="M796.66,9.1l5-4.59h-8.08V2.16H805V4.46L800.2,8.91A5,5,0,0,1,805.42,14c0,2.84-2.19,5.42-6.12,5.42s-6.12-2.55-6.28-5.32l2.5-.57a3.65,3.65,0,0,0,3.75,3.65c2.32,0,3.57-1.43,3.57-3.13a3.14,3.14,0,0,0-3.44-3.15,4.55,4.55,0,0,0-1.49.26Z"/><path d="M808.78,16.34a6.54,6.54,0,0,0,3.08.81c4.09,0,5.76-2.68,5.86-6a4.76,4.76,0,0,1-4.38,2.16,5.6,5.6,0,0,1-5.84-5.71,6,6,0,0,1,6.23-5.84c3.31,0,6.57,2.37,6.57,7.77,0,6.2-2.76,9.9-8.44,9.9a8.17,8.17,0,0,1-3.91-1Zm5-12.33a3.52,3.52,0,0,0-3.65,3.54,3.46,3.46,0,0,0,3.65,3.57,3.56,3.56,0,1,0,0-7.11Z"/><path class="cls-1" d="M2.55,82.92v7.56H0V72H6.72a5.47,5.47,0,1,1,0,10.92Zm3.7-2.29c2.22,0,3.57-1.22,3.57-3.13S8.47,74.3,6.25,74.3H2.55v6.33Z"/><path class="cls-1" d="M21.86,80.42a7.55,7.55,0,0,0-1.07-.08c-2.06,0-3.44,1.09-3.44,3.86v6.28H14.9V77.94h2.4v2.19a3.93,3.93,0,0,1,3.75-2.4,4.58,4.58,0,0,1,.81.08Z"/><path class="cls-1" d="M36.12,84.2a6.42,6.42,0,1,1-6.41-6.65A6.33,6.33,0,0,1,36.12,84.2Zm-2.5,0c0-2.89-1.82-4.46-3.91-4.46S25.8,81.31,25.8,84.2s1.82,4.48,3.91,4.48S33.62,87.12,33.62,84.2Z"/><path class="cls-1" d="M42.4,77.94h2.71v2.22H42.4v6.52c0,1.15.47,1.72,1.75,1.72a4.91,4.91,0,0,0,1-.1v2.08a5.37,5.37,0,0,1-1.67.23A3.25,3.25,0,0,1,39.95,87V80.16h-2.4V77.94h.68A1.75,1.75,0,0,0,40.16,76V74H42.4Z"/><path class="cls-1" d="M60,84.2a6.42,6.42,0,1,1-6.41-6.65A6.33,6.33,0,0,1,60,84.2Zm-2.5,0c0-2.89-1.82-4.46-3.91-4.46s-3.91,1.56-3.91,4.46,1.82,4.48,3.91,4.48S57.51,87.12,57.51,84.2Z"/><path class="cls-1" d="M64.6,84.2c0,2.87,1.8,4.41,3.83,4.41A3.41,3.41,0,0,0,71.92,86l2.16.94a5.76,5.76,0,0,1-5.66,3.91,6.67,6.67,0,0,1,0-13.32,5.45,5.45,0,0,1,5.58,4l-2.22.94a3.29,3.29,0,0,0-3.36-2.66C66.42,79.82,64.6,81.28,64.6,84.2Z"/><path class="cls-1" d="M88.6,84.2a6.42,6.42,0,1,1-6.41-6.65A6.33,6.33,0,0,1,88.6,84.2Zm-2.5,0c0-2.89-1.82-4.46-3.91-4.46s-3.91,1.56-3.91,4.46,1.82,4.48,3.91,4.48S86.1,87.12,86.1,84.2Z"/><path class="cls-1" d="M91.73,90.48V71.61h2.45V90.48Z"/><polygon class="cls-1" points="81.31 35.68 12.61 35.68 12.61 21.18 15.61 21.18 15.61 32.68 78.31 32.68 78.31 21.18 81.31 21.18 81.31 35.68"/><rect class="cls-1" x="45.46" y="34.18" width="3" height="28.25"/></svg>