<svg id="Layer_1" data-name="Layer 1" xmlns="http://www.w3.org/2000/svg" viewBox="0 0 671.16 90.87"><defs><style>.cls-1{fill:#e31e27;}</style></defs><title>08-53-host</title><path d="M2.45,19.05H0V.18H2.45V8A4.43,4.43,0,0,1,6.25,6.15c3,0,4.48,2.16,4.48,5v7.95H8.29V11.52c0-1.75-.73-3.15-2.92-3.15-1.88,0-2.87,1.46-2.92,3.31Z"/><path d="M17.93,6.52h2.71V8.73H17.93v6.52c0,1.15.47,1.72,1.75,1.72a5,5,0,0,0,1-.1v2.08a5.35,5.35,0,0,1-1.67.23,3.25,3.25,0,0,1-3.49-3.57V8.73h-2.4V6.52h.68a1.75,1.75,0,0,0,1.93-1.93v-2h2.24Z"/><path d="M27.18,6.52h2.71V8.73H27.18v6.52c0,1.15.47,1.72,1.75,1.72a5,5,0,0,0,1-.1v2.08a5.35,5.35,0,0,1-1.67.23,3.25,3.25,0,0,1-3.49-3.57V8.73h-2.4V6.52H23a1.75,1.75,0,0,0,1.93-1.93v-2h2.24Z"/><path d="M32.89,24V6.52h2.37v2a4.62,4.62,0,0,1,4.2-2.24c3.75,0,5.76,2.89,5.76,6.54S43,19.39,39.38,19.39a4.66,4.66,0,0,1-4.07-2V24ZM39,8.39c-2.24,0-3.73,1.88-3.73,4.38S36.77,17.2,39,17.2s3.7-1.85,3.7-4.43S41.3,8.39,39,8.39Z"/><path d="M49.88,6.39A1.81,1.81,0,0,1,51.7,8.21,1.79,1.79,0,0,1,49.88,10a1.77,1.77,0,0,1-1.8-1.8A1.79,1.79,0,0,1,49.88,6.39Zm0,9.17a1.81,1.81,0,0,1,1.82,1.82,1.79,1.79,0,0,1-1.82,1.8,1.77,1.77,0,0,1-1.8-1.8A1.79,1.79,0,0,1,49.9,15.56Z"/><path d="M56.05,19.05H53.68L62.62.57H65Z"/><path d="M63.71,19.05H61.34L70.28.57h2.37Z"/><path d="M83.8,6.52l3.26,9.43,2.76-9.43h2.58L88.34,19.05H85.81L82.48,9.51l-3.26,9.54H76.64L72.52,6.52H75.2L78,15.95l3.26-9.43Z"/><path d="M104.47,6.52l3.26,9.43,2.76-9.43h2.58L109,19.05h-2.53l-3.34-9.54-3.26,9.54H97.3L93.18,6.52h2.68l2.81,9.43,3.26-9.43Z"/><path d="M125.13,6.52l3.26,9.43,2.76-9.43h2.58l-4.07,12.54h-2.53L123.8,9.51l-3.26,9.54H118L113.85,6.52h2.68l2.81,9.43,3.26-9.43Z"/><path d="M136.7,15.56a1.81,1.81,0,0,1,1.82,1.82,1.79,1.79,0,0,1-1.82,1.8,1.77,1.77,0,0,1-1.8-1.8A1.79,1.79,0,0,1,136.7,15.56Z"/><path d="M150.83,17.15a4.2,4.2,0,0,1-3.88,2.24c-3.67,0-5.94-2.92-5.94-6.65,0-3.54,2.4-6.57,5.94-6.57,2.21,0,3.41,1.09,3.83,2.11V.18h2.42V16.73a19.92,19.92,0,0,0,.13,2.32H151a10.49,10.49,0,0,1-.13-1.69Zm-3.65.08c2.24,0,3.62-2,3.62-4.54s-1.35-4.35-3.6-4.35-3.7,1.82-3.7,4.4S144.83,17.23,147.18,17.23Z"/><path d="M169.15,12.77a6.42,6.42,0,1,1-12.82,0,6.42,6.42,0,1,1,12.82,0Zm-2.5,0c0-2.89-1.82-4.46-3.91-4.46s-3.91,1.56-3.91,4.46,1.82,4.48,3.91,4.48S166.64,15.69,166.64,12.77Z"/><path d="M172.27,19.05V6.52h2.35V8.18a4.32,4.32,0,0,1,3.81-2,3.92,3.92,0,0,1,3.75,2.37,4.5,4.5,0,0,1,4.2-2.37c2.19,0,4.33,1.49,4.33,4.77v8.13h-2.42V11.18c0-1.64-.81-2.87-2.66-2.87a2.92,2.92,0,0,0-2.89,3.15v7.58h-2.45V11.18c0-1.62-.78-2.87-2.66-2.87a2.91,2.91,0,0,0-2.92,3.18v7.56Z"/><path d="M197.63,11.88l3.39-.5c.76-.1,1-.5,1-.94,0-1.22-.81-2.24-2.71-2.24a2.66,2.66,0,0,0-2.84,2.53l-2.35-.55c.26-2.4,2.42-4.07,5.13-4.07,3.75,0,5.21,2.14,5.21,4.59V17a11.76,11.76,0,0,0,.16,2.06h-2.4a9.15,9.15,0,0,1-.13-1.69,4.57,4.57,0,0,1-4,2.08,3.9,3.9,0,0,1-4.2-3.75C193.82,13.45,195.46,12.2,197.63,11.88Zm4.35,1.8v-.57l-3.83.57a1.87,1.87,0,0,0-1.82,1.88,1.9,1.9,0,0,0,2,1.82C200.36,17.38,202,16.42,202,13.68Z"/><path d="M209.43,0a1.76,1.76,0,1,1-1.75,1.77A1.76,1.76,0,0,1,209.43,0Zm-1.2,19.05V6.52h2.42V19.05Z"/><path d="M217.27,19.05h-2.45V6.52h2.4v1.8a4.29,4.29,0,0,1,3.86-2.16c3,0,4.48,2.16,4.48,5v7.95h-2.45V11.52c0-1.75-.73-3.15-2.92-3.15-1.93,0-2.92,1.54-2.92,3.44Z"/><path d="M231,15.56a1.81,1.81,0,0,1,1.82,1.82,1.79,1.79,0,0,1-1.82,1.8,1.77,1.77,0,0,1-1.8-1.8A1.79,1.79,0,0,1,231,15.56Z"/><path d="M237.81,12.77c0,2.87,1.8,4.4,3.83,4.4a3.41,3.41,0,0,0,3.49-2.58l2.16.94a5.76,5.76,0,0,1-5.66,3.91,6.34,6.34,0,0,1-6.33-6.67,6.29,6.29,0,0,1,6.31-6.65,5.45,5.45,0,0,1,5.58,4l-2.22.94a3.29,3.29,0,0,0-3.36-2.66C239.63,8.39,237.81,9.85,237.81,12.77Z"/><path d="M261.81,12.77a6.42,6.42,0,1,1-12.82,0,6.42,6.42,0,1,1,12.82,0Zm-2.5,0c0-2.89-1.82-4.46-3.91-4.46s-3.91,1.56-3.91,4.46,1.82,4.48,3.91,4.48S259.31,15.69,259.31,12.77Z"/><path d="M264.94,19.05V6.52h2.35V8.18a4.32,4.32,0,0,1,3.81-2,3.92,3.92,0,0,1,3.75,2.37A4.5,4.5,0,0,1,279,6.15c2.19,0,4.33,1.49,4.33,4.77v8.13h-2.42V11.18c0-1.64-.81-2.87-2.66-2.87a2.92,2.92,0,0,0-2.89,3.15v7.58h-2.45V11.18c0-1.62-.78-2.87-2.66-2.87a2.91,2.91,0,0,0-2.92,3.18v7.56Z"/><path d="M288.94,6.39a1.81,1.81,0,0,1,1.82,1.82,1.79,1.79,0,0,1-1.82,1.8,1.77,1.77,0,0,1-1.8-1.8A1.79,1.79,0,0,1,288.94,6.39Zm0,9.17a1.81,1.81,0,0,1,1.82,1.82,1.79,1.79,0,0,1-1.82,1.8,1.77,1.77,0,0,1-1.8-1.8A1.79,1.79,0,0,1,289,15.56Z"/><path d="M297.48,19.05V7.14h-4.09V5.34a4.22,4.22,0,0,0,4.35-3.18H300V19.05Z"/><path d="M303.19,7.92a6.17,6.17,0,0,1,0-.68A5.45,5.45,0,0,1,309,1.77c3.62,0,5.71,2.37,5.71,5.19a6.15,6.15,0,0,1-3.18,5.21l-3.34,2.14a4.14,4.14,0,0,0-2.06,2.37h8.68v2.37H303c.05-2.76,1.15-4.87,4-6.72l2.81-1.82A4.22,4.22,0,0,0,312.13,7a2.92,2.92,0,0,0-3.18-3c-2.22,0-3.26,1.54-3.26,3.47,0,.23,0,.5.05.76Z"/><path d="M320.47,9.1l5-4.59h-8.08V2.16h11.47V4.46L324,8.91A5,5,0,0,1,329.22,14c0,2.84-2.19,5.42-6.12,5.42s-6.12-2.55-6.28-5.32l2.5-.57a3.65,3.65,0,0,0,3.75,3.65c2.32,0,3.57-1.43,3.57-3.13a3.14,3.14,0,0,0-3.44-3.15,4.56,4.56,0,0,0-1.49.26Z"/><path d="M331.18,12.3l7.25-10.14h3.52V12.87h2.89v2.37h-2.89v3.81h-2.48V15.25h-8.29Zm8.29-7.69-5.94,8.26h5.94Z"/><path d="M347.59,19.05h-2.37L354.16.57h2.37Z"/><path d="M357.05,24V6.52h2.37v2a4.62,4.62,0,0,1,4.2-2.24c3.75,0,5.76,2.89,5.76,6.54s-2.16,6.62-5.84,6.62a4.66,4.66,0,0,1-4.07-2V24Zm6.12-15.61c-2.24,0-3.73,1.88-3.73,4.38s1.49,4.43,3.73,4.43,3.7-1.85,3.7-4.43S365.47,8.39,363.18,8.39Z"/><path d="M375.53,11.88l3.39-.5c.76-.1,1-.5,1-.94,0-1.22-.81-2.24-2.71-2.24a2.66,2.66,0,0,0-2.84,2.53L372,10.19c.26-2.4,2.42-4.07,5.13-4.07,3.75,0,5.21,2.14,5.21,4.59V17a11.73,11.73,0,0,0,.16,2.06h-2.4a9.21,9.21,0,0,1-.13-1.69,4.57,4.57,0,0,1-4,2.08,3.9,3.9,0,0,1-4.2-3.75C371.72,13.45,373.36,12.2,375.53,11.88Zm4.35,1.8v-.57l-3.83.57a1.87,1.87,0,0,0-1.82,1.88,1.9,1.9,0,0,0,2,1.82C378.26,17.38,379.88,16.42,379.88,13.68Z"/><path d="M389.42,6.52h2.71V8.73h-2.71v6.52c0,1.15.47,1.72,1.75,1.72a5,5,0,0,0,1-.1v2.08a5.35,5.35,0,0,1-1.67.23A3.25,3.25,0,0,1,387,15.61V8.73h-2.4V6.52h.68a1.75,1.75,0,0,0,1.93-1.93v-2h2.24Z"/><path d="M397.83,19.05h-2.45V.18h2.45V8a4.44,4.44,0,0,1,3.81-1.82c3,0,4.48,2.16,4.48,5v7.95h-2.45V11.52c0-1.75-.73-3.15-2.92-3.15-1.88,0-2.87,1.46-2.92,3.31Z"/><path d="M410.31,19.05h-2.37L416.88.57h2.37Z"/><path d="M424.62,6.52h2.71V8.73h-2.71v6.52c0,1.15.47,1.72,1.75,1.72a5,5,0,0,0,1-.1v2.08a5.35,5.35,0,0,1-1.67.23,3.25,3.25,0,0,1-3.49-3.57V8.73h-2.4V6.52h.68a1.75,1.75,0,0,0,1.93-1.93v-2h2.24Z"/><path d="M442.24,12.77a6.42,6.42,0,1,1-12.82,0,6.42,6.42,0,1,1,12.82,0Zm-2.5,0c0-2.89-1.82-4.46-3.91-4.46s-3.91,1.56-3.91,4.46,1.82,4.48,3.91,4.48S439.74,15.69,439.74,12.77Z"/><path d="M445.13,19.05h-2.37L451.7.57h2.37Z"/><path d="M461.55,9a7.64,7.64,0,0,0-1.07-.08c-2.06,0-3.44,1.09-3.44,3.86v6.28h-2.45V6.52H457V8.7a3.92,3.92,0,0,1,3.75-2.4,4.59,4.59,0,0,1,.81.08Z"/><path d="M474.94,15.48a5.68,5.68,0,0,1-5.63,4C466,19.44,463,17,463,12.74c0-3.94,2.84-6.62,6-6.62,3.86,0,6,2.66,6,6.57a5.65,5.65,0,0,1-.05.78h-9.44a3.72,3.72,0,0,0,3.78,3.8,3.41,3.41,0,0,0,3.52-2.53Zm-2.47-4A3.16,3.16,0,0,0,469,8.29a3.37,3.37,0,0,0-3.41,3.21Z"/><path d="M479.19,15a2.67,2.67,0,0,0,2.92,2.35c1.38,0,2.14-.78,2.14-1.67s-.57-1.38-1.62-1.62l-2.14-.47a3.57,3.57,0,0,1-3.13-3.52,4.27,4.27,0,0,1,4.46-4c3.44,0,4.51,2.24,4.77,3.36l-2.16.81a2.43,2.43,0,0,0-2.61-2.08,1.89,1.89,0,0,0-2.08,1.67c0,.76.47,1.3,1.43,1.51l2,.44c2.27.5,3.47,1.88,3.47,3.73s-1.48,3.88-4.59,3.88c-3.44,0-4.9-2.22-5.11-3.65Z"/><path d="M501.57,12.77a6.42,6.42,0,1,1-12.82,0,6.42,6.42,0,1,1,12.82,0Zm-2.5,0c0-2.89-1.82-4.46-3.91-4.46s-3.91,1.56-3.91,4.46,1.82,4.48,3.91,4.48S499.07,15.69,499.07,12.77Z"/><path d="M509.13,19.44c-2.92,0-4.69-2.19-4.69-5V6.52h2.45V14c0,1.72.78,3.23,2.84,3.23s3-1.3,3-3.21V6.52h2.45V16.73a20.9,20.9,0,0,0,.13,2.32h-2.35a11,11,0,0,1-.1-1.51A4.09,4.09,0,0,1,509.13,19.44Z"/><path d="M526.28,9a7.64,7.64,0,0,0-1.07-.08c-2.06,0-3.44,1.09-3.44,3.86v6.28h-2.45V6.52h2.4V8.7a3.93,3.93,0,0,1,3.75-2.4,4.59,4.59,0,0,1,.81.08Z"/><path d="M530.21,12.77c0,2.87,1.8,4.4,3.83,4.4a3.41,3.41,0,0,0,3.49-2.58l2.16.94A5.76,5.76,0,0,1,534,19.44a6.34,6.34,0,0,1-6.33-6.67A6.29,6.29,0,0,1,534,6.12a5.45,5.45,0,0,1,5.58,4l-2.21.94A3.29,3.29,0,0,0,534,8.39C532,8.39,530.21,9.85,530.21,12.77Z"/><path d="M553.35,15.48a5.68,5.68,0,0,1-5.63,4c-3.36,0-6.31-2.45-6.31-6.7,0-3.94,2.84-6.62,6-6.62,3.86,0,6,2.66,6,6.57a5.65,5.65,0,0,1-.05.78h-9.44a3.72,3.72,0,0,0,3.78,3.8,3.41,3.41,0,0,0,3.52-2.53Zm-2.47-4a3.16,3.16,0,0,0-3.44-3.21A3.37,3.37,0,0,0,544,11.49Z"/><path d="M558.93,13.76c0-.31,0-.57,0-.91a4.53,4.53,0,0,1,2.16-4.07L562.21,8a3.06,3.06,0,0,0,1.38-2.55,2.88,2.88,0,0,0-3.1-3,3.13,3.13,0,0,0-3.26,3.34,4.45,4.45,0,0,0,.18,1.28l-2.53-.31a4.51,4.51,0,0,1-.16-1.25A5.38,5.38,0,0,1,560.49.18c3.65,0,5.71,2.58,5.71,5.24A5.34,5.34,0,0,1,563.54,10l-1.2.81a2.89,2.89,0,0,0-1.15,2.5,4.22,4.22,0,0,0,0,.5Zm1.12,2a1.74,1.74,0,0,1,1.72,1.72A1.71,1.71,0,0,1,560,19.18a1.69,1.69,0,0,1-1.69-1.69A1.71,1.71,0,0,1,560,15.77Z"/><path d="M572.22,11.88l3.39-.5c.76-.1,1-.5,1-.94,0-1.22-.81-2.24-2.71-2.24A2.66,2.66,0,0,0,571,10.74l-2.35-.55c.26-2.4,2.42-4.07,5.13-4.07,3.75,0,5.21,2.14,5.21,4.59V17a11.94,11.94,0,0,0,.16,2.06h-2.4a9.09,9.09,0,0,1-.13-1.69,4.57,4.57,0,0,1-4,2.08,3.91,3.91,0,0,1-4.2-3.75C568.41,13.45,570.05,12.2,572.22,11.88Zm4.35,1.8v-.57l-3.83.57a1.88,1.88,0,0,0-1.83,1.88,1.9,1.9,0,0,0,2,1.82C575,17.38,576.57,16.42,576.57,13.68Z"/><path d="M582.43,10V8H594.5v2Zm0,5.08V13.06H594.5v2.06Z"/><path d="M598.27,19.05V.18h2.42V8.29a4.57,4.57,0,0,1,4.14-2.14c3.8,0,5.76,2.92,5.76,6.57s-2.11,6.67-5.84,6.67a4.47,4.47,0,0,1-4.07-2.16v1.82ZM604.4,8.31c-2.16,0-3.73,1.69-3.73,4.4s1.56,4.48,3.73,4.48,3.7-1.77,3.7-4.48S606.67,8.31,604.4,8.31Z"/><path d="M623.74,16.6c-1.51,1.69-3.13,2.76-5.19,2.76-3.49,0-5.34-2.35-5.34-4.72s1.3-3.7,3.26-5.16l.26-.21-.34-.36c-.86-.91-2.21-2.32-2.21-4.12A4.61,4.61,0,0,1,618.94.18c2.79,0,4.9,1.75,4.9,4.51,0,1.82-1.3,3.13-2.61,4.09l-.94.7,3.44,3.57,4.12-4.59v3.36l-2.5,2.89,4.2,4.33h-3.47ZM622,15l.08-.1-3.75-3.94-.94.7a3.39,3.39,0,0,0-1.56,2.79A2.66,2.66,0,0,0,618.58,17C620,17,621,16.11,622,15Zm-3.91-7.77.57.63,1.25-.94a2.7,2.7,0,0,0,1.38-2.29,2.31,2.31,0,0,0-4.61,0A4.1,4.1,0,0,0,618.11,7.22Z"/><path d="M634.47,12.67,630,6.52h3l3.08,4.4,3-4.4h2.89l-4.46,6.15c.76,1,3.86,5.37,4.61,6.39h-2.95l-3.23-4.61-3.18,4.61h-2.92Z"/><path d="M644,10V8H656.1v2Zm0,5.08V13.06H656.1v2.06Z"/><path d="M660.32,24.29l3.13-6.62L658.05,6.52h2.81l3.91,8.65,3.75-8.65h2.63L663,24.29Z"/><path class="cls-1" d="M154.67,90.48h-2.45V71.61h2.45V79.4a4.43,4.43,0,0,1,3.81-1.82c3,0,4.48,2.16,4.48,5v7.95H160.5V82.95c0-1.75-.73-3.15-2.92-3.15-1.88,0-2.87,1.46-2.92,3.31Z"/><path class="cls-1" d="M178.64,84.2a6.42,6.42,0,1,1-6.41-6.65A6.33,6.33,0,0,1,178.64,84.2Zm-2.5,0c0-2.89-1.82-4.46-3.91-4.46s-3.91,1.56-3.91,4.46,1.82,4.48,3.91,4.48S176.14,87.12,176.14,84.2Z"/><path class="cls-1" d="M182.81,86.44a2.67,2.67,0,0,0,2.92,2.35c1.38,0,2.14-.78,2.14-1.67s-.57-1.38-1.62-1.62L184.11,85A3.57,3.57,0,0,1,181,81.51a4.27,4.27,0,0,1,4.46-4c3.44,0,4.51,2.24,4.77,3.36l-2.16.81a2.43,2.43,0,0,0-2.61-2.08,1.89,1.89,0,0,0-2.08,1.67c0,.76.47,1.3,1.43,1.51l2,.44c2.27.5,3.47,1.88,3.47,3.73s-1.49,3.88-4.59,3.88c-3.44,0-4.9-2.21-5.11-3.65Z"/><path class="cls-1" d="M196.83,77.94h2.71v2.22h-2.71v6.52c0,1.15.47,1.72,1.75,1.72a4.91,4.91,0,0,0,1-.1v2.08a5.37,5.37,0,0,1-1.67.23A3.25,3.25,0,0,1,194.38,87V80.16H192V77.94h.68A1.75,1.75,0,0,0,194.59,76V74h2.24Z"/><polygon class="cls-1" points="283.56 35.68 67.29 35.68 67.29 21.18 70.29 21.18 70.29 32.68 280.56 32.68 280.56 21.18 283.56 21.18 283.56 35.68"/><rect class="cls-1" x="173.92" y="34.18" width="3" height="28.25"/></svg>