<svg id="Layer_1" data-name="Layer 1" xmlns="http://www.w3.org/2000/svg" viewBox="0 0 960 550"><defs><style>.cls-1{fill:none;}.cls-2{fill:#4e4e4e;}.cls-3{fill:#f6f6f6;}.cls-4{fill:#fff;}.cls-5{fill:#231f20;}.cls-6{fill:#ececec;}.cls-7{fill:#ffdb00;}</style></defs><title>Slide-21-Client-Server-Model</title><rect class="cls-1" width="960" height="550"/><path d="M267.57,15.28A14.31,14.31,0,0,1,282,.48c7.84,0,11.88,4.8,13,9.4l-5.2,1.64c-.68-2.72-2.88-5.72-7.8-5.72-4.24,0-8.72,3-8.72,9.48,0,6,4.24,9.36,8.8,9.36a7.88,7.88,0,0,0,8-5.8l5.16,1.56C294.12,24.76,290,30,282.08,30S267.57,24.32,267.57,15.28Z" transform="translate(32.53 26.82)"/><path d="M298.27,29.44V.48h5.32v29Z" transform="translate(32.53 26.82)"/><path d="M310.71,0a3.28,3.28,0,1,1-3.28,3.32A3.28,3.28,0,0,1,310.71,0Zm-2.64,29.44V9.76h5.32V29.44Z" transform="translate(32.53 26.82)"/><path d="M335.66,23.8c-1,3.4-4.12,6.24-9,6.24-5.4,0-10.16-3.88-10.16-10.52,0-6.28,4.64-10.36,9.68-10.36,6.08,0,9.72,3.88,9.72,10.2,0,.76-.08,1.56-.08,1.64H321.78a4.79,4.79,0,0,0,5,4.48,4.34,4.34,0,0,0,4.48-3Zm-5-6.44c-.08-2-1.36-3.88-4.4-3.88a4.26,4.26,0,0,0-4.4,3.88Z" transform="translate(32.53 26.82)"/><path d="M344.6,29.44h-5.32V9.76h5.16V12.2a6.54,6.54,0,0,1,5.68-3c4.88,0,7.12,3.48,7.12,7.8v12.4h-5.32V18c0-2.2-1.08-3.92-3.64-3.92-2.32,0-3.68,1.8-3.68,4.08Z" transform="translate(32.53 26.82)"/><path d="M368.18,9.76h4v4.72h-4v8.24c0,1.72.8,2.28,2.32,2.28a7.71,7.71,0,0,0,1.64-.16v4.4a7.88,7.88,0,0,1-3,.48c-3.84,0-6.24-2.28-6.24-6.08V14.48h-3.56V9.76h1a2.83,2.83,0,0,0,3-3.12V3.88h4.8Z" transform="translate(32.53 26.82)"/><path d="M374,19.92V15.2h11.6v4.72Z" transform="translate(32.53 26.82)"/><path d="M404.2,9.36a4.84,4.84,0,0,0-5.16-4c-2.68,0-4.44,1.72-4.44,3.6,0,1.56,1,2.8,3.08,3.2l4,.76c5.16,1,7.92,4.36,7.92,8.36,0,4.36-3.64,8.76-10.24,8.76-7.52,0-10.84-4.84-11.28-8.88l5.12-1.36c.24,2.8,2.2,5.32,6.2,5.32,3,0,4.6-1.48,4.6-3.48,0-1.64-1.24-2.92-3.44-3.36l-4-.8c-4.52-.92-7.44-3.84-7.44-8.12,0-5,4.52-8.88,9.88-8.88,6.88,0,9.52,4.16,10.16,7.36Z" transform="translate(32.53 26.82)"/><path d="M430.87,23.8c-1,3.4-4.12,6.24-9,6.24-5.4,0-10.16-3.88-10.16-10.52,0-6.28,4.64-10.36,9.68-10.36,6.08,0,9.72,3.88,9.72,10.2,0,.76-.08,1.56-.08,1.64H417a4.79,4.79,0,0,0,5,4.48,4.34,4.34,0,0,0,4.48-3Zm-5-6.44c-.08-2-1.36-3.88-4.4-3.88a4.26,4.26,0,0,0-4.4,3.88Z" transform="translate(32.53 26.82)"/><path d="M446.49,15a8,8,0,0,0-1.6-.16c-2.72,0-5.08,1.32-5.08,5.56v9h-5.32V9.76h5.16v2.92c1.2-2.6,3.92-3.08,5.6-3.08a12.1,12.1,0,0,1,1.24.08Z" transform="translate(32.53 26.82)"/><path d="M461.1,29.44h-5.32l-8-19.68h5.84L458.46,23l4.68-13.2h5.6Z" transform="translate(32.53 26.82)"/><path d="M488,23.8c-1,3.4-4.12,6.24-9,6.24-5.4,0-10.16-3.88-10.16-10.52,0-6.28,4.64-10.36,9.68-10.36,6.08,0,9.72,3.88,9.72,10.2,0,.76-.08,1.56-.08,1.64H474.15a4.79,4.79,0,0,0,5,4.48,4.34,4.34,0,0,0,4.48-3Zm-5-6.44c-.08-2-1.36-3.88-4.4-3.88a4.26,4.26,0,0,0-4.4,3.88Z" transform="translate(32.53 26.82)"/><path d="M503.65,15a8,8,0,0,0-1.6-.16c-2.72,0-5.08,1.32-5.08,5.56v9h-5.32V9.76h5.16v2.92c1.2-2.6,3.92-3.08,5.6-3.08a12.11,12.11,0,0,1,1.24.08Z" transform="translate(32.53 26.82)"/><path d="M543,29.44V9.56l-8.16,19.88h-4.6L522,9.72V29.44h-5.28V1.08H524l8.52,20.48,8.32-20.48h7.52V29.44Z" transform="translate(32.53 26.82)"/><path d="M572.91,19.6a10.32,10.32,0,1,1-20.64,0,10.32,10.32,0,1,1,20.64,0Zm-5.32,0c0-3.72-2.4-5.6-5-5.6s-5,1.88-5,5.6,2.4,5.6,5,5.6S567.6,23.32,567.6,19.6Z" transform="translate(32.53 26.82)"/><path d="M595.15,25.88c0,1.32.08,2.76.16,3.56h-5.08a13.7,13.7,0,0,1-.2-2.28,6.17,6.17,0,0,1-5.52,2.76c-5.6,0-9.6-4.4-9.6-10.36,0-5.76,3.88-10.28,9.44-10.28,3.4,0,5,1.4,5.56,2.44V.48h5.24Zm-10-.72c2.72,0,4.84-2.08,4.84-5.64S587.87,14,585.15,14s-4.88,2-4.88,5.52S582.35,25.16,585.15,25.16Z" transform="translate(32.53 26.82)"/><path d="M617.52,23.8c-1,3.4-4.12,6.24-9,6.24-5.4,0-10.16-3.88-10.16-10.52,0-6.28,4.64-10.36,9.68-10.36,6.08,0,9.72,3.88,9.72,10.2,0,.76-.08,1.56-.08,1.64H603.65a4.79,4.79,0,0,0,5,4.48,4.34,4.34,0,0,0,4.48-3Zm-5-6.44c-.08-2-1.36-3.88-4.4-3.88a4.26,4.26,0,0,0-4.4,3.88Z" transform="translate(32.53 26.82)"/><path d="M621.18,29.44V.48h5.32v29Z" transform="translate(32.53 26.82)"/><path d="M83.34,327.92a10.74,10.74,0,0,1,10.83-11.1c5.88,0,8.91,3.6,9.75,7L100,325.1a5.56,5.56,0,0,0-5.85-4.29c-3.18,0-6.54,2.28-6.54,7.11,0,4.53,3.18,7,6.6,7a5.91,5.91,0,0,0,6-4.35l3.87,1.17A9.67,9.67,0,0,1,94.23,339,10.62,10.62,0,0,1,83.34,327.92Z" transform="translate(32.53 26.82)"/><path d="M106.47,338.54V316.82h4v21.72Z" transform="translate(32.53 26.82)"/><path d="M115.89,316.46a2.46,2.46,0,1,1-2.46,2.49A2.46,2.46,0,0,1,115.89,316.46Zm-2,22.08V323.78h4v14.76Z" transform="translate(32.53 26.82)"/><path d="M134.7,334.31A6.65,6.65,0,0,1,128,339a7.84,7.84,0,0,1-.36-15.66c4.56,0,7.29,2.91,7.29,7.65,0,.57-.06,1.17-.06,1.23H124.29a3.59,3.59,0,0,0,3.72,3.36,3.26,3.26,0,0,0,3.36-2.25ZM131,329.48a3,3,0,0,0-3.3-2.91,3.19,3.19,0,0,0-3.3,2.91Z" transform="translate(32.53 26.82)"/><path d="M141.49,338.54h-4V323.78h3.87v1.83a4.9,4.9,0,0,1,4.26-2.22c3.66,0,5.34,2.61,5.34,5.85v9.3h-4v-8.61c0-1.65-.81-2.94-2.73-2.94a2.78,2.78,0,0,0-2.76,3.06Z" transform="translate(32.53 26.82)"/><path d="M159.27,323.78h3v3.54h-3v6.18c0,1.29.6,1.71,1.74,1.71a5.75,5.75,0,0,0,1.23-.12v3.3a5.91,5.91,0,0,1-2.25.36c-2.88,0-4.68-1.71-4.68-4.56v-6.87h-2.67v-3.54h.75a2.13,2.13,0,0,0,2.28-2.34v-2.07h3.6Z" transform="translate(32.53 26.82)"/><path d="M39.94,375.94V388.3H38V375.94H33.24v-1.82H44.68v1.82Z" transform="translate(32.53 26.82)"/><path d="M48.06,388.3H46.18V373.82h1.88v6A3.4,3.4,0,0,1,51,378.4c2.3,0,3.44,1.66,3.44,3.8v6.1H52.54v-5.78c0-1.34-.56-2.42-2.24-2.42-1.44,0-2.2,1.12-2.24,2.54Z" transform="translate(32.53 26.82)"/><path d="M65.43,385.56a4.36,4.36,0,0,1-4.32,3,5.13,5.13,0,0,1-.24-10.22c3,0,4.62,2,4.62,5a4.21,4.21,0,0,1,0,.6H58.21a2.86,2.86,0,0,0,2.9,2.92,2.62,2.62,0,0,0,2.7-1.94Zm-1.9-3.06A2.42,2.42,0,0,0,60.89,380a2.59,2.59,0,0,0-2.62,2.46Z" transform="translate(32.53 26.82)"/><path d="M72.49,388.3V373.82h1.86V380a3.51,3.51,0,0,1,3.18-1.64c2.92,0,4.42,2.24,4.42,5s-1.62,5.12-4.48,5.12a3.43,3.43,0,0,1-3.12-1.66v1.4Zm4.7-8.24c-1.66,0-2.86,1.3-2.86,3.38s1.2,3.44,2.86,3.44S80,385.52,80,383.44,78.93,380.06,77.19,380.06Z" transform="translate(32.53 26.82)"/><path d="M89.33,380.58a5.86,5.86,0,0,0-.82-.06c-1.58,0-2.64.84-2.64,3v4.82H84v-9.62h1.84v1.68a3,3,0,0,1,2.88-1.84,3.48,3.48,0,0,1,.62.06Z" transform="translate(32.53 26.82)"/><path d="M100,383.48a4.92,4.92,0,1,1-4.92-5.1A4.86,4.86,0,0,1,100,383.48Zm-1.92,0c0-2.22-1.4-3.42-3-3.42s-3,1.2-3,3.42,1.4,3.44,3,3.44S98.1,385.72,98.1,383.48Z" transform="translate(32.53 26.82)"/><path d="M109.21,378.68l2.5,7.24,2.12-7.24h2l-3.12,9.62h-1.94L108.19,381l-2.5,7.32h-2l-3.16-9.62h2.06l2.16,7.24,2.5-7.24Z" transform="translate(32.53 26.82)"/><path d="M118.12,385.2a2.05,2.05,0,0,0,2.24,1.8c1.06,0,1.64-.6,1.64-1.28s-.44-1.06-1.24-1.24l-1.64-.36a2.74,2.74,0,0,1-2.4-2.7,3.28,3.28,0,0,1,3.42-3A3.41,3.41,0,0,1,123.8,381l-1.66.62a1.87,1.87,0,0,0-2-1.6,1.45,1.45,0,0,0-1.6,1.28c0,.58.36,1,1.1,1.16l1.56.34c1.74.38,2.66,1.44,2.66,2.86s-1.14,3-3.52,3c-2.64,0-3.76-1.7-3.92-2.8Z" transform="translate(32.53 26.82)"/><path d="M134.33,385.56a4.36,4.36,0,0,1-4.32,3,5.13,5.13,0,0,1-.24-10.22c3,0,4.62,2,4.62,5a4.21,4.21,0,0,1,0,.6h-7.24a2.86,2.86,0,0,0,2.9,2.92,2.62,2.62,0,0,0,2.7-1.94Zm-1.9-3.06a2.42,2.42,0,0,0-2.64-2.46,2.59,2.59,0,0,0-2.62,2.46Z" transform="translate(32.53 26.82)"/><path d="M141.77,380.58a5.86,5.86,0,0,0-.82-.06c-1.58,0-2.64.84-2.64,3v4.82h-1.88v-9.62h1.84v1.68a3,3,0,0,1,2.88-1.84,3.48,3.48,0,0,1,.62.06Z" transform="translate(32.53 26.82)"/><path d="M157.41,383.48a4.92,4.92,0,1,1-4.92-5.1A4.86,4.86,0,0,1,157.41,383.48Zm-1.92,0c0-2.22-1.4-3.42-3-3.42s-3,1.2-3,3.42,1.4,3.44,3,3.44S155.49,385.72,155.49,383.48Z" transform="translate(32.53 26.82)"/><path d="M161.27,388.3h-1.88v-9.62h1.84v1.38a3.3,3.3,0,0,1,3-1.66c2.3,0,3.44,1.66,3.44,3.8v6.1h-1.88v-5.78c0-1.34-.56-2.42-2.24-2.42-1.48,0-2.24,1.18-2.24,2.64Z" transform="translate(32.53 26.82)"/><path d="M175.56,392.32l2.4-5.08-4.14-8.56H176l3,6.64,2.88-6.64h2l-6.26,13.64Z" transform="translate(32.53 26.82)"/><path d="M194,383.48a4.92,4.92,0,1,1-4.92-5.1A4.86,4.86,0,0,1,194,383.48Zm-1.92,0c0-2.22-1.4-3.42-3-3.42s-3,1.2-3,3.42,1.4,3.44,3,3.44S192.13,385.72,192.13,383.48Z" transform="translate(32.53 26.82)"/><path d="M199.54,388.6a3.56,3.56,0,0,1-3.6-3.86v-6.06h1.88v5.78c0,1.32.6,2.48,2.18,2.48a2.18,2.18,0,0,0,2.28-2.46v-5.8h1.88v7.84a16.18,16.18,0,0,0,.1,1.78h-1.8a8.59,8.59,0,0,1-.08-1.16A3.14,3.14,0,0,1,199.54,388.6Z" transform="translate(32.53 26.82)"/><path d="M212.15,380.58a5.86,5.86,0,0,0-.82-.06c-1.58,0-2.64.84-2.64,3v4.82H206.8v-9.62h1.84v1.68a3,3,0,0,1,2.88-1.84,3.48,3.48,0,0,1,.62.06Z" transform="translate(32.53 26.82)"/><path d="M12,405.48c0,2.2,1.38,3.38,2.94,3.38a2.62,2.62,0,0,0,2.68-2l1.66.72a4.42,4.42,0,0,1-4.34,3,5.12,5.12,0,0,1,0-10.22,4.18,4.18,0,0,1,4.28,3.06l-1.7.72a2.52,2.52,0,0,0-2.58-2C13.45,402.12,12,403.24,12,405.48Z" transform="translate(32.53 26.82)"/><path d="M30.27,405.48a4.92,4.92,0,1,1-4.92-5.1A4.86,4.86,0,0,1,30.27,405.48Zm-1.92,0c0-2.22-1.4-3.42-3-3.42s-3,1.2-3,3.42,1.4,3.44,3,3.44S28.34,407.72,28.34,405.48Z" transform="translate(32.53 26.82)"/><path d="M32.24,410.3v-9.62H34V402A3.32,3.32,0,0,1,37,400.4a3,3,0,0,1,2.88,1.82,3.45,3.45,0,0,1,3.22-1.82c1.68,0,3.32,1.14,3.32,3.66v6.24H44.52v-6a1.94,1.94,0,0,0-2-2.2,2.24,2.24,0,0,0-2.22,2.42v5.82H38.38v-6a1.94,1.94,0,0,0-2-2.2,2.23,2.23,0,0,0-2.24,2.44v5.8Z" transform="translate(32.53 26.82)"/><path d="M48.91,414.1V400.68h1.82v1.5A3.55,3.55,0,0,1,54,400.46c2.88,0,4.42,2.22,4.42,5s-1.66,5.08-4.48,5.08A3.58,3.58,0,0,1,50.77,409v5.1Zm4.7-12c-1.72,0-2.86,1.44-2.86,3.36s1.14,3.4,2.86,3.4,2.84-1.42,2.84-3.4S55.37,402.12,53.61,402.12Z" transform="translate(32.53 26.82)"/><path d="M63.9,410.6a3.56,3.56,0,0,1-3.6-3.86v-6.06h1.88v5.78c0,1.32.6,2.48,2.18,2.48a2.18,2.18,0,0,0,2.28-2.46v-5.8h1.88v7.84a16.18,16.18,0,0,0,.1,1.78h-1.8a8.59,8.59,0,0,1-.08-1.16A3.14,3.14,0,0,1,63.9,410.6Z" transform="translate(32.53 26.82)"/><path d="M73.79,400.68h2.08v1.7H73.79v5c0,.88.36,1.32,1.34,1.32a3.8,3.8,0,0,0,.74-.08v1.6a4.1,4.1,0,0,1-1.28.18,2.5,2.5,0,0,1-2.68-2.74v-5.28H70.07v-1.7h.52a1.35,1.35,0,0,0,1.48-1.48v-1.56h1.72Z" transform="translate(32.53 26.82)"/><path d="M86.08,407.56a4.36,4.36,0,0,1-4.32,3,5.13,5.13,0,0,1-.24-10.22c3,0,4.62,2,4.62,5a4.21,4.21,0,0,1,0,.6H78.86a2.86,2.86,0,0,0,2.9,2.92,2.62,2.62,0,0,0,2.7-1.94Zm-1.9-3.06A2.42,2.42,0,0,0,81.54,402a2.59,2.59,0,0,0-2.62,2.46Z" transform="translate(32.53 26.82)"/><path d="M93.52,402.58a5.86,5.86,0,0,0-.82-.06c-1.58,0-2.64.84-2.64,3v4.82H88.18v-9.62H90v1.68a3,3,0,0,1,2.88-1.84,3.48,3.48,0,0,1,.62.06Z" transform="translate(32.53 26.82)"/><path d="M101,395.68A1.35,1.35,0,1,1,99.7,397,1.35,1.35,0,0,1,101,395.68Zm-.92,14.62v-9.62H102v9.62Z" transform="translate(32.53 26.82)"/><path d="M105.52,407.2a2.05,2.05,0,0,0,2.24,1.8c1.06,0,1.64-.6,1.64-1.28s-.44-1.06-1.24-1.24l-1.64-.36a2.74,2.74,0,0,1-2.4-2.7,3.28,3.28,0,0,1,3.42-3A3.41,3.41,0,0,1,111.2,403l-1.66.62a1.87,1.87,0,0,0-2-1.6,1.45,1.45,0,0,0-1.6,1.28c0,.58.36,1,1.1,1.16l1.56.34c1.74.38,2.66,1.44,2.66,2.86s-1.14,3-3.52,3c-2.64,0-3.76-1.7-3.92-2.8Z" transform="translate(32.53 26.82)"/><path d="M120.88,400.68H123v1.7h-2.08v5c0,.88.36,1.32,1.34,1.32a3.8,3.8,0,0,0,.74-.08v1.6a4.1,4.1,0,0,1-1.28.18,2.5,2.5,0,0,1-2.68-2.74v-5.28h-1.84v-1.7h.52a1.35,1.35,0,0,0,1.48-1.48v-1.56h1.72Z" transform="translate(32.53 26.82)"/><path d="M126.74,410.3h-1.88V395.82h1.88v6a3.4,3.4,0,0,1,2.92-1.4c2.3,0,3.44,1.66,3.44,3.8v6.1h-1.88v-5.78c0-1.34-.56-2.42-2.24-2.42-1.44,0-2.2,1.12-2.24,2.54Z" transform="translate(32.53 26.82)"/><path d="M144.12,407.56a4.36,4.36,0,0,1-4.32,3,5.13,5.13,0,0,1-.24-10.22c3,0,4.62,2,4.62,5a4.21,4.21,0,0,1,0,.6h-7.24a2.86,2.86,0,0,0,2.9,2.92,2.62,2.62,0,0,0,2.7-1.94Zm-1.9-3.06a2.42,2.42,0,0,0-2.64-2.46A2.59,2.59,0,0,0,137,404.5Z" transform="translate(32.53 26.82)"/><path d="M152.29,405.48c0,2.2,1.38,3.38,2.94,3.38a2.62,2.62,0,0,0,2.68-2l1.66.72a4.42,4.42,0,0,1-4.34,3,5.12,5.12,0,0,1,0-10.22,4.18,4.18,0,0,1,4.28,3.06l-1.7.72a2.52,2.52,0,0,0-2.58-2C153.69,402.12,152.29,403.24,152.29,405.48Z" transform="translate(32.53 26.82)"/><path d="M161.33,410.3V395.82h1.88V410.3Z" transform="translate(32.53 26.82)"/><path d="M166.74,395.68A1.35,1.35,0,1,1,165.4,397,1.35,1.35,0,0,1,166.74,395.68Zm-.92,14.62v-9.62h1.86v9.62Z" transform="translate(32.53 26.82)"/><path d="M178.79,407.56a4.36,4.36,0,0,1-4.32,3,5.13,5.13,0,0,1-.24-10.22c3,0,4.62,2,4.62,5a4.21,4.21,0,0,1,0,.6h-7.24a2.86,2.86,0,0,0,2.9,2.92,2.62,2.62,0,0,0,2.7-1.94Zm-1.9-3.06a2.42,2.42,0,0,0-2.64-2.46,2.59,2.59,0,0,0-2.62,2.46Z" transform="translate(32.53 26.82)"/><path d="M182.77,410.3h-1.88v-9.62h1.84v1.38a3.3,3.3,0,0,1,3-1.66c2.3,0,3.44,1.66,3.44,3.8v6.1h-1.88v-5.78c0-1.34-.56-2.42-2.24-2.42-1.48,0-2.24,1.18-2.24,2.64Z" transform="translate(32.53 26.82)"/><path d="M194.19,400.68h2.08v1.7h-2.08v5c0,.88.36,1.32,1.34,1.32a3.8,3.8,0,0,0,.74-.08v1.6a4.1,4.1,0,0,1-1.28.18,2.5,2.5,0,0,1-2.68-2.74v-5.28h-1.84v-1.7H191a1.35,1.35,0,0,0,1.48-1.48v-1.56h1.72Z" transform="translate(32.53 26.82)"/><path d="M205.89,400.68H208v1.7h-2.08v5c0,.88.36,1.32,1.34,1.32a3.8,3.8,0,0,0,.74-.08v1.6a4.1,4.1,0,0,1-1.28.18,2.5,2.5,0,0,1-2.68-2.74v-5.28h-1.84v-1.7h.52a1.35,1.35,0,0,0,1.48-1.48v-1.56h1.72Z" transform="translate(32.53 26.82)"/><path d="M211.76,410.3h-1.88V395.82h1.88v6a3.4,3.4,0,0,1,2.92-1.4c2.3,0,3.44,1.66,3.44,3.8v6.1h-1.88v-5.78c0-1.34-.56-2.42-2.24-2.42-1.44,0-2.2,1.12-2.24,2.54Z" transform="translate(32.53 26.82)"/><path d="M223,404.8l2.6-.38c.58-.08.74-.38.74-.72,0-.94-.62-1.72-2.08-1.72a2,2,0,0,0-2.18,1.94l-1.8-.42a3.71,3.71,0,0,1,3.94-3.12c2.88,0,4,1.64,4,3.52v4.82a9,9,0,0,0,.12,1.58h-1.84a7.05,7.05,0,0,1-.1-1.3,3.51,3.51,0,0,1-3.1,1.6,3,3,0,0,1-3.22-2.88C220.09,406,221.35,405,223,404.8Zm3.34,1.38v-.44l-2.94.44a1.44,1.44,0,0,0-1.4,1.44,1.46,1.46,0,0,0,1.56,1.4A2.52,2.52,0,0,0,226.35,406.18Z" transform="translate(32.53 26.82)"/><path d="M233.28,400.68h2.08v1.7h-2.08v5c0,.88.36,1.32,1.34,1.32a3.8,3.8,0,0,0,.74-.08v1.6a4.1,4.1,0,0,1-1.28.18,2.5,2.5,0,0,1-2.68-2.74v-5.28h-1.84v-1.7h.52a1.35,1.35,0,0,0,1.48-1.48v-1.56h1.72Z" transform="translate(32.53 26.82)"/><path d="M22.8,432.3v-9.62h1.8V424a3.32,3.32,0,0,1,2.92-1.56,3,3,0,0,1,2.88,1.82,3.45,3.45,0,0,1,3.22-1.82c1.68,0,3.32,1.14,3.32,3.66v6.24H35.08v-6a1.94,1.94,0,0,0-2-2.2,2.24,2.24,0,0,0-2.22,2.42v5.82H28.94v-6a1.94,1.94,0,0,0-2-2.2,2.23,2.23,0,0,0-2.24,2.44v5.8Z" transform="translate(32.53 26.82)"/><path d="M41.86,426.8l2.6-.38c.58-.08.74-.38.74-.72,0-.94-.62-1.72-2.08-1.72a2,2,0,0,0-2.18,1.94l-1.8-.42a3.71,3.71,0,0,1,3.94-3.12c2.88,0,4,1.64,4,3.52v4.82a9,9,0,0,0,.12,1.58H45.36a7.05,7.05,0,0,1-.1-1.3,3.51,3.51,0,0,1-3.1,1.6,3,3,0,0,1-3.22-2.88C38.94,428,40.2,427,41.86,426.8Zm3.34,1.38v-.44l-2.94.44a1.44,1.44,0,0,0-1.4,1.44,1.46,1.46,0,0,0,1.56,1.4A2.52,2.52,0,0,0,45.2,428.18Z" transform="translate(32.53 26.82)"/><path d="M54.07,426.74l4.18,5.56H55.89l-3.14-4.24-1.34,1.34v2.9H49.55V417.82h1.86v9.12l4.16-4.26h2.6Z" transform="translate(32.53 26.82)"/><path d="M67.65,429.56a4.36,4.36,0,0,1-4.32,3,5.13,5.13,0,0,1-.24-10.22c3,0,4.62,2,4.62,5a4.21,4.21,0,0,1,0,.6H60.42a2.86,2.86,0,0,0,2.9,2.92A2.62,2.62,0,0,0,66,429Zm-1.9-3.06A2.42,2.42,0,0,0,63.1,424a2.59,2.59,0,0,0-2.62,2.46Z" transform="translate(32.53 26.82)"/><path d="M70.67,429.2a2.05,2.05,0,0,0,2.24,1.8c1.06,0,1.64-.6,1.64-1.28s-.44-1.06-1.24-1.24l-1.64-.36a2.74,2.74,0,0,1-2.4-2.7,3.28,3.28,0,0,1,3.42-3A3.41,3.41,0,0,1,76.35,425l-1.66.62a1.87,1.87,0,0,0-2-1.6,1.45,1.45,0,0,0-1.6,1.28c0,.58.36,1,1.1,1.16l1.56.34c1.74.38,2.66,1.44,2.66,2.86s-1.14,3-3.52,3c-2.64,0-3.76-1.7-3.92-2.8Z" transform="translate(32.53 26.82)"/><path d="M88.85,424.58a5.86,5.86,0,0,0-.82-.06c-1.58,0-2.64.84-2.64,3v4.82H83.51v-9.62h1.84v1.68a3,3,0,0,1,2.88-1.84,3.48,3.48,0,0,1,.62.06Z" transform="translate(32.53 26.82)"/><path d="M98.87,429.56a4.36,4.36,0,0,1-4.32,3,5.13,5.13,0,0,1-.24-10.22c3,0,4.62,2,4.62,5a4.21,4.21,0,0,1,0,.6H91.65a2.86,2.86,0,0,0,2.9,2.92,2.62,2.62,0,0,0,2.7-1.94ZM97,426.5A2.42,2.42,0,0,0,94.33,424a2.59,2.59,0,0,0-2.62,2.46Z" transform="translate(32.53 26.82)"/><path d="M107.89,436.1v-5.16a3.21,3.21,0,0,1-3,1.62c-2.76,0-4.56-2.3-4.56-5.1s1.7-5,4.52-5a3.24,3.24,0,0,1,3.08,1.72v-1.48h1.82V436.1Zm-2.82-5.2c1.7,0,2.84-1.46,2.84-3.44s-1.14-3.36-2.84-3.36-2.82,1.38-2.82,3.36S103.35,430.9,105.07,430.9Z" transform="translate(32.53 26.82)"/><path d="M115.8,432.6a3.56,3.56,0,0,1-3.6-3.86v-6.06h1.88v5.78c0,1.32.6,2.48,2.18,2.48a2.18,2.18,0,0,0,2.28-2.46v-5.8h1.88v7.84a16.18,16.18,0,0,0,.1,1.78h-1.8a8.59,8.59,0,0,1-.08-1.16A3.14,3.14,0,0,1,115.8,432.6Z" transform="translate(32.53 26.82)"/><path d="M131.55,429.56a4.36,4.36,0,0,1-4.32,3,5.13,5.13,0,0,1-.24-10.22c3,0,4.62,2,4.62,5a4.21,4.21,0,0,1,0,.6h-7.24a2.86,2.86,0,0,0,2.9,2.92,2.62,2.62,0,0,0,2.7-1.94Zm-1.9-3.06A2.42,2.42,0,0,0,127,424a2.59,2.59,0,0,0-2.62,2.46Z" transform="translate(32.53 26.82)"/><path d="M134.58,429.2a2.05,2.05,0,0,0,2.24,1.8c1.06,0,1.64-.6,1.64-1.28s-.44-1.06-1.24-1.24l-1.64-.36a2.74,2.74,0,0,1-2.4-2.7,3.28,3.28,0,0,1,3.42-3,3.41,3.41,0,0,1,3.66,2.58l-1.66.62a1.87,1.87,0,0,0-2-1.6,1.45,1.45,0,0,0-1.6,1.28c0,.58.36,1,1.1,1.16l1.56.34c1.74.38,2.66,1.44,2.66,2.86s-1.14,3-3.52,3c-2.64,0-3.76-1.7-3.92-2.8Z" transform="translate(32.53 26.82)"/><path d="M145.18,422.68h2.08v1.7h-2.08v5c0,.88.36,1.32,1.34,1.32a3.8,3.8,0,0,0,.74-.08v1.6a4.1,4.1,0,0,1-1.28.18,2.5,2.5,0,0,1-2.68-2.74v-5.28h-1.84v-1.7H142a1.35,1.35,0,0,0,1.48-1.48v-1.56h1.72Z" transform="translate(32.53 26.82)"/><path d="M150.24,429.2a2.05,2.05,0,0,0,2.24,1.8c1.06,0,1.64-.6,1.64-1.28s-.44-1.06-1.24-1.24l-1.64-.36a2.74,2.74,0,0,1-2.4-2.7,3.28,3.28,0,0,1,3.42-3,3.41,3.41,0,0,1,3.66,2.58l-1.66.62a1.87,1.87,0,0,0-2-1.6,1.45,1.45,0,0,0-1.6,1.28c0,.58.36,1,1.1,1.16l1.56.34c1.74.38,2.66,1.44,2.66,2.86s-1.14,3-3.52,3c-2.64,0-3.76-1.7-3.92-2.8Z" transform="translate(32.53 26.82)"/><path d="M165.6,422.68h2.08v1.7H165.6v5c0,.88.36,1.32,1.34,1.32a3.8,3.8,0,0,0,.74-.08v1.6a4.1,4.1,0,0,1-1.28.18,2.5,2.5,0,0,1-2.68-2.74v-5.28h-1.84v-1.7h.52a1.35,1.35,0,0,0,1.48-1.48v-1.56h1.72Z" transform="translate(32.53 26.82)"/><path d="M178.55,427.48a4.92,4.92,0,1,1-4.92-5.1A4.86,4.86,0,0,1,178.55,427.48Zm-1.92,0c0-2.22-1.4-3.42-3-3.42s-3,1.2-3,3.42,1.4,3.44,3,3.44S176.63,429.72,176.63,427.48Z" transform="translate(32.53 26.82)"/><path d="M190,432.3H188l-3.9-9.62h2.12L189,430.1l2.76-7.42h2Z" transform="translate(32.53 26.82)"/><path d="M196.16,417.68a1.35,1.35,0,1,1-1.34,1.36A1.35,1.35,0,0,1,196.16,417.68Zm-.92,14.62v-9.62h1.86v9.62Z" transform="translate(32.53 26.82)"/><path d="M208.2,429.56a4.36,4.36,0,0,1-4.32,3,5.13,5.13,0,0,1-.24-10.22c3,0,4.62,2,4.62,5a4.21,4.21,0,0,1,0,.6H201a2.86,2.86,0,0,0,2.9,2.92,2.62,2.62,0,0,0,2.7-1.94Zm-1.9-3.06a2.42,2.42,0,0,0-2.64-2.46A2.59,2.59,0,0,0,201,426.5Z" transform="translate(32.53 26.82)"/><path d="M217.49,422.68l2.5,7.24,2.12-7.24h2L221,432.3H219L216.47,425,214,432.3h-2l-3.16-9.62h2.06l2.16,7.24,2.5-7.24Z" transform="translate(32.53 26.82)"/><path d="M90.9,444.68l2.5,7.24,2.12-7.24h2l-3.12,9.62H92.44L89.88,447l-2.5,7.32h-2l-3.16-9.62h2.06l2.16,7.24,2.5-7.24Z" transform="translate(32.53 26.82)"/><path d="M107.22,451.56a4.36,4.36,0,0,1-4.32,3,5.13,5.13,0,0,1-.24-10.22c3,0,4.62,2,4.62,5a4.21,4.21,0,0,1,0,.6H100a2.86,2.86,0,0,0,2.9,2.92,2.62,2.62,0,0,0,2.7-1.94Zm-1.9-3.06a2.42,2.42,0,0,0-2.64-2.46,2.59,2.59,0,0,0-2.62,2.46Z" transform="translate(32.53 26.82)"/><path d="M109.31,454.3V439.82h1.86V446a3.51,3.51,0,0,1,3.18-1.64c2.92,0,4.42,2.24,4.42,5s-1.62,5.12-4.48,5.12a3.43,3.43,0,0,1-3.12-1.66v1.4Zm4.7-8.24c-1.66,0-2.86,1.3-2.86,3.38s1.2,3.44,2.86,3.44,2.84-1.36,2.84-3.44S115.76,446.06,114,446.06Z" transform="translate(32.53 26.82)"/><path d="M121.68,451.2a2.05,2.05,0,0,0,2.24,1.8c1.06,0,1.64-.6,1.64-1.28s-.44-1.06-1.24-1.24l-1.64-.36a2.74,2.74,0,0,1-2.4-2.7,3.28,3.28,0,0,1,3.42-3,3.41,3.41,0,0,1,3.66,2.58l-1.66.62a1.87,1.87,0,0,0-2-1.6,1.45,1.45,0,0,0-1.6,1.28c0,.58.36,1,1.1,1.16l1.56.34c1.74.38,2.66,1.44,2.66,2.86s-1.14,3-3.52,3c-2.64,0-3.76-1.7-3.92-2.8Z" transform="translate(32.53 26.82)"/><path d="M130.34,439.68A1.35,1.35,0,1,1,129,441,1.35,1.35,0,0,1,130.34,439.68Zm-.92,14.62v-9.62h1.86v9.62Z" transform="translate(32.53 26.82)"/><path d="M136.52,444.68h2.08v1.7h-2.08v5c0,.88.36,1.32,1.34,1.32a3.8,3.8,0,0,0,.74-.08v1.6a4.1,4.1,0,0,1-1.28.18,2.5,2.5,0,0,1-2.68-2.74v-5.28H132.8v-1.7h.52a1.35,1.35,0,0,0,1.48-1.48v-1.56h1.72Z" transform="translate(32.53 26.82)"/><path d="M148.82,451.56a4.36,4.36,0,0,1-4.32,3,5.13,5.13,0,0,1-.24-10.22c3,0,4.62,2,4.62,5a4.21,4.21,0,0,1,0,.6H141.6a2.86,2.86,0,0,0,2.9,2.92,2.62,2.62,0,0,0,2.7-1.94Zm-1.9-3.06a2.42,2.42,0,0,0-2.64-2.46,2.59,2.59,0,0,0-2.62,2.46Z" transform="translate(32.53 26.82)"/><path d="M151.85,451.2a2.05,2.05,0,0,0,2.24,1.8c1.06,0,1.64-.6,1.64-1.28s-.44-1.06-1.24-1.24l-1.64-.36a2.74,2.74,0,0,1-2.4-2.7,3.28,3.28,0,0,1,3.42-3,3.41,3.41,0,0,1,3.66,2.58l-1.66.62a1.87,1.87,0,0,0-2-1.6,1.45,1.45,0,0,0-1.6,1.28c0,.58.36,1,1.1,1.16l1.56.34c1.74.38,2.66,1.44,2.66,2.86s-1.14,3-3.52,3c-2.64,0-3.76-1.7-3.92-2.8Z" transform="translate(32.53 26.82)"/><path d="M160.85,451.62a1.39,1.39,0,0,1,1.4,1.4,1.37,1.37,0,0,1-1.4,1.38,1.36,1.36,0,0,1-1.38-1.38A1.37,1.37,0,0,1,160.85,451.62Z" transform="translate(32.53 26.82)"/><path d="M113.26,359.39v-1.64h19.06v1.64Z" transform="translate(32.53 26.82)"/><path d="M769.64,359.39v-1.64H788.7v1.64Z" transform="translate(32.53 26.82)"/><path d="M676.6,375.94V388.3h-2V375.94H669.9v-1.82h11.44v1.82Z" transform="translate(32.53 26.82)"/><path d="M684.72,388.3h-1.88V373.82h1.88v6a3.4,3.4,0,0,1,2.92-1.4c2.3,0,3.44,1.66,3.44,3.8v6.1H689.2v-5.78c0-1.34-.56-2.42-2.24-2.42-1.44,0-2.2,1.12-2.24,2.54Z" transform="translate(32.53 26.82)"/><path d="M702.09,385.56a4.36,4.36,0,0,1-4.32,3,5.13,5.13,0,0,1-.24-10.22c3,0,4.62,2,4.62,5a4.29,4.29,0,0,1,0,.6h-7.24a2.86,2.86,0,0,0,2.9,2.92,2.62,2.62,0,0,0,2.7-1.94Zm-1.9-3.06a2.42,2.42,0,0,0-2.64-2.46,2.59,2.59,0,0,0-2.62,2.46Z" transform="translate(32.53 26.82)"/><path d="M706.06,388.3h-1.88v-9.62H706v1.38a3.3,3.3,0,0,1,3-1.66c2.3,0,3.44,1.66,3.44,3.8v6.1h-1.88v-5.78c0-1.34-.56-2.42-2.24-2.42-1.48,0-2.24,1.18-2.24,2.64Z" transform="translate(32.53 26.82)"/><path d="M716.21,385.68a1.67,1.67,0,0,1,1.62,1.9,3.6,3.6,0,0,1-3,3.9v-1a2.27,2.27,0,0,0,1.66-2.16.89.89,0,0,1-.44.1,1.29,1.29,0,0,1-1.34-1.36A1.4,1.4,0,0,1,716.21,385.68Z" transform="translate(32.53 26.82)"/><path d="M727.75,382.8l2.6-.38c.58-.08.74-.38.74-.72,0-.94-.62-1.72-2.08-1.72a2,2,0,0,0-2.18,1.94l-1.8-.42a3.71,3.71,0,0,1,3.94-3.12c2.88,0,4,1.64,4,3.52v4.82a9,9,0,0,0,.12,1.58h-1.84a7.05,7.05,0,0,1-.1-1.3,3.51,3.51,0,0,1-3.1,1.6,3,3,0,0,1-3.22-2.88C724.83,384,726.09,383,727.75,382.8Zm3.34,1.38v-.44l-2.94.44a1.44,1.44,0,0,0-1.4,1.44,1.46,1.46,0,0,0,1.56,1.4A2.52,2.52,0,0,0,731.09,384.18Z" transform="translate(32.53 26.82)"/><path d="M741.29,385.2a2.05,2.05,0,0,0,2.24,1.8c1.06,0,1.64-.6,1.64-1.28s-.44-1.06-1.24-1.24l-1.64-.36a2.74,2.74,0,0,1-2.4-2.7,3.28,3.28,0,0,1,3.42-3A3.41,3.41,0,0,1,747,381l-1.66.62a1.87,1.87,0,0,0-2-1.6,1.45,1.45,0,0,0-1.6,1.28c0,.58.36,1,1.1,1.16l1.56.34c1.74.38,2.66,1.44,2.66,2.86s-1.14,3-3.52,3c-2.64,0-3.76-1.7-3.92-2.8Z" transform="translate(32.53 26.82)"/><path d="M749.07,392.1V378.68h1.82v1.5a3.55,3.55,0,0,1,3.22-1.72c2.88,0,4.42,2.22,4.42,5s-1.66,5.08-4.48,5.08a3.58,3.58,0,0,1-3.12-1.56v5.1Zm4.7-12c-1.72,0-2.86,1.44-2.86,3.36s1.14,3.4,2.86,3.4,2.84-1.42,2.84-3.4S755.53,380.12,753.77,380.12Z" transform="translate(32.53 26.82)"/><path d="M769.1,385.56a4.36,4.36,0,0,1-4.32,3,5.13,5.13,0,0,1-.24-10.22c3,0,4.62,2,4.62,5a4.14,4.14,0,0,1,0,.6h-7.24a2.86,2.86,0,0,0,2.9,2.92,2.62,2.62,0,0,0,2.7-1.94Zm-1.9-3.06a2.42,2.42,0,0,0-2.64-2.46,2.59,2.59,0,0,0-2.62,2.46Z" transform="translate(32.53 26.82)"/><path d="M772.42,383.48c0,2.2,1.38,3.38,2.94,3.38a2.61,2.61,0,0,0,2.68-2l1.66.72a4.42,4.42,0,0,1-4.34,3,5.12,5.12,0,0,1,0-10.22,4.18,4.18,0,0,1,4.28,3.06l-1.7.72a2.52,2.52,0,0,0-2.58-2C773.82,380.12,772.42,381.24,772.42,383.48Z" transform="translate(32.53 26.82)"/><path d="M782.39,373.68A1.35,1.35,0,1,1,781,375,1.35,1.35,0,0,1,782.39,373.68Zm-.92,14.62v-9.62h1.86v9.62Z" transform="translate(32.53 26.82)"/><path d="M788.28,382.8l2.6-.38c.58-.08.74-.38.74-.72,0-.94-.62-1.72-2.08-1.72a2,2,0,0,0-2.18,1.94l-1.8-.42a3.71,3.71,0,0,1,3.94-3.12c2.88,0,4,1.64,4,3.52v4.82a9,9,0,0,0,.12,1.58h-1.84a7.05,7.05,0,0,1-.1-1.3,3.51,3.51,0,0,1-3.1,1.6,3,3,0,0,1-3.22-2.88C785.36,384,786.62,383,788.28,382.8Zm3.34,1.38v-.44l-2.94.44a1.44,1.44,0,0,0-1.4,1.44,1.46,1.46,0,0,0,1.56,1.4A2.52,2.52,0,0,0,791.62,384.18Z" transform="translate(32.53 26.82)"/><path d="M796,388.3V373.82h1.88V388.3Z" transform="translate(32.53 26.82)"/><path d="M806.76,383.48c0,2.2,1.38,3.38,2.94,3.38a2.62,2.62,0,0,0,2.68-2l1.66.72a4.42,4.42,0,0,1-4.34,3,5.12,5.12,0,0,1,0-10.22,4.19,4.19,0,0,1,4.28,3.06l-1.7.72a2.52,2.52,0,0,0-2.58-2C808.16,380.12,806.76,381.24,806.76,383.48Z" transform="translate(32.53 26.82)"/><path d="M825,383.48a4.92,4.92,0,1,1-4.92-5.1A4.86,4.86,0,0,1,825,383.48Zm-1.92,0c0-2.22-1.4-3.42-3-3.42s-3,1.2-3,3.42,1.4,3.44,3,3.44S823.06,385.72,823.06,383.48Z" transform="translate(32.53 26.82)"/><path d="M827,388.3v-9.62h1.8V380a3.32,3.32,0,0,1,2.92-1.56,3,3,0,0,1,2.88,1.82,3.45,3.45,0,0,1,3.22-1.82c1.68,0,3.32,1.14,3.32,3.66v6.24h-1.86v-6a1.94,1.94,0,0,0-2-2.2,2.24,2.24,0,0,0-2.22,2.42v5.82H833.1v-6a1.94,1.94,0,0,0-2-2.2,2.23,2.23,0,0,0-2.24,2.44v5.8Z" transform="translate(32.53 26.82)"/><path d="M843.63,392.1V378.68h1.82v1.5a3.55,3.55,0,0,1,3.22-1.72c2.88,0,4.42,2.22,4.42,5s-1.66,5.08-4.48,5.08a3.58,3.58,0,0,1-3.12-1.56v5.1Zm4.7-12c-1.72,0-2.86,1.44-2.86,3.36s1.14,3.4,2.86,3.4,2.84-1.42,2.84-3.4S850.09,380.12,848.33,380.12Z" transform="translate(32.53 26.82)"/><path d="M858.61,388.6a3.56,3.56,0,0,1-3.6-3.86v-6.06h1.88v5.78c0,1.32.6,2.48,2.18,2.48a2.18,2.18,0,0,0,2.28-2.46v-5.8h1.88v7.84a16.15,16.15,0,0,0,.1,1.78h-1.8a8.5,8.5,0,0,1-.08-1.16A3.14,3.14,0,0,1,858.61,388.6Z" transform="translate(32.53 26.82)"/><path d="M868.5,378.68h2.08v1.7H868.5v5c0,.88.36,1.32,1.34,1.32a3.79,3.79,0,0,0,.74-.08v1.6a4.09,4.09,0,0,1-1.28.18,2.5,2.5,0,0,1-2.68-2.74v-5.28h-1.84v-1.7h.52a1.35,1.35,0,0,0,1.48-1.48v-1.56h1.72Z" transform="translate(32.53 26.82)"/><path d="M880.8,385.56a4.36,4.36,0,0,1-4.32,3,5.13,5.13,0,0,1-.24-10.22c3,0,4.62,2,4.62,5a4.29,4.29,0,0,1,0,.6h-7.24a2.86,2.86,0,0,0,2.9,2.92,2.62,2.62,0,0,0,2.7-1.94Zm-1.9-3.06a2.42,2.42,0,0,0-2.64-2.46,2.59,2.59,0,0,0-2.62,2.46Z" transform="translate(32.53 26.82)"/><path d="M888.23,380.58a5.85,5.85,0,0,0-.82-.06c-1.58,0-2.64.84-2.64,3v4.82h-1.88v-9.62h1.84v1.68a3,3,0,0,1,2.88-1.84,3.46,3.46,0,0,1,.62.06Z" transform="translate(32.53 26.82)"/><path d="M684.1,400.68h2.08v1.7H684.1v5c0,.88.36,1.32,1.34,1.32a3.8,3.8,0,0,0,.74-.08v1.6a4.11,4.11,0,0,1-1.28.18,2.5,2.5,0,0,1-2.68-2.74v-5.28h-1.84v-1.7h.52a1.35,1.35,0,0,0,1.48-1.48v-1.56h1.72Z" transform="translate(32.53 26.82)"/><path d="M690,410.3h-1.88V395.82H690v6a3.4,3.4,0,0,1,2.92-1.4c2.3,0,3.44,1.66,3.44,3.8v6.1h-1.88v-5.78c0-1.34-.56-2.42-2.24-2.42-1.44,0-2.2,1.12-2.24,2.54Z" transform="translate(32.53 26.82)"/><path d="M701.22,404.8l2.6-.38c.58-.08.74-.38.74-.72,0-.94-.62-1.72-2.08-1.72a2,2,0,0,0-2.18,1.94l-1.8-.42a3.71,3.71,0,0,1,3.94-3.12c2.88,0,4,1.64,4,3.52v4.82a9,9,0,0,0,.12,1.58h-1.84a7.05,7.05,0,0,1-.1-1.3,3.51,3.51,0,0,1-3.1,1.6,3,3,0,0,1-3.22-2.88C698.3,406,699.56,405,701.22,404.8Zm3.34,1.38v-.44l-2.94.44a1.44,1.44,0,0,0-1.4,1.44,1.46,1.46,0,0,0,1.56,1.4A2.52,2.52,0,0,0,704.56,406.18Z" transform="translate(32.53 26.82)"/><path d="M711.48,400.68h2.08v1.7h-2.08v5c0,.88.36,1.32,1.34,1.32a3.8,3.8,0,0,0,.74-.08v1.6a4.11,4.11,0,0,1-1.28.18,2.5,2.5,0,0,1-2.68-2.74v-5.28h-1.84v-1.7h.52a1.35,1.35,0,0,0,1.48-1.48v-1.56h1.72Z" transform="translate(32.53 26.82)"/><path d="M722.54,410.3h-1.88V395.82h1.88v6a3.4,3.4,0,0,1,2.92-1.4c2.3,0,3.44,1.66,3.44,3.8v6.1H727v-5.78c0-1.34-.56-2.42-2.24-2.42-1.44,0-2.2,1.12-2.24,2.54Z" transform="translate(32.53 26.82)"/><path d="M740.59,405.48a4.92,4.92,0,1,1-4.92-5.1A4.86,4.86,0,0,1,740.59,405.48Zm-1.92,0c0-2.22-1.4-3.42-3-3.42s-3,1.2-3,3.42,1.4,3.44,3,3.44S738.67,407.72,738.67,405.48Z" transform="translate(32.53 26.82)"/><path d="M742.58,410.3V395.82h1.88V410.3Z" transform="translate(32.53 26.82)"/><path d="M754,408.84a3.22,3.22,0,0,1-3,1.72c-2.82,0-4.56-2.24-4.56-5.1s1.84-5,4.56-5A3,3,0,0,1,754,402v-6.22h1.86v12.7a15.05,15.05,0,0,0,.1,1.78h-1.82a8,8,0,0,1-.1-1.3Zm-2.8.06c1.72,0,2.78-1.5,2.78-3.48s-1-3.34-2.76-3.34-2.84,1.4-2.84,3.38S749.41,408.9,751.21,408.9Z" transform="translate(32.53 26.82)"/><path d="M759.4,407.2a2.05,2.05,0,0,0,2.24,1.8c1.06,0,1.64-.6,1.64-1.28s-.44-1.06-1.24-1.24l-1.64-.36a2.74,2.74,0,0,1-2.4-2.7,3.28,3.28,0,0,1,3.42-3,3.41,3.41,0,0,1,3.66,2.58l-1.66.62a1.87,1.87,0,0,0-2-1.6,1.45,1.45,0,0,0-1.6,1.28c0,.58.36,1,1.1,1.16l1.56.34c1.74.38,2.66,1.44,2.66,2.86s-1.14,3-3.52,3c-2.64,0-3.76-1.7-3.92-2.8Z" transform="translate(32.53 26.82)"/><path d="M779.6,400.68l2.5,7.24,2.12-7.24h2l-3.12,9.62h-1.94L778.58,403l-2.5,7.32h-2l-3.16-9.62H773l2.16,7.24,2.5-7.24Z" transform="translate(32.53 26.82)"/><path d="M795.93,407.56a4.36,4.36,0,0,1-4.32,3,5.13,5.13,0,0,1-.24-10.22c3,0,4.62,2,4.62,5a4.14,4.14,0,0,1,0,.6H788.7a2.86,2.86,0,0,0,2.9,2.92,2.62,2.62,0,0,0,2.7-1.94ZM794,404.5a2.42,2.42,0,0,0-2.64-2.46,2.59,2.59,0,0,0-2.62,2.46Z" transform="translate(32.53 26.82)"/><path d="M798,410.3V395.82h1.86V402a3.51,3.51,0,0,1,3.18-1.64c2.92,0,4.42,2.24,4.42,5s-1.62,5.12-4.48,5.12a3.43,3.43,0,0,1-3.12-1.66v1.4Zm4.7-8.24c-1.66,0-2.86,1.3-2.86,3.38s1.2,3.44,2.86,3.44,2.84-1.36,2.84-3.44S804.46,402.06,802.72,402.06Z" transform="translate(32.53 26.82)"/><path d="M810.39,407.2a2.05,2.05,0,0,0,2.24,1.8c1.06,0,1.64-.6,1.64-1.28s-.44-1.06-1.24-1.24l-1.64-.36a2.74,2.74,0,0,1-2.4-2.7,3.28,3.28,0,0,1,3.42-3,3.41,3.41,0,0,1,3.66,2.58l-1.66.62a1.87,1.87,0,0,0-2-1.6,1.45,1.45,0,0,0-1.6,1.28c0,.58.36,1,1.1,1.16l1.56.34c1.74.38,2.66,1.44,2.66,2.86s-1.14,3-3.52,3c-2.64,0-3.76-1.7-3.92-2.8Z" transform="translate(32.53 26.82)"/><path d="M819,395.68A1.35,1.35,0,1,1,817.7,397,1.35,1.35,0,0,1,819,395.68Zm-.92,14.62v-9.62H820v9.62Z" transform="translate(32.53 26.82)"/><path d="M825.23,400.68h2.08v1.7h-2.08v5c0,.88.36,1.32,1.34,1.32a3.8,3.8,0,0,0,.74-.08v1.6a4.11,4.11,0,0,1-1.28.18,2.5,2.5,0,0,1-2.68-2.74v-5.28h-1.84v-1.7H822a1.35,1.35,0,0,0,1.48-1.48v-1.56h1.72Z" transform="translate(32.53 26.82)"/><path d="M837.52,407.56a4.36,4.36,0,0,1-4.32,3,5.13,5.13,0,0,1-.24-10.22c3,0,4.62,2,4.62,5a4.14,4.14,0,0,1,0,.6H830.3a2.86,2.86,0,0,0,2.9,2.92,2.62,2.62,0,0,0,2.7-1.94Zm-1.9-3.06A2.42,2.42,0,0,0,833,402a2.59,2.59,0,0,0-2.62,2.46Z" transform="translate(32.53 26.82)"/><path d="M847.1,402.38v7.92h-1.94v-7.92h-1.78v-1.7h1.78v-1.62a3.05,3.05,0,0,1,3.16-3.3,2.42,2.42,0,0,1,1.12.2v1.68a2.17,2.17,0,0,0-.82-.12,1.44,1.44,0,0,0-1.52,1.64v1.52h2.32v1.7Z" transform="translate(32.53 26.82)"/><path d="M852.11,395.68a1.35,1.35,0,1,1-1.34,1.36A1.35,1.35,0,0,1,852.11,395.68Zm-.92,14.62v-9.62h1.86v9.62Z" transform="translate(32.53 26.82)"/><path d="M855.66,410.3V395.82h1.88V410.3Z" transform="translate(32.53 26.82)"/><path d="M868.69,407.56a4.36,4.36,0,0,1-4.32,3,5.13,5.13,0,0,1-.24-10.22c3,0,4.62,2,4.62,5a4.14,4.14,0,0,1,0,.6h-7.24a2.86,2.86,0,0,0,2.9,2.92,2.62,2.62,0,0,0,2.7-1.94Zm-1.9-3.06a2.42,2.42,0,0,0-2.64-2.46,2.59,2.59,0,0,0-2.62,2.46Z" transform="translate(32.53 26.82)"/><path d="M871.72,407.2A2.05,2.05,0,0,0,874,409c1.06,0,1.64-.6,1.64-1.28s-.44-1.06-1.24-1.24l-1.64-.36a2.74,2.74,0,0,1-2.4-2.7,3.28,3.28,0,0,1,3.42-3A3.41,3.41,0,0,1,877.4,403l-1.66.62a1.87,1.87,0,0,0-2-1.6,1.45,1.45,0,0,0-1.6,1.28c0,.58.36,1,1.1,1.16l1.56.34c1.74.38,2.66,1.44,2.66,2.86s-1.14,3-3.52,3c-2.64,0-3.76-1.7-3.92-2.8Z" transform="translate(32.53 26.82)"/><path d="M708.39,427.48c0,2.2,1.38,3.38,2.94,3.38a2.61,2.61,0,0,0,2.68-2l1.66.72a4.42,4.42,0,0,1-4.34,3,5.12,5.12,0,0,1,0-10.22,4.18,4.18,0,0,1,4.28,3.06l-1.7.72a2.52,2.52,0,0,0-2.58-2C709.79,424.12,708.39,425.24,708.39,427.48Z" transform="translate(32.53 26.82)"/><path d="M719.94,426.8l2.6-.38c.58-.08.74-.38.74-.72,0-.94-.62-1.72-2.08-1.72a2,2,0,0,0-2.18,1.94l-1.8-.42a3.71,3.71,0,0,1,3.94-3.12c2.88,0,4,1.64,4,3.52v4.82a9,9,0,0,0,.12,1.58h-1.84a7.05,7.05,0,0,1-.1-1.3,3.51,3.51,0,0,1-3.1,1.6,3,3,0,0,1-3.22-2.88C717,428,718.28,427,719.94,426.8Zm3.34,1.38v-.44l-2.94.44a1.44,1.44,0,0,0-1.4,1.44,1.46,1.46,0,0,0,1.56,1.4A2.52,2.52,0,0,0,723.28,428.18Z" transform="translate(32.53 26.82)"/><path d="M727.62,432.3V417.82h1.88V432.3Z" transform="translate(32.53 26.82)"/><path d="M732.1,432.3V417.82H734V432.3Z" transform="translate(32.53 26.82)"/><path d="M745.13,429.56a4.36,4.36,0,0,1-4.32,3,5.13,5.13,0,0,1-.24-10.22c3,0,4.62,2,4.62,5a4.29,4.29,0,0,1,0,.6h-7.24a2.86,2.86,0,0,0,2.9,2.92,2.62,2.62,0,0,0,2.7-1.94Zm-1.9-3.06a2.42,2.42,0,0,0-2.64-2.46A2.59,2.59,0,0,0,738,426.5Z" transform="translate(32.53 26.82)"/><path d="M754.12,430.84a3.22,3.22,0,0,1-3,1.72c-2.82,0-4.56-2.24-4.56-5.1s1.84-5,4.56-5a3,3,0,0,1,2.94,1.62v-6.22h1.86v12.7a15.39,15.39,0,0,0,.1,1.78h-1.82a8.06,8.06,0,0,1-.1-1.3Zm-2.8.06c1.72,0,2.78-1.5,2.78-3.48s-1-3.34-2.76-3.34-2.84,1.4-2.84,3.38S749.52,430.9,751.32,430.9Z" transform="translate(32.53 26.82)"/><path d="M766.84,422.46h2v2.36h-2v4.12c0,.86.4,1.14,1.16,1.14a3.86,3.86,0,0,0,.82-.08v2.2a4,4,0,0,1-1.5.24,2.85,2.85,0,0,1-3.12-3v-4.58h-1.78v-2.36h.5a1.42,1.42,0,0,0,1.52-1.56v-1.38h2.4Z" transform="translate(32.53 26.82)"/><path d="M773.36,432.3H770.7V417.82h2.66v5.46A3.51,3.51,0,0,1,776,422.2c2.5,0,3.66,1.74,3.66,3.9v6.2H777v-5.74a1.73,1.73,0,0,0-1.82-2,1.84,1.84,0,0,0-1.84,1.92Z" transform="translate(32.53 26.82)"/><path d="M790.9,429.48a4.43,4.43,0,0,1-4.48,3.12,5.23,5.23,0,0,1-.24-10.44c3,0,4.86,1.94,4.86,5.1,0,.38,0,.78,0,.82h-7a2.4,2.4,0,0,0,2.48,2.24,2.17,2.17,0,0,0,2.24-1.5Zm-2.48-3.22a2,2,0,0,0-2.2-1.94,2.13,2.13,0,0,0-2.2,1.94Z" transform="translate(32.53 26.82)"/><path d="M799.12,429.06a1.64,1.64,0,0,0,1.8,1.5c.88,0,1.3-.46,1.3-1s-.3-.8-1.06-1l-1.3-.3c-1.9-.42-2.76-1.56-2.76-2.94a3.43,3.43,0,0,1,3.68-3.22c2.8,0,3.74,1.78,3.86,2.84l-2.22.5a1.5,1.5,0,0,0-1.62-1.32,1.13,1.13,0,0,0-1.26,1c0,.48.36.78.9.88l1.4.3c1.94.4,2.92,1.58,2.92,3,0,1.6-1.24,3.24-3.82,3.24-3,0-4-1.92-4.1-3Z" transform="translate(32.53 26.82)"/><path d="M815.4,429.48a4.43,4.43,0,0,1-4.48,3.12,5.23,5.23,0,0,1-.24-10.44c3,0,4.86,1.94,4.86,5.1,0,.38,0,.78,0,.82h-7a2.4,2.4,0,0,0,2.48,2.24,2.17,2.17,0,0,0,2.24-1.5Zm-2.48-3.22a2,2,0,0,0-2.2-1.94,2.13,2.13,0,0,0-2.2,1.94Z" transform="translate(32.53 26.82)"/><path d="M823.33,425.1a4,4,0,0,0-.8-.08c-1.36,0-2.54.66-2.54,2.78v4.5h-2.66v-9.84h2.58v1.46a2.93,2.93,0,0,1,2.8-1.54,5.93,5.93,0,0,1,.62,0Z" transform="translate(32.53 26.82)"/><path d="M830.74,432.3h-2.66l-4-9.84H827l2.44,6.6,2.34-6.6h2.8Z" transform="translate(32.53 26.82)"/><path d="M844.34,429.48a4.43,4.43,0,0,1-4.48,3.12,5.23,5.23,0,0,1-.24-10.44c3,0,4.86,1.94,4.86,5.1,0,.38,0,.78,0,.82h-7a2.4,2.4,0,0,0,2.48,2.24,2.17,2.17,0,0,0,2.24-1.5Zm-2.48-3.22a2,2,0,0,0-2.2-1.94,2.13,2.13,0,0,0-2.2,1.94Z" transform="translate(32.53 26.82)"/><path d="M852.27,425.1a4,4,0,0,0-.8-.08c-1.36,0-2.54.66-2.54,2.78v4.5h-2.66v-9.84h2.58v1.46a2.93,2.93,0,0,1,2.8-1.54,5.93,5.93,0,0,1,.62,0Z" transform="translate(32.53 26.82)"/><path d="M680.22,446.58a5.85,5.85,0,0,0-.82-.06c-1.58,0-2.64.84-2.64,3v4.82h-1.88v-9.62h1.84v1.68a3,3,0,0,1,2.88-1.84,3.46,3.46,0,0,1,.62.06Z" transform="translate(32.53 26.82)"/><path d="M690.24,451.56a4.36,4.36,0,0,1-4.32,3,5.13,5.13,0,0,1-.24-10.22c3,0,4.62,2,4.62,5a4.29,4.29,0,0,1,0,.6H683a2.86,2.86,0,0,0,2.9,2.92,2.62,2.62,0,0,0,2.7-1.94Zm-1.9-3.06a2.42,2.42,0,0,0-2.64-2.46,2.59,2.59,0,0,0-2.62,2.46Z" transform="translate(32.53 26.82)"/><path d="M693.26,451.2a2.05,2.05,0,0,0,2.24,1.8c1.06,0,1.64-.6,1.64-1.28s-.44-1.06-1.24-1.24l-1.64-.36a2.74,2.74,0,0,1-2.4-2.7,3.28,3.28,0,0,1,3.42-3,3.41,3.41,0,0,1,3.66,2.58l-1.66.62a1.87,1.87,0,0,0-2-1.6,1.45,1.45,0,0,0-1.6,1.28c0,.58.36,1,1.1,1.16l1.56.34c1.74.38,2.66,1.44,2.66,2.86s-1.14,3-3.52,3c-2.64,0-3.76-1.7-3.92-2.8Z" transform="translate(32.53 26.82)"/><path d="M701,458.1V444.68h1.82v1.5a3.55,3.55,0,0,1,3.22-1.72c2.88,0,4.42,2.22,4.42,5s-1.66,5.08-4.48,5.08a3.58,3.58,0,0,1-3.12-1.56v5.1Zm4.7-12c-1.72,0-2.86,1.44-2.86,3.36s1.14,3.4,2.86,3.4,2.84-1.42,2.84-3.4S707.51,446.12,705.75,446.12Z" transform="translate(32.53 26.82)"/><path d="M721.7,449.48a4.92,4.92,0,1,1-4.92-5.1A4.86,4.86,0,0,1,721.7,449.48Zm-1.92,0c0-2.22-1.4-3.42-3-3.42s-3,1.2-3,3.42,1.4,3.44,3,3.44S719.78,451.72,719.78,449.48Z" transform="translate(32.53 26.82)"/><path d="M725.55,454.3h-1.88v-9.62h1.84v1.38a3.3,3.3,0,0,1,3-1.66c2.3,0,3.44,1.66,3.44,3.8v6.1H730v-5.78c0-1.34-.56-2.42-2.24-2.42-1.48,0-2.24,1.18-2.24,2.64Z" transform="translate(32.53 26.82)"/><path d="M741.3,452.84a3.22,3.22,0,0,1-3,1.72c-2.82,0-4.56-2.24-4.56-5.1s1.84-5,4.56-5a3,3,0,0,1,2.94,1.62v-6.22h1.86v12.7a15.39,15.39,0,0,0,.1,1.78H741.4a8.06,8.06,0,0,1-.1-1.3Zm-2.8.06c1.72,0,2.78-1.5,2.78-3.48s-1-3.34-2.76-3.34-2.84,1.4-2.84,3.38S736.7,452.9,738.5,452.9Z" transform="translate(32.53 26.82)"/><path d="M746.69,451.2a2.05,2.05,0,0,0,2.24,1.8c1.06,0,1.64-.6,1.64-1.28s-.44-1.06-1.24-1.24l-1.64-.36a2.74,2.74,0,0,1-2.4-2.7,3.28,3.28,0,0,1,3.42-3,3.41,3.41,0,0,1,3.66,2.58l-1.66.62a1.87,1.87,0,0,0-2-1.6,1.45,1.45,0,0,0-1.6,1.28c0,.58.36,1,1.1,1.16l1.56.34c1.74.38,2.66,1.44,2.66,2.86s-1.14,3-3.52,3c-2.64,0-3.76-1.7-3.92-2.8Z" transform="translate(32.53 26.82)"/><path d="M759.53,454.3V439.82h1.86V446a3.51,3.51,0,0,1,3.18-1.64c2.92,0,4.42,2.24,4.42,5s-1.62,5.12-4.48,5.12a3.43,3.43,0,0,1-3.12-1.66v1.4Zm4.7-8.24c-1.66,0-2.86,1.3-2.86,3.38s1.2,3.44,2.86,3.44,2.84-1.36,2.84-3.44S766,446.06,764.23,446.06Z" transform="translate(32.53 26.82)"/><path d="M771.09,458.32l2.4-5.08-4.14-8.56h2.16l3,6.64,2.88-6.64h2l-6.26,13.64Z" transform="translate(32.53 26.82)"/><path d="M786.61,451.2a2.05,2.05,0,0,0,2.24,1.8c1.06,0,1.64-.6,1.64-1.28s-.44-1.06-1.24-1.24l-1.64-.36a2.74,2.74,0,0,1-2.4-2.7,3.28,3.28,0,0,1,3.42-3,3.41,3.41,0,0,1,3.66,2.58l-1.66.62a1.87,1.87,0,0,0-2-1.6,1.45,1.45,0,0,0-1.6,1.28c0,.58.36,1,1.1,1.16l1.56.34c1.74.38,2.66,1.44,2.66,2.86s-1.14,3-3.52,3c-2.64,0-3.76-1.7-3.92-2.8Z" transform="translate(32.53 26.82)"/><path d="M802.83,451.56a4.36,4.36,0,0,1-4.32,3,5.13,5.13,0,0,1-.24-10.22c3,0,4.62,2,4.62,5a4.29,4.29,0,0,1,0,.6h-7.24a2.86,2.86,0,0,0,2.9,2.92,2.62,2.62,0,0,0,2.7-1.94Zm-1.9-3.06a2.42,2.42,0,0,0-2.64-2.46,2.59,2.59,0,0,0-2.62,2.46Z" transform="translate(32.53 26.82)"/><path d="M806.8,454.3h-1.88v-9.62h1.84v1.38a3.29,3.29,0,0,1,3-1.66c2.3,0,3.44,1.66,3.44,3.8v6.1h-1.88v-5.78c0-1.34-.56-2.42-2.24-2.42-1.48,0-2.24,1.18-2.24,2.64Z" transform="translate(32.53 26.82)"/><path d="M822.55,452.84a3.22,3.22,0,0,1-3,1.72c-2.82,0-4.56-2.24-4.56-5.1s1.84-5,4.56-5a3,3,0,0,1,2.94,1.62v-6.22h1.86v12.7a15.05,15.05,0,0,0,.1,1.78h-1.82a8,8,0,0,1-.1-1.3Zm-2.8.06c1.72,0,2.78-1.5,2.78-3.48s-1-3.34-2.76-3.34-2.84,1.4-2.84,3.38S817.95,452.9,819.75,452.9Z" transform="translate(32.53 26.82)"/><path d="M827.92,439.68a1.35,1.35,0,1,1-1.34,1.36A1.35,1.35,0,0,1,827.92,439.68ZM827,454.3v-9.62h1.86v9.62Z" transform="translate(32.53 26.82)"/><path d="M833.36,454.3h-1.88v-9.62h1.84v1.38a3.29,3.29,0,0,1,3-1.66c2.3,0,3.44,1.66,3.44,3.8v6.1h-1.88v-5.78c0-1.34-.56-2.42-2.24-2.42-1.48,0-2.24,1.18-2.24,2.64Z" transform="translate(32.53 26.82)"/><path d="M843.4,454.4a2.56,2.56,0,0,0,2.62,2.36c2,0,2.94-1,2.94-3.12v-1.38a3.2,3.2,0,0,1-2.94,1.58,4.68,4.68,0,0,1,0-9.34,3,3,0,0,1,3,1.52v-1.34h1.86v8.9c0,2.44-1.2,4.82-4.82,4.82a4.21,4.21,0,0,1-4.44-3.58Zm5.64-5.22a2.78,2.78,0,1,0-5.52,0c0,1.88,1.08,3.08,2.78,3.08A2.77,2.77,0,0,0,849,449.18Z" transform="translate(32.53 26.82)"/><path d="M861,444.68H863v1.7H861v5c0,.88.36,1.32,1.34,1.32a3.79,3.79,0,0,0,.74-.08v1.6a4.09,4.09,0,0,1-1.28.18,2.5,2.5,0,0,1-2.68-2.74v-5.28h-1.84v-1.7h.52a1.35,1.35,0,0,0,1.48-1.48v-1.56H861Z" transform="translate(32.53 26.82)"/><path d="M866.82,454.3h-1.88V439.82h1.88v6a3.4,3.4,0,0,1,2.92-1.4c2.3,0,3.44,1.66,3.44,3.8v6.1h-1.88v-5.78c0-1.34-.56-2.42-2.24-2.42-1.44,0-2.2,1.12-2.24,2.54Z" transform="translate(32.53 26.82)"/><path d="M884.2,451.56a4.36,4.36,0,0,1-4.32,3,5.13,5.13,0,0,1-.24-10.22c3,0,4.62,2,4.62,5a4.14,4.14,0,0,1,0,.6H877a2.86,2.86,0,0,0,2.9,2.92,2.62,2.62,0,0,0,2.7-1.94Zm-1.9-3.06a2.42,2.42,0,0,0-2.64-2.46A2.59,2.59,0,0,0,877,448.5Z" transform="translate(32.53 26.82)"/><path d="M675.52,471.48c0,2.2,1.38,3.38,2.94,3.38a2.62,2.62,0,0,0,2.68-2l1.66.72a4.42,4.42,0,0,1-4.34,3,5.12,5.12,0,0,1,0-10.22,4.19,4.19,0,0,1,4.28,3.06l-1.7.72a2.52,2.52,0,0,0-2.58-2C676.92,468.12,675.52,469.24,675.52,471.48Z" transform="translate(32.53 26.82)"/><path d="M693.74,471.48a4.92,4.92,0,1,1-4.92-5.1A4.86,4.86,0,0,1,693.74,471.48Zm-1.92,0c0-2.22-1.4-3.42-3-3.42s-3,1.2-3,3.42,1.4,3.44,3,3.44S691.81,473.72,691.81,471.48Z" transform="translate(32.53 26.82)"/><path d="M701.05,468.58a5.85,5.85,0,0,0-.82-.06c-1.58,0-2.64.84-2.64,3v4.82h-1.88v-9.62h1.84v1.68a3,3,0,0,1,2.88-1.84,3.46,3.46,0,0,1,.62.06Z" transform="translate(32.53 26.82)"/><path d="M707.93,468.58a5.85,5.85,0,0,0-.82-.06c-1.58,0-2.64.84-2.64,3v4.82h-1.88v-9.62h1.84v1.68a3,3,0,0,1,2.88-1.84,3.46,3.46,0,0,1,.62.06Z" transform="translate(32.53 26.82)"/><path d="M717.94,473.56a4.36,4.36,0,0,1-4.32,3,5.13,5.13,0,0,1-.24-10.22c3,0,4.62,2,4.62,5a4.29,4.29,0,0,1,0,.6h-7.24a2.86,2.86,0,0,0,2.9,2.92,2.62,2.62,0,0,0,2.7-1.94ZM716,470.5A2.42,2.42,0,0,0,713.4,468a2.59,2.59,0,0,0-2.62,2.46Z" transform="translate(32.53 26.82)"/><path d="M721,473.2a2.05,2.05,0,0,0,2.24,1.8c1.06,0,1.64-.6,1.64-1.28s-.44-1.06-1.24-1.24l-1.64-.36a2.74,2.74,0,0,1-2.4-2.7,3.28,3.28,0,0,1,3.42-3,3.41,3.41,0,0,1,3.66,2.58l-1.66.62a1.87,1.87,0,0,0-2-1.6,1.45,1.45,0,0,0-1.6,1.28c0,.58.36,1,1.1,1.16l1.56.34c1.74.38,2.66,1.44,2.66,2.86s-1.14,3-3.52,3c-2.64,0-3.76-1.7-3.92-2.8Z" transform="translate(32.53 26.82)"/><path d="M728.76,480.1V466.68h1.82v1.5a3.55,3.55,0,0,1,3.22-1.72c2.88,0,4.42,2.22,4.42,5s-1.66,5.08-4.48,5.08a3.58,3.58,0,0,1-3.12-1.56v5.1Zm4.7-12c-1.72,0-2.86,1.44-2.86,3.36s1.14,3.4,2.86,3.4,2.84-1.42,2.84-3.4S735.22,468.12,733.46,468.12Z" transform="translate(32.53 26.82)"/><path d="M749.41,471.48a4.92,4.92,0,1,1-4.92-5.1A4.86,4.86,0,0,1,749.41,471.48Zm-1.92,0c0-2.22-1.4-3.42-3-3.42s-3,1.2-3,3.42,1.4,3.44,3,3.44S747.49,473.72,747.49,471.48Z" transform="translate(32.53 26.82)"/><path d="M753.26,476.3h-1.88v-9.62h1.84v1.38a3.3,3.3,0,0,1,3-1.66c2.3,0,3.44,1.66,3.44,3.8v6.1h-1.88v-5.78c0-1.34-.56-2.42-2.24-2.42-1.48,0-2.24,1.18-2.24,2.64Z" transform="translate(32.53 26.82)"/><path d="M769,474.84a3.22,3.22,0,0,1-3,1.72c-2.82,0-4.56-2.24-4.56-5.1s1.84-5,4.56-5A3,3,0,0,1,769,468v-6.22h1.86v12.7a15.39,15.39,0,0,0,.1,1.78h-1.82a8.06,8.06,0,0,1-.1-1.3Zm-2.8.06c1.72,0,2.78-1.5,2.78-3.48s-1-3.34-2.76-3.34-2.84,1.4-2.84,3.38S764.41,474.9,766.21,474.9Z" transform="translate(32.53 26.82)"/><path d="M774.38,461.68A1.35,1.35,0,1,1,773,463,1.35,1.35,0,0,1,774.38,461.68Zm-.92,14.62v-9.62h1.86v9.62Z" transform="translate(32.53 26.82)"/><path d="M779.82,476.3h-1.88v-9.62h1.84v1.38a3.29,3.29,0,0,1,3-1.66c2.3,0,3.44,1.66,3.44,3.8v6.1H784.3v-5.78c0-1.34-.56-2.42-2.24-2.42-1.48,0-2.24,1.18-2.24,2.64Z" transform="translate(32.53 26.82)"/><path d="M789.86,476.4a2.56,2.56,0,0,0,2.62,2.36c2,0,2.94-1,2.94-3.12v-1.38a3.2,3.2,0,0,1-2.94,1.58,4.68,4.68,0,0,1,0-9.34,3,3,0,0,1,3,1.52v-1.34h1.86v8.9c0,2.44-1.2,4.82-4.82,4.82a4.21,4.21,0,0,1-4.44-3.58Zm5.64-5.22a2.78,2.78,0,1,0-5.52,0c0,1.88,1.08,3.08,2.78,3.08A2.77,2.77,0,0,0,795.5,471.18Z" transform="translate(32.53 26.82)"/><path d="M807.42,468.38v7.92h-1.94v-7.92H803.7v-1.7h1.78v-1.62a3.05,3.05,0,0,1,3.16-3.3,2.42,2.42,0,0,1,1.12.2v1.68a2.17,2.17,0,0,0-.82-.12,1.44,1.44,0,0,0-1.52,1.64v1.52h2.32v1.7Z" transform="translate(32.53 26.82)"/><path d="M812.43,461.68a1.35,1.35,0,1,1-1.34,1.36A1.35,1.35,0,0,1,812.43,461.68Zm-.92,14.62v-9.62h1.86v9.62Z" transform="translate(32.53 26.82)"/><path d="M816,476.3V461.82h1.88V476.3Z" transform="translate(32.53 26.82)"/><path d="M829,473.56a4.36,4.36,0,0,1-4.32,3,5.13,5.13,0,0,1-.24-10.22c3,0,4.62,2,4.62,5a4.29,4.29,0,0,1,0,.6h-7.24a2.86,2.86,0,0,0,2.9,2.92,2.62,2.62,0,0,0,2.7-1.94Zm-1.9-3.06a2.42,2.42,0,0,0-2.64-2.46,2.59,2.59,0,0,0-2.62,2.46Z" transform="translate(32.53 26.82)"/><path d="M832,473.2a2.05,2.05,0,0,0,2.24,1.8c1.06,0,1.64-.6,1.64-1.28s-.44-1.06-1.24-1.24l-1.64-.36a2.74,2.74,0,0,1-2.4-2.7,3.28,3.28,0,0,1,3.42-3,3.41,3.41,0,0,1,3.66,2.58l-1.66.62a1.87,1.87,0,0,0-2-1.6,1.45,1.45,0,0,0-1.6,1.28c0,.58.36,1,1.1,1.16l1.56.34c1.74.38,2.66,1.44,2.66,2.86s-1.14,3-3.52,3c-2.64,0-3.76-1.7-3.92-2.8Z" transform="translate(32.53 26.82)"/><path d="M844.87,476.3V461.82h1.86V468a3.51,3.51,0,0,1,3.18-1.64c2.92,0,4.42,2.24,4.42,5s-1.62,5.12-4.48,5.12a3.43,3.43,0,0,1-3.12-1.66v1.4Zm4.7-8.24c-1.66,0-2.86,1.3-2.86,3.38s1.2,3.44,2.86,3.44,2.84-1.36,2.84-3.44S851.32,468.06,849.58,468.06Z" transform="translate(32.53 26.82)"/><path d="M858.66,470.8l2.6-.38c.58-.08.74-.38.74-.72,0-.94-.62-1.72-2.08-1.72a2,2,0,0,0-2.18,1.94l-1.8-.42a3.71,3.71,0,0,1,3.94-3.12c2.88,0,4,1.64,4,3.52v4.82a9,9,0,0,0,.12,1.58h-1.84a7.05,7.05,0,0,1-.1-1.3,3.51,3.51,0,0,1-3.1,1.6,3,3,0,0,1-3.22-2.88C855.74,472,857,471,858.66,470.8Zm3.34,1.38v-.44l-2.94.44a1.44,1.44,0,0,0-1.4,1.44,1.46,1.46,0,0,0,1.56,1.4A2.52,2.52,0,0,0,862,472.18Z" transform="translate(32.53 26.82)"/><path d="M867.59,471.48c0,2.2,1.38,3.38,2.94,3.38a2.61,2.61,0,0,0,2.68-2l1.66.72a4.42,4.42,0,0,1-4.34,3,5.12,5.12,0,0,1,0-10.22,4.18,4.18,0,0,1,4.28,3.06l-1.7.72a2.52,2.52,0,0,0-2.58-2C869,468.12,867.59,469.24,867.59,471.48Z" transform="translate(32.53 26.82)"/><path d="M881.16,470.74l4.18,5.56H883l-3.14-4.24-1.34,1.34v2.9h-1.86V461.82h1.86v9.12l4.16-4.26h2.6Z" transform="translate(32.53 26.82)"/><path d="M729.28,488.68h2.08v1.7h-2.08v5c0,.88.36,1.32,1.34,1.32a3.8,3.8,0,0,0,.74-.08v1.6a4.11,4.11,0,0,1-1.28.18,2.5,2.5,0,0,1-2.68-2.74v-5.28h-1.84v-1.7h.52a1.35,1.35,0,0,0,1.48-1.48v-1.56h1.72Z" transform="translate(32.53 26.82)"/><path d="M742.23,493.48a4.92,4.92,0,1,1-4.92-5.1A4.86,4.86,0,0,1,742.23,493.48Zm-1.92,0c0-2.22-1.4-3.42-3-3.42s-3,1.2-3,3.42,1.4,3.44,3,3.44S740.31,495.72,740.31,493.48Z" transform="translate(32.53 26.82)"/><path d="M751.75,488.68h2.08v1.7h-2.08v5c0,.88.36,1.32,1.34,1.32a3.79,3.79,0,0,0,.74-.08v1.6a4.09,4.09,0,0,1-1.28.18,2.5,2.5,0,0,1-2.68-2.74v-5.28H748v-1.7h.52A1.35,1.35,0,0,0,750,487.2v-1.56h1.72Z" transform="translate(32.53 26.82)"/><path d="M757.62,498.3h-1.88V483.82h1.88v6a3.4,3.4,0,0,1,2.92-1.4c2.3,0,3.44,1.66,3.44,3.8v6.1H762.1v-5.78c0-1.34-.56-2.42-2.24-2.42-1.44,0-2.2,1.12-2.24,2.54Z" transform="translate(32.53 26.82)"/><path d="M775,495.56a4.36,4.36,0,0,1-4.32,3,5.13,5.13,0,0,1-.24-10.22c3,0,4.62,2,4.62,5a4.14,4.14,0,0,1,0,.6h-7.24a2.86,2.86,0,0,0,2.9,2.92,2.62,2.62,0,0,0,2.7-1.94Zm-1.9-3.06a2.42,2.42,0,0,0-2.64-2.46,2.59,2.59,0,0,0-2.62,2.46Z" transform="translate(32.53 26.82)"/><path d="M783.17,493.48c0,2.2,1.38,3.38,2.94,3.38a2.61,2.61,0,0,0,2.68-2l1.66.72a4.42,4.42,0,0,1-4.34,3,5.12,5.12,0,0,1,0-10.22,4.18,4.18,0,0,1,4.28,3.06l-1.7.72a2.52,2.52,0,0,0-2.58-2C784.57,490.12,783.17,491.24,783.17,493.48Z" transform="translate(32.53 26.82)"/><path d="M792.21,498.3V483.82h1.88V498.3Z" transform="translate(32.53 26.82)"/><path d="M797.62,483.68a1.35,1.35,0,1,1-1.34,1.36A1.35,1.35,0,0,1,797.62,483.68Zm-.92,14.62v-9.62h1.86v9.62Z" transform="translate(32.53 26.82)"/><path d="M809.67,495.56a4.36,4.36,0,0,1-4.32,3,5.13,5.13,0,0,1-.24-10.22c3,0,4.62,2,4.62,5a4.29,4.29,0,0,1,0,.6h-7.24a2.86,2.86,0,0,0,2.9,2.92A2.62,2.62,0,0,0,808,495Zm-1.9-3.06a2.42,2.42,0,0,0-2.64-2.46,2.59,2.59,0,0,0-2.62,2.46Z" transform="translate(32.53 26.82)"/><path d="M813.64,498.3h-1.88v-9.62h1.84v1.38a3.29,3.29,0,0,1,3-1.66c2.3,0,3.44,1.66,3.44,3.8v6.1h-1.88v-5.78c0-1.34-.56-2.42-2.24-2.42-1.48,0-2.24,1.18-2.24,2.64Z" transform="translate(32.53 26.82)"/><path d="M825.07,488.68h2.08v1.7h-2.08v5c0,.88.36,1.32,1.34,1.32a3.8,3.8,0,0,0,.74-.08v1.6a4.11,4.11,0,0,1-1.28.18,2.5,2.5,0,0,1-2.68-2.74v-5.28h-1.84v-1.7h.52a1.35,1.35,0,0,0,1.48-1.48v-1.56h1.72Z" transform="translate(32.53 26.82)"/><path d="M830.37,495.62a1.39,1.39,0,0,1,1.4,1.4,1.37,1.37,0,0,1-1.4,1.38A1.36,1.36,0,0,1,829,497,1.38,1.38,0,0,1,830.37,495.62Z" transform="translate(32.53 26.82)"/><path d="M747.4,323.48a3.63,3.63,0,0,0-3.87-3c-2,0-3.33,1.29-3.33,2.7,0,1.17.75,2.1,2.31,2.4l3,.57c3.87.75,5.94,3.27,5.94,6.27,0,3.27-2.73,6.57-7.68,6.57-5.64,0-8.13-3.63-8.46-6.66l3.84-1a4.27,4.27,0,0,0,4.65,4c2.22,0,3.45-1.11,3.45-2.61,0-1.23-.93-2.19-2.58-2.52l-3-.6c-3.39-.69-5.58-2.88-5.58-6.09,0-3.78,3.39-6.66,7.41-6.66,5.16,0,7.14,3.12,7.62,5.52Z" transform="translate(32.53 26.82)"/><path d="M767.44,334.31a6.65,6.65,0,0,1-6.72,4.68,7.84,7.84,0,0,1-.36-15.66c4.56,0,7.29,2.91,7.29,7.65,0,.57-.06,1.17-.06,1.23H757a3.59,3.59,0,0,0,3.72,3.36,3.26,3.26,0,0,0,3.36-2.25Zm-3.72-4.83a3,3,0,0,0-3.3-2.91,3.19,3.19,0,0,0-3.3,2.91Z" transform="translate(32.53 26.82)"/><path d="M779.5,327.74a6,6,0,0,0-1.2-.12c-2,0-3.81,1-3.81,4.17v6.75h-4V323.78h3.87V326a4.39,4.39,0,0,1,4.2-2.31,9,9,0,0,1,.93.06Z" transform="translate(32.53 26.82)"/><path d="M790.65,338.54h-4l-6-14.76H785l3.66,9.9,3.51-9.9h4.2Z" transform="translate(32.53 26.82)"/><path d="M811.29,334.31a6.65,6.65,0,0,1-6.72,4.68,7.84,7.84,0,0,1-.36-15.66c4.56,0,7.29,2.91,7.29,7.65,0,.57-.06,1.17-.06,1.23H800.89a3.59,3.59,0,0,0,3.72,3.36,3.26,3.26,0,0,0,3.36-2.25Zm-3.72-4.83a3,3,0,0,0-3.3-2.91,3.19,3.19,0,0,0-3.3,2.91Z" transform="translate(32.53 26.82)"/><path d="M823.35,327.74a6,6,0,0,0-1.2-.12c-2,0-3.81,1-3.81,4.17v6.75h-4V323.78h3.87V326a4.39,4.39,0,0,1,4.2-2.31,9,9,0,0,1,.93.06Z" transform="translate(32.53 26.82)"/><path d="M267.08,185.64a8.84,8.84,0,1,1,8.84-8.84A8.85,8.85,0,0,1,267.08,185.64Zm0-14.67a5.84,5.84,0,1,0,5.84,5.84A5.84,5.84,0,0,0,267.08,171Z" transform="translate(32.53 26.82)"/><path d="M299.87,185.64a8.84,8.84,0,1,1,8.84-8.84A8.85,8.85,0,0,1,299.87,185.64Zm0-14.67a5.84,5.84,0,1,0,5.84,5.84A5.84,5.84,0,0,0,299.87,171Z" transform="translate(32.53 26.82)"/><path d="M332.66,185.64a8.84,8.84,0,1,1,8.84-8.84A8.85,8.85,0,0,1,332.66,185.64Zm0-14.67a5.84,5.84,0,1,0,5.84,5.84A5.84,5.84,0,0,0,332.66,171Z" transform="translate(32.53 26.82)"/><path d="M365.46,185.64a8.84,8.84,0,1,1,8.84-8.84A8.85,8.85,0,0,1,365.46,185.64Zm0-14.67a5.84,5.84,0,1,0,5.84,5.84A5.84,5.84,0,0,0,365.46,171Z" transform="translate(32.53 26.82)"/><path d="M398.25,185.64a8.84,8.84,0,1,1,8.84-8.84A8.85,8.85,0,0,1,398.25,185.64Zm0-14.67a5.84,5.84,0,1,0,5.84,5.84A5.84,5.84,0,0,0,398.25,171Z" transform="translate(32.53 26.82)"/><path d="M431,185.64a8.84,8.84,0,1,1,8.84-8.84A8.85,8.85,0,0,1,431,185.64ZM431,171a5.84,5.84,0,1,0,5.84,5.84A5.84,5.84,0,0,0,431,171Z" transform="translate(32.53 26.82)"/><path d="M463.83,185.64a8.84,8.84,0,1,1,8.84-8.84A8.85,8.85,0,0,1,463.83,185.64Zm0-14.67a5.84,5.84,0,1,0,5.84,5.84A5.84,5.84,0,0,0,463.83,171Z" transform="translate(32.53 26.82)"/><path d="M496.62,185.64a8.84,8.84,0,1,1,8.84-8.84A8.85,8.85,0,0,1,496.62,185.64Zm0-14.67a5.84,5.84,0,1,0,5.84,5.84A5.84,5.84,0,0,0,496.62,171Z" transform="translate(32.53 26.82)"/><path d="M529.42,185.64a8.84,8.84,0,1,1,8.84-8.84A8.85,8.85,0,0,1,529.42,185.64Zm0-14.67a5.84,5.84,0,1,0,5.84,5.84A5.84,5.84,0,0,0,529.42,171Z" transform="translate(32.53 26.82)"/><path d="M562.21,185.64A8.84,8.84,0,1,1,571,176.8,8.85,8.85,0,0,1,562.21,185.64Zm0-14.67A5.84,5.84,0,1,0,568,176.8,5.84,5.84,0,0,0,562.21,171Z" transform="translate(32.53 26.82)"/><path d="M595,185.64a8.84,8.84,0,1,1,8.84-8.84A8.85,8.85,0,0,1,595,185.64ZM595,171a5.84,5.84,0,1,0,5.84,5.84A5.84,5.84,0,0,0,595,171Z" transform="translate(32.53 26.82)"/><path d="M627.79,185.64a8.84,8.84,0,1,1,8.84-8.84A8.85,8.85,0,0,1,627.79,185.64Zm0-14.67a5.84,5.84,0,1,0,5.84,5.84A5.84,5.84,0,0,0,627.79,171Z" transform="translate(32.53 26.82)"/><path d="M267.08,255.64a8.84,8.84,0,1,1,8.84-8.84A8.85,8.85,0,0,1,267.08,255.64Zm0-14.67a5.84,5.84,0,1,0,5.84,5.84A5.84,5.84,0,0,0,267.08,241Z" transform="translate(32.53 26.82)"/><path d="M299.87,255.64a8.84,8.84,0,1,1,8.84-8.84A8.85,8.85,0,0,1,299.87,255.64Zm0-14.67a5.84,5.84,0,1,0,5.84,5.84A5.84,5.84,0,0,0,299.87,241Z" transform="translate(32.53 26.82)"/><path d="M332.66,255.64a8.84,8.84,0,1,1,8.84-8.84A8.85,8.85,0,0,1,332.66,255.64Zm0-14.67a5.84,5.84,0,1,0,5.84,5.84A5.84,5.84,0,0,0,332.66,241Z" transform="translate(32.53 26.82)"/><path d="M365.46,255.64a8.84,8.84,0,1,1,8.84-8.84A8.85,8.85,0,0,1,365.46,255.64Zm0-14.67a5.84,5.84,0,1,0,5.84,5.84A5.84,5.84,0,0,0,365.46,241Z" transform="translate(32.53 26.82)"/><path d="M398.25,255.64a8.84,8.84,0,1,1,8.84-8.84A8.85,8.85,0,0,1,398.25,255.64Zm0-14.67a5.84,5.84,0,1,0,5.84,5.84A5.84,5.84,0,0,0,398.25,241Z" transform="translate(32.53 26.82)"/><path d="M431,255.64a8.84,8.84,0,1,1,8.84-8.84A8.85,8.85,0,0,1,431,255.64ZM431,241a5.84,5.84,0,1,0,5.84,5.84A5.84,5.84,0,0,0,431,241Z" transform="translate(32.53 26.82)"/><path d="M463.83,255.64a8.84,8.84,0,1,1,8.84-8.84A8.85,8.85,0,0,1,463.83,255.64Zm0-14.67a5.84,5.84,0,1,0,5.84,5.84A5.84,5.84,0,0,0,463.83,241Z" transform="translate(32.53 26.82)"/><path d="M496.62,255.64a8.84,8.84,0,1,1,8.84-8.84A8.85,8.85,0,0,1,496.62,255.64Zm0-14.67a5.84,5.84,0,1,0,5.84,5.84A5.84,5.84,0,0,0,496.62,241Z" transform="translate(32.53 26.82)"/><path d="M529.42,255.64a8.84,8.84,0,1,1,8.84-8.84A8.85,8.85,0,0,1,529.42,255.64Zm0-14.67a5.84,5.84,0,1,0,5.84,5.84A5.84,5.84,0,0,0,529.42,241Z" transform="translate(32.53 26.82)"/><path d="M562.21,255.64A8.84,8.84,0,1,1,571,246.8,8.85,8.85,0,0,1,562.21,255.64Zm0-14.67A5.84,5.84,0,1,0,568,246.8,5.84,5.84,0,0,0,562.21,241Z" transform="translate(32.53 26.82)"/><path d="M595,255.64a8.84,8.84,0,1,1,8.84-8.84A8.85,8.85,0,0,1,595,255.64ZM595,241a5.84,5.84,0,1,0,5.84,5.84A5.84,5.84,0,0,0,595,241Z" transform="translate(32.53 26.82)"/><path d="M627.79,255.64a8.84,8.84,0,1,1,8.84-8.84A8.85,8.85,0,0,1,627.79,255.64Zm0-14.67a5.84,5.84,0,1,0,5.84,5.84A5.84,5.84,0,0,0,627.79,241Z" transform="translate(32.53 26.82)"/><path class="cls-2" d="M35,274.6H208.81c4.12,0,6.24-2.2,6.24-6.32V164c0-4.11-2.13-8.86-6.24-8.86H35c-4.12,0-8.12,4.75-8.12,8.86V268.28C26.88,272.4,30.88,274.6,35,274.6Z" transform="translate(32.53 26.82)"/><path d="M208.81,276.1H35c-4.78,0-9.62-2.68-9.62-7.82V164c0-4.66,4.44-10.36,9.62-10.36H208.81c5,0,7.74,5.34,7.74,10.36V268.28C216.56,273.25,213.73,276.1,208.81,276.1ZM35,156.64c-3.1,0-6.62,3.92-6.62,7.36V268.28c0,3.16,3.33,4.82,6.62,4.82H208.81c3.28,0,4.74-1.49,4.74-4.82V164c0-3.06-1.47-7.36-4.74-7.36Z" transform="translate(32.53 26.82)"/><rect class="cls-3" x="66.26" y="191.33" width="174.67" height="100.24"/><path d="M209.91,266.25H32.23V163H209.91Zm-174.67-3H206.91V166H35.23Z" transform="translate(32.53 26.82)"/><path class="cls-3" d="M240,280.2v-5.74H1.5v5.74s.93,6,8.1,6H234.13C241.3,286.17,240,280.2,240,280.2Z" transform="translate(32.53 26.82)"/><path d="M234.13,287.67H9.6c-6.69,0-9.19-4.74-9.58-7.24l0-.23V273H241.49v7.11a6.84,6.84,0,0,1-1.22,5.2C239,286.86,236.92,287.67,234.13,287.67ZM3,280.06c.16.78,1.22,4.61,6.6,4.61H234.13c1.84,0,3.11-.43,3.8-1.28a3.93,3.93,0,0,0,.59-2.87l0-.32V276H3Z" transform="translate(32.53 26.82)"/><path class="cls-3" d="M128.29,301.8h50a0,0,0,0,1,0,0v0a5.34,5.34,0,0,1-5.34,5.34h-39.3a5.34,5.34,0,0,1-5.34-5.34v0a0,0,0,0,1,0,0Z"/><path d="M140.4,281.82H101.1A6.84,6.84,0,0,1,94.26,275a1.5,1.5,0,0,1,1.5-1.5h50a1.5,1.5,0,0,1,1.5,1.5A6.84,6.84,0,0,1,140.4,281.82Zm-42.83-5.34a3.84,3.84,0,0,0,3.53,2.34h39.3a3.84,3.84,0,0,0,3.53-2.34Z" transform="translate(32.53 26.82)"/><path class="cls-4" d="M162.7,216.18a19.33,19.33,0,0,0-28.14-13,21,21,0,0,0-39.18,2.94c-6.92.23-12.46,5.42-12.46,11.81a10.74,10.74,0,0,0,.16,1.8c0,.09-.09.17-.13.26a10.28,10.28,0,0,0-7.49,9.91c0,5.45,2,11.24,7.45,11.24h75.17A12.8,12.8,0,0,0,171,228.53,13.4,13.4,0,0,0,162.7,216.18Z" transform="translate(32.53 26.82)"/><path class="cls-5" d="M158.09,242.18H82.92c-5.52,0-8.95-4.78-8.95-12.49a11.42,11.42,0,0,1,7.5-10.77c0-.33,0-.64,0-1,0-6.88,5.56-12.51,12.85-13.24a22.54,22.54,0,0,1,40.95-3.51A20.83,20.83,0,0,1,164,215.09a14.66,14.66,0,0,1,8.53,13.2C172.51,236.08,166.18,242.18,158.09,242.18Zm-42.56-49.51A19.69,19.69,0,0,0,96.82,206.6l-.31,1-1.08,0c-6.17.2-11,4.73-11,10.31a9.22,9.22,0,0,0,.14,1.55l.08.44-.18.41-.1.2-.28.71-.76.2a8.53,8.53,0,0,0-6.35,8.2c0,2.23.43,9.49,5.95,9.49h75.16c6.41,0,11.43-4.78,11.43-10.89a11.57,11.57,0,0,0-7.34-10.7l-.77-.29-.17-.81a17.83,17.83,0,0,0-26-12l-1.39.76-.68-1.43A19.67,19.67,0,0,0,115.52,192.67Z" transform="translate(32.53 26.82)"/><rect class="cls-6" x="700.47" y="181.9" width="224.68" height="34.98"/><path class="cls-5" d="M892.63,191.56H667.94a1.5,1.5,0,0,1-1.5-1.5v-35a1.5,1.5,0,0,1,1.5-1.5H892.63a1.5,1.5,0,0,1,1.5,1.5v35A1.5,1.5,0,0,1,892.63,191.56Zm-223.18-3H891.13v-32H669.44Z" transform="translate(32.53 26.82)"/><circle class="cls-4" cx="909.81" cy="199.39" r="5.31"/><path class="cls-5" d="M877.28,179.38a6.81,6.81,0,1,1,6.81-6.81A6.82,6.82,0,0,1,877.28,179.38Zm0-10.62a3.81,3.81,0,1,0,3.81,3.81A3.82,3.82,0,0,0,877.28,168.76Z" transform="translate(32.53 26.82)"/><rect class="cls-6" x="700.47" y="229.92" width="224.68" height="34.98"/><path class="cls-5" d="M892.63,239.58H667.94a1.5,1.5,0,0,1-1.5-1.5v-35a1.5,1.5,0,0,1,1.5-1.5H892.63a1.5,1.5,0,0,1,1.5,1.5v35A1.5,1.5,0,0,1,892.63,239.58Zm-223.18-3H891.13v-32H669.44Z" transform="translate(32.53 26.82)"/><circle class="cls-4" cx="909.81" cy="247.41" r="5.31"/><path class="cls-5" d="M877.28,227.4a6.81,6.81,0,1,1,6.81-6.81A6.82,6.82,0,0,1,877.28,227.4Zm0-10.62a3.81,3.81,0,1,0,3.81,3.81A3.82,3.82,0,0,0,877.28,216.78Z" transform="translate(32.53 26.82)"/><rect class="cls-6" x="700.47" y="277.95" width="224.68" height="34.98"/><path class="cls-5" d="M892.63,287.6H667.94a1.5,1.5,0,0,1-1.5-1.5v-35a1.5,1.5,0,0,1,1.5-1.5H892.63a1.5,1.5,0,0,1,1.5,1.5v35A1.5,1.5,0,0,1,892.63,287.6Zm-223.18-3H891.13v-32H669.44Z" transform="translate(32.53 26.82)"/><circle class="cls-4" cx="909.81" cy="295.43" r="5.31"/><path class="cls-5" d="M877.28,275.42a6.81,6.81,0,1,1,6.81-6.81A6.82,6.82,0,0,1,877.28,275.42Zm0-10.62a3.81,3.81,0,1,0,3.81,3.81A3.82,3.82,0,0,0,877.28,264.8Z" transform="translate(32.53 26.82)"/><circle class="cls-7" cx="578.24" cy="199.91" r="25.97"/><path d="M545.72,200.56a27.47,27.47,0,1,1,27.47-27.47A27.5,27.5,0,0,1,545.72,200.56Zm0-51.94a24.47,24.47,0,1,0,24.47,24.47A24.5,24.5,0,0,0,545.72,148.62Z" transform="translate(32.53 26.82)"/><path d="M527.88,180.25V167.48h4.57a6.38,6.38,0,0,1,0,12.77Zm4.47-2.3c2.09,0,3.83-1.3,3.83-4.07s-1.73-4.09-3.82-4.09h-2v8.16Z" transform="translate(32.53 26.82)"/><path d="M549,180.25l-5.8-9.06v9.06h-2.49V167.48h3.1l5.31,8.44v-8.44h2.48v12.77Z" transform="translate(32.53 26.82)"/><path d="M560.65,171.21a2.18,2.18,0,0,0-2.32-1.8,1.81,1.81,0,0,0-2,1.62c0,.7.45,1.26,1.39,1.44l1.78.34c2.32.45,3.57,2,3.57,3.76,0,2-1.64,3.94-4.61,3.94-3.39,0-4.88-2.18-5.08-4l2.3-.61a2.56,2.56,0,0,0,2.79,2.4c1.33,0,2.07-.67,2.07-1.57,0-.74-.56-1.31-1.55-1.51l-1.78-.36c-2-.41-3.35-1.73-3.35-3.65a4.23,4.23,0,0,1,4.45-4c3.1,0,4.29,1.87,4.57,3.31Z" transform="translate(32.53 26.82)"/><circle class="cls-7" cx="380.58" cy="273.38" r="25.97"/><path d="M348,274a27.47,27.47,0,1,1,27.47-27.47A27.5,27.5,0,0,1,348,274Zm0-51.94a24.47,24.47,0,1,0,24.47,24.47A24.5,24.5,0,0,0,348,222.09Z" transform="translate(32.53 26.82)"/><path d="M331.36,251.72V239h8.07v2.36h-5.58v3.15h5v2.29h-5v5Z" transform="translate(32.53 26.82)"/><path d="M342.12,238.47a1.48,1.48,0,1,1-1.48,1.49A1.48,1.48,0,0,1,342.12,238.47Zm-1.19,13.25v-8.86h2.39v8.86Z" transform="translate(32.53 26.82)"/><path d="M345.48,251.72v-13h2.39v13Z" transform="translate(32.53 26.82)"/><path d="M358.07,249.18a4,4,0,0,1-4,2.81,4.71,4.71,0,0,1-.22-9.4c2.74,0,4.38,1.75,4.38,4.59,0,.34,0,.7,0,.74h-6.34a2.16,2.16,0,0,0,2.23,2,2,2,0,0,0,2-1.35Zm-2.23-2.9a1.78,1.78,0,0,0-2-1.75,1.92,1.92,0,0,0-2,1.75Z" transform="translate(32.53 26.82)"/><path d="M361.17,248.81a1.47,1.47,0,0,0,1.62,1.35c.79,0,1.17-.41,1.17-.88s-.27-.72-1-.86l-1.17-.27c-1.71-.38-2.49-1.4-2.49-2.65a3.09,3.09,0,0,1,3.31-2.9c2.52,0,3.37,1.6,3.47,2.56l-2,.45a1.35,1.35,0,0,0-1.46-1.19,1,1,0,0,0-1.13.88c0,.43.32.7.81.79l1.26.27c1.75.36,2.63,1.42,2.63,2.72s-1.12,2.92-3.44,2.92c-2.66,0-3.58-1.73-3.69-2.74Z" transform="translate(32.53 26.82)"/></svg>