<svg id="Layer_1" data-name="Layer 1" xmlns="http://www.w3.org/2000/svg" viewBox="0 0 960 550"><defs><style>.cls-1{fill:none;}.cls-2{fill:#fff;}.cls-3{fill:#231f20;}.cls-4{fill:#f6f6f6;}</style></defs><title>Slide-19-Charts</title><rect class="cls-1" width="960" height="550"/><rect class="cls-2" x="13.33" y="227.83" width="229.67" height="71.5"/><path class="cls-3" d="M230.67,188.75H0v-72.5H230.67v72.5ZM1,187.75H229.67v-70.5H1v70.5Z" transform="translate(12.83 111.08)"/><rect class="cls-2" x="243" y="227.83" width="229.67" height="71.5"/><path class="cls-3" d="M460.33,188.75H229.67v-72.5H460.33v72.5Zm-229.67-1H459.33v-70.5H230.67v70.5Z" transform="translate(12.83 111.08)"/><rect class="cls-4" x="13.33" y="299.33" width="229.67" height="71.5"/><path class="cls-3" d="M230.67,260.25H0v-72.5H230.67v72.5ZM1,259.25H229.67v-70.5H1v70.5Z" transform="translate(12.83 111.08)"/><rect class="cls-4" x="243" y="299.33" width="229.67" height="71.5"/><path class="cls-3" d="M460.33,260.25H229.67v-72.5H460.33v72.5Zm-229.67-1H459.33v-70.5H230.67v70.5Z" transform="translate(12.83 111.08)"/><path d="M16.06,164V143.75h2.63V164H16.06Z" transform="translate(12.83 111.08)"/><path d="M26.42,156.32l3.64-.53a1,1,0,0,0,1-1c0-1.32-.87-2.41-2.91-2.41a2.86,2.86,0,0,0-3.05,2.72l-2.52-.59c0.28-2.58,2.6-4.37,5.52-4.37,4,0,5.6,2.3,5.6,4.93v6.75A12.65,12.65,0,0,0,33.9,164H31.32a9.83,9.83,0,0,1-.14-1.82,4.91,4.91,0,0,1-4.34,2.24,4.2,4.2,0,0,1-4.51-4C22.33,158,24.1,156.66,26.42,156.32Zm4.68,1.93v-0.62l-4.12.62a2,2,0,0,0-2,2,2,2,0,0,0,2.18,2C29.36,162.23,31.1,161.2,31.1,158.26Z" transform="translate(12.83 111.08)"/><path d="M38.94,159.68a2.87,2.87,0,0,0,3.14,2.52c1.48,0,2.3-.84,2.3-1.79a1.87,1.87,0,0,0-1.74-1.74l-2.3-.5A3.83,3.83,0,0,1,37,154.39a4.59,4.59,0,0,1,4.79-4.26c3.7,0,4.84,2.41,5.12,3.61l-2.32.87a2.61,2.61,0,0,0-2.8-2.24,2,2,0,0,0-2.24,1.79,1.65,1.65,0,0,0,1.54,1.62l2.18,0.48c2.44,0.53,3.72,2,3.72,4s-1.6,4.17-4.93,4.17c-3.7,0-5.26-2.38-5.49-3.92Z" transform="translate(12.83 111.08)"/><path d="M54,150.56h2.91v2.38H54v7a1.6,1.6,0,0,0,1.88,1.85,5.28,5.28,0,0,0,1-.11v2.24a5.76,5.76,0,0,1-1.79.25,3.5,3.5,0,0,1-3.75-3.84v-7.39H48.79v-2.38h0.73a1.88,1.88,0,0,0,2.07-2.07V146.3H54v4.26Z" transform="translate(12.83 111.08)"/><path d="M74.16,164L63.44,147.84V164H60.69V144.17h3.67l9.91,15.23V144.17H77V164H74.16Z" transform="translate(12.83 111.08)"/><path d="M84.89,156.32l3.64-.53a1,1,0,0,0,1-1c0-1.32-.87-2.41-2.91-2.41a2.86,2.86,0,0,0-3.05,2.72l-2.52-.59c0.28-2.58,2.6-4.37,5.52-4.37,4,0,5.6,2.3,5.6,4.93v6.75a12.65,12.65,0,0,0,.17,2.21H89.79a9.83,9.83,0,0,1-.14-1.82,4.91,4.91,0,0,1-4.34,2.24,4.2,4.2,0,0,1-4.51-4C80.8,158,82.56,156.66,84.89,156.32Zm4.68,1.93v-0.62l-4.12.62a2,2,0,0,0-2,2,2,2,0,0,0,2.18,2C87.83,162.23,89.56,161.2,89.56,158.26Z" transform="translate(12.83 111.08)"/><path d="M96.28,164V150.56H98.8v1.79a4.64,4.64,0,0,1,4.09-2.18,4.21,4.21,0,0,1,4,2.55,4.83,4.83,0,0,1,4.51-2.55c2.35,0,4.65,1.6,4.65,5.12V164h-2.6v-8.46c0-1.76-.87-3.08-2.86-3.08a3.14,3.14,0,0,0-3.11,3.39V164h-2.63v-8.46c0-1.74-.84-3.08-2.86-3.08a3.12,3.12,0,0,0-3.14,3.42V164h-2.6Z" transform="translate(12.83 111.08)"/><path d="M132,160.19a6.11,6.11,0,0,1-6,4.26c-3.61,0-6.78-2.63-6.78-7.2,0-4.23,3.05-7.11,6.44-7.11,4.14,0,6.47,2.86,6.47,7.06a5.93,5.93,0,0,1-.06.84H121.9a4,4,0,0,0,4.06,4.09,3.67,3.67,0,0,0,3.78-2.72Zm-2.66-4.28a3.39,3.39,0,0,0-3.7-3.44A3.62,3.62,0,0,0,122,155.9h7.36Z" transform="translate(12.83 111.08)"/><path d="M17.18,227.3a2.87,2.87,0,0,0,3.14,2.52c1.48,0,2.3-.84,2.3-1.79a1.87,1.87,0,0,0-1.74-1.74l-2.3-.5A3.83,3.83,0,0,1,15.22,222,4.59,4.59,0,0,1,20,217.75c3.7,0,4.84,2.41,5.12,3.61l-2.32.87A2.61,2.61,0,0,0,20,220a2,2,0,0,0-2.24,1.79,1.65,1.65,0,0,0,1.54,1.62l2.18,0.48c2.44,0.53,3.72,2,3.72,4s-1.6,4.17-4.93,4.17c-3.7,0-5.26-2.38-5.49-3.92Z" transform="translate(12.83 111.08)"/><path d="M33.48,232.06c-3.14,0-5-2.35-5-5.4v-8.48h2.63v8.09c0,1.85.84,3.47,3.05,3.47s3.19-1.4,3.19-3.44v-8.12h2.63v11a22.6,22.6,0,0,0,.14,2.49H37.57a11.88,11.88,0,0,1-.11-1.62A4.39,4.39,0,0,1,33.48,232.06Z" transform="translate(12.83 111.08)"/><path d="M44.43,237V218.17H47v2.1a5,5,0,0,1,4.51-2.41c4,0,6.19,3.11,6.19,7S55.35,232,51.4,232A5,5,0,0,1,47,229.82V237h-2.6ZM51,220.19c-2.41,0-4,2-4,4.7s1.6,4.76,4,4.76,4-2,4-4.76S53.47,220.19,51,220.19Z" transform="translate(12.83 111.08)"/><path d="M72.76,227.8a6.11,6.11,0,0,1-6,4.26c-3.61,0-6.78-2.63-6.78-7.2,0-4.23,3.05-7.11,6.44-7.11,4.14,0,6.47,2.86,6.47,7.06a5.93,5.93,0,0,1-.06.84H62.65a4,4,0,0,0,4.06,4.09A3.67,3.67,0,0,0,70.49,227Zm-2.66-4.28a3.39,3.39,0,0,0-3.7-3.44,3.62,3.62,0,0,0-3.67,3.44H70.1Z" transform="translate(12.83 111.08)"/><path d="M83.68,220.83a8.26,8.26,0,0,0-1.15-.08c-2.21,0-3.7,1.18-3.7,4.14v6.75H76.2V218.17h2.58v2.35a4.22,4.22,0,0,1,4-2.58,4.92,4.92,0,0,1,.87.08v2.8Z" transform="translate(12.83 111.08)"/><path d="M89.11,231.64H86.48V211.37h2.63v8.37a4.76,4.76,0,0,1,4.09-2c3.22,0,4.82,2.32,4.82,5.32v8.54H95.38v-8.09c0-1.88-.78-3.39-3.14-3.39-2,0-3.08,1.57-3.14,3.56v7.92Z" transform="translate(12.83 111.08)"/><path d="M113.95,227.8a6.11,6.11,0,0,1-6,4.26c-3.61,0-6.78-2.63-6.78-7.2,0-4.23,3.05-7.11,6.44-7.11,4.14,0,6.47,2.86,6.47,7.06a5.93,5.93,0,0,1-.06.84H103.84a4,4,0,0,0,4.06,4.09,3.67,3.67,0,0,0,3.78-2.72Zm-2.66-4.28a3.39,3.39,0,0,0-3.7-3.44,3.62,3.62,0,0,0-3.67,3.44h7.36Z" transform="translate(12.83 111.08)"/><path d="M124.87,220.83a8.26,8.26,0,0,0-1.15-.08c-2.21,0-3.7,1.18-3.7,4.14v6.75h-2.63V218.17H120v2.35a4.22,4.22,0,0,1,4-2.58,4.92,4.92,0,0,1,.87.08v2.8Z" transform="translate(12.83 111.08)"/><path d="M140.18,224.89a6.89,6.89,0,1,1-6.89-7.14A6.8,6.8,0,0,1,140.18,224.89Zm-2.69,0c0-3.11-2-4.79-4.2-4.79s-4.2,1.68-4.2,4.79,2,4.82,4.2,4.82S137.5,228,137.5,224.89Z" transform="translate(12.83 111.08)"/><path d="M157.29,231.64l-10.72-16.18v16.18h-2.74V211.79h3.67L157.4,227V211.79h2.74v19.85h-2.86Z" transform="translate(12.83 111.08)"/><path d="M168,223.94l3.64-.53a1,1,0,0,0,1-1c0-1.32-.87-2.41-2.91-2.41a2.86,2.86,0,0,0-3.05,2.72l-2.52-.59c0.28-2.58,2.6-4.37,5.52-4.37,4,0,5.6,2.3,5.6,4.93v6.75a12.65,12.65,0,0,0,.17,2.21h-2.58a9.83,9.83,0,0,1-.14-1.82,4.91,4.91,0,0,1-4.34,2.24,4.2,4.2,0,0,1-4.51-4C163.93,225.62,165.69,224.27,168,223.94Zm4.68,1.93v-0.62l-4.12.62a2,2,0,0,0-2,2,2,2,0,0,0,2.18,2C171,229.85,172.69,228.81,172.69,225.87Z" transform="translate(12.83 111.08)"/><path d="M179.41,231.64V218.17h2.52V220a4.64,4.64,0,0,1,4.09-2.18,4.21,4.21,0,0,1,4,2.55,4.83,4.83,0,0,1,4.51-2.55c2.35,0,4.65,1.6,4.65,5.12v8.74h-2.6v-8.46c0-1.76-.87-3.08-2.86-3.08a3.14,3.14,0,0,0-3.11,3.39v8.15H188v-8.46c0-1.74-.84-3.08-2.86-3.08a3.12,3.12,0,0,0-3.14,3.42v8.12h-2.6Z" transform="translate(12.83 111.08)"/><path d="M215.14,227.8a6.11,6.11,0,0,1-6,4.26c-3.61,0-6.78-2.63-6.78-7.2,0-4.23,3.05-7.11,6.44-7.11,4.14,0,6.47,2.86,6.47,7.06a5.93,5.93,0,0,1-.06.84H205a4,4,0,0,0,4.06,4.09,3.67,3.67,0,0,0,3.78-2.72Zm-2.66-4.28a3.39,3.39,0,0,0-3.7-3.44,3.62,3.62,0,0,0-3.67,3.44h7.36Z" transform="translate(12.83 111.08)"/><path d="M249,218.9a2.09,2.09,0,0,1-2-2.38c0-3.3,2.16-4.73,3.72-4.9v1.32a2.93,2.93,0,0,0-2.1,2.72,1.06,1.06,0,0,1,.56-0.14,1.62,1.62,0,0,1,1.68,1.71A1.74,1.74,0,0,1,249,218.9Z" transform="translate(12.83 111.08)"/><path d="M264.63,217.16a4,4,0,0,0-4.2-3.39c-2.24,0-3.84,1.46-3.84,3.3a2.88,2.88,0,0,0,2.55,2.88l3,0.64c3.3,0.73,5.15,2.8,5.15,5.57,0,3.08-2.63,5.88-6.86,5.88-4.79,0-7.06-3.08-7.42-5.91l2.63-.84a4.51,4.51,0,0,0,4.76,4.26c2.74,0,4.09-1.43,4.09-3.16,0-1.43-1-2.66-3-3.08l-2.83-.62c-2.83-.62-4.84-2.46-4.84-5.43s2.88-5.91,6.55-5.91c4.48,0,6.27,2.77,6.72,4.93Z" transform="translate(12.83 111.08)"/><path d="M275,232.06c-3.14,0-5-2.35-5-5.4v-8.48h2.63v8.09c0,1.85.84,3.47,3.05,3.47s3.19-1.4,3.19-3.44v-8.12h2.63v11a22.63,22.63,0,0,0,.14,2.49H279a11.9,11.9,0,0,1-.11-1.62A4.39,4.39,0,0,1,275,232.06Z" transform="translate(12.83 111.08)"/><path d="M285.91,237V218.17h2.55v2.1a5,5,0,0,1,4.51-2.41c4,0,6.19,3.11,6.19,7s-2.32,7.11-6.27,7.11a5,5,0,0,1-4.37-2.18V237h-2.6Zm6.58-16.77c-2.41,0-4,2-4,4.7s1.6,4.76,4,4.76,4-2,4-4.76S295,220.19,292.49,220.19Z" transform="translate(12.83 111.08)"/><path d="M314.25,227.8a6.11,6.11,0,0,1-6,4.26c-3.61,0-6.78-2.63-6.78-7.2,0-4.23,3.05-7.11,6.44-7.11,4.14,0,6.47,2.86,6.47,7.06a5.93,5.93,0,0,1-.06.84H304.14a4,4,0,0,0,4.06,4.09A3.67,3.67,0,0,0,312,227Zm-2.66-4.28a3.39,3.39,0,0,0-3.7-3.44,3.62,3.62,0,0,0-3.67,3.44h7.36Z" transform="translate(12.83 111.08)"/><path d="M325.16,220.83a8.26,8.26,0,0,0-1.15-.08c-2.21,0-3.7,1.18-3.7,4.14v6.75h-2.63V218.17h2.58v2.35a4.22,4.22,0,0,1,4-2.58,5,5,0,0,1,.87.08v2.8Z" transform="translate(12.83 111.08)"/><path d="M328,231.64V218.17h2.52V220a4.64,4.64,0,0,1,4.09-2.18,4.21,4.21,0,0,1,4,2.55,4.83,4.83,0,0,1,4.51-2.55c2.35,0,4.65,1.6,4.65,5.12v8.74h-2.6v-8.46c0-1.76-.87-3.08-2.86-3.08a3.14,3.14,0,0,0-3.11,3.39v8.15h-2.63v-8.46c0-1.74-.84-3.08-2.86-3.08a3.12,3.12,0,0,0-3.14,3.42v8.12H328Z" transform="translate(12.83 111.08)"/><path d="M355.21,223.94l3.64-.53a1,1,0,0,0,1-1c0-1.32-.87-2.41-2.91-2.41a2.86,2.86,0,0,0-3.05,2.72l-2.52-.59c0.28-2.58,2.6-4.37,5.52-4.37,4,0,5.6,2.3,5.6,4.93v6.75a12.65,12.65,0,0,0,.17,2.21h-2.58a9.83,9.83,0,0,1-.14-1.82,4.91,4.91,0,0,1-4.34,2.24,4.2,4.2,0,0,1-4.51-4C351.12,225.62,352.88,224.27,355.21,223.94Zm4.68,1.93v-0.62l-4.12.62a2,2,0,0,0-2,2,2,2,0,0,0,2.18,2C358.15,229.85,359.88,228.81,359.88,225.87Z" transform="translate(12.83 111.08)"/><path d="M369.24,231.64H366.6V218.17h2.58v1.93a4.61,4.61,0,0,1,4.14-2.32c3.22,0,4.82,2.32,4.82,5.32v8.54h-2.63v-8.09c0-1.88-.78-3.39-3.14-3.39-2.07,0-3.14,1.65-3.14,3.7v7.78Z" transform="translate(12.83 111.08)"/><path d="M381.72,211.53a2.19,2.19,0,0,1,2.13,2.46c0,3.47-2.24,4.9-3.86,5.1v-1.34a3,3,0,0,0,2.16-2.83,1.06,1.06,0,0,1-.56.14,1.7,1.7,0,0,1-1.76-1.79A1.82,1.82,0,0,1,381.72,211.53Z" transform="translate(12.83 111.08)"/><rect class="cls-2" x="13.33" y="370.83" width="229.67" height="71.5"/><path class="cls-3" d="M230.67,331.75H0v-72.5H230.67v72.5ZM1,330.75H229.67v-70.5H1v70.5Z" transform="translate(12.83 111.08)"/><rect class="cls-2" x="243" y="370.83" width="229.67" height="71.5"/><path class="cls-3" d="M460.33,331.75H229.67v-72.5H460.33v72.5Zm-229.67-1H459.33v-70.5H230.67v70.5Z" transform="translate(12.83 111.08)"/><path d="M23.54,288.33a8.26,8.26,0,0,0-1.15-.08c-2.21,0-3.7,1.18-3.7,4.14v6.75H16.06V285.67h2.58V288a4.22,4.22,0,0,1,4-2.58,4.92,4.92,0,0,1,.87.08v2.8Z" transform="translate(12.83 111.08)"/><path d="M37.93,295.3a6.11,6.11,0,0,1-6,4.26c-3.61,0-6.78-2.63-6.78-7.2,0-4.23,3.05-7.11,6.44-7.11,4.14,0,6.47,2.86,6.47,7.06a5.93,5.93,0,0,1-.06.84H27.82a4,4,0,0,0,4.06,4.09,3.67,3.67,0,0,0,3.78-2.72ZM35.27,291a3.39,3.39,0,0,0-3.7-3.44A3.62,3.62,0,0,0,27.91,291h7.36Z" transform="translate(12.83 111.08)"/><path d="M47.25,299.14H44.59l-5.46-13.47h3l3.84,10.39,3.86-10.39h2.83Z" transform="translate(12.83 111.08)"/><path d="M66.46,295.3a6.11,6.11,0,0,1-6,4.26c-3.61,0-6.78-2.63-6.78-7.2,0-4.23,3.05-7.11,6.44-7.11,4.14,0,6.47,2.86,6.47,7.06a5.93,5.93,0,0,1-.06.84H56.35a4,4,0,0,0,4.06,4.09,3.67,3.67,0,0,0,3.78-2.72ZM63.8,291a3.39,3.39,0,0,0-3.7-3.44A3.62,3.62,0,0,0,56.44,291H63.8Z" transform="translate(12.83 111.08)"/><path d="M73.15,291.44l3.64-.53a1,1,0,0,0,1-1c0-1.32-.87-2.41-2.91-2.41a2.86,2.86,0,0,0-3.05,2.72l-2.52-.59c0.28-2.58,2.6-4.37,5.52-4.37,4,0,5.6,2.3,5.6,4.93v6.75a12.65,12.65,0,0,0,.17,2.21H78.05a9.83,9.83,0,0,1-.14-1.82,4.91,4.91,0,0,1-4.34,2.24,4.2,4.2,0,0,1-4.51-4C69.07,293.12,70.83,291.77,73.15,291.44Zm4.68,1.93v-0.62l-4.12.62a2,2,0,0,0-2,2,2,2,0,0,0,2.18,2C76.09,297.35,77.83,296.31,77.83,293.37Z" transform="translate(12.83 111.08)"/><path d="M84.55,299.14V278.87h2.63v20.27H84.55Z" transform="translate(12.83 111.08)"/><path d="M91.94,299.14V279.29h2.8v19.85h-2.8Z" transform="translate(12.83 111.08)"/><path d="M108.94,297.09a4.51,4.51,0,0,1-4.17,2.41c-3.95,0-6.38-3.14-6.38-7.14,0-3.81,2.58-7.06,6.38-7.06,2.38,0,3.67,1.18,4.12,2.27v-8.71h2.6v17.78a21.38,21.38,0,0,0,.14,2.49h-2.55a11.25,11.25,0,0,1-.14-1.82v-0.22Zm-3.92.08c2.41,0,3.89-2.1,3.89-4.87s-1.46-4.68-3.86-4.68-4,2-4,4.73S102.5,297.18,105,297.18Z" transform="translate(12.83 111.08)"/><path d="M127.7,295.3a6.11,6.11,0,0,1-6,4.26c-3.61,0-6.78-2.63-6.78-7.2,0-4.23,3.05-7.11,6.44-7.11,4.14,0,6.47,2.86,6.47,7.06a5.93,5.93,0,0,1-.06.84H117.59a4,4,0,0,0,4.06,4.09,3.67,3.67,0,0,0,3.78-2.72ZM125,291a3.39,3.39,0,0,0-3.7-3.44,3.62,3.62,0,0,0-3.67,3.44H125Z" transform="translate(12.83 111.08)"/><path d="M133.77,299.14h-2.63V285.67h2.58v1.93a4.61,4.61,0,0,1,4.14-2.32c3.22,0,4.82,2.32,4.82,5.32v8.54H140V291c0-1.88-.78-3.39-3.14-3.39-2.07,0-3.14,1.65-3.14,3.7v7.78Z" transform="translate(12.83 111.08)"/><path d="M150.41,285.67h2.91V288h-2.91v7a1.6,1.6,0,0,0,1.88,1.85,5.36,5.36,0,0,0,1-.11V299a5.76,5.76,0,0,1-1.79.25,3.5,3.5,0,0,1-3.75-3.84V288H145.2v-2.38h0.73A1.88,1.88,0,0,0,148,283.6v-2.18h2.41v4.26Z" transform="translate(12.83 111.08)"/><path d="M158.1,278.67a1.89,1.89,0,1,1-1.88,1.9A1.89,1.89,0,0,1,158.1,278.67Zm-1.29,20.47V285.67h2.6v13.47h-2.6Z" transform="translate(12.83 111.08)"/><path d="M167.43,285.67h2.91V288h-2.91v7a1.6,1.6,0,0,0,1.88,1.85,5.36,5.36,0,0,0,1-.11V299a5.76,5.76,0,0,1-1.79.25,3.5,3.5,0,0,1-3.75-3.84V288h-2.58v-2.38h0.73A1.88,1.88,0,0,0,165,283.6v-2.18h2.41v4.26Z" transform="translate(12.83 111.08)"/><path d="M174.46,304.77l3.36-7.11-5.8-12h3l4.2,9.3,4-9.3h2.83l-8.76,19.1h-2.88Z" transform="translate(12.83 111.08)"/><path d="M251.58,288.05v11.09h-2.72V288.05h-2.49v-2.38h2.49V283.4a4.27,4.27,0,0,1,4.42-4.62,3.4,3.4,0,0,1,1.57.28v2.35a3,3,0,0,0-1.15-.17,2,2,0,0,0-2.13,2.3v2.13h3.25v2.38h-3.25Z" transform="translate(12.83 111.08)"/><path d="M262.42,299.56c-3.14,0-5-2.35-5-5.4v-8.48H260v8.09c0,1.85.84,3.47,3.05,3.47s3.19-1.4,3.19-3.44v-8.12h2.63v11a22.63,22.63,0,0,0,.14,2.49h-2.52a11.9,11.9,0,0,1-.11-1.62A4.39,4.39,0,0,1,262.42,299.56Z" transform="translate(12.83 111.08)"/><path d="M276,299.14h-2.63V285.67h2.58v1.93a4.61,4.61,0,0,1,4.14-2.32c3.22,0,4.82,2.32,4.82,5.32v8.54h-2.63V291c0-1.88-.78-3.39-3.14-3.39-2.07,0-3.14,1.65-3.14,3.7v7.78Z" transform="translate(12.83 111.08)"/><path d="M290.67,292.39c0,3.08,1.93,4.73,4.12,4.73a3.66,3.66,0,0,0,3.75-2.77l2.32,1a6.19,6.19,0,0,1-6.08,4.2,6.81,6.81,0,0,1-6.8-7.17c0-4.2,2.94-7.14,6.78-7.14a5.86,5.86,0,0,1,6,4.28l-2.38,1a3.53,3.53,0,0,0-3.61-2.86C292.63,287.69,290.67,289.25,290.67,292.39Z" transform="translate(12.83 111.08)"/><path d="M307.47,285.67h2.91v2.38h-2.91v7a1.6,1.6,0,0,0,1.88,1.85,5.28,5.28,0,0,0,1-.11V299a5.76,5.76,0,0,1-1.79.25,3.5,3.5,0,0,1-3.75-3.84v-7.39h-2.58v-2.38H303a1.88,1.88,0,0,0,2.07-2.07v-2.18h2.41v4.26Z" transform="translate(12.83 111.08)"/><path d="M315.17,278.67a1.89,1.89,0,1,1-1.88,1.9A1.89,1.89,0,0,1,315.17,278.67Zm-1.29,20.47V285.67h2.6v13.47h-2.6Z" transform="translate(12.83 111.08)"/><path d="M333.62,292.39a6.89,6.89,0,1,1-6.89-7.14A6.8,6.8,0,0,1,333.62,292.39Zm-2.69,0c0-3.11-2-4.79-4.2-4.79s-4.2,1.68-4.2,4.79,2,4.82,4.2,4.82S330.93,295.53,330.93,292.39Z" transform="translate(12.83 111.08)"/><path d="M339.61,299.14H337V285.67h2.58v1.93a4.61,4.61,0,0,1,4.14-2.32c3.22,0,4.82,2.32,4.82,5.32v8.54h-2.63V291c0-1.88-.78-3.39-3.14-3.39-2.07,0-3.14,1.65-3.14,3.7v7.78Z" transform="translate(12.83 111.08)"/><path d="M357.34,276.91l1.6,1.4a17.7,17.7,0,0,0,0,23.91l-1.6,1.4A19.43,19.43,0,0,1,357.34,276.91Z" transform="translate(12.83 111.08)"/><path d="M360.53,303.62l-1.6-1.4a17.7,17.7,0,0,0,0-23.91l1.6-1.4A19.43,19.43,0,0,1,360.53,303.62Z" transform="translate(12.83 111.08)"/><path d="M368.65,289c1.62,0,3.08-.76,3.08-2.83v-3.84c0-3.47,1.76-5.21,5-5.21h0.36v2.1h-0.36c-2.07,0-2.74.9-2.74,2.94v4.59a3.31,3.31,0,0,1-2.91,3.44,3.31,3.31,0,0,1,2.91,3.44v4.56c0,2,.67,2.94,2.74,2.94h0.36v2.1h-0.36c-3.28,0-5-1.74-5-5.21v-3.81c0-2.07-1.46-2.83-3.08-2.83V289Z" transform="translate(12.83 111.08)"/><path d="M381.16,295.39a2,2,0,0,1,2,2,1.92,1.92,0,0,1-2,1.93,1.9,1.9,0,0,1-1.93-1.93A1.92,1.92,0,0,1,381.16,295.39Z" transform="translate(12.83 111.08)"/><path d="M389,295.39a2,2,0,0,1,2,2,1.92,1.92,0,0,1-2,1.93,1.9,1.9,0,0,1-1.93-1.93A1.92,1.92,0,0,1,389,295.39Z" transform="translate(12.83 111.08)"/><path d="M396.79,295.39a2,2,0,0,1,2,2,1.92,1.92,0,0,1-2,1.93,1.9,1.9,0,0,1-1.93-1.93A1.92,1.92,0,0,1,396.79,295.39Z" transform="translate(12.83 111.08)"/><path d="M409.33,291.44c-1.62,0-3.08.76-3.08,2.83v3.81c0,3.47-1.76,5.21-5,5.21h-0.36v-2.1h0.36c2.07,0,2.74-.9,2.74-2.94v-4.56a3.31,3.31,0,0,1,2.91-3.44,3.31,3.31,0,0,1-2.91-3.44V282.2c0-2-.67-2.94-2.74-2.94h-0.36v-2.1h0.36c3.28,0,5,1.74,5,5.21v3.84c0,2.07,1.46,2.83,3.08,2.83v2.41Z" transform="translate(12.83 111.08)"/><path d="M249,151.28a2.09,2.09,0,0,1-2-2.38c0-3.3,2.16-4.73,3.72-4.9v1.32a2.93,2.93,0,0,0-2.1,2.72,1.05,1.05,0,0,1,.56-0.14,1.62,1.62,0,0,1,1.68,1.71A1.74,1.74,0,0,1,249,151.28Z" transform="translate(12.83 111.08)"/><path d="M260,155l-2.83,3v6h-2.74V144.17h2.74v10.22l9.3-10.22h3.61L261.83,153l8.37,11h-3.47Z" transform="translate(12.83 111.08)"/><path d="M283.61,160.19a6.11,6.11,0,0,1-6,4.26c-3.61,0-6.78-2.63-6.78-7.2,0-4.23,3.05-7.11,6.44-7.11,4.14,0,6.47,2.86,6.47,7.06a5.93,5.93,0,0,1-.06.84H273.51a4,4,0,0,0,4.06,4.09,3.67,3.67,0,0,0,3.78-2.72ZM281,155.9a3.39,3.39,0,0,0-3.7-3.44,3.62,3.62,0,0,0-3.67,3.44H281Z" transform="translate(12.83 111.08)"/><path d="M289.69,164h-2.63V150.56h2.58v1.93a4.61,4.61,0,0,1,4.14-2.32c3.22,0,4.82,2.32,4.82,5.32V164H296v-8.09c0-1.88-.78-3.39-3.14-3.39-2.07,0-3.14,1.65-3.14,3.7V164Z" transform="translate(12.83 111.08)"/><path d="M306.32,150.56h2.91v2.38h-2.91v7a1.6,1.6,0,0,0,1.88,1.85,5.32,5.32,0,0,0,1-.11v2.24a5.76,5.76,0,0,1-1.79.25,3.5,3.5,0,0,1-3.75-3.84v-7.39h-2.58v-2.38h0.73a1.88,1.88,0,0,0,2.07-2.07V146.3h2.41v4.26Z" transform="translate(12.83 111.08)"/><path d="M312.82,143.92a2.19,2.19,0,0,1,2.13,2.46c0,3.47-2.24,4.9-3.86,5.1v-1.34a3,3,0,0,0,2.16-2.83,1.06,1.06,0,0,1-.56.14,1.7,1.7,0,0,1-1.76-1.79A1.82,1.82,0,0,1,312.82,143.92Z" transform="translate(12.83 111.08)"/><rect class="cls-4" x="13.33" y="156.33" width="229.67" height="71.5"/><path class="cls-3" d="M230.67,117.25H0V44.75H230.67v72.5ZM1,116.25H229.67V45.75H1v70.5Z" transform="translate(12.83 111.08)"/><rect class="cls-4" x="243" y="156.33" width="229.67" height="71.5"/><path class="cls-3" d="M460.33,117.25H229.67V44.75H460.33v72.5Zm-229.67-1H459.33V45.75H230.67v70.5Z" transform="translate(12.83 111.08)"/><path d="M19.59,81.44V92.52H16.87V81.44H14.38V79.06h2.49V76.79a4.27,4.27,0,0,1,4.42-4.62,3.39,3.39,0,0,1,1.57.28V74.8a3,3,0,0,0-1.15-.17,2,2,0,0,0-2.13,2.3v2.13h3.25v2.38H19.59Z" transform="translate(12.83 111.08)"/><path d="M27,72.06A1.89,1.89,0,1,1,25.08,74,1.89,1.89,0,0,1,27,72.06ZM25.67,92.52V79.06h2.6V92.52h-2.6Z" transform="translate(12.83 111.08)"/><path d="M40.23,81.72a8.26,8.26,0,0,0-1.15-.08c-2.21,0-3.7,1.18-3.7,4.14v6.75H32.75V79.06h2.58v2.35a4.22,4.22,0,0,1,4-2.58,5,5,0,0,1,.87.08v2.8Z" transform="translate(12.83 111.08)"/><path d="M44.15,88.18a2.87,2.87,0,0,0,3.14,2.52c1.48,0,2.3-.84,2.3-1.79a1.87,1.87,0,0,0-1.74-1.74l-2.3-.5a3.83,3.83,0,0,1-3.36-3.78A4.59,4.59,0,0,1,47,78.64c3.7,0,4.84,2.41,5.12,3.61l-2.32.87A2.61,2.61,0,0,0,47,80.88a2,2,0,0,0-2.24,1.79,1.65,1.65,0,0,0,1.54,1.62l2.18,0.48c2.44,0.53,3.72,2,3.72,4s-1.6,4.17-4.93,4.17c-3.7,0-5.26-2.38-5.49-3.92Z" transform="translate(12.83 111.08)"/><path d="M59.21,79.06h2.91v2.38H59.21v7a1.6,1.6,0,0,0,1.88,1.85,5.32,5.32,0,0,0,1-.11v2.24a5.76,5.76,0,0,1-1.79.25,3.5,3.5,0,0,1-3.75-3.84V81.44H54V79.06h0.73A1.88,1.88,0,0,0,56.8,77V74.8h2.41v4.26Z" transform="translate(12.83 111.08)"/><path d="M79.37,92.52L68.65,76.34V92.52H65.9V72.67h3.67L79.48,87.9V72.67h2.74V92.52H79.37Z" transform="translate(12.83 111.08)"/><path d="M90.09,84.82l3.64-.53a1,1,0,0,0,1-1c0-1.32-.87-2.41-2.91-2.41a2.86,2.86,0,0,0-3.05,2.72L86.29,83c0.28-2.58,2.6-4.37,5.52-4.37,4,0,5.6,2.3,5.6,4.93v6.75a12.65,12.65,0,0,0,.17,2.21H95a9.83,9.83,0,0,1-.14-1.82,4.91,4.91,0,0,1-4.34,2.24,4.2,4.2,0,0,1-4.51-4C86,86.5,87.77,85.16,90.09,84.82Zm4.68,1.93V86.14l-4.12.62a2,2,0,0,0-2,2,2,2,0,0,0,2.18,2C93,90.73,94.77,89.7,94.77,86.76Z" transform="translate(12.83 111.08)"/><path d="M101.49,92.52V79.06H104v1.79a4.64,4.64,0,0,1,4.09-2.18,4.21,4.21,0,0,1,4,2.55,4.83,4.83,0,0,1,4.51-2.55c2.35,0,4.65,1.6,4.65,5.12v8.74h-2.6V84.07c0-1.76-.87-3.08-2.86-3.08a3.14,3.14,0,0,0-3.11,3.39v8.15h-2.63V84.07c0-1.74-.84-3.08-2.86-3.08a3.12,3.12,0,0,0-3.14,3.42v8.12h-2.6Z" transform="translate(12.83 111.08)"/><path d="M137.22,88.69a6.11,6.11,0,0,1-6,4.26c-3.61,0-6.78-2.63-6.78-7.2,0-4.23,3.05-7.11,6.44-7.11,4.14,0,6.47,2.86,6.47,7.06a5.93,5.93,0,0,1-.06.84H127.11a4,4,0,0,0,4.06,4.09,3.67,3.67,0,0,0,3.78-2.72Zm-2.66-4.28a3.39,3.39,0,0,0-3.7-3.44,3.62,3.62,0,0,0-3.67,3.44h7.36Z" transform="translate(12.83 111.08)"/><path d="M249,79.78a2.09,2.09,0,0,1-2-2.38c0-3.3,2.16-4.73,3.72-4.9v1.32a2.93,2.93,0,0,0-2.1,2.72,1.05,1.05,0,0,1,.56-0.14,1.62,1.62,0,0,1,1.68,1.71A1.74,1.74,0,0,1,249,79.78Z" transform="translate(12.83 111.08)"/><path d="M252.9,82.58c0-6.64,4.93-10.33,9.86-10.33,4.54,0,7.73,2.46,8.74,6.3l-2.55.9a5.88,5.88,0,0,0-6.19-4.68c-3.61,0-7.06,2.63-7.06,7.81s3.44,7.84,7.06,7.84a6.31,6.31,0,0,0,6.33-4.76l2.44,0.9a8.67,8.67,0,0,1-8.76,6.38C257.63,92.94,252.9,89.22,252.9,82.58Z" transform="translate(12.83 111.08)"/><path d="M274.6,92.52V72.25h2.63V92.52H274.6Z" transform="translate(12.83 111.08)"/><path d="M285,84.82l3.64-.53a1,1,0,0,0,1-1c0-1.32-.87-2.41-2.91-2.41a2.86,2.86,0,0,0-3.05,2.72L281.15,83c0.28-2.58,2.6-4.37,5.52-4.37,4,0,5.6,2.3,5.6,4.93v6.75a12.65,12.65,0,0,0,.17,2.21h-2.58a9.83,9.83,0,0,1-.14-1.82,4.91,4.91,0,0,1-4.34,2.24,4.2,4.2,0,0,1-4.51-4C280.87,86.5,282.63,85.16,285,84.82Zm4.68,1.93V86.14l-4.12.62a2,2,0,0,0-2,2,2,2,0,0,0,2.18,2C287.9,90.73,289.63,89.7,289.63,86.76Z" transform="translate(12.83 111.08)"/><path d="M303.83,81.72a8.26,8.26,0,0,0-1.15-.08c-2.21,0-3.7,1.18-3.7,4.14v6.75h-2.63V79.06h2.58v2.35a4.22,4.22,0,0,1,4-2.58,5,5,0,0,1,.87.08v2.8Z" transform="translate(12.83 111.08)"/><path d="M313,84.74l5.85,7.78h-3.3l-4.4-5.94-1.88,1.88v4.06h-2.6V72.25h2.6V85l5.82-6h3.64Z" transform="translate(12.83 111.08)"/><path d="M322.25,72.42a2.19,2.19,0,0,1,2.13,2.46c0,3.47-2.24,4.9-3.86,5.1V78.64a3,3,0,0,0,2.16-2.83,1.06,1.06,0,0,1-.56.14,1.7,1.7,0,0,1-1.76-1.79A1.82,1.82,0,0,1,322.25,72.42Z" transform="translate(12.83 111.08)"/><path d="M130.53,6a4,4,0,0,0-4.2-3.39c-2.24,0-3.84,1.46-3.84,3.3A2.88,2.88,0,0,0,125,8.85l3,0.64c3.3,0.73,5.15,2.8,5.15,5.57,0,3.08-2.63,5.88-6.86,5.88-4.79,0-7.06-3.08-7.42-5.91l2.63-.84a4.51,4.51,0,0,0,4.76,4.26c2.74,0,4.09-1.43,4.09-3.16,0-1.43-1-2.66-3-3.08l-2.83-.62c-2.83-.62-4.84-2.46-4.84-5.43s2.88-5.91,6.55-5.91c4.48,0,6.27,2.77,6.72,4.93Z" transform="translate(12.83 111.08)"/><path d="M140.86,20.94c-3.14,0-5-2.35-5-5.4V7.06h2.63v8.09c0,1.85.84,3.47,3.05,3.47s3.19-1.4,3.19-3.44V7.06h2.63V18a22.62,22.62,0,0,0,.14,2.49h-2.52a11.89,11.89,0,0,1-.11-1.62A4.39,4.39,0,0,1,140.86,20.94Z" transform="translate(12.83 111.08)"/><path d="M151.81,25.84V7.06h2.55v2.1a5,5,0,0,1,4.51-2.41c4,0,6.19,3.11,6.19,7s-2.32,7.11-6.27,7.11a5,5,0,0,1-4.37-2.18v7.14h-2.6Zm6.58-16.77c-2.41,0-4,2-4,4.7s1.6,4.76,4,4.76,4-2,4-4.76S160.85,9.07,158.39,9.07Z" transform="translate(12.83 111.08)"/><path d="M180.14,16.69a6.11,6.11,0,0,1-6,4.26c-3.61,0-6.78-2.63-6.78-7.2,0-4.23,3.05-7.11,6.44-7.11,4.14,0,6.47,2.86,6.47,7.06a5.93,5.93,0,0,1-.06.84H170a4,4,0,0,0,4.06,4.09,3.67,3.67,0,0,0,3.78-2.72Zm-2.66-4.28A3.39,3.39,0,0,0,173.79,9a3.62,3.62,0,0,0-3.67,3.44h7.36Z" transform="translate(12.83 111.08)"/><path d="M191.06,9.72a8.26,8.26,0,0,0-1.15-.08c-2.21,0-3.7,1.18-3.7,4.14v6.75h-2.63V7.06h2.58V9.41a4.22,4.22,0,0,1,4-2.58,5,5,0,0,1,.87.08v2.8Z" transform="translate(12.83 111.08)"/><path d="M193.86,20.52V7.06h2.52V8.85a4.64,4.64,0,0,1,4.09-2.18,4.21,4.21,0,0,1,4,2.55A4.83,4.83,0,0,1,209,6.66c2.35,0,4.65,1.6,4.65,5.12v8.74h-2.6V12.07c0-1.76-.87-3.08-2.86-3.08a3.14,3.14,0,0,0-3.11,3.39v8.15h-2.63V12.07c0-1.74-.84-3.08-2.86-3.08a3.12,3.12,0,0,0-3.14,3.42v8.12h-2.6Z" transform="translate(12.83 111.08)"/><path d="M221.1,12.82l3.64-.53a1,1,0,0,0,1-1c0-1.32-.87-2.41-2.91-2.41a2.86,2.86,0,0,0-3.05,2.72L217.3,11c0.28-2.58,2.6-4.37,5.52-4.37,4,0,5.6,2.3,5.6,4.93v6.75a12.65,12.65,0,0,0,.17,2.21H226a9.83,9.83,0,0,1-.14-1.82,4.91,4.91,0,0,1-4.34,2.24,4.2,4.2,0,0,1-4.51-4C217,14.5,218.78,13.16,221.1,12.82Zm4.68,1.93V14.14l-4.12.62a2,2,0,0,0-2,2,2,2,0,0,0,2.18,2C224,18.73,225.78,17.7,225.78,14.76Z" transform="translate(12.83 111.08)"/><path d="M235.13,20.52H232.5V7.06h2.58V9a4.61,4.61,0,0,1,4.14-2.32C242.44,6.66,244,9,244,12v8.54H241.4V12.43c0-1.88-.78-3.39-3.14-3.39-2.07,0-3.14,1.65-3.14,3.7v7.78Z" transform="translate(12.83 111.08)"/><path d="M267.89,13.78a6.89,6.89,0,1,1-13.78,0A6.89,6.89,0,1,1,267.89,13.78Zm-2.69,0c0-3.11-2-4.79-4.2-4.79s-4.2,1.68-4.2,4.79,2,4.82,4.2,4.82S265.2,16.91,265.2,13.78Z" transform="translate(12.83 111.08)"/><path d="M271.25,20.52V0.25h2.6V9a4.91,4.91,0,0,1,4.45-2.3c4.09,0,6.19,3.14,6.19,7.06s-2.27,7.17-6.27,7.17a4.81,4.81,0,0,1-4.37-2.32v2h-2.6ZM277.83,9c-2.32,0-4,1.82-4,4.73s1.68,4.82,4,4.82,4-1.9,4-4.82S280.27,9,277.83,9Z" transform="translate(12.83 111.08)"/><path d="M287.86,7.06h2.63v15c0,2.44-1.4,4.17-3.72,4.17a4.45,4.45,0,0,1-1.57-.2V23.86a4.29,4.29,0,0,0,.84.08c1.37,0,1.82-.73,1.82-2V7.06ZM289.14,0a1.89,1.89,0,1,1-1.88,1.9A1.89,1.89,0,0,1,289.14,0Z" transform="translate(12.83 111.08)"/><path d="M306.7,16.69a6.11,6.11,0,0,1-6,4.26c-3.61,0-6.78-2.63-6.78-7.2,0-4.23,3.05-7.11,6.44-7.11,4.14,0,6.47,2.86,6.47,7.06a5.93,5.93,0,0,1-.06.84H296.59a4,4,0,0,0,4.06,4.09,3.67,3.67,0,0,0,3.78-2.72ZM304,12.4A3.39,3.39,0,0,0,300.34,9a3.62,3.62,0,0,0-3.67,3.44H304Z" transform="translate(12.83 111.08)"/><path d="M311.71,13.78c0,3.08,1.93,4.73,4.12,4.73a3.66,3.66,0,0,0,3.75-2.77l2.32,1a6.19,6.19,0,0,1-6.08,4.2,6.81,6.81,0,0,1-6.8-7.17c0-4.2,2.94-7.14,6.78-7.14a5.86,5.86,0,0,1,6,4.28l-2.38,1a3.53,3.53,0,0,0-3.61-2.86C313.67,9.07,311.71,10.64,311.71,13.78Z" transform="translate(12.83 111.08)"/><path d="M328.51,7.06h2.91V9.44h-2.91v7a1.6,1.6,0,0,0,1.88,1.85,5.32,5.32,0,0,0,1-.11v2.24a5.76,5.76,0,0,1-1.79.25,3.5,3.5,0,0,1-3.75-3.84V9.44H323.3V7.06H324A1.88,1.88,0,0,0,326.1,5V2.8h2.41V7.06Z" transform="translate(12.83 111.08)"/><path d="M336.71,6.92a2,2,0,0,1,2,2,1.92,1.92,0,0,1-2,1.93,1.9,1.9,0,0,1-1.93-1.93A1.92,1.92,0,0,1,336.71,6.92Zm0,9.86a2,2,0,0,1,2,2,1.92,1.92,0,0,1-2,1.93,1.9,1.9,0,0,1-1.93-1.93A1.92,1.92,0,0,1,336.74,16.77Z" transform="translate(12.83 111.08)"/><path d="M618.8,0.67c3.78,0,6,2.24,6,5.38a4.41,4.41,0,0,1-3,4.28,4.77,4.77,0,0,1,3.58,4.79c0,3.14-2.49,5.4-6.13,5.4h-6.94V0.67h6.47Zm-0.31,8.68C620.71,9.35,622,8,622,6.19s-1.37-3.11-3.64-3.11h-3.3V9.35h3.42Zm0.39,8.76c2.21,0,3.72-1.23,3.72-3.16s-1.2-3.25-3.61-3.25h-3.92v6.41h3.81Z" transform="translate(12.83 111.08)"/><path d="M631.88,12.82l3.64-.53a1,1,0,0,0,1-1c0-1.32-.87-2.41-2.91-2.41a2.86,2.86,0,0,0-3.05,2.72L628.07,11c0.28-2.58,2.6-4.37,5.52-4.37,4,0,5.6,2.3,5.6,4.93v6.75a12.6,12.6,0,0,0,.17,2.21h-2.58a9.89,9.89,0,0,1-.14-1.82,4.91,4.91,0,0,1-4.34,2.24,4.2,4.2,0,0,1-4.51-4C627.79,14.5,629.55,13.16,631.88,12.82Zm4.68,1.93V14.14l-4.12.62a2,2,0,0,0-2,2,2,2,0,0,0,2.18,2C634.82,18.73,636.55,17.7,636.55,14.76Z" transform="translate(12.83 111.08)"/><path d="M646.8,7.06h2.91V9.44H646.8v7a1.6,1.6,0,0,0,1.88,1.85,5.32,5.32,0,0,0,1-.11v2.24a5.77,5.77,0,0,1-1.79.25,3.5,3.5,0,0,1-3.75-3.84V9.44h-2.58V7.06h0.73A1.88,1.88,0,0,0,644.39,5V2.8h2.41V7.06Z" transform="translate(12.83 111.08)"/><path d="M652.93,20.52V7.06h2.52V8.85a4.65,4.65,0,0,1,4.09-2.18,4.21,4.21,0,0,1,4,2.55,4.83,4.83,0,0,1,4.51-2.55c2.35,0,4.65,1.6,4.65,5.12v8.74h-2.6V12.07c0-1.76-.87-3.08-2.86-3.08a3.14,3.14,0,0,0-3.11,3.39v8.15h-2.63V12.07c0-1.74-.84-3.08-2.86-3.08a3.12,3.12,0,0,0-3.14,3.42v8.12h-2.6Z" transform="translate(12.83 111.08)"/><path d="M680.18,12.82l3.64-.53a1,1,0,0,0,1-1c0-1.32-.87-2.41-2.91-2.41a2.86,2.86,0,0,0-3.05,2.72L676.37,11c0.28-2.58,2.6-4.37,5.52-4.37,4,0,5.6,2.3,5.6,4.93v6.75a12.71,12.71,0,0,0,.17,2.21h-2.58a9.77,9.77,0,0,1-.14-1.82,4.91,4.91,0,0,1-4.34,2.24,4.19,4.19,0,0,1-4.51-4C676.09,14.5,677.85,13.16,680.18,12.82Zm4.68,1.93V14.14l-4.12.62a2,2,0,0,0-2,2,2,2,0,0,0,2.18,2C683.12,18.73,684.85,17.7,684.85,14.76Z" transform="translate(12.83 111.08)"/><path d="M694.21,20.52h-2.63V7.06h2.58V9a4.61,4.61,0,0,1,4.14-2.32c3.22,0,4.82,2.32,4.82,5.32v8.54h-2.63V12.43c0-1.88-.78-3.39-3.14-3.39-2.07,0-3.14,1.65-3.14,3.7v7.78Z" transform="translate(12.83 111.08)"/><path d="M727,13.78a6.89,6.89,0,1,1-13.78,0A6.89,6.89,0,1,1,727,13.78Zm-2.69,0c0-3.11-2-4.79-4.2-4.79s-4.2,1.68-4.2,4.79,2,4.82,4.2,4.82S724.28,16.91,724.28,13.78Z" transform="translate(12.83 111.08)"/><path d="M730.33,20.52V0.25h2.6V9a4.91,4.91,0,0,1,4.45-2.3c4.09,0,6.19,3.14,6.19,7.06s-2.27,7.17-6.27,7.17a4.81,4.81,0,0,1-4.37-2.32v2h-2.6ZM736.91,9c-2.32,0-4,1.82-4,4.73s1.68,4.82,4,4.82,4-1.9,4-4.82S739.34,9,736.91,9Z" transform="translate(12.83 111.08)"/><path d="M746.93,7.06h2.63v15c0,2.44-1.4,4.17-3.72,4.17a4.45,4.45,0,0,1-1.57-.2V23.86a4.3,4.3,0,0,0,.84.08c1.37,0,1.82-.73,1.82-2V7.06ZM748.22,0a1.89,1.89,0,1,1-1.88,1.9A1.89,1.89,0,0,1,748.22,0Z" transform="translate(12.83 111.08)"/><path d="M765.77,16.69a6.1,6.1,0,0,1-6,4.26c-3.61,0-6.78-2.63-6.78-7.2,0-4.23,3.05-7.11,6.44-7.11,4.14,0,6.47,2.86,6.47,7.06a6,6,0,0,1-.06.84H755.66a4,4,0,0,0,4.06,4.09,3.67,3.67,0,0,0,3.78-2.72Zm-2.66-4.28A3.39,3.39,0,0,0,759.42,9a3.62,3.62,0,0,0-3.67,3.44h7.36Z" transform="translate(12.83 111.08)"/><path d="M770.78,13.78c0,3.08,1.93,4.73,4.12,4.73a3.66,3.66,0,0,0,3.75-2.77l2.32,1a6.19,6.19,0,0,1-6.08,4.2,6.81,6.81,0,0,1-6.8-7.17c0-4.2,2.94-7.14,6.78-7.14a5.86,5.86,0,0,1,6,4.28l-2.38,1a3.53,3.53,0,0,0-3.61-2.86C772.74,9.07,770.78,10.64,770.78,13.78Z" transform="translate(12.83 111.08)"/><path d="M787.58,7.06h2.91V9.44h-2.91v7a1.6,1.6,0,0,0,1.88,1.85,5.32,5.32,0,0,0,1-.11v2.24a5.76,5.76,0,0,1-1.79.25A3.5,3.5,0,0,1,785,16.83V9.44h-2.58V7.06h0.73A1.88,1.88,0,0,0,785.18,5V2.8h2.41V7.06Z" transform="translate(12.83 111.08)"/><path d="M795.79,6.92a2,2,0,0,1,2,2,1.92,1.92,0,0,1-2,1.93,1.9,1.9,0,0,1-1.93-1.93A1.92,1.92,0,0,1,795.79,6.92Zm0,9.86a2,2,0,0,1,2,2,1.92,1.92,0,0,1-2,1.93,1.9,1.9,0,0,1-1.93-1.93A1.92,1.92,0,0,1,795.82,16.77Z" transform="translate(12.83 111.08)"/><rect class="cls-2" x="487.33" y="227.83" width="229.67" height="71.5"/><path class="cls-3" d="M704.67,188.75H474v-72.5H704.67v72.5Zm-229.67-1H703.67v-70.5H475v70.5Z" transform="translate(12.83 111.08)"/><rect class="cls-2" x="717" y="227.83" width="229.67" height="71.5"/><path class="cls-3" d="M934.33,188.75H703.67v-72.5H934.33v72.5Zm-229.67-1H933.33v-70.5H704.67v70.5Z" transform="translate(12.83 111.08)"/><rect class="cls-4" x="487.33" y="299.33" width="229.67" height="71.5"/><path class="cls-3" d="M704.67,260.25H474v-72.5H704.67v72.5Zm-229.67-1H703.67v-70.5H475v70.5Z" transform="translate(12.83 111.08)"/><rect class="cls-4" x="717" y="299.33" width="229.67" height="71.5"/><path class="cls-3" d="M934.33,260.25H703.67v-72.5H934.33v72.5Zm-229.67-1H933.33v-70.5H704.67v70.5Z" transform="translate(12.83 111.08)"/><path d="M490.06,164V143.75h2.63V164h-2.63Z" transform="translate(12.83 111.08)"/><path d="M500.42,156.32l3.64-.53a1,1,0,0,0,1-1c0-1.32-.87-2.41-2.91-2.41a2.86,2.86,0,0,0-3.05,2.72l-2.52-.59c0.28-2.58,2.6-4.37,5.52-4.37,4,0,5.6,2.3,5.6,4.93v6.75a12.71,12.71,0,0,0,.17,2.21h-2.58a9.77,9.77,0,0,1-.14-1.82,4.91,4.91,0,0,1-4.34,2.24,4.2,4.2,0,0,1-4.51-4C496.33,158,498.1,156.66,500.42,156.32Zm4.68,1.93v-0.62l-4.12.62a2,2,0,0,0-2,2,2,2,0,0,0,2.18,2C503.36,162.23,505.1,161.2,505.1,158.26Z" transform="translate(12.83 111.08)"/><path d="M512.94,159.68a2.87,2.87,0,0,0,3.14,2.52c1.48,0,2.3-.84,2.3-1.79a1.87,1.87,0,0,0-1.74-1.74l-2.3-.5a3.83,3.83,0,0,1-3.36-3.78,4.59,4.59,0,0,1,4.79-4.26c3.7,0,4.84,2.41,5.12,3.61l-2.32.87a2.61,2.61,0,0,0-2.8-2.24,2,2,0,0,0-2.24,1.79,1.65,1.65,0,0,0,1.54,1.62l2.18,0.48c2.44,0.53,3.72,2,3.72,4s-1.6,4.17-4.93,4.17c-3.7,0-5.26-2.38-5.49-3.92Z" transform="translate(12.83 111.08)"/><path d="M528,150.56h2.91v2.38H528v7a1.6,1.6,0,0,0,1.88,1.85,5.28,5.28,0,0,0,1-.11v2.24a5.77,5.77,0,0,1-1.79.25,3.5,3.5,0,0,1-3.75-3.84v-7.39h-2.58v-2.38h0.73a1.88,1.88,0,0,0,2.07-2.07V146.3H528v4.26Z" transform="translate(12.83 111.08)"/><path d="M548.16,164l-10.72-16.18V164h-2.74V144.17h3.67l9.91,15.23V144.17H551V164h-2.86Z" transform="translate(12.83 111.08)"/><path d="M558.89,156.32l3.64-.53a1,1,0,0,0,1-1c0-1.32-.87-2.41-2.91-2.41a2.86,2.86,0,0,0-3.05,2.72l-2.52-.59c0.28-2.58,2.6-4.37,5.52-4.37,4,0,5.6,2.3,5.6,4.93v6.75a12.71,12.71,0,0,0,.17,2.21h-2.58a9.77,9.77,0,0,1-.14-1.82,4.91,4.91,0,0,1-4.34,2.24,4.2,4.2,0,0,1-4.51-4C554.8,158,556.56,156.66,558.89,156.32Zm4.68,1.93v-0.62l-4.12.62a2,2,0,0,0-2,2,2,2,0,0,0,2.18,2C561.82,162.23,563.56,161.2,563.56,158.26Z" transform="translate(12.83 111.08)"/><path d="M570.28,164V150.56h2.52v1.79a4.64,4.64,0,0,1,4.09-2.18,4.21,4.21,0,0,1,4,2.55,4.83,4.83,0,0,1,4.51-2.55c2.35,0,4.65,1.6,4.65,5.12V164h-2.6v-8.46c0-1.76-.87-3.08-2.86-3.08a3.14,3.14,0,0,0-3.11,3.39V164h-2.63v-8.46c0-1.74-.84-3.08-2.86-3.08a3.12,3.12,0,0,0-3.14,3.42V164h-2.6Z" transform="translate(12.83 111.08)"/><path d="M606,160.19a6.1,6.1,0,0,1-6,4.26c-3.61,0-6.78-2.63-6.78-7.2,0-4.23,3.05-7.11,6.44-7.11,4.14,0,6.47,2.86,6.47,7.06a6,6,0,0,1-.06.84H595.9a4,4,0,0,0,4.06,4.09,3.67,3.67,0,0,0,3.78-2.72Zm-2.66-4.28a3.39,3.39,0,0,0-3.7-3.44A3.62,3.62,0,0,0,596,155.9h7.36Z" transform="translate(12.83 111.08)"/><path d="M491.18,227.3a2.87,2.87,0,0,0,3.14,2.52c1.48,0,2.3-.84,2.3-1.79a1.87,1.87,0,0,0-1.74-1.74l-2.3-.5a3.83,3.83,0,0,1-3.36-3.78,4.59,4.59,0,0,1,4.79-4.26c3.7,0,4.84,2.41,5.12,3.61l-2.32.87A2.61,2.61,0,0,0,494,220a2,2,0,0,0-2.24,1.79,1.65,1.65,0,0,0,1.54,1.62l2.18,0.48c2.44,0.53,3.72,2,3.72,4s-1.6,4.17-4.93,4.17c-3.7,0-5.26-2.38-5.49-3.92Z" transform="translate(12.83 111.08)"/><path d="M507.48,232.06c-3.14,0-5-2.35-5-5.4v-8.48h2.63v8.09c0,1.85.84,3.47,3.05,3.47s3.19-1.4,3.19-3.44v-8.12h2.63v11a22.75,22.75,0,0,0,.14,2.49h-2.52a11.8,11.8,0,0,1-.11-1.62A4.39,4.39,0,0,1,507.48,232.06Z" transform="translate(12.83 111.08)"/><path d="M518.43,237V218.17H521v2.1a5,5,0,0,1,4.51-2.41c4,0,6.19,3.11,6.19,7S529.35,232,525.4,232a5,5,0,0,1-4.37-2.18V237h-2.6ZM525,220.19c-2.41,0-4,2-4,4.7s1.6,4.76,4,4.76,4-2,4-4.76S527.47,220.19,525,220.19Z" transform="translate(12.83 111.08)"/><path d="M546.76,227.8a6.11,6.11,0,0,1-6,4.26c-3.61,0-6.78-2.63-6.78-7.2,0-4.23,3.05-7.11,6.44-7.11,4.14,0,6.47,2.86,6.47,7.06a5.85,5.85,0,0,1-.06.84H536.65a4,4,0,0,0,4.06,4.09,3.67,3.67,0,0,0,3.78-2.72Zm-2.66-4.28a3.39,3.39,0,0,0-3.7-3.44,3.62,3.62,0,0,0-3.67,3.44h7.36Z" transform="translate(12.83 111.08)"/><path d="M557.68,220.83a8.25,8.25,0,0,0-1.15-.08c-2.21,0-3.7,1.18-3.7,4.14v6.75H550.2V218.17h2.58v2.35a4.22,4.22,0,0,1,4-2.58,4.91,4.91,0,0,1,.87.08v2.8Z" transform="translate(12.83 111.08)"/><path d="M563.11,231.64h-2.63V211.37h2.63v8.37a4.76,4.76,0,0,1,4.09-2c3.22,0,4.82,2.32,4.82,5.32v8.54h-2.63v-8.09c0-1.88-.78-3.39-3.14-3.39-2,0-3.08,1.57-3.14,3.56v7.92Z" transform="translate(12.83 111.08)"/><path d="M587.95,227.8a6.11,6.11,0,0,1-6,4.26c-3.61,0-6.78-2.63-6.78-7.2,0-4.23,3.05-7.11,6.44-7.11,4.14,0,6.47,2.86,6.47,7.06a5.85,5.85,0,0,1-.06.84H577.84a4,4,0,0,0,4.06,4.09,3.67,3.67,0,0,0,3.78-2.72Zm-2.66-4.28a3.39,3.39,0,0,0-3.7-3.44,3.62,3.62,0,0,0-3.67,3.44h7.36Z" transform="translate(12.83 111.08)"/><path d="M598.87,220.83a8.25,8.25,0,0,0-1.15-.08c-2.21,0-3.7,1.18-3.7,4.14v6.75h-2.63V218.17H594v2.35a4.22,4.22,0,0,1,4-2.58,4.91,4.91,0,0,1,.87.08v2.8Z" transform="translate(12.83 111.08)"/><path d="M614.18,224.89a6.89,6.89,0,1,1-6.89-7.14A6.8,6.8,0,0,1,614.18,224.89Zm-2.69,0c0-3.11-2-4.79-4.2-4.79s-4.2,1.68-4.2,4.79,2,4.82,4.2,4.82S611.5,228,611.5,224.89Z" transform="translate(12.83 111.08)"/><path d="M631.29,231.64l-10.72-16.18v16.18h-2.74V211.79h3.67L631.4,227V211.79h2.74v19.85h-2.86Z" transform="translate(12.83 111.08)"/><path d="M642,223.94l3.64-.53a1,1,0,0,0,1-1c0-1.32-.87-2.41-2.91-2.41a2.86,2.86,0,0,0-3.05,2.72l-2.52-.59c0.28-2.58,2.6-4.37,5.52-4.37,4,0,5.6,2.3,5.6,4.93v6.75a12.71,12.71,0,0,0,.17,2.21h-2.58a9.77,9.77,0,0,1-.14-1.82,4.91,4.91,0,0,1-4.34,2.24,4.19,4.19,0,0,1-4.51-4C637.93,225.62,639.69,224.27,642,223.94Zm4.68,1.93v-0.62l-4.12.62a2,2,0,0,0-2,2,2,2,0,0,0,2.18,2C645,229.85,646.69,228.81,646.69,225.87Z" transform="translate(12.83 111.08)"/><path d="M653.41,231.64V218.17h2.52V220a4.64,4.64,0,0,1,4.09-2.18,4.21,4.21,0,0,1,4,2.55,4.83,4.83,0,0,1,4.51-2.55c2.35,0,4.65,1.6,4.65,5.12v8.74h-2.6v-8.46c0-1.76-.87-3.08-2.86-3.08a3.14,3.14,0,0,0-3.11,3.39v8.15H662v-8.46c0-1.74-.84-3.08-2.86-3.08a3.12,3.12,0,0,0-3.14,3.42v8.12h-2.6Z" transform="translate(12.83 111.08)"/><path d="M689.14,227.8a6.1,6.1,0,0,1-6,4.26c-3.61,0-6.78-2.63-6.78-7.2,0-4.23,3.05-7.11,6.44-7.11,4.14,0,6.47,2.86,6.47,7.06a6,6,0,0,1-.06.84H679a4,4,0,0,0,4.06,4.09,3.67,3.67,0,0,0,3.78-2.72Zm-2.66-4.28a3.39,3.39,0,0,0-3.7-3.44,3.62,3.62,0,0,0-3.67,3.44h7.36Z" transform="translate(12.83 111.08)"/><path d="M723,218.9a2.09,2.09,0,0,1-2-2.38c0-3.3,2.16-4.73,3.72-4.9v1.32a2.93,2.93,0,0,0-2.1,2.72,1.06,1.06,0,0,1,.56-0.14,1.62,1.62,0,0,1,1.68,1.71A1.74,1.74,0,0,1,723,218.9Z" transform="translate(12.83 111.08)"/><path d="M734.91,211.79c3.78,0,6,2.24,6,5.38a4.41,4.41,0,0,1-3,4.28,4.78,4.78,0,0,1,3.58,4.79c0,3.14-2.49,5.4-6.13,5.4h-6.94V211.79h6.47Zm-0.31,8.68c2.21,0,3.53-1.32,3.53-3.16s-1.37-3.11-3.64-3.11h-3.3v6.27h3.42Zm0.39,8.76c2.21,0,3.72-1.23,3.72-3.16s-1.2-3.25-3.61-3.25h-3.92v6.41H735Z" transform="translate(12.83 111.08)"/><path d="M748,223.94l3.64-.53a1,1,0,0,0,1-1c0-1.32-.87-2.41-2.91-2.41a2.86,2.86,0,0,0-3.05,2.72l-2.52-.59c0.28-2.58,2.6-4.37,5.52-4.37,4,0,5.6,2.3,5.6,4.93v6.75a12.6,12.6,0,0,0,.17,2.21h-2.58a9.89,9.89,0,0,1-.14-1.82,4.91,4.91,0,0,1-4.34,2.24,4.2,4.2,0,0,1-4.51-4C743.89,225.62,745.66,224.27,748,223.94Zm4.68,1.93v-0.62l-4.12.62a2,2,0,0,0-2,2,2,2,0,0,0,2.18,2C750.92,229.85,752.66,228.81,752.66,225.87Z" transform="translate(12.83 111.08)"/><path d="M762.91,218.17h2.91v2.38h-2.91v7a1.6,1.6,0,0,0,1.88,1.85,5.27,5.27,0,0,0,1-.11v2.24a5.76,5.76,0,0,1-1.79.25,3.5,3.5,0,0,1-3.75-3.84v-7.39H757.7v-2.38h0.73a1.88,1.88,0,0,0,2.07-2.07v-2.18h2.41v4.26Z" transform="translate(12.83 111.08)"/><path d="M769,231.64V218.17h2.52V220a4.65,4.65,0,0,1,4.09-2.18,4.21,4.21,0,0,1,4,2.55,4.83,4.83,0,0,1,4.51-2.55c2.35,0,4.65,1.6,4.65,5.12v8.74h-2.6v-8.46c0-1.76-.87-3.08-2.86-3.08a3.14,3.14,0,0,0-3.11,3.39v8.15h-2.63v-8.46c0-1.74-.84-3.08-2.86-3.08a3.12,3.12,0,0,0-3.14,3.42v8.12H769Z" transform="translate(12.83 111.08)"/><path d="M796.28,223.94l3.64-.53a1,1,0,0,0,1-1c0-1.32-.87-2.41-2.91-2.41a2.86,2.86,0,0,0-3.05,2.72l-2.52-.59c0.28-2.58,2.6-4.37,5.52-4.37,4,0,5.6,2.3,5.6,4.93v6.75a12.6,12.6,0,0,0,.17,2.21h-2.58a9.77,9.77,0,0,1-.14-1.82,4.91,4.91,0,0,1-4.34,2.24,4.2,4.2,0,0,1-4.51-4C792.19,225.62,794,224.27,796.28,223.94Zm4.68,1.93v-0.62l-4.12.62a2,2,0,0,0-2,2,2,2,0,0,0,2.18,2C799.22,229.85,801,228.81,801,225.87Z" transform="translate(12.83 111.08)"/><path d="M810.31,231.64h-2.63V218.17h2.58v1.93a4.61,4.61,0,0,1,4.14-2.32c3.22,0,4.82,2.32,4.82,5.32v8.54h-2.63v-8.09c0-1.88-.79-3.39-3.14-3.39-2.07,0-3.14,1.65-3.14,3.7v7.78Z" transform="translate(12.83 111.08)"/><path d="M822.8,211.53a2.19,2.19,0,0,1,2.13,2.46c0,3.47-2.24,4.9-3.86,5.1v-1.34a3,3,0,0,0,2.16-2.83,1.06,1.06,0,0,1-.56.14,1.7,1.7,0,0,1-1.76-1.79A1.82,1.82,0,0,1,822.8,211.53Z" transform="translate(12.83 111.08)"/><rect class="cls-2" x="487.33" y="370.83" width="229.67" height="71.5"/><path class="cls-3" d="M704.67,331.75H474v-72.5H704.67v72.5Zm-229.67-1H703.67v-70.5H475v70.5Z" transform="translate(12.83 111.08)"/><rect class="cls-2" x="717" y="370.83" width="229.67" height="71.5"/><path class="cls-3" d="M934.33,331.75H703.67v-72.5H934.33v72.5Zm-229.67-1H933.33v-70.5H704.67v70.5Z" transform="translate(12.83 111.08)"/><path d="M497.54,288.33a8.28,8.28,0,0,0-1.15-.08c-2.21,0-3.7,1.18-3.7,4.14v6.75h-2.63V285.67h2.58V288a4.22,4.22,0,0,1,4-2.58,4.92,4.92,0,0,1,.87.08v2.8Z" transform="translate(12.83 111.08)"/><path d="M511.93,295.3a6.11,6.11,0,0,1-6,4.26c-3.61,0-6.78-2.63-6.78-7.2,0-4.23,3.05-7.11,6.44-7.11,4.14,0,6.47,2.86,6.47,7.06a5.85,5.85,0,0,1-.06.84H501.82a4,4,0,0,0,4.06,4.09,3.67,3.67,0,0,0,3.78-2.72ZM509.27,291a3.39,3.39,0,0,0-3.7-3.44,3.62,3.62,0,0,0-3.67,3.44h7.36Z" transform="translate(12.83 111.08)"/><path d="M521.25,299.14h-2.66l-5.46-13.47h3l3.84,10.39,3.86-10.39h2.83Z" transform="translate(12.83 111.08)"/><path d="M540.46,295.3a6.11,6.11,0,0,1-6,4.26c-3.61,0-6.78-2.63-6.78-7.2,0-4.23,3.05-7.11,6.44-7.11,4.14,0,6.47,2.86,6.47,7.06a5.85,5.85,0,0,1-.06.84H530.35a4,4,0,0,0,4.06,4.09,3.67,3.67,0,0,0,3.78-2.72ZM537.8,291a3.39,3.39,0,0,0-3.7-3.44,3.62,3.62,0,0,0-3.67,3.44h7.36Z" transform="translate(12.83 111.08)"/><path d="M547.15,291.44l3.64-.53a1,1,0,0,0,1-1c0-1.32-.87-2.41-2.91-2.41a2.86,2.86,0,0,0-3.05,2.72l-2.52-.59c0.28-2.58,2.6-4.37,5.52-4.37,4,0,5.6,2.3,5.6,4.93v6.75a12.71,12.71,0,0,0,.17,2.21h-2.58a9.77,9.77,0,0,1-.14-1.82,4.91,4.91,0,0,1-4.34,2.24,4.19,4.19,0,0,1-4.51-4C543.07,293.12,544.83,291.77,547.15,291.44Zm4.68,1.93v-0.62l-4.12.62a2,2,0,0,0-2,2,2,2,0,0,0,2.18,2C550.09,297.35,551.83,296.31,551.83,293.37Z" transform="translate(12.83 111.08)"/><path d="M558.55,299.14V278.87h2.63v20.27h-2.63Z" transform="translate(12.83 111.08)"/><path d="M565.94,299.14V279.29h2.8v19.85h-2.8Z" transform="translate(12.83 111.08)"/><path d="M582.94,297.09a4.51,4.51,0,0,1-4.17,2.41c-3.95,0-6.38-3.14-6.38-7.14,0-3.81,2.58-7.06,6.38-7.06,2.38,0,3.67,1.18,4.12,2.27v-8.71h2.6v17.78a21.26,21.26,0,0,0,.14,2.49h-2.55a11.18,11.18,0,0,1-.14-1.82v-0.22Zm-3.92.08c2.41,0,3.89-2.1,3.89-4.87s-1.46-4.68-3.86-4.68-4,2-4,4.73S576.5,297.18,579,297.18Z" transform="translate(12.83 111.08)"/><path d="M601.7,295.3a6.11,6.11,0,0,1-6,4.26c-3.61,0-6.78-2.63-6.78-7.2,0-4.23,3.05-7.11,6.44-7.11,4.14,0,6.47,2.86,6.47,7.06a5.85,5.85,0,0,1-.06.84H591.59a4,4,0,0,0,4.06,4.09,3.67,3.67,0,0,0,3.78-2.72ZM599,291a3.39,3.39,0,0,0-3.7-3.44,3.62,3.62,0,0,0-3.67,3.44H599Z" transform="translate(12.83 111.08)"/><path d="M607.77,299.14h-2.63V285.67h2.58v1.93a4.61,4.61,0,0,1,4.14-2.32c3.22,0,4.82,2.32,4.82,5.32v8.54H614V291c0-1.88-.78-3.39-3.14-3.39-2.07,0-3.14,1.65-3.14,3.7v7.78Z" transform="translate(12.83 111.08)"/><path d="M624.4,285.67h2.91V288H624.4v7a1.6,1.6,0,0,0,1.88,1.85,5.36,5.36,0,0,0,1-.11V299a5.76,5.76,0,0,1-1.79.25,3.5,3.5,0,0,1-3.75-3.84V288H619.2v-2.38h0.73A1.88,1.88,0,0,0,622,283.6v-2.18h2.41v4.26Z" transform="translate(12.83 111.08)"/><path d="M632.1,278.67a1.89,1.89,0,1,1-1.88,1.9A1.89,1.89,0,0,1,632.1,278.67Zm-1.29,20.47V285.67h2.6v13.47h-2.6Z" transform="translate(12.83 111.08)"/><path d="M641.43,285.67h2.91V288h-2.91v7a1.6,1.6,0,0,0,1.88,1.85,5.37,5.37,0,0,0,1-.11V299a5.77,5.77,0,0,1-1.79.25,3.5,3.5,0,0,1-3.75-3.84V288h-2.58v-2.38h0.73A1.88,1.88,0,0,0,639,283.6v-2.18h2.41v4.26Z" transform="translate(12.83 111.08)"/><path d="M648.46,304.77l3.36-7.11-5.8-12h3l4.2,9.3,4-9.3h2.83l-8.76,19.1h-2.88Z" transform="translate(12.83 111.08)"/><path d="M725.58,288.05v11.09h-2.72V288.05h-2.49v-2.38h2.49V283.4a4.27,4.27,0,0,1,4.42-4.62,3.4,3.4,0,0,1,1.57.28v2.35a3,3,0,0,0-1.15-.17,2,2,0,0,0-2.13,2.3v2.13h3.25v2.38h-3.25Z" transform="translate(12.83 111.08)"/><path d="M736.42,299.56c-3.14,0-5-2.35-5-5.4v-8.48H734v8.09c0,1.85.84,3.47,3.05,3.47s3.19-1.4,3.19-3.44v-8.12h2.63v11a22.79,22.79,0,0,0,.14,2.49h-2.52a11.83,11.83,0,0,1-.11-1.62A4.39,4.39,0,0,1,736.42,299.56Z" transform="translate(12.83 111.08)"/><path d="M750,299.14h-2.63V285.67h2.58v1.93a4.61,4.61,0,0,1,4.14-2.32c3.22,0,4.82,2.32,4.82,5.32v8.54h-2.63V291c0-1.88-.78-3.39-3.14-3.39-2.07,0-3.13,1.65-3.13,3.7v7.78Z" transform="translate(12.83 111.08)"/><path d="M764.67,292.39c0,3.08,1.93,4.73,4.12,4.73a3.66,3.66,0,0,0,3.75-2.77l2.32,1a6.19,6.19,0,0,1-6.08,4.2,6.81,6.81,0,0,1-6.8-7.17c0-4.2,2.94-7.14,6.78-7.14a5.86,5.86,0,0,1,6,4.28l-2.38,1a3.53,3.53,0,0,0-3.61-2.86C766.63,287.69,764.67,289.25,764.67,292.39Z" transform="translate(12.83 111.08)"/><path d="M781.47,285.67h2.91v2.38h-2.91v7a1.6,1.6,0,0,0,1.88,1.85,5.26,5.26,0,0,0,1-.11V299a5.75,5.75,0,0,1-1.79.25,3.5,3.5,0,0,1-3.75-3.84v-7.39h-2.58v-2.38H777a1.88,1.88,0,0,0,2.07-2.07v-2.18h2.41v4.26Z" transform="translate(12.83 111.08)"/><path d="M789.17,278.67a1.89,1.89,0,1,1-1.88,1.9A1.89,1.89,0,0,1,789.17,278.67Zm-1.29,20.47V285.67h2.6v13.47h-2.6Z" transform="translate(12.83 111.08)"/><path d="M807.62,292.39a6.89,6.89,0,1,1-6.89-7.14A6.8,6.8,0,0,1,807.62,292.39Zm-2.69,0c0-3.11-2-4.79-4.2-4.79s-4.2,1.68-4.2,4.79,2,4.82,4.2,4.82S804.93,295.53,804.93,292.39Z" transform="translate(12.83 111.08)"/><path d="M813.61,299.14H811V285.67h2.58v1.93a4.61,4.61,0,0,1,4.14-2.32c3.22,0,4.82,2.32,4.82,5.32v8.54h-2.63V291c0-1.88-.78-3.39-3.14-3.39-2.07,0-3.13,1.65-3.13,3.7v7.78Z" transform="translate(12.83 111.08)"/><path d="M831.34,276.91l1.6,1.4a17.7,17.7,0,0,0,0,23.91l-1.6,1.4A19.43,19.43,0,0,1,831.34,276.91Z" transform="translate(12.83 111.08)"/><path d="M834.53,303.62l-1.6-1.4a17.7,17.7,0,0,0,0-23.91l1.6-1.4A19.43,19.43,0,0,1,834.53,303.62Z" transform="translate(12.83 111.08)"/><path d="M842.65,289c1.62,0,3.08-.76,3.08-2.83v-3.84c0-3.47,1.76-5.21,5-5.21h0.36v2.1h-0.36c-2.07,0-2.74.9-2.74,2.94v4.59a3.31,3.31,0,0,1-2.91,3.44,3.31,3.31,0,0,1,2.91,3.44v4.56c0,2,.67,2.94,2.74,2.94h0.36v2.1h-0.36c-3.28,0-5-1.74-5-5.21v-3.81c0-2.07-1.46-2.83-3.08-2.83V289Z" transform="translate(12.83 111.08)"/><path d="M855.16,295.39a2,2,0,0,1,2,2,1.92,1.92,0,0,1-2,1.93,1.9,1.9,0,0,1-1.93-1.93A1.92,1.92,0,0,1,855.16,295.39Z" transform="translate(12.83 111.08)"/><path d="M863,295.39a2,2,0,0,1,2,2,1.92,1.92,0,0,1-2,1.93,1.9,1.9,0,0,1-1.93-1.93A1.92,1.92,0,0,1,863,295.39Z" transform="translate(12.83 111.08)"/><path d="M870.79,295.39a2,2,0,0,1,2,2,1.92,1.92,0,0,1-2,1.93,1.9,1.9,0,0,1-1.93-1.93A1.92,1.92,0,0,1,870.79,295.39Z" transform="translate(12.83 111.08)"/><path d="M883.33,291.44c-1.62,0-3.08.76-3.08,2.83v3.81c0,3.47-1.76,5.21-5,5.21h-0.36v-2.1h0.36c2.07,0,2.74-.9,2.74-2.94v-4.56a3.31,3.31,0,0,1,2.91-3.44,3.31,3.31,0,0,1-2.91-3.44V282.2c0-2-.67-2.94-2.74-2.94h-0.36v-2.1h0.36c3.28,0,5,1.74,5,5.21v3.84c0,2.07,1.46,2.83,3.08,2.83v2.41Z" transform="translate(12.83 111.08)"/><path d="M723,151.28a2.09,2.09,0,0,1-2-2.38c0-3.3,2.16-4.73,3.72-4.9v1.32a2.93,2.93,0,0,0-2.1,2.72,1.05,1.05,0,0,1,.56-0.14,1.62,1.62,0,0,1,1.68,1.71A1.74,1.74,0,0,1,723,151.28Z" transform="translate(12.83 111.08)"/><path d="M751.34,144.17h2.83L748.51,164h-2.83l-5.18-16.1L735.38,164h-2.74l-5.74-19.85h2.83l4.37,15.54,5-15.54H742l5.1,15.71Z" transform="translate(12.83 111.08)"/><path d="M759.24,156.32l3.64-.53a1,1,0,0,0,1-1c0-1.32-.87-2.41-2.91-2.41a2.86,2.86,0,0,0-3.05,2.72l-2.52-.59c0.28-2.58,2.6-4.37,5.52-4.37,4,0,5.6,2.3,5.6,4.93v6.75a12.6,12.6,0,0,0,.17,2.21h-2.58a9.89,9.89,0,0,1-.14-1.82,4.91,4.91,0,0,1-4.34,2.24,4.2,4.2,0,0,1-4.51-4C755.15,158,756.91,156.66,759.24,156.32Zm4.68,1.93v-0.62l-4.12.62a2,2,0,0,0-2,2,2,2,0,0,0,2.18,2C762.18,162.23,763.91,161.2,763.91,158.26Z" transform="translate(12.83 111.08)"/><path d="M770.83,169.65l3.36-7.11-5.8-12h3l4.2,9.3,4-9.3h2.83l-8.76,19.1h-2.88Z" transform="translate(12.83 111.08)"/><path d="M787.63,164H785V150.56h2.58v1.93a4.61,4.61,0,0,1,4.14-2.32c3.22,0,4.82,2.32,4.82,5.32V164H793.9v-8.09c0-1.88-.78-3.39-3.14-3.39-2.07,0-3.14,1.65-3.14,3.7V164Z" transform="translate(12.83 111.08)"/><path d="M812.47,160.19a6.1,6.1,0,0,1-6,4.26c-3.61,0-6.78-2.63-6.78-7.2,0-4.23,3.05-7.11,6.44-7.11,4.14,0,6.47,2.86,6.47,7.06a6,6,0,0,1-.06.84H802.36a4,4,0,0,0,4.06,4.09,3.67,3.67,0,0,0,3.78-2.72Zm-2.66-4.28a3.39,3.39,0,0,0-3.7-3.44,3.62,3.62,0,0,0-3.67,3.44h7.36Z" transform="translate(12.83 111.08)"/><path d="M815.57,143.92a2.19,2.19,0,0,1,2.13,2.46c0,3.47-2.24,4.9-3.86,5.1v-1.34a3,3,0,0,0,2.16-2.83,1.06,1.06,0,0,1-.56.14,1.7,1.7,0,0,1-1.76-1.79A1.82,1.82,0,0,1,815.57,143.92Z" transform="translate(12.83 111.08)"/><rect class="cls-4" x="487.33" y="156.33" width="229.67" height="71.5"/><path class="cls-3" d="M704.67,117.25H474V44.75H704.67v72.5Zm-229.67-1H703.67V45.75H475v70.5Z" transform="translate(12.83 111.08)"/><rect class="cls-4" x="717" y="156.33" width="229.67" height="71.5"/><path class="cls-3" d="M934.33,117.25H703.67V44.75H934.33v72.5Zm-229.67-1H933.33V45.75H704.67v70.5Z" transform="translate(12.83 111.08)"/><path d="M493.59,81.44V92.52h-2.72V81.44h-2.49V79.06h2.49V76.79a4.27,4.27,0,0,1,4.42-4.62,3.39,3.39,0,0,1,1.57.28V74.8a3,3,0,0,0-1.15-.17,2,2,0,0,0-2.13,2.3v2.13h3.25v2.38h-3.25Z" transform="translate(12.83 111.08)"/><path d="M501,72.06a1.89,1.89,0,1,1-1.88,1.9A1.89,1.89,0,0,1,501,72.06Zm-1.29,20.47V79.06h2.6V92.52h-2.6Z" transform="translate(12.83 111.08)"/><path d="M514.23,81.72a8.25,8.25,0,0,0-1.15-.08c-2.21,0-3.7,1.18-3.7,4.14v6.75h-2.63V79.06h2.58v2.35a4.22,4.22,0,0,1,4-2.58,5,5,0,0,1,.87.08v2.8Z" transform="translate(12.83 111.08)"/><path d="M518.15,88.18a2.87,2.87,0,0,0,3.14,2.52c1.48,0,2.3-.84,2.3-1.79a1.87,1.87,0,0,0-1.74-1.74l-2.3-.5a3.83,3.83,0,0,1-3.36-3.78A4.59,4.59,0,0,1,521,78.64c3.7,0,4.84,2.41,5.12,3.61l-2.32.87a2.61,2.61,0,0,0-2.8-2.24,2,2,0,0,0-2.24,1.79,1.65,1.65,0,0,0,1.54,1.62l2.18,0.48c2.44,0.53,3.72,2,3.72,4s-1.6,4.17-4.93,4.17c-3.7,0-5.26-2.38-5.49-3.92Z" transform="translate(12.83 111.08)"/><path d="M533.21,79.06h2.91v2.38h-2.91v7a1.6,1.6,0,0,0,1.88,1.85,5.32,5.32,0,0,0,1-.11v2.24a5.77,5.77,0,0,1-1.79.25,3.5,3.5,0,0,1-3.75-3.84V81.44H528V79.06h0.73A1.88,1.88,0,0,0,530.8,77V74.8h2.41v4.26Z" transform="translate(12.83 111.08)"/><path d="M553.37,92.52L542.65,76.34V92.52H539.9V72.67h3.67l9.91,15.23V72.67h2.74V92.52h-2.86Z" transform="translate(12.83 111.08)"/><path d="M564.09,84.82l3.64-.53a1,1,0,0,0,1-1c0-1.32-.87-2.41-2.91-2.41a2.86,2.86,0,0,0-3.05,2.72L560.29,83c0.28-2.58,2.6-4.37,5.52-4.37,4,0,5.6,2.3,5.6,4.93v6.75a12.71,12.71,0,0,0,.17,2.21H569a9.77,9.77,0,0,1-.14-1.82,4.91,4.91,0,0,1-4.34,2.24,4.19,4.19,0,0,1-4.51-4C560,86.5,561.77,85.16,564.09,84.82Zm4.68,1.93V86.14l-4.12.62a2,2,0,0,0-2,2,2,2,0,0,0,2.18,2C567,90.73,568.77,89.7,568.77,86.76Z" transform="translate(12.83 111.08)"/><path d="M575.49,92.52V79.06H578v1.79a4.64,4.64,0,0,1,4.09-2.18,4.21,4.21,0,0,1,4,2.55,4.83,4.83,0,0,1,4.51-2.55c2.35,0,4.65,1.6,4.65,5.12v8.74h-2.6V84.07c0-1.76-.87-3.08-2.86-3.08a3.14,3.14,0,0,0-3.11,3.39v8.15h-2.63V84.07c0-1.74-.84-3.08-2.86-3.08a3.12,3.12,0,0,0-3.14,3.42v8.12h-2.6Z" transform="translate(12.83 111.08)"/><path d="M611.22,88.69a6.11,6.11,0,0,1-6,4.26c-3.61,0-6.78-2.63-6.78-7.2,0-4.23,3.05-7.11,6.44-7.11,4.14,0,6.47,2.86,6.47,7.06a5.85,5.85,0,0,1-.06.84H601.11a4,4,0,0,0,4.06,4.09,3.67,3.67,0,0,0,3.78-2.72Zm-2.66-4.28a3.39,3.39,0,0,0-3.7-3.44,3.62,3.62,0,0,0-3.67,3.44h7.36Z" transform="translate(12.83 111.08)"/><path d="M723,79.78a2.09,2.09,0,0,1-2-2.38c0-3.3,2.16-4.73,3.72-4.9v1.32a2.93,2.93,0,0,0-2.1,2.72,1.05,1.05,0,0,1,.56-0.14,1.62,1.62,0,0,1,1.68,1.71A1.74,1.74,0,0,1,723,79.78Z" transform="translate(12.83 111.08)"/><path d="M734.91,72.67c3.78,0,6,2.24,6,5.38a4.41,4.41,0,0,1-3,4.28,4.77,4.77,0,0,1,3.58,4.79c0,3.14-2.49,5.4-6.13,5.4h-6.94V72.67h6.47Zm-0.31,8.68c2.21,0,3.53-1.32,3.53-3.16s-1.37-3.11-3.64-3.11h-3.3v6.27h3.42ZM735,90.12c2.21,0,3.72-1.23,3.72-3.16s-1.2-3.25-3.61-3.25h-3.92v6.41H735Z" transform="translate(12.83 111.08)"/><path d="M752.35,81.72a8.25,8.25,0,0,0-1.15-.08c-2.21,0-3.7,1.18-3.7,4.14v6.75h-2.63V79.06h2.58v2.35a4.22,4.22,0,0,1,4-2.58,5,5,0,0,1,.87.08v2.8Z" transform="translate(12.83 111.08)"/><path d="M760.19,92.94c-3.14,0-5-2.35-5-5.4V79.06h2.63v8.09c0,1.85.84,3.47,3.05,3.47s3.19-1.4,3.19-3.44V79.06h2.63V90a22.47,22.47,0,0,0,.14,2.49h-2.52a12,12,0,0,1-.11-1.62A4.39,4.39,0,0,1,760.19,92.94Z" transform="translate(12.83 111.08)"/><path d="M772.56,85.78c0,3.08,1.93,4.73,4.12,4.73a3.66,3.66,0,0,0,3.75-2.77l2.32,1a6.19,6.19,0,0,1-6.08,4.2,6.81,6.81,0,0,1-6.8-7.17c0-4.2,2.94-7.14,6.78-7.14a5.86,5.86,0,0,1,6,4.28l-2.38,1a3.53,3.53,0,0,0-3.61-2.86C774.52,81.07,772.56,82.64,772.56,85.78Z" transform="translate(12.83 111.08)"/><path d="M797.43,88.69a6.1,6.1,0,0,1-6,4.26c-3.61,0-6.78-2.63-6.78-7.2,0-4.23,3.05-7.11,6.44-7.11,4.14,0,6.47,2.86,6.47,7.06a6,6,0,0,1-.06.84H787.32a4,4,0,0,0,4.06,4.09,3.67,3.67,0,0,0,3.78-2.72Zm-2.66-4.28a3.39,3.39,0,0,0-3.7-3.44,3.62,3.62,0,0,0-3.67,3.44h7.36Z" transform="translate(12.83 111.08)"/><path d="M800.54,72.42a2.19,2.19,0,0,1,2.13,2.46c0,3.47-2.24,4.9-3.86,5.1V78.64A3,3,0,0,0,801,75.81a1.06,1.06,0,0,1-.56.14,1.7,1.7,0,0,1-1.76-1.79A1.82,1.82,0,0,1,800.54,72.42Z" transform="translate(12.83 111.08)"/></svg>