<svg id="Layer_1" data-name="Layer 1" xmlns="http://www.w3.org/2000/svg" viewBox="0 0 406.5 378.25"><defs><style>.cls-1{fill:#ececec;}.cls-2{fill:#231f20;}.cls-3{fill:#fff;}.cls-4{fill:#ffdb00;}</style></defs><title>Slide-12-Cat-Tux-Meow</title><rect class="cls-1" x="267.5" width="139" height="50" rx="25" ry="25"/><path class="cls-1" d="M280.12,63.9l1.25-2.22A63.66,63.66,0,0,0,289.47,29h0l12.77,12.77L320.4,50l-13.76,5.56a159.77,159.77,0,0,1-18.51,6.2Z"/><path d="M316.86,34.09V20.17l-5.71,13.92h-3.22l-5.71-13.8v13.8h-3.7V14.24h5.1l6,14.34,5.82-14.34h5.26V34.09h-3.81Z"/><path d="M337.19,30.14a6.2,6.2,0,0,1-6.27,4.37,7,7,0,0,1-7.11-7.36,6.92,6.92,0,0,1,6.78-7.25c4.26,0,6.8,2.72,6.8,7.14,0,0.53-.06,1.09-0.06,1.15h-9.86a3.35,3.35,0,0,0,3.47,3.14,3,3,0,0,0,3.14-2.1Zm-3.47-4.51a2.77,2.77,0,0,0-3.08-2.72,3,3,0,0,0-3.08,2.72h6.16Z"/><path d="M353.74,27.2a7.22,7.22,0,1,1-14.45,0A7.22,7.22,0,1,1,353.74,27.2Zm-3.72,0c0-2.6-1.68-3.92-3.5-3.92S343,24.6,343,27.2s1.68,3.92,3.5,3.92S350,29.8,350,27.2Z"/><path d="M368,20.31l3,8.88,2.55-8.88h3.7l-4.31,13.78h-3.72L366,24.68l-3.16,9.41h-3.78l-4.4-13.78h3.92l2.55,8.85,3-8.85H368Z"/><path d="M200.22,284.11a90.58,90.58,0,0,1-81.06-49.68,18.29,18.29,0,1,1,32.6-16.61,54.39,54.39,0,0,0,96.92,0,18.29,18.29,0,0,1,32.6,16.61A90.58,90.58,0,0,1,200.22,284.11Zm-64.78-73.28a15.31,15.31,0,0,0-13.61,22.25,88,88,0,0,0,156.78,0,15.29,15.29,0,1,0-27.25-13.89,57.39,57.39,0,0,1-102.27,0A15.33,15.33,0,0,0,135.44,210.82Z"/><path class="cls-2" d="M200.22,282.61a89.09,89.09,0,0,1-79.73-48.86,16.79,16.79,0,1,1,29.93-15.25,56.25,56.25,0,0,0,79.09,22.42c8.55-5.24,31.28,20.11,17.5,28.55A89.35,89.35,0,0,1,200.22,282.61Z"/><path d="M200.22,284.11a90.58,90.58,0,0,1-81.06-49.68,18.29,18.29,0,1,1,32.6-16.61,54.75,54.75,0,0,0,77,21.83c2.43-1.49,5.7-1.2,9.45.84,6.91,3.75,14.45,13.08,14.66,21a10.07,10.07,0,0,1-5,9.28A91,91,0,0,1,200.22,284.11Zm-64.78-73.28a15.3,15.3,0,0,0-13.61,22.25A88.12,88.12,0,0,0,246.23,268.2a7.12,7.12,0,0,0,3.62-6.64c-0.18-6.77-7-15.15-13.09-18.44-2.72-1.48-5-1.81-6.46-.92a57.2,57.2,0,0,1-81.21-23A15.33,15.33,0,0,0,135.45,210.82Z"/><polygon class="cls-3" points="154.47 55.48 187.41 82.86 220.34 110.24 179.92 125.02 139.51 139.81 146.99 97.64 154.47 55.48"/><path d="M139.51,141.31a1.5,1.5,0,0,1-1.48-1.76l15-84.33a1.5,1.5,0,0,1,2.44-.89l65.86,54.76a1.5,1.5,0,0,1-.44,2.56L140,141.22A1.5,1.5,0,0,1,139.51,141.31Zm16-83-14.06,79.23,75.94-27.78Z"/><polygon class="cls-3" points="252.97 55.48 220.04 82.86 187.11 110.24 227.53 125.02 267.94 139.81 260.46 97.64 252.97 55.48"/><path d="M267.94,141.31a1.5,1.5,0,0,1-.52-0.09L186.6,111.65a1.5,1.5,0,0,1-.44-2.56L252,54.32a1.5,1.5,0,0,1,2.44.89l15,84.33A1.5,1.5,0,0,1,267.94,141.31Zm-77.87-31.59L266,137.51,251.95,58.28Z"/><path class="cls-3" d="M203.65,74.57a66.58,66.58,0,0,0-66.58,66.58c0,3.27-.31,6.49.15,9.64A107.5,107.5,0,0,0,43,257.35v94.9H34.78c-4.12,0-10.78-5.32-10.78-9.44V242.13c0-6.94-4.33-12.88-11.26-13S1,234.67,1,241.71V352.6c0,12.62,11.36,24.65,24,24.65H171.49c15.77,0,28.51-14.58,28.51-30.35V207.62c-30-4,2.42.1,3.62,0.1A66.58,66.58,0,0,0,203.65,74.57Z"/><path d="M171.49,378.25H25c-13.31,0-25-12-25-25.65V241.71a14.59,14.59,0,0,1,4.15-10.56,12.5,12.5,0,0,1,9.11-3.53C20.64,227.75,26,233.85,26,242.13V342.8c0,3.29,5.44,7.45,8.78,7.45H42v-92.9a109.06,109.06,0,0,1,94-107.86c-0.24-2.46,0-4.94,0-7.36v-1a68,68,0,1,1,67.93,68.08c-0.2,0-.82-0.05-1.93-0.18V346.9C202,363.6,187.74,378.25,171.49,378.25ZM13,230.61a9.4,9.4,0,0,0-6.75,2.67A11.62,11.62,0,0,0,3,241.71V352.6c0,12.06,10.27,22.65,22,22.65H171.49C186.14,375.25,199,362,199,346.9v-138l-8.64-1.16-2.17-.31c-0.63-.09-2.11-0.31-1.93-1.78,0.13-1.05.64-1.31,1.82-1.26h0c0.48,0,1.07.09,1.79,0.17l4.62,0.55c3.72,0.45,8.8,1.05,9.36,1.08A65.08,65.08,0,1,0,139,141.14v1a59.51,59.51,0,0,0,.17,8.44,1.58,1.58,0,0,1-.4,1.13,1.62,1.62,0,0,1-1.06.58A105.91,105.91,0,0,0,45,257.35v94.4a1.5,1.5,0,0,1-1.5,1.5H34.78c-4.87,0-11.78-5.4-11.78-10.45V242.13c0-5.63-3.36-11.39-9.79-11.51H13Z"/><path class="cls-2" d="M137,151A107.1,107.1,0,0,0,43,257.35V351.5l1.11,25.75H171.49c15.77,0,28.51-14.58,28.51-30.35V207.62C170,203.63,136.52,147.81,137,151Z"/><path d="M171.49,378.25H44.11a1.5,1.5,0,0,1-1.5-1.46L42,351.54V257.35a108.76,108.76,0,0,1,94.74-107.81l0.19-.1c1.29-.53,1.45-0.31,5.47,5.24,9.6,13.23,35.12,48.37,58.29,51.45a1.5,1.5,0,0,1,1.3,1.49V346.9C202,363.6,187.74,378.25,171.49,378.25Zm-125.92-3H171.49C186.14,375.25,199,362,199,346.9v-138c-24.07-4.32-49.38-39.19-59-52.46-1.17-1.61-2.28-3.15-2.9-3.92A105.76,105.76,0,0,0,45,257.35V351.5ZM139,150.74h0Z"/><circle cx="187.09" cy="131.8" r="4.11"/><circle cx="225.96" cy="131.8" r="4.11"/><polygon class="cls-3" points="206.47 160.65 202.31 154.95 198.16 149.25 206.47 149.25 214.79 149.25 210.63 154.95 206.47 160.65"/><path d="M206.47,162.15h0a1.5,1.5,0,0,1-1.23-.64l-8.32-11.9a1.5,1.5,0,0,1,1.23-2.36h16.63a1.5,1.5,0,0,1,1.23,2.36l-8.32,11.9A1.5,1.5,0,0,1,206.47,162.15ZM201,150.25l5.44,7.78,5.44-7.78H201Z"/><path d="M193.74,171.62a10.43,10.43,0,0,1-2.71-.37,1.5,1.5,0,0,1,.78-2.9c6.84,1.84,11.91-7.07,12-7.16a1.5,1.5,0,0,1,2.62,1.46C206.16,163.06,201.3,171.62,193.74,171.62Z"/><path d="M218.69,171.62c-7.57,0-12.42-8.56-12.65-9a1.5,1.5,0,0,1,2.62-1.46h0c0.05,0.09,5.13,9,12,7.16a1.5,1.5,0,1,1,.78,2.9A10.43,10.43,0,0,1,218.69,171.62Z"/><path d="M175.21,151.5a1.49,1.49,0,0,1-.39-0.05l-54.58-14.62a1.5,1.5,0,0,1,.78-2.9l54.58,14.63A1.5,1.5,0,0,1,175.21,151.5Z"/><path d="M120.63,168.18a1.5,1.5,0,0,1-.39-2.95l54.58-14.62a1.5,1.5,0,1,1,.78,2.9L121,168.13A1.49,1.49,0,0,1,120.63,168.18Z"/><path d="M238.08,151.5a1.5,1.5,0,0,1-.39-2.95l54.58-14.62a1.5,1.5,0,1,1,.78,2.9l-54.58,14.63A1.5,1.5,0,0,1,238.08,151.5Z"/><path d="M292.67,168.18a1.5,1.5,0,0,1-.39-0.05L237.7,153.51a1.5,1.5,0,1,1,.78-2.9l54.58,14.63A1.5,1.5,0,0,1,292.67,168.18Z"/><path class="cls-3" d="M182,373.11a14.29,14.29,0,0,0,9,1.17h0a14.43,14.43,0,0,0,11.39-16.93L180.29,243.16,152,248.63l1.71,8.62L170.8,343"/><path d="M188.23,376a15.72,15.72,0,0,1-6.86-1.58,1.5,1.5,0,0,1,1.31-2.7,12.74,12.74,0,0,0,8,1,12.94,12.94,0,0,0,10.2-15.17l-21.8-112.7-25.31,4.9,18.48,92.93a1.5,1.5,0,0,1-2.94.59l-18.78-94.41a1.5,1.5,0,0,1,1.19-1.77L180,241.69a1.5,1.5,0,0,1,1.76,1.19l22.08,114.18A15.91,15.91,0,0,1,188.23,376Z"/><polyline class="cls-2" points="178.77 235.39 180.59 244.76 196.57 327.34 167.33 327.34 147.92 241.33"/><path d="M196.57,328.84H167.33a1.5,1.5,0,0,1-1.46-1.17l-19.41-86a1.5,1.5,0,0,1,2.93-.66l19.15,84.84h26.22L177.3,235.67a1.5,1.5,0,1,1,2.94-.57l1.82,9.37,16,82.59A1.5,1.5,0,0,1,196.57,328.84Z"/><path class="cls-2" d="M139.14,376.5h29.2a16,16,0,0,0,16-16h0a16,16,0,0,0-16-16h-29.2s-7.81-33.46-42.52-31.86"/><path d="M168.34,378h-29.2a1.5,1.5,0,0,1,0-3h29.2a14.46,14.46,0,0,0,0-28.92h-29.2a1.5,1.5,0,0,1-1.46-1.16c-0.31-1.32-7.93-32.2-41-30.71a1.5,1.5,0,1,1-.14-3c31.77-1.48,41.89,25.84,43.72,31.86h28.06A17.46,17.46,0,0,1,168.34,378Z"/><path class="cls-3" d="M139.14,376.5h29.2a16,16,0,0,0,16-16h0a16,16,0,0,0-16-16h-29.2"/><path d="M168.34,378h-29.2a1.5,1.5,0,0,1,0-3h29.2a14.46,14.46,0,0,0,0-28.92h-29.2a1.5,1.5,0,0,1,0-3h29.2A17.46,17.46,0,0,1,168.34,378Z"/><polygon class="cls-3" points="200.5 243.16 200.5 207.62 161.41 180.96 200.5 243.16"/><path d="M200.5,244.67a1.5,1.5,0,0,1-1.27-.7l-39.09-62.2a1.5,1.5,0,0,1,2.12-2l39.09,26.66a1.5,1.5,0,0,1,.65,1.24v35.55A1.5,1.5,0,0,1,200.5,244.67Zm-34-58.41L199,238V208.41Z"/><polygon class="cls-4" points="191.22 206.05 166.32 220.05 166.32 182.32 191.22 196.32 191.22 206.05"/><path d="M166.32,221.55a1.5,1.5,0,0,1-1.5-1.5V182.32a1.5,1.5,0,0,1,2.24-1.31L192,195a1.5,1.5,0,0,1,.76,1.31v9.73a1.5,1.5,0,0,1-.76,1.31l-24.9,14A1.5,1.5,0,0,1,166.32,221.55Zm1.5-36.67v32.6l21.9-12.31v-8Z"/><polygon class="cls-4" points="198.76 196.32 223.67 182.32 223.67 220.05 198.76 206.05 198.76 196.32"/><path d="M223.67,221.55a1.51,1.51,0,0,1-.74-0.19l-24.9-14a1.5,1.5,0,0,1-.77-1.31v-9.73A1.5,1.5,0,0,1,198,195l24.9-14a1.5,1.5,0,0,1,2.24,1.31v37.73A1.5,1.5,0,0,1,223.67,221.55Zm-23.4-16.38,21.9,12.31v-32.6l-21.9,12.31v8Z"/><circle class="cls-4" cx="194.99" cy="201.19" r="11.17"/><path d="M195,213.85a12.67,12.67,0,1,1,12.67-12.67A12.68,12.68,0,0,1,195,213.85Zm0-22.33a9.67,9.67,0,1,0,9.67,9.67A9.68,9.68,0,0,0,195,191.52Z"/></svg>