<svg id="Layer_1" data-name="Layer 1" xmlns="http://www.w3.org/2000/svg" viewBox="0 0 464.54 299.49"><defs><style>.cls-1{fill:#f6f6f6;}.cls-2{fill:#c3c3c3;}.cls-3{fill:#221f1f;}.cls-4{fill:#fff;}.cls-5{fill:#ffdb00;}.cls-6{fill:#231f20;}.cls-7{fill:#ececec;}</style></defs><title>Slide-3-Superhero-Fan-Site</title><rect class="cls-1" x="1.5" y="28.5" width="461.54" height="269.49"/><path d="M464.54,299.49H0V27H464.54V299.49ZM3,296.49H461.54V30H3V296.49Z"/><path class="cls-2" d="M6.11,1.5H458.43A4.61,4.61,0,0,1,463,6.11V28.5a0,0,0,0,1,0,0H1.5a0,0,0,0,1,0,0V6.11A4.61,4.61,0,0,1,6.11,1.5Z"/><path class="cls-3" d="M464.54,30H0V6.11A6.12,6.12,0,0,1,6.11,0H458.43a6.12,6.12,0,0,1,6.12,6.11V30ZM3,27H461.54V6.11A3.12,3.12,0,0,0,458.43,3H6.11A3.12,3.12,0,0,0,3,6.11V27Z"/><circle cx="15.98" cy="15.16" r="3.16"/><circle cx="29.29" cy="15.16" r="3.16"/><circle cx="42.6" cy="15.16" r="3.16"/><rect class="cls-4" x="32.13" y="103.32" width="233.74" height="157.23"/><path d="M267.37,262H30.63V101.82H267.37V262ZM33.63,259H264.37V104.82H33.63V259Z"/><path d="M430.54,104.6h-136a1.5,1.5,0,0,1,0-3h136A1.5,1.5,0,0,1,430.54,104.6Z"/><path d="M430.54,129.93h-136a1.5,1.5,0,0,1,0-3h136A1.5,1.5,0,0,1,430.54,129.93Z"/><path d="M430.54,155.26h-136a1.5,1.5,0,0,1,0-3h136A1.5,1.5,0,1,1,430.54,155.26Z"/><path d="M430.54,180.6h-136a1.5,1.5,0,0,1,0-3h136A1.5,1.5,0,0,1,430.54,180.6Z"/><path d="M362.54,205.93h-68a1.5,1.5,0,0,1,0-3h68A1.5,1.5,0,0,1,362.54,205.93Z"/><rect class="cls-2" x="292.2" y="237.1" width="61.06" height="23.55"/><path d="M354.76,262.16H290.7V235.6h64.06v26.55Zm-61.06-3h58.06V238.6H293.7v20.55Z"/><rect class="cls-2" x="369.48" y="237.1" width="61.06" height="23.55"/><path d="M432,262.16H368V235.6H432v26.55Zm-61.06-3H429V238.6H371v20.55Z"/><path class="cls-4" d="M235.37,129.56a10.19,10.19,0,0,0-14.83-6.83,11.09,11.09,0,0,0-20.66,1.55,6.52,6.52,0,0,0-6.57,6.23,5.66,5.66,0,0,0,.09.95l-0.07.14a4.9,4.9,0,0,0-3.95,4.77c0,2.87,1.05,5.47,3.93,5.47h39.63c3.76,0,6.82-2.54,6.82-6.21A6.46,6.46,0,0,0,235.37,129.56Z"/><path d="M232.94,143.32H193.31c-3.35,0-5.43-2.67-5.43-7a6.25,6.25,0,0,1,3.93-5.84v0a7.89,7.89,0,0,1,7-7.63,12.59,12.59,0,0,1,22.4-2.09,11.69,11.69,0,0,1,15.47,7.69,7.93,7.93,0,0,1,4.61,7.14C241.26,140,237.68,143.32,232.94,143.32ZM210.5,117.87a9.67,9.67,0,0,0-9.18,6.84l-0.31,1-1.08,0a5,5,0,0,0-5.12,4.73,4.2,4.2,0,0,0,.07.7l0.08,0.44-0.54,1.26-0.72.14a3.43,3.43,0,0,0-2.81,3.31c0,1.81.42,4,2.43,4h39.63c3.08,0,5.32-2,5.32-4.71a5,5,0,0,0-3.41-4.65l-0.77-.29-0.17-.81A8.69,8.69,0,0,0,221.26,124l-1.39.76-0.68-1.43A9.66,9.66,0,0,0,210.5,117.87Z"/><path class="cls-4" d="M48.07,140.47a6.51,6.51,0,0,0-9.47-4.36A7.12,7.12,0,0,0,32.19,132L32.13,148.3H46.52a4.07,4.07,0,0,0,4.35-4A4.12,4.12,0,0,0,48.07,140.47Z"/><path d="M46.52,149.8H30.63l0.07-19.25h1.49a8.64,8.64,0,0,1,7,3.66,8,8,0,0,1,10.11,5.18A5.5,5.5,0,0,1,46.52,149.8Zm-12.88-3H46.52a2.6,2.6,0,0,0,2.85-2.46,2.63,2.63,0,0,0-1.82-2.46l-0.77-.29-0.17-.81a5,5,0,0,0-7.29-3.36l-1.39.76-0.68-1.43a5.63,5.63,0,0,0-3.56-3Z"/><path d="M137.13,58.45a2.91,2.91,0,0,0-3.1-2.4,2.41,2.41,0,0,0-2.66,2.16,2,2,0,0,0,1.85,1.92l2.38,0.46c3.1,0.6,4.75,2.62,4.75,5,0,2.62-2.18,5.26-6.14,5.26-4.51,0-6.5-2.9-6.77-5.33l3.07-.82a3.42,3.42,0,0,0,3.72,3.19c1.78,0,2.76-.89,2.76-2.09,0-1-.74-1.75-2.06-2l-2.38-.48c-2.71-.55-4.46-2.3-4.46-4.87,0-3,2.71-5.33,5.93-5.33,4.13,0,5.71,2.5,6.1,4.42Z"/><path d="M150.23,69.23A3.73,3.73,0,0,1,147,70.81a4.35,4.35,0,0,1-4.49-4.66V58.69h3.19v6.82a2.1,2.1,0,0,0,2.16,2.38,2.13,2.13,0,0,0,2.23-2.33V58.69h3.19v9.67a19.46,19.46,0,0,0,.12,2.14h-3A8.11,8.11,0,0,1,150.23,69.23Z"/><path d="M156.66,75.06V58.69h3.1v1.44a4.13,4.13,0,0,1,3.62-1.7c3.46,0,5.45,2.64,5.45,6.14s-2.23,6.22-5.57,6.22a4.15,4.15,0,0,1-3.41-1.44v5.71h-3.19Zm6.1-13.78a3.35,3.35,0,0,0,0,6.65c1.63,0,2.93-1.22,2.93-3.34S164.39,61.28,162.76,61.28Z"/><path d="M181.94,67.12a5.32,5.32,0,0,1-5.38,3.74,6.27,6.27,0,0,1-.29-12.53c3.65,0,5.83,2.33,5.83,6.12,0,0.46,0,.94,0,1h-8.45a2.88,2.88,0,0,0,3,2.69,2.61,2.61,0,0,0,2.69-1.8Zm-3-3.86a2.37,2.37,0,0,0-2.64-2.33,2.56,2.56,0,0,0-2.64,2.33H179Z"/><path d="M191.82,61.86a4.78,4.78,0,0,0-1-.1c-1.63,0-3,.79-3,3.34v5.4h-3.19V58.69h3.1v1.75a3.51,3.51,0,0,1,3.36-1.85,7.27,7.27,0,0,1,.74,0v3.22Z"/><path d="M197.27,70.5h-3.19V53.12h3.19v6.55a4.22,4.22,0,0,1,3.19-1.3c3,0,4.39,2.09,4.39,4.68V70.5h-3.19V63.61a2.08,2.08,0,0,0-2.18-2.35,2.21,2.21,0,0,0-2.21,2.3V70.5Z"/><path d="M218.68,67.12a5.32,5.32,0,0,1-5.38,3.74A6.27,6.27,0,0,1,213,58.33c3.65,0,5.83,2.33,5.83,6.12,0,0.46,0,.94,0,1h-8.45a2.88,2.88,0,0,0,3,2.69,2.61,2.61,0,0,0,2.69-1.8Zm-3-3.86a2.37,2.37,0,0,0-2.64-2.33,2.56,2.56,0,0,0-2.64,2.33h5.28Z"/><path d="M228.57,61.86a4.78,4.78,0,0,0-1-.1c-1.63,0-3,.79-3,3.34v5.4h-3.19V58.69h3.1v1.75a3.51,3.51,0,0,1,3.36-1.85,7.27,7.27,0,0,1,.74,0v3.22Z"/><path d="M242.2,64.6A6.19,6.19,0,1,1,236,58.33,6.06,6.06,0,0,1,242.2,64.6Zm-3.19,0a3,3,0,1,0-6,0A3,3,0,1,0,239,64.6Z"/><path d="M250.89,70.5v-17h10.75v3.14H254.2v4.2h6.62v3h-6.6V70.5h-3.34Z"/><path d="M266.1,63.71l2.9-.43a0.84,0.84,0,0,0,.89-0.84c0-.84-0.65-1.54-2-1.54a2.1,2.1,0,0,0-2.26,1.92l-2.83-.6c0.19-1.85,1.9-3.89,5.06-3.89,3.75,0,5.14,2.11,5.14,4.49v5.81a13.18,13.18,0,0,0,.14,1.87h-2.93a8,8,0,0,1-.12-1.42,4,4,0,0,1-3.48,1.75c-2.52,0-4.06-1.7-4.06-3.55C262.57,65.17,264.13,64,266.1,63.71Zm3.79,2V65.2l-2.66.41a1.49,1.49,0,0,0-1.46,1.49,1.39,1.39,0,0,0,1.54,1.37A2.4,2.4,0,0,0,269.89,65.72Z"/><path d="M279.42,70.5h-3.19V58.69h3.1v1.46a3.92,3.92,0,0,1,3.41-1.78c2.93,0,4.27,2.09,4.27,4.68V70.5h-3.19V63.61a2.08,2.08,0,0,0-2.18-2.35,2.22,2.22,0,0,0-2.21,2.45V70.5Z"/><path d="M304.89,58.45a2.91,2.91,0,0,0-3.1-2.4,2.41,2.41,0,0,0-2.66,2.16A2,2,0,0,0,301,60.13l2.38,0.46c3.1,0.6,4.75,2.62,4.75,5,0,2.62-2.18,5.26-6.14,5.26-4.51,0-6.5-2.9-6.77-5.33l3.07-.82A3.42,3.42,0,0,0,302,67.91c1.78,0,2.76-.89,2.76-2.09,0-1-.74-1.75-2.06-2l-2.38-.48c-2.71-.55-4.46-2.3-4.46-4.87,0-3,2.71-5.33,5.93-5.33,4.13,0,5.71,2.5,6.1,4.42Z"/><path d="M312.21,52.84a2,2,0,1,1-2,2A2,2,0,0,1,312.21,52.84ZM310.62,70.5V58.69h3.19V70.5h-3.19Z"/><path d="M321.16,58.69h2.38v2.83h-2.38v4.94a1.18,1.18,0,0,0,1.39,1.37,4.64,4.64,0,0,0,1-.1v2.64a4.73,4.73,0,0,1-1.8.29A3.42,3.42,0,0,1,318,67v-5.5h-2.14V58.69h0.6a1.7,1.7,0,0,0,1.82-1.87V55.16h2.88v3.53Z"/><path d="M336.71,67.12a5.32,5.32,0,0,1-5.38,3.74A6.27,6.27,0,0,1,331,58.33c3.65,0,5.83,2.33,5.83,6.12,0,0.46,0,.94,0,1h-8.45a2.88,2.88,0,0,0,3,2.69,2.61,2.61,0,0,0,2.69-1.8Zm-3-3.86a2.37,2.37,0,0,0-2.64-2.33,2.56,2.56,0,0,0-2.64,2.33h5.28Z"/><path class="cls-4" d="M105.52,200.78h0a59.38,59.38,0,0,1,59.38,59.38v0.38a0,0,0,0,1,0,0H46.13a0,0,0,0,1,0,0v-0.38a59.38,59.38,0,0,1,59.38-59.38Z"/><path d="M166.4,262H44.63v-1.88a60.88,60.88,0,0,1,121.77,0V262ZM47.65,259H163.39A57.88,57.88,0,0,0,47.65,259Z"/><path class="cls-2" d="M63.53,218.18a59.2,59.2,0,0,1,42-17.39h0a59.2,59.2,0,0,1,42,17.39C158.26,228.92,52.78,228.92,63.53,218.18Z"/><path d="M105.52,227.7c-19.7,0-39.4-1.92-43.24-5.76-1.43-1.43-1.36-3.28.18-4.83h0a60.89,60.89,0,0,1,86.1,0c1.55,1.54,1.62,3.39.18,4.83C144.92,225.78,125.22,227.7,105.52,227.7Zm-40.93-8.46a1.27,1.27,0,0,0-.33.45c0.77,2.08,15.54,5.05,41.26,5.05s40.5-3,41.27-5.11c0,0-.09-0.14-0.34-0.39a57.89,57.89,0,0,0-81.86,0h0Z"/><path class="cls-4" d="M143.64,158.58a38.3,38.3,0,0,0-13.13-22.93A37.63,37.63,0,0,0,69.3,153.29,38.08,38.08,0,0,0,68,158.5a8.62,8.62,0,0,0,.78,17.2H69a38.43,38.43,0,0,0,24.89,25.74v6.73a11.69,11.69,0,0,0,11.69,11.69h0a11.69,11.69,0,0,0,11.69-11.69V201.6a38.43,38.43,0,0,0,25.39-25.91A8.61,8.61,0,0,0,143.64,158.58Z"/><path d="M105.58,221.36a13.21,13.21,0,0,1-13.19-13.19v-5.66a39.8,39.8,0,0,1-24.51-25.35,10.12,10.12,0,0,1-1.12-20,39.77,39.77,0,0,1,1.12-4.34,39.13,39.13,0,0,1,63.64-18.3,39.83,39.83,0,0,1,13.42,22.8,10.11,10.11,0,0,1-1.13,19.74,39.72,39.72,0,0,1-25,25.61v5.49A13.21,13.21,0,0,1,105.58,221.36ZM70.12,174.18l0.32,1.1A36.81,36.81,0,0,0,94.35,200l1,0.34v7.82a10.19,10.19,0,0,0,20.39,0v-7.68l1.05-.33a36.74,36.74,0,0,0,24.4-24.9l0.3-1,1.07-.05a7.11,7.11,0,0,0,.81-14.12l-1.06-.17-0.18-1.06a36.85,36.85,0,0,0-12.61-22,36.13,36.13,0,0,0-58.8,16.91,36.81,36.81,0,0,0-1.24,5.05l-0.19,1.14-1.15.1a7.12,7.12,0,0,0,.65,14.21H69Z"/><path d="M105.57,192.3a19.55,19.55,0,0,1-8.87-2.12,1.5,1.5,0,0,1,1.36-2.67,16.6,16.6,0,0,0,15,0,1.5,1.5,0,0,1,1.36,2.67A19.55,19.55,0,0,1,105.57,192.3Z"/><polygon class="cls-5" points="91.81 243.34 96.98 238.15 115.87 238.15 121.03 243.34 106.42 255.89 91.81 243.34"/><path class="cls-6" d="M106.42,257.39a1.5,1.5,0,0,1-1-.36L90.84,244.48a1.5,1.5,0,0,1-.09-2.2l5.16-5.2a1.5,1.5,0,0,1,1.06-.44h18.89a1.5,1.5,0,0,1,1.06.44l5.16,5.2a1.5,1.5,0,0,1-.09,2.2L107.4,257A1.5,1.5,0,0,1,106.42,257.39ZM94,243.26l12.41,10.65,12.41-10.65-3.59-3.61H97.6Z"/><path d="M68,160a1.5,1.5,0,1,1,0-3c7.55,0,13.93-3.57,13.93-7.8a1.5,1.5,0,0,1,3,0C85,155.26,77.53,160,68,160Z"/><path d="M94.63,169.3a1.5,1.5,0,0,1-.33,0,16.7,16.7,0,0,1-12.67-19.9,1.5,1.5,0,1,1,2.93.65A13.68,13.68,0,0,0,95,166.34,1.5,1.5,0,0,1,94.63,169.3Z"/><path d="M97.18,161.1a15.69,15.69,0,0,1-14.84-10.61,1.5,1.5,0,0,1,2.84-1,12.68,12.68,0,0,0,16.07,7.9,1.5,1.5,0,0,1,1,2.84A15.61,15.61,0,0,1,97.18,161.1Z"/><path d="M105.83,156.54c-5.76,0-10-1-12.79-2.87a10.05,10.05,0,0,1-4.31-7.34,1.5,1.5,0,1,1,3-.41,7,7,0,0,0,3,5.28c5.12,3.52,17.14,3.11,35.72-1.21a1.5,1.5,0,1,1,.68,2.92C120.71,155.33,112.3,156.54,105.83,156.54Z"/><path d="M143.64,160.08c-8,0-14.33-3.79-14.33-8.64a1.5,1.5,0,0,1,3,0c0,2.67,4.65,5.64,11.33,5.64A1.5,1.5,0,0,1,143.64,160.08Z"/><path class="cls-2" d="M104.92,221h0a0.51,0.51,0,0,1,.51.51v0a12.21,12.21,0,0,1-12.21,12.21h0a0.51,0.51,0,0,1-.51-0.51v0A12.21,12.21,0,0,1,104.92,221Z"/><path class="cls-6" d="M93.23,235.18a2,2,0,0,1-2-2,13.72,13.72,0,0,1,13.71-13.71,2,2,0,0,1,2,2A13.72,13.72,0,0,1,93.23,235.18Zm10.66-12.67a10.73,10.73,0,0,0-9.62,9.62A10.73,10.73,0,0,0,103.88,222.51Z"/><path class="cls-2" d="M106,221h0a12.21,12.21,0,0,1,12.21,12.21v0a0.51,0.51,0,0,1-.51.51h0a12.21,12.21,0,0,1-12.21-12.21v0A0.51,0.51,0,0,1,106,221Z" transform="translate(223.68 454.64) rotate(180)"/><path class="cls-6" d="M117.69,235.18A13.72,13.72,0,0,1,104,221.47a2,2,0,0,1,2-2,13.72,13.72,0,0,1,13.71,13.71A2,2,0,0,1,117.69,235.18ZM107,222.51a10.73,10.73,0,0,0,9.62,9.62A10.73,10.73,0,0,0,107,222.51Z"/><circle class="cls-2" cx="105.48" cy="221.52" r="2.44"/><path d="M105.48,225.46a3.94,3.94,0,1,1,3.94-3.94A3.94,3.94,0,0,1,105.48,225.46Zm0-4.88a0.94,0.94,0,1,0,.94.94A0.94,0.94,0,0,0,105.48,220.59Z"/><path class="cls-6" d="M66.14,262a1.5,1.5,0,0,1-1.5-1.5v-7.12a1.5,1.5,0,0,1,3,0v7.12A1.5,1.5,0,0,1,66.14,262Z"/><path class="cls-6" d="M147,262a1.5,1.5,0,0,1-1.5-1.5v-7.12a1.5,1.5,0,0,1,3,0v7.12A1.5,1.5,0,0,1,147,262Z"/><polygon class="cls-7" points="221.81 182.66 214.57 172.26 207.33 182.66 207.33 260.55 221.81 260.55 221.81 182.66"/><path d="M221.81,262.05H207.33a1.5,1.5,0,0,1-1.5-1.5V182.67a1.5,1.5,0,0,1,.27-0.86l7.24-10.41a1.56,1.56,0,0,1,2.46,0L223,181.81a1.5,1.5,0,0,1,.27.86v77.89A1.5,1.5,0,0,1,221.81,262.05Zm-13-3h11.48V183.14l-5.74-8.25-5.74,8.25v75.92Z"/><rect class="cls-7" x="228.2" y="206.82" width="23.45" height="53.73"/><path d="M251.64,262H228.2a1.5,1.5,0,0,1-1.5-1.5V206.82a1.5,1.5,0,0,1,1.5-1.5h23.45a1.5,1.5,0,0,1,1.5,1.5v53.73A1.5,1.5,0,0,1,251.64,262Zm-21.95-3h20.45V208.32H229.7V259Z"/><rect class="cls-7" x="251.39" y="163.9" width="14.48" height="96.65"/><path d="M265.87,262H251.39a1.5,1.5,0,0,1-1.5-1.5V163.9a1.5,1.5,0,0,1,1.5-1.5h14.48a1.5,1.5,0,0,1,1.5,1.5v96.65A1.5,1.5,0,0,1,265.87,262Zm-13-3h11.48V165.4H252.89V259Z"/><rect class="cls-2" x="214.52" y="237.11" width="23.45" height="23.45"/><path d="M238,262.05H214.52a1.5,1.5,0,0,1-1.5-1.5V237.11a1.5,1.5,0,0,1,1.5-1.5H238a1.5,1.5,0,0,1,1.5,1.5v23.45A1.5,1.5,0,0,1,238,262.05Zm-21.95-3h20.45V238.61H216v20.45Z"/><rect class="cls-2" x="177.66" y="206.82" width="23.45" height="53.73"/><path d="M201.11,262.05H177.66a1.5,1.5,0,0,1-1.5-1.5V206.82a1.5,1.5,0,0,1,1.5-1.5h23.45a1.5,1.5,0,0,1,1.5,1.5v53.74A1.5,1.5,0,0,1,201.11,262.05Zm-21.95-3h20.45V208.32H179.16v50.74Z"/><path d="M259.45,164.74a1.5,1.5,0,0,1-1.5-1.5V148.3a1.5,1.5,0,0,1,3,0v14.95A1.5,1.5,0,0,1,259.45,164.74Z"/><rect class="cls-2" x="181.54" y="200.78" width="15.08" height="6.38"/><path d="M196.62,208.66H181.54a1.5,1.5,0,0,1-1.5-1.5v-6.38a1.5,1.5,0,0,1,1.5-1.5h15.08a1.5,1.5,0,0,1,1.5,1.5v6.38A1.5,1.5,0,0,1,196.62,208.66Zm-13.58-3h12.08v-3.38H183v3.38Z"/></svg>