<svg id="Layer_1" data-name="Layer 1" xmlns="http://www.w3.org/2000/svg" viewBox="0 0 821.89 156.68"><defs><style>.cls-1{fill:#358df2;}.cls-2{fill:#231f20;}.cls-3{fill:#ececec;}.cls-4{fill:#e51b24;}.cls-5{fill:#1ecac7;}.cls-6{fill:#85e8da;}</style></defs><title>Slide-12-Fruit</title><circle class="cls-1" cx="85.02" cy="50.87" r="34.33"/><path d="M85,86.7a35.83,35.83,0,1,1,35.83-35.83A35.87,35.87,0,0,1,85,86.7ZM85,18a32.83,32.83,0,1,0,32.83,32.83A32.87,32.87,0,0,0,85,18Z"/><path class="cls-2" d="M85,29.25a1.5,1.5,0,0,1-1.5-1.5C83.52,11.78,89.12,3,99.3,3a1.5,1.5,0,1,1,0,3C88.74,6,86.52,17.82,86.52,27.75A1.5,1.5,0,0,1,85,29.25Z"/><path class="cls-2" d="M85,29.37a15.12,15.12,0,0,1-10.73-4.44,1.5,1.5,0,0,1,2.12-2.12,12.16,12.16,0,0,0,17.21,0,1.5,1.5,0,0,1,2.12,2.12A15.12,15.12,0,0,1,85,29.37Z"/><path class="cls-2" d="M108.92,47.72a1.5,1.5,0,0,1-1.49-1.33,12.2,12.2,0,0,0-4.4-8,1.5,1.5,0,1,1,1.9-2.32,15.2,15.2,0,0,1,5.48,10,1.5,1.5,0,0,1-1.32,1.66h-0.17Z"/><circle class="cls-1" cx="167.46" cy="50.87" r="34.33"/><path d="M167.46,86.7A35.83,35.83,0,1,1,203.3,50.87,35.87,35.87,0,0,1,167.46,86.7Zm0-68.67A32.83,32.83,0,1,0,200.3,50.87,32.87,32.87,0,0,0,167.46,18Z"/><path class="cls-2" d="M167.46,29.25a1.5,1.5,0,0,1-1.5-1.5c0-16,5.6-24.77,15.78-24.77a1.5,1.5,0,0,1,0,3C171.18,6,169,17.82,169,27.75A1.5,1.5,0,0,1,167.46,29.25Z"/><path class="cls-2" d="M167.46,29.38a15.07,15.07,0,0,1-10.73-4.45,1.5,1.5,0,0,1,2.12-2.12,12.16,12.16,0,0,0,17.21,0,1.5,1.5,0,0,1,2.12,2.12A15.07,15.07,0,0,1,167.46,29.38Z"/><path class="cls-2" d="M191.36,47.72a1.5,1.5,0,0,1-1.49-1.33,12.2,12.2,0,0,0-4.4-8,1.5,1.5,0,1,1,1.9-2.32,15.2,15.2,0,0,1,5.48,10,1.5,1.5,0,0,1-1.32,1.66h-0.17Z"/><circle class="cls-1" cx="42.5" cy="64.78" r="34.33"/><path d="M42.5,100.61A35.83,35.83,0,1,1,78.33,64.78,35.87,35.87,0,0,1,42.5,100.61Zm0-68.67A32.83,32.83,0,1,0,75.33,64.78,32.87,32.87,0,0,0,42.5,31.94Z"/><path class="cls-2" d="M42.5,43.16a1.5,1.5,0,0,1-1.5-1.5c0-16,5.6-24.77,15.78-24.77a1.5,1.5,0,0,1,0,3C46.22,19.89,44,31.73,44,41.66A1.5,1.5,0,0,1,42.5,43.16Z"/><path class="cls-2" d="M42.5,43.28a15.12,15.12,0,0,1-10.73-4.44,1.5,1.5,0,1,1,2.12-2.12,12.16,12.16,0,0,0,17.21,0,1.5,1.5,0,0,1,2.12,2.12A15.12,15.12,0,0,1,42.5,43.28Z"/><path class="cls-2" d="M66.4,61.64a1.5,1.5,0,0,1-1.49-1.33,12.2,12.2,0,0,0-4.4-8A1.5,1.5,0,1,1,62.41,50a15.2,15.2,0,0,1,5.48,10,1.5,1.5,0,0,1-1.32,1.66H66.4Z"/><circle class="cls-1" cx="122.5" cy="64.78" r="34.33"/><path d="M122.5,100.61a35.83,35.83,0,1,1,35.83-35.83A35.87,35.87,0,0,1,122.5,100.61Zm0-68.67a32.83,32.83,0,1,0,32.83,32.83A32.87,32.87,0,0,0,122.5,31.94Z"/><path class="cls-2" d="M122.5,43.16a1.5,1.5,0,0,1-1.5-1.5c0-16,5.6-24.77,15.78-24.77a1.5,1.5,0,0,1,0,3C126.22,19.89,124,31.73,124,41.66A1.5,1.5,0,0,1,122.5,43.16Z"/><path class="cls-2" d="M122.5,43.28a15.12,15.12,0,0,1-10.73-4.44,1.5,1.5,0,1,1,2.12-2.12,12.16,12.16,0,0,0,17.21,0,1.5,1.5,0,0,1,2.12,2.12A15.12,15.12,0,0,1,122.5,43.28Z"/><path class="cls-2" d="M146.4,61.64a1.5,1.5,0,0,1-1.49-1.33,12.2,12.2,0,0,0-4.4-8,1.5,1.5,0,0,1,1.9-2.32,15.2,15.2,0,0,1,5.48,10,1.5,1.5,0,0,1-1.32,1.66H146.4Z"/><circle class="cls-1" cx="202.5" cy="64.78" r="34.33"/><path d="M202.5,100.61a35.83,35.83,0,1,1,35.83-35.83A35.87,35.87,0,0,1,202.5,100.61Zm0-68.67a32.83,32.83,0,1,0,32.83,32.83A32.87,32.87,0,0,0,202.5,31.94Z"/><path class="cls-2" d="M202.5,43.16a1.5,1.5,0,0,1-1.5-1.5c0-16,5.6-24.77,15.78-24.77a1.5,1.5,0,0,1,0,3C206.22,19.89,204,31.73,204,41.66A1.5,1.5,0,0,1,202.5,43.16Z"/><path class="cls-2" d="M202.5,43.28a15.12,15.12,0,0,1-10.73-4.44,1.5,1.5,0,0,1,2.12-2.12,12.16,12.16,0,0,0,17.21,0,1.5,1.5,0,0,1,2.12,2.12A15.12,15.12,0,0,1,202.5,43.28Z"/><path class="cls-2" d="M226.4,61.64a1.5,1.5,0,0,1-1.49-1.33,12.2,12.2,0,0,0-4.4-8,1.5,1.5,0,0,1,1.9-2.32,15.2,15.2,0,0,1,5.48,10,1.5,1.5,0,0,1-1.32,1.66H226.4Z"/><polygon class="cls-3" points="231.5 155.18 11.5 155.18 1.5 65.58 241.5 65.58 231.5 155.18"/><path d="M231.5,156.68H11.5A1.5,1.5,0,0,1,10,155.35L0,65.75A1.5,1.5,0,0,1,1.5,64.08h240A1.5,1.5,0,0,1,243,65.75l-10,89.6A1.5,1.5,0,0,1,231.5,156.68Zm-218.66-3H230.16l9.67-86.6H3.18Z"/><path d="M237.5,97.61H4.5a1.5,1.5,0,1,1,0-3h233A1.5,1.5,0,1,1,237.5,97.61Z"/><path d="M234.5,128.39H9.5a1.5,1.5,0,1,1,0-3h225A1.5,1.5,0,1,1,234.5,128.39Z"/><path d="M379.07,17.13a1.5,1.5,0,0,1-1.5-1.5V1.5a1.5,1.5,0,0,1,3,0V15.63A1.5,1.5,0,0,1,379.07,17.13Z"/><path d="M376.66,16.47a1.5,1.5,0,0,1-1.17-.56L365.25,3.1a1.5,1.5,0,1,1,2.34-1.87L377.83,14A1.5,1.5,0,0,1,376.66,16.47Z"/><path d="M381.48,16.47A1.5,1.5,0,0,1,380.3,14l10.24-12.8a1.5,1.5,0,0,1,2.34,1.87L382.65,15.9A1.5,1.5,0,0,1,381.48,16.47Z"/><path class="cls-4" d="M379.75,96h0a17.28,17.28,0,0,1-15.56-9.77L348.62,54a32.05,32.05,0,0,1,31.13-39.68h0A32.05,32.05,0,0,1,410.89,54L395.32,86.21A17.28,17.28,0,0,1,379.75,96Z"/><path d="M379.75,97.48a18.89,18.89,0,0,1-16.91-10.62L347.2,54.47l0-.15a33.55,33.55,0,1,1,65.18,0l-0.11.3L396.67,86.87A18.88,18.88,0,0,1,379.75,97.48ZM350,53.46l15.5,32.11a15.78,15.78,0,0,0,28.42,0l15.5-32.11A30.55,30.55,0,1,0,350,53.46Z"/><path d="M379.73,77.86a1.5,1.5,0,0,1-1.5-1.5v-7.5a1.5,1.5,0,0,1,3,0v7.5A1.5,1.5,0,0,1,379.73,77.86Z"/><path d="M379.73,60.82a1.5,1.5,0,0,1-1.5-1.5V49.79a1.5,1.5,0,0,1,3,0v9.54A1.5,1.5,0,0,1,379.73,60.82Z"/><path d="M379.73,41.75a1.5,1.5,0,0,1-1.5-1.5v-7.5a1.5,1.5,0,0,1,3,0v7.5A1.5,1.5,0,0,1,379.73,41.75Z"/><path d="M369.6,77.48a1.5,1.5,0,0,1-1.47-1.22l-1.4-7.37a1.5,1.5,0,1,1,2.95-.56l1.4,7.37a1.5,1.5,0,0,1-1.19,1.75Z"/><path d="M366.43,60.74A1.5,1.5,0,0,1,365,59.52l-1.77-9.37a1.5,1.5,0,1,1,2.95-.56L367.9,59a1.5,1.5,0,0,1-1.19,1.75Z"/><path d="M362.88,42a1.5,1.5,0,0,1-1.47-1.22L360,33.41a1.5,1.5,0,0,1,2.95-.56l1.4,7.37A1.5,1.5,0,0,1,363.16,42Z"/><path d="M390,77.48l-0.28,0a1.5,1.5,0,0,1-1.19-1.75l1.4-7.37a1.5,1.5,0,0,1,2.95.56l-1.4,7.37A1.5,1.5,0,0,1,390,77.48Z"/><path d="M393.19,60.74l-0.28,0A1.5,1.5,0,0,1,391.71,59l1.77-9.37a1.5,1.5,0,1,1,2.95.56l-1.77,9.37A1.5,1.5,0,0,1,393.19,60.74Z"/><path d="M396.73,42l-0.28,0a1.5,1.5,0,0,1-1.19-1.75l1.4-7.37a1.5,1.5,0,0,1,2.95.56l-1.4,7.37A1.5,1.5,0,0,1,396.73,42Z"/><path d="M449.93,17.13a1.5,1.5,0,0,1-1.5-1.5V1.5a1.5,1.5,0,0,1,3,0V15.63A1.5,1.5,0,0,1,449.93,17.13Z"/><path d="M447.52,16.47a1.5,1.5,0,0,1-1.17-.56L436.11,3.1a1.5,1.5,0,0,1,2.34-1.87L448.69,14A1.5,1.5,0,0,1,447.52,16.47Z"/><path d="M452.34,16.47A1.5,1.5,0,0,1,451.17,14L461.4,1.23a1.5,1.5,0,0,1,2.34,1.87L453.51,15.9A1.5,1.5,0,0,1,452.34,16.47Z"/><path class="cls-4" d="M450.61,96h0a17.28,17.28,0,0,1-15.56-9.77L419.48,54a32.05,32.05,0,0,1,31.13-39.68h0A32.05,32.05,0,0,1,481.75,54L466.18,86.21A17.28,17.28,0,0,1,450.61,96Z"/><path d="M450.62,97.48A18.89,18.89,0,0,1,433.7,86.87L418.06,54.47l0-.15a33.55,33.55,0,1,1,65.18,0l-0.11.3L467.53,86.87A18.88,18.88,0,0,1,450.62,97.48Zm-29.71-44,15.5,32.11a15.78,15.78,0,0,0,28.42,0l15.5-32.11A30.55,30.55,0,1,0,420.9,53.46Z"/><path d="M450.59,77.86a1.5,1.5,0,0,1-1.5-1.5v-7.5a1.5,1.5,0,0,1,3,0v7.5A1.5,1.5,0,0,1,450.59,77.86Z"/><path d="M450.59,60.82a1.5,1.5,0,0,1-1.5-1.5V49.79a1.5,1.5,0,0,1,3,0v9.54A1.5,1.5,0,0,1,450.59,60.82Z"/><path d="M450.59,41.75a1.5,1.5,0,0,1-1.5-1.5v-7.5a1.5,1.5,0,1,1,3,0v7.5A1.5,1.5,0,0,1,450.59,41.75Z"/><path d="M440.46,77.48A1.5,1.5,0,0,1,439,76.26l-1.39-7.37a1.5,1.5,0,1,1,2.95-.56l1.39,7.37a1.5,1.5,0,0,1-1.19,1.75Z"/><path d="M437.29,60.74a1.5,1.5,0,0,1-1.47-1.22L434,50.15a1.5,1.5,0,1,1,2.95-.56L438.76,59a1.5,1.5,0,0,1-1.19,1.75Z"/><path d="M433.74,42a1.5,1.5,0,0,1-1.47-1.22l-1.39-7.37a1.5,1.5,0,1,1,2.95-.56l1.39,7.37A1.5,1.5,0,0,1,434,42Z"/><path d="M460.88,77.48l-0.28,0a1.5,1.5,0,0,1-1.19-1.75l1.4-7.37a1.5,1.5,0,0,1,2.95.56l-1.4,7.37A1.5,1.5,0,0,1,460.88,77.48Z"/><path d="M464,60.74l-0.28,0A1.5,1.5,0,0,1,462.57,59l1.77-9.37a1.5,1.5,0,1,1,2.95.56l-1.77,9.37A1.5,1.5,0,0,1,464,60.74Z"/><path d="M467.6,42l-0.28,0a1.5,1.5,0,0,1-1.19-1.75l1.39-7.37a1.5,1.5,0,1,1,2.95.56l-1.39,7.37A1.5,1.5,0,0,1,467.6,42Z"/><path d="M341.79,27.13a1.5,1.5,0,0,1-1.5-1.5V11.5a1.5,1.5,0,0,1,3,0V25.63A1.5,1.5,0,0,1,341.79,27.13Z"/><path d="M339.39,26.47a1.5,1.5,0,0,1-1.17-.56L328,13.1a1.5,1.5,0,0,1,2.34-1.87L340.56,24A1.5,1.5,0,0,1,339.39,26.47Z"/><path d="M344.2,26.47A1.5,1.5,0,0,1,343,24l10.24-12.8a1.5,1.5,0,1,1,2.34,1.87L345.38,25.9A1.5,1.5,0,0,1,344.2,26.47Z"/><path class="cls-4" d="M342.48,106h0a17.28,17.28,0,0,1-15.56-9.77L311.35,64a32.05,32.05,0,0,1,31.13-39.68h0A32.05,32.05,0,0,1,373.62,64L358,96.21A17.28,17.28,0,0,1,342.48,106Z"/><path d="M342.48,107.48a18.89,18.89,0,0,1-16.91-10.62L309.93,64.47l0-.15a33.55,33.55,0,1,1,65.18,0l-0.11.3L359.4,96.87A18.89,18.89,0,0,1,342.48,107.48Zm-29.71-44,15.5,32.11a15.78,15.78,0,0,0,28.43,0l15.5-32.11A30.55,30.55,0,1,0,312.77,63.46Z"/><path d="M342.46,87.86a1.5,1.5,0,0,1-1.5-1.5v-7.5a1.5,1.5,0,0,1,3,0v7.5A1.5,1.5,0,0,1,342.46,87.86Z"/><path d="M342.46,70.82a1.5,1.5,0,0,1-1.5-1.5V59.79a1.5,1.5,0,0,1,3,0v9.54A1.5,1.5,0,0,1,342.46,70.82Z"/><path d="M342.46,51.75a1.5,1.5,0,0,1-1.5-1.5v-7.5a1.5,1.5,0,0,1,3,0v7.5A1.5,1.5,0,0,1,342.46,51.75Z"/><path d="M332.32,87.48a1.5,1.5,0,0,1-1.47-1.22l-1.4-7.37a1.5,1.5,0,1,1,2.95-.56l1.4,7.37a1.5,1.5,0,0,1-1.19,1.75Z"/><path d="M329.16,70.74a1.5,1.5,0,0,1-1.47-1.22l-1.77-9.37a1.5,1.5,0,1,1,2.95-.56L330.63,69a1.5,1.5,0,0,1-1.19,1.75Z"/><path d="M325.61,52a1.5,1.5,0,0,1-1.47-1.22l-1.39-7.37a1.5,1.5,0,1,1,2.95-.56l1.39,7.37A1.5,1.5,0,0,1,325.89,52Z"/><path d="M352.75,87.48l-0.28,0a1.5,1.5,0,0,1-1.19-1.75l1.4-7.37a1.5,1.5,0,1,1,2.95.56l-1.4,7.37A1.5,1.5,0,0,1,352.75,87.48Z"/><path d="M355.91,70.74l-0.28,0A1.5,1.5,0,0,1,354.44,69l1.77-9.37a1.5,1.5,0,1,1,2.95.56l-1.77,9.37A1.5,1.5,0,0,1,355.91,70.74Z"/><path d="M359.46,52l-0.28,0A1.5,1.5,0,0,1,358,50.22l1.4-7.37a1.5,1.5,0,1,1,2.95.56l-1.4,7.37A1.5,1.5,0,0,1,359.46,52Z"/><path d="M412.66,27.13a1.5,1.5,0,0,1-1.5-1.5V11.5a1.5,1.5,0,0,1,3,0V25.63A1.5,1.5,0,0,1,412.66,27.13Z"/><path d="M410.25,26.47a1.5,1.5,0,0,1-1.17-.56L398.84,13.1a1.5,1.5,0,1,1,2.34-1.87L411.42,24A1.5,1.5,0,0,1,410.25,26.47Z"/><path d="M415.07,26.47A1.5,1.5,0,0,1,413.89,24l10.24-12.8a1.5,1.5,0,0,1,2.34,1.87L416.24,25.9A1.5,1.5,0,0,1,415.07,26.47Z"/><path class="cls-4" d="M413.34,106h0a17.28,17.28,0,0,1-15.56-9.77L382.21,64a32.05,32.05,0,0,1,31.13-39.68h0A32.05,32.05,0,0,1,444.48,64L428.91,96.21A17.28,17.28,0,0,1,413.34,106Z"/><path d="M413.34,107.48a18.89,18.89,0,0,1-16.91-10.62L380.79,64.47l0-.15a33.55,33.55,0,1,1,65.18,0l-0.11.3L430.26,96.87A18.89,18.89,0,0,1,413.34,107.48Zm-29.71-44,15.5,32.11a15.78,15.78,0,0,0,28.43,0l15.5-32.11A30.55,30.55,0,1,0,383.63,63.46Z"/><path d="M413.32,87.86a1.5,1.5,0,0,1-1.5-1.5v-7.5a1.5,1.5,0,0,1,3,0v7.5A1.5,1.5,0,0,1,413.32,87.86Z"/><path d="M413.32,70.82a1.5,1.5,0,0,1-1.5-1.5V59.79a1.5,1.5,0,0,1,3,0v9.54A1.5,1.5,0,0,1,413.32,70.82Z"/><path d="M413.32,51.75a1.5,1.5,0,0,1-1.5-1.5v-7.5a1.5,1.5,0,0,1,3,0v7.5A1.5,1.5,0,0,1,413.32,51.75Z"/><path d="M403.19,87.48a1.5,1.5,0,0,1-1.47-1.22l-1.39-7.37a1.5,1.5,0,1,1,2.95-.56l1.39,7.37a1.5,1.5,0,0,1-1.19,1.75Z"/><path d="M400,70.74a1.5,1.5,0,0,1-1.47-1.22l-1.77-9.37a1.5,1.5,0,1,1,2.95-.56L401.49,69a1.5,1.5,0,0,1-1.19,1.75Z"/><path d="M396.47,52A1.5,1.5,0,0,1,395,50.78l-1.4-7.37a1.5,1.5,0,1,1,2.95-.56l1.4,7.37A1.5,1.5,0,0,1,396.75,52Z"/><path d="M423.61,87.48l-0.28,0a1.5,1.5,0,0,1-1.19-1.75l1.39-7.37a1.5,1.5,0,1,1,2.95.56l-1.39,7.37A1.5,1.5,0,0,1,423.61,87.48Z"/><path d="M426.78,70.74l-0.28,0A1.5,1.5,0,0,1,425.3,69l1.77-9.37a1.5,1.5,0,1,1,2.95.56l-1.77,9.37A1.5,1.5,0,0,1,426.78,70.74Z"/><path d="M430.32,52L430,52a1.5,1.5,0,0,1-1.19-1.75l1.39-7.37a1.5,1.5,0,1,1,2.95.56l-1.39,7.37A1.5,1.5,0,0,1,430.32,52Z"/><path d="M483.52,27.13a1.5,1.5,0,0,1-1.5-1.5V11.5a1.5,1.5,0,0,1,3,0V25.63A1.5,1.5,0,0,1,483.52,27.13Z"/><path d="M481.11,26.47a1.5,1.5,0,0,1-1.17-.56L469.7,13.1A1.5,1.5,0,1,1,472,11.23L482.28,24A1.5,1.5,0,0,1,481.11,26.47Z"/><path d="M485.93,26.47A1.5,1.5,0,0,1,484.76,24L495,11.23a1.5,1.5,0,0,1,2.34,1.87L487.1,25.9A1.5,1.5,0,0,1,485.93,26.47Z"/><path class="cls-4" d="M484.2,106h0a17.28,17.28,0,0,1-15.56-9.77L453.07,64A32.05,32.05,0,0,1,484.2,24.29h0A32.05,32.05,0,0,1,515.34,64L499.77,96.21A17.28,17.28,0,0,1,484.2,106Z"/><path d="M484.2,107.48a18.88,18.88,0,0,1-16.91-10.62L451.65,64.47l0-.15a33.55,33.55,0,1,1,65.18,0l-0.11.3L501.12,96.87A18.89,18.89,0,0,1,484.2,107.48Zm-29.71-44L470,95.56a15.78,15.78,0,0,0,28.42,0l15.5-32.11A30.55,30.55,0,1,0,454.49,63.46Z"/><path d="M484.18,87.86a1.5,1.5,0,0,1-1.5-1.5v-7.5a1.5,1.5,0,0,1,3,0v7.5A1.5,1.5,0,0,1,484.18,87.86Z"/><path d="M484.18,70.82a1.5,1.5,0,0,1-1.5-1.5V59.79a1.5,1.5,0,0,1,3,0v9.54A1.5,1.5,0,0,1,484.18,70.82Z"/><path d="M484.18,51.75a1.5,1.5,0,0,1-1.5-1.5v-7.5a1.5,1.5,0,0,1,3,0v7.5A1.5,1.5,0,0,1,484.18,51.75Z"/><path d="M474,87.48a1.5,1.5,0,0,1-1.47-1.22l-1.4-7.37a1.5,1.5,0,0,1,2.95-.56l1.4,7.37a1.5,1.5,0,0,1-1.19,1.75Z"/><path d="M470.88,70.74a1.5,1.5,0,0,1-1.47-1.22l-1.77-9.37a1.5,1.5,0,1,1,2.95-.56L472.35,69a1.5,1.5,0,0,1-1.19,1.75Z"/><path d="M467.33,52a1.5,1.5,0,0,1-1.47-1.22l-1.4-7.37a1.5,1.5,0,0,1,2.95-.56l1.4,7.37A1.5,1.5,0,0,1,467.61,52Z"/><path d="M494.47,87.48l-0.28,0A1.5,1.5,0,0,1,493,85.7l1.39-7.37a1.5,1.5,0,1,1,2.95.56l-1.39,7.37A1.5,1.5,0,0,1,494.47,87.48Z"/><path d="M497.64,70.74l-0.28,0A1.5,1.5,0,0,1,496.16,69l1.77-9.37a1.5,1.5,0,1,1,2.95.56l-1.77,9.37A1.5,1.5,0,0,1,497.64,70.74Z"/><path d="M501.19,52l-0.28,0a1.5,1.5,0,0,1-1.19-1.75l1.39-7.37a1.5,1.5,0,1,1,2.95.56l-1.39,7.37A1.5,1.5,0,0,1,501.19,52Z"/><polygon class="cls-3" points="520.66 155.18 300.66 155.18 290.66 65.58 530.66 65.58 520.66 155.18"/><path d="M520.66,156.68h-220a1.5,1.5,0,0,1-1.49-1.33l-10-89.6a1.5,1.5,0,0,1,1.49-1.67h240a1.5,1.5,0,0,1,1.49,1.67l-10,89.6A1.5,1.5,0,0,1,520.66,156.68Zm-218.66-3H519.31L529,67.08H292.33Z"/><rect x="294.28" y="94.61" width="233" height="3"/><rect x="297.28" y="125.39" width="227" height="3"/><path class="cls-5" d="M662.62,80.22h0c-13.33,8.92-21.56.62-26.14-9.79l-3.73-8.5c-8.35-19-2.92-40.38,26.11-40.38h7.46c28.81,0,34.46,21.37,26.11,40.38l-3.73,8.5C684.14,80.83,675.56,89.39,662.62,80.22Z"/><path d="M673,85.61A19.08,19.08,0,0,1,662.6,82c-5.16,3.23-10,4.22-14.4,2.94C643,83.44,638.45,78.62,635.11,71l-3.73-8.5c-5-11.33-4.87-22.8.28-30.68,3.51-5.38,11.09-11.8,27.21-11.8h7.46c16,0,23.61,6.44,27.14,11.84,5.17,7.92,5.3,19.37.35,30.64L690.08,71c-2.37,5.39-6.62,12.21-13.42,14.1A13.48,13.48,0,0,1,673,85.61Zm-10.41-7.22,0.84,0.6c4.49,3.18,8.66,4.27,12.38,3.24,5.67-1.57,9.37-7.62,11.47-12.41l3.73-8.5c4.54-10.34,4.5-20.73-.12-27.8C686.48,26.67,678,23,666.33,23h-7.46c-11.7,0-20.23,3.61-24.69,10.44-4.59,7-4.61,17.44,0,27.84l3.73,8.5c2.07,4.71,5.69,10.66,11.18,12.26,3.75,1.09,8,0,12.75-3.11Z"/><path class="cls-2" d="M662.06,32.1a12.39,12.39,0,0,1-8.79-3.63,1.5,1.5,0,0,1,2.12-2.12,9.44,9.44,0,0,0,13.33,0,1.5,1.5,0,1,1,2.12,2.12A12.39,12.39,0,0,1,662.06,32.1Z"/><path class="cls-2" d="M687.93,41.57a1.5,1.5,0,0,1-1.49-1.33A9.46,9.46,0,0,0,683,34a1.5,1.5,0,1,1,1.9-2.32,12.46,12.46,0,0,1,4.49,8.2,1.5,1.5,0,0,1-1.32,1.66h-0.17Z"/><path class="cls-2" d="M662.08,32a1.5,1.5,0,0,1-1.5-1.5c0-13,4.59-20.11,12.92-20.11a1.5,1.5,0,0,1,0,3c-8.2,0-9.92,9.3-9.92,17.11A1.5,1.5,0,0,1,662.08,32Z"/><path class="cls-6" d="M649.82,12.22h0a12.52,12.52,0,0,1,12.52,12.52v0a0,0,0,0,1,0,0h0a12.52,12.52,0,0,1-12.52-12.52v0A0,0,0,0,1,649.82,12.22Z"/><path class="cls-2" d="M662.34,26.24a14,14,0,0,1-14-14,1.5,1.5,0,0,1,1.5-1.5,14,14,0,0,1,14,14A1.5,1.5,0,0,1,662.34,26.24Zm-10.9-12.4a11,11,0,0,0,9.28,9.28A11,11,0,0,0,651.44,13.83Z"/><path class="cls-5" d="M737.38,80.22h0c-13.33,8.92-21.56.62-26.14-9.79l-3.73-8.5c-8.35-19-2.92-40.38,26.11-40.38h7.46c28.81,0,34.46,21.37,26.11,40.38l-3.73,8.5C758.91,80.83,750.33,89.39,737.38,80.22Z"/><path d="M747.81,85.61A19.08,19.08,0,0,1,737.36,82c-5.16,3.23-10,4.22-14.4,2.94-5.22-1.52-9.75-6.34-13.08-13.94l-3.73-8.5c-5-11.33-4.87-22.8.28-30.68,3.51-5.38,11.09-11.8,27.21-11.8h7.46c16,0,23.61,6.44,27.14,11.84,5.17,7.91,5.3,19.37.35,30.64L764.85,71c-2.37,5.39-6.62,12.21-13.42,14.1A13.48,13.48,0,0,1,747.81,85.61Zm-10.41-7.22,0.84,0.6c4.49,3.18,8.65,4.27,12.38,3.24,5.67-1.57,9.37-7.62,11.48-12.42l3.73-8.5c4.54-10.34,4.5-20.73-.12-27.8-4.48-6.85-13-10.48-24.63-10.48h-7.46c-11.7,0-20.23,3.61-24.69,10.44-4.59,7-4.61,17.44,0,27.84l3.73,8.5c2.07,4.71,5.69,10.66,11.18,12.26,3.75,1.09,8,0,12.75-3.11Z"/><path class="cls-2" d="M736.83,32.11A12.35,12.35,0,0,1,728,28.47a1.5,1.5,0,0,1,2.12-2.12,9.44,9.44,0,0,0,13.33,0,1.5,1.5,0,0,1,2.12,2.12A12.35,12.35,0,0,1,736.83,32.11Z"/><path class="cls-2" d="M762.69,41.57a1.5,1.5,0,0,1-1.49-1.33A9.45,9.45,0,0,0,757.8,34a1.5,1.5,0,1,1,1.9-2.32,12.46,12.46,0,0,1,4.49,8.2,1.5,1.5,0,0,1-1.32,1.66h-0.17Z"/><path class="cls-2" d="M736.85,32a1.5,1.5,0,0,1-1.5-1.5c0-13,4.59-20.11,12.92-20.11a1.5,1.5,0,0,1,0,3c-8.2,0-9.92,9.3-9.92,17.11A1.5,1.5,0,0,1,736.85,32Z"/><path class="cls-6" d="M724.59,12.22h0a12.52,12.52,0,0,1,12.52,12.52v0a0,0,0,0,1,0,0h0a12.52,12.52,0,0,1-12.52-12.52v0A0,0,0,0,1,724.59,12.22Z"/><path class="cls-2" d="M737.11,26.24a14,14,0,0,1-14-14,1.5,1.5,0,0,1,1.5-1.5,14,14,0,0,1,14,14A1.5,1.5,0,0,1,737.11,26.24Zm-10.9-12.4a11,11,0,0,0,9.28,9.28A11,11,0,0,0,726.2,13.83Z"/><path class="cls-5" d="M625.75,91.76h0c-13.33,8.92-21.56.62-26.14-9.79l-3.73-8.5c-8.35-19-2.92-40.38,26.11-40.38h7.46c28.81,0,34.46,21.37,26.11,40.38L651.85,82C647.27,92.37,638.69,100.93,625.75,91.76Z"/><path d="M636.18,97.15a19.09,19.09,0,0,1-10.46-3.6c-5.16,3.24-10,4.22-14.4,2.94-5.22-1.52-9.75-6.34-13.08-13.94l-3.73-8.5c-5-11.33-4.87-22.8.28-30.68,3.51-5.38,11.09-11.8,27.21-11.8h7.46c16,0,23.61,6.44,27.14,11.84,5.17,7.91,5.3,19.37.35,30.64l-3.73,8.5c-2.37,5.39-6.62,12.21-13.42,14.1A13.49,13.49,0,0,1,636.18,97.15Zm-10.41-7.22,0.84,0.6c4.49,3.18,8.65,4.27,12.38,3.24,5.67-1.57,9.37-7.62,11.47-12.42l3.73-8.5c4.54-10.34,4.5-20.73-.12-27.8-4.48-6.85-13-10.48-24.63-10.48H622c-11.7,0-20.23,3.61-24.69,10.44-4.59,7-4.61,17.44,0,27.84l3.73,8.5c2.07,4.71,5.69,10.66,11.17,12.26,3.75,1.09,8,0,12.75-3.11Z"/><path class="cls-2" d="M625.2,43.65A12.35,12.35,0,0,1,616.41,40a1.5,1.5,0,0,1,2.12-2.12,9.44,9.44,0,0,0,13.33,0A1.5,1.5,0,0,1,634,40,12.35,12.35,0,0,1,625.2,43.65Z"/><path class="cls-2" d="M651.06,53.11a1.5,1.5,0,0,1-1.49-1.33,9.45,9.45,0,0,0-3.41-6.23,1.5,1.5,0,1,1,1.9-2.32,12.46,12.46,0,0,1,4.49,8.2,1.5,1.5,0,0,1-1.32,1.66h-0.18Z"/><path class="cls-2" d="M625.21,43.55a1.5,1.5,0,0,1-1.5-1.5c0-13,4.59-20.11,12.92-20.11a1.5,1.5,0,0,1,0,3c-8.2,0-9.92,9.3-9.92,17.11A1.5,1.5,0,0,1,625.21,43.55Z"/><path class="cls-6" d="M613,23.76h0a12.52,12.52,0,0,1,12.52,12.52v0a0,0,0,0,1,0,0h0A12.52,12.52,0,0,1,613,23.76v0A0,0,0,0,1,613,23.76Z"/><path class="cls-2" d="M625.48,37.78a14,14,0,0,1-14-14,1.5,1.5,0,0,1,1.5-1.5,14,14,0,0,1,14,14A1.5,1.5,0,0,1,625.48,37.78Zm-10.9-12.4a11,11,0,0,0,9.28,9.28A11,11,0,0,0,614.57,25.38Z"/><path class="cls-5" d="M776,91.76h0c-13.33,8.92-21.56.62-26.14-9.79l-3.73-8.5c-8.35-19-2.92-40.38,26.11-40.38h7.46c28.81,0,34.46,21.37,26.11,40.38L802.09,82C797.52,92.37,788.94,100.93,776,91.76Z"/><path d="M786.43,97.15A19.08,19.08,0,0,1,776,93.56c-5.16,3.23-10,4.23-14.4,2.94-5.22-1.52-9.75-6.34-13.08-13.94l-3.73-8.5c-5-11.33-4.87-22.8.28-30.68,3.51-5.38,11.09-11.8,27.21-11.8h7.46c16,0,23.61,6.44,27.14,11.84,5.17,7.92,5.3,19.37.35,30.64l-3.73,8.5C801.09,88,796.84,94.78,790,96.66A13.48,13.48,0,0,1,786.43,97.15ZM776,89.93l0.84,0.6c4.49,3.18,8.65,4.27,12.38,3.24,5.67-1.57,9.37-7.62,11.47-12.41l3.73-8.5c4.54-10.34,4.5-20.73-.12-27.8-4.48-6.85-13-10.48-24.63-10.48h-7.46c-11.7,0-20.23,3.61-24.69,10.44-4.59,7-4.61,17.44,0,27.84l3.73,8.5c2.07,4.71,5.69,10.66,11.17,12.26,3.75,1.09,8,0,12.75-3.11Z"/><path class="cls-2" d="M775.44,43.65A12.35,12.35,0,0,1,766.65,40a1.5,1.5,0,0,1,2.12-2.12,9.44,9.44,0,0,0,13.33,0A1.5,1.5,0,0,1,784.23,40,12.35,12.35,0,0,1,775.44,43.65Z"/><path class="cls-2" d="M801.3,53.11a1.5,1.5,0,0,1-1.49-1.33,9.46,9.46,0,0,0-3.41-6.22,1.5,1.5,0,1,1,1.9-2.32,12.46,12.46,0,0,1,4.49,8.2,1.5,1.5,0,0,1-1.32,1.66H801.3Z"/><path class="cls-2" d="M775.46,43.55a1.5,1.5,0,0,1-1.5-1.5c0-13,4.59-20.11,12.92-20.11a1.5,1.5,0,0,1,0,3c-8.2,0-9.92,9.3-9.92,17.11A1.5,1.5,0,0,1,775.46,43.55Z"/><path class="cls-6" d="M763.2,23.76h0a12.52,12.52,0,0,1,12.52,12.52v0a0,0,0,0,1,0,0h0A12.52,12.52,0,0,1,763.2,23.76v0A0,0,0,0,1,763.2,23.76Z"/><path class="cls-2" d="M775.72,37.78a14,14,0,0,1-14-14,1.5,1.5,0,0,1,1.5-1.5,14,14,0,0,1,14,14A1.5,1.5,0,0,1,775.72,37.78Zm-10.9-12.4a11,11,0,0,0,9.29,9.28A11,11,0,0,0,764.82,25.38Z"/><path class="cls-5" d="M700.52,91.76h0c-13.33,8.92-21.56.62-26.14-9.79l-3.73-8.5c-8.35-19-2.92-40.38,26.11-40.38h7.46c28.81,0,34.46,21.37,26.11,40.38L726.61,82C722,92.37,713.46,100.93,700.52,91.76Z"/><path d="M710.95,97.15a19.08,19.08,0,0,1-10.46-3.6c-5.16,3.23-10,4.23-14.4,2.94C680.87,95,676.34,90.16,673,82.56l-3.73-8.5c-5-11.33-4.87-22.8.28-30.68,3.51-5.38,11.09-11.8,27.21-11.8h7.46c16,0,23.61,6.44,27.14,11.84,5.17,7.92,5.3,19.37.35,30.64L728,82.57c-2.37,5.39-6.62,12.21-13.42,14.1A13.48,13.48,0,0,1,710.95,97.15Zm-10.41-7.22,0.84,0.6c4.49,3.18,8.65,4.27,12.38,3.24,5.67-1.57,9.37-7.62,11.47-12.41l3.73-8.5c4.54-10.34,4.5-20.73-.12-27.8-4.48-6.85-13-10.48-24.63-10.48h-7.46c-11.7,0-20.23,3.61-24.69,10.44-4.59,7-4.61,17.44,0,27.84l3.73,8.5c2.07,4.71,5.69,10.66,11.17,12.26,3.75,1.09,8,0,12.75-3.11Z"/><path class="cls-2" d="M700,43.64A12.39,12.39,0,0,1,691.17,40a1.5,1.5,0,0,1,2.12-2.12,9.44,9.44,0,0,0,13.33,0A1.5,1.5,0,0,1,708.75,40,12.39,12.39,0,0,1,700,43.64Z"/><path class="cls-2" d="M725.83,53.11a1.5,1.5,0,0,1-1.49-1.33,9.46,9.46,0,0,0-3.41-6.22,1.5,1.5,0,1,1,1.9-2.32,12.46,12.46,0,0,1,4.49,8.2A1.5,1.5,0,0,1,726,53.1h-0.17Z"/><path class="cls-2" d="M700,43.55a1.5,1.5,0,0,1-1.5-1.5c0-13,4.59-20.11,12.92-20.11a1.5,1.5,0,0,1,0,3c-8.2,0-9.92,9.3-9.92,17.11A1.5,1.5,0,0,1,700,43.55Z"/><path class="cls-6" d="M687.72,23.76h0a12.52,12.52,0,0,1,12.52,12.52v0a0,0,0,0,1,0,0h0a12.52,12.52,0,0,1-12.52-12.52v0A0,0,0,0,1,687.72,23.76Z"/><path class="cls-2" d="M700.24,37.78a14,14,0,0,1-14-14,1.5,1.5,0,0,1,1.5-1.5,14,14,0,0,1,14,14A1.5,1.5,0,0,1,700.24,37.78Zm-10.9-12.4a11,11,0,0,0,9.28,9.28A11,11,0,0,0,689.34,25.38Z"/><polygon class="cls-3" points="810.39 155.18 590.39 155.18 580.39 65.58 820.39 65.58 810.39 155.18"/><path d="M810.39,156.68h-220a1.5,1.5,0,0,1-1.49-1.33l-10-89.6a1.5,1.5,0,0,1,1.49-1.67h240a1.5,1.5,0,0,1,1.49,1.67l-10,89.6A1.5,1.5,0,0,1,810.39,156.68Zm-218.66-3H809l9.67-86.6H582.06Z"/><path d="M816.48,97.61h-232a1.5,1.5,0,0,1,0-3h232A1.5,1.5,0,0,1,816.48,97.61Z"/><path d="M813.48,128.39h-226a1.5,1.5,0,1,1,0-3h226A1.5,1.5,0,0,1,813.48,128.39Z"/></svg>