<svg id="Layer_1" data-name="Layer 1" xmlns="http://www.w3.org/2000/svg" viewBox="0 0 960 550"><defs><style>.cls-1{fill:none;}.cls-2{fill:#fff;}.cls-3{fill:#231f20;}.cls-4{fill:#f6f6f6;}</style></defs><title>Slide-23-Chart</title><rect class="cls-1" width="960" height="550"/><rect class="cls-2" x="292.42" y="132" width="375.17" height="71.5"/><path class="cls-3" d="M376.17,144H0V71.5H376.17V144ZM1,143H375.17V72.5H1V143Z" transform="translate(291.92 60)"/><rect class="cls-4" x="292.42" y="203.5" width="375.17" height="71.5"/><path class="cls-3" d="M376.17,215.5H0V143H376.17v72.5ZM1,214.5H375.17V144H1v70.5Z" transform="translate(291.92 60)"/><path d="M154.13,114.94a2.87,2.87,0,0,0,3.14,2.52c1.48,0,2.3-.84,2.3-1.79a1.87,1.87,0,0,0-1.74-1.74l-2.3-.5a3.83,3.83,0,0,1-3.36-3.78,4.59,4.59,0,0,1,4.79-4.26c3.7,0,4.84,2.41,5.12,3.61l-2.32.87a2.61,2.61,0,0,0-2.8-2.24,2,2,0,0,0-2.24,1.79,1.65,1.65,0,0,0,1.54,1.62l2.18,0.48c2.44,0.53,3.72,2,3.72,4s-1.6,4.17-4.93,4.17c-3.7,0-5.26-2.38-5.49-3.92Z" transform="translate(291.92 60)"/><path d="M169.2,105.81h2.91v2.38H169.2v7a1.6,1.6,0,0,0,1.88,1.85,5.32,5.32,0,0,0,1-.11v2.24a5.76,5.76,0,0,1-1.79.25,3.5,3.5,0,0,1-3.75-3.84v-7.39H164v-2.38h0.73a1.88,1.88,0,0,0,2.07-2.07v-2.18h2.41v4.26Z" transform="translate(291.92 60)"/><path d="M178.86,111.57l3.64-.53a1,1,0,0,0,1-1c0-1.32-.87-2.41-2.91-2.41a2.86,2.86,0,0,0-3.05,2.72l-2.52-.59c0.28-2.58,2.6-4.37,5.52-4.37,4,0,5.6,2.3,5.6,4.93v6.75a12.65,12.65,0,0,0,.17,2.21h-2.58a9.83,9.83,0,0,1-.14-1.82,4.91,4.91,0,0,1-4.34,2.24,4.2,4.2,0,0,1-4.51-4C174.77,113.25,176.53,111.91,178.86,111.57Zm4.68,1.93v-0.62l-4.12.62a2,2,0,0,0-2,2,2,2,0,0,0,2.18,2C181.8,117.48,183.53,116.45,183.53,113.51Z" transform="translate(291.92 60)"/><path d="M197.73,108.47a8.28,8.28,0,0,0-1.15-.08c-2.21,0-3.7,1.18-3.7,4.14v6.75h-2.63V105.81h2.58v2.35a4.22,4.22,0,0,1,4-2.58,5,5,0,0,1,.87.08v2.8Z" transform="translate(291.92 60)"/><path d="M204.76,105.81h2.91v2.38h-2.91v7a1.6,1.6,0,0,0,1.88,1.85,5.32,5.32,0,0,0,1-.11v2.24a5.76,5.76,0,0,1-1.79.25,3.5,3.5,0,0,1-3.75-3.84v-7.39h-2.58v-2.38h0.73a1.88,1.88,0,0,0,2.07-2.07v-2.18h2.41v4.26Z" transform="translate(291.92 60)"/><path d="M215.79,97l1.6,1.4a17.7,17.7,0,0,0,0,23.91l-1.6,1.4A19.42,19.42,0,0,1,215.79,97Z" transform="translate(291.92 60)"/><path d="M219,123.75l-1.6-1.4a17.7,17.7,0,0,0,0-23.91L219,97A19.42,19.42,0,0,1,219,123.75Z" transform="translate(291.92 60)"/><path d="M155.67,182.55a2.87,2.87,0,0,0,3.14,2.52c1.48,0,2.3-.84,2.3-1.79a1.87,1.87,0,0,0-1.74-1.74l-2.3-.5a3.83,3.83,0,0,1-3.36-3.78A4.59,4.59,0,0,1,158.5,173c3.7,0,4.84,2.41,5.12,3.61l-2.32.87a2.61,2.61,0,0,0-2.8-2.24,2,2,0,0,0-2.24,1.79,1.65,1.65,0,0,0,1.54,1.62l2.18,0.48c2.44,0.53,3.72,2,3.72,4s-1.6,4.17-4.93,4.17c-3.7,0-5.26-2.38-5.49-3.92Z" transform="translate(291.92 60)"/><path d="M170.74,173.42h2.91v2.38h-2.91v7a1.6,1.6,0,0,0,1.88,1.85,5.32,5.32,0,0,0,1-.11v2.24a5.76,5.76,0,0,1-1.79.25,3.5,3.5,0,0,1-3.75-3.84V175.8h-2.58v-2.38h0.73a1.88,1.88,0,0,0,2.07-2.07v-2.18h2.41v4.26Z" transform="translate(291.92 60)"/><path d="M189.66,180.14a6.89,6.89,0,1,1-6.89-7.14A6.8,6.8,0,0,1,189.66,180.14Zm-2.69,0c0-3.11-2-4.79-4.2-4.79s-4.2,1.68-4.2,4.79,2,4.82,4.2,4.82S187,183.28,187,180.14Z" transform="translate(291.92 60)"/><path d="M193,192.21V173.42h2.55v2.1a5,5,0,0,1,4.51-2.41c4,0,6.19,3.11,6.19,7s-2.32,7.11-6.27,7.11a5,5,0,0,1-4.37-2.18v7.14H193Zm6.58-16.77c-2.41,0-4,2-4,4.7s1.6,4.76,4,4.76,4-2,4-4.76S202.07,175.44,199.6,175.44Z" transform="translate(291.92 60)"/><path d="M214.25,164.66l1.6,1.4a17.7,17.7,0,0,0,0,23.91l-1.6,1.4A19.43,19.43,0,0,1,214.25,164.66Z" transform="translate(291.92 60)"/><path d="M217.44,191.37l-1.6-1.4a17.7,17.7,0,0,0,0-23.91l1.6-1.4A19.42,19.42,0,0,1,217.44,191.37Z" transform="translate(291.92 60)"/><rect class="cls-2" x="292.42" y="275" width="375.17" height="71.5"/><path class="cls-3" d="M376.17,287H0V214.5H376.17V287ZM1,286H375.17V215.5H1V286Z" transform="translate(291.92 60)"/><path d="M146.74,254.39V234.12h2.6v8.71a4.91,4.91,0,0,1,4.45-2.3c4.09,0,6.19,3.14,6.19,7.06s-2.27,7.17-6.27,7.17a4.81,4.81,0,0,1-4.37-2.32v2h-2.6Zm6.58-11.54c-2.32,0-4,1.82-4,4.73s1.68,4.82,4,4.82,4-1.9,4-4.82S155.76,242.85,153.32,242.85Z" transform="translate(291.92 60)"/><path d="M170.82,243.58a8.26,8.26,0,0,0-1.15-.08c-2.21,0-3.7,1.18-3.7,4.14v6.75h-2.63V240.92h2.58v2.35a4.22,4.22,0,0,1,4-2.58,4.92,4.92,0,0,1,.87.08v2.8Z" transform="translate(291.92 60)"/><path d="M176.87,246.69l3.64-.53a1,1,0,0,0,1-1c0-1.32-.87-2.41-2.91-2.41a2.86,2.86,0,0,0-3.05,2.72l-2.52-.59c0.28-2.58,2.6-4.37,5.52-4.37,4,0,5.6,2.3,5.6,4.93v6.75a12.65,12.65,0,0,0,.17,2.21h-2.58a9.83,9.83,0,0,1-.14-1.82,4.91,4.91,0,0,1-4.34,2.24,4.2,4.2,0,0,1-4.51-4C172.78,248.37,174.54,247,176.87,246.69Zm4.68,1.93V248l-4.12.62a2,2,0,0,0-2,2,2,2,0,0,0,2.18,2C179.81,252.6,181.54,251.56,181.54,248.62Z" transform="translate(291.92 60)"/><path d="M194.59,246.6l5.85,7.78h-3.3l-4.4-5.94-1.88,1.88v4.06h-2.6V234.12h2.6v12.77l5.82-6h3.64Z" transform="translate(291.92 60)"/><path d="M214,250.55a6.11,6.11,0,0,1-6,4.26c-3.61,0-6.78-2.63-6.78-7.2,0-4.23,3.05-7.11,6.44-7.11,4.14,0,6.47,2.86,6.47,7.06a5.85,5.85,0,0,1-.06.84H203.89a4,4,0,0,0,4.06,4.09,3.67,3.67,0,0,0,3.78-2.72Zm-2.66-4.28a3.39,3.39,0,0,0-3.7-3.44,3.62,3.62,0,0,0-3.67,3.44h7.36Z" transform="translate(291.92 60)"/><path d="M222.06,232.16l1.6,1.4a17.7,17.7,0,0,0,0,23.91l-1.6,1.4A19.42,19.42,0,0,1,222.06,232.16Z" transform="translate(291.92 60)"/><path d="M225.25,258.87l-1.6-1.4a17.7,17.7,0,0,0,0-23.91l1.6-1.4A19.42,19.42,0,0,1,225.25,258.87Z" transform="translate(291.92 60)"/><rect class="cls-4" x="292.42" y="346.5" width="375.17" height="71.5"/><path class="cls-3" d="M376.17,358.5H0V286H376.17v72.5ZM1,357.5H375.17V287H1v70.5Z" transform="translate(291.92 60)"/><path d="M119.64,319.19l3.64-.53a1,1,0,0,0,1-1c0-1.32-.87-2.41-2.91-2.41a2.86,2.86,0,0,0-3.05,2.72l-2.52-.59c0.28-2.58,2.6-4.37,5.52-4.37,4,0,5.6,2.3,5.6,4.93v6.75a12.65,12.65,0,0,0,.17,2.21h-2.58a9.83,9.83,0,0,1-.14-1.82,4.91,4.91,0,0,1-4.34,2.24,4.2,4.2,0,0,1-4.51-4C115.55,320.87,117.31,319.53,119.64,319.19Zm4.68,1.93V320.5l-4.12.62a2,2,0,0,0-2,2,2,2,0,0,0,2.18,2C122.58,325.1,124.31,324.06,124.31,321.12Z" transform="translate(291.92 60)"/><path d="M132.6,320.14c0,3.08,1.93,4.73,4.12,4.73a3.66,3.66,0,0,0,3.75-2.77l2.32,1a6.19,6.19,0,0,1-6.08,4.2,6.81,6.81,0,0,1-6.8-7.17c0-4.2,2.94-7.14,6.78-7.14a5.86,5.86,0,0,1,6,4.28l-2.38,1a3.53,3.53,0,0,0-3.61-2.86C134.56,315.44,132.6,317,132.6,320.14Z" transform="translate(291.92 60)"/><path d="M147.3,320.14c0,3.08,1.93,4.73,4.12,4.73a3.66,3.66,0,0,0,3.75-2.77l2.32,1a6.19,6.19,0,0,1-6.08,4.2,6.81,6.81,0,0,1-6.8-7.17c0-4.2,2.94-7.14,6.78-7.14a5.86,5.86,0,0,1,6,4.28l-2.38,1a3.53,3.53,0,0,0-3.61-2.86C149.26,315.44,147.3,317,147.3,320.14Z" transform="translate(291.92 60)"/><path d="M172.17,323.05a6.11,6.11,0,0,1-6,4.26c-3.61,0-6.78-2.63-6.78-7.2,0-4.23,3.05-7.11,6.44-7.11,4.14,0,6.47,2.86,6.47,7.06a5.93,5.93,0,0,1-.06.84H162.06a4,4,0,0,0,4.06,4.09,3.67,3.67,0,0,0,3.78-2.72Zm-2.66-4.28a3.39,3.39,0,0,0-3.7-3.44,3.62,3.62,0,0,0-3.67,3.44h7.36Z" transform="translate(291.92 60)"/><path d="M175.61,326.89V306.62h2.63v20.27h-2.63Z" transform="translate(291.92 60)"/><path d="M194.45,323.05a6.11,6.11,0,0,1-6,4.26c-3.61,0-6.78-2.63-6.78-7.2,0-4.23,3.05-7.11,6.44-7.11,4.14,0,6.47,2.86,6.47,7.06a5.85,5.85,0,0,1-.06.84H184.34A4,4,0,0,0,188.4,325a3.67,3.67,0,0,0,3.78-2.72Zm-2.66-4.28a3.39,3.39,0,0,0-3.7-3.44,3.62,3.62,0,0,0-3.67,3.44h7.36Z" transform="translate(291.92 60)"/><path d="M205.37,316.08a8.25,8.25,0,0,0-1.15-.08c-2.21,0-3.7,1.18-3.7,4.14v6.75H197.9V313.42h2.58v2.35a4.22,4.22,0,0,1,4-2.58,4.91,4.91,0,0,1,.87.08v2.8Z" transform="translate(291.92 60)"/><path d="M211.42,319.19l3.64-.53a1,1,0,0,0,1-1c0-1.32-.87-2.41-2.91-2.41a2.86,2.86,0,0,0-3.05,2.72l-2.52-.59c0.28-2.58,2.6-4.37,5.52-4.37,4,0,5.6,2.3,5.6,4.93v6.75a12.6,12.6,0,0,0,.17,2.21h-2.58a9.89,9.89,0,0,1-.14-1.82,4.91,4.91,0,0,1-4.34,2.24,4.2,4.2,0,0,1-4.51-4C207.33,320.87,209.1,319.53,211.42,319.19Zm4.68,1.93V320.5l-4.12.62a2,2,0,0,0-2,2,2,2,0,0,0,2.18,2C214.36,325.1,216.1,324.06,216.1,321.12Z" transform="translate(291.92 60)"/><path d="M226.34,313.42h2.91v2.38h-2.91v7a1.6,1.6,0,0,0,1.88,1.85,5.36,5.36,0,0,0,1-.11v2.24a5.76,5.76,0,0,1-1.79.25,3.5,3.5,0,0,1-3.75-3.84V315.8h-2.58v-2.38h0.73a1.88,1.88,0,0,0,2.07-2.07v-2.18h2.41v4.26Z" transform="translate(291.92 60)"/><path d="M244.35,323.05a6.11,6.11,0,0,1-6,4.26c-3.61,0-6.78-2.63-6.78-7.2,0-4.23,3.05-7.11,6.44-7.11,4.14,0,6.47,2.86,6.47,7.06a5.85,5.85,0,0,1-.06.84H234.24A4,4,0,0,0,238.3,325a3.67,3.67,0,0,0,3.78-2.72Zm-2.66-4.28a3.39,3.39,0,0,0-3.7-3.44,3.62,3.62,0,0,0-3.67,3.44h7.36Z" transform="translate(291.92 60)"/><path d="M252.41,304.66l1.6,1.4A17.7,17.7,0,0,0,254,330l-1.6,1.4A19.42,19.42,0,0,1,252.41,304.66Z" transform="translate(291.92 60)"/><path d="M255.6,331.37L254,330a17.7,17.7,0,0,0,0-23.91l1.6-1.4A19.42,19.42,0,0,1,255.6,331.37Z" transform="translate(291.92 60)"/><rect class="cls-2" x="292.42" y="418" width="375.17" height="71.5"/><path class="cls-3" d="M376.17,430H0V357.5H376.17V430ZM1,429H375.17V358.5H1V429Z" transform="translate(291.92 60)"/><path d="M61.51,398.53a3.58,3.58,0,0,0,3.67,3.3c2.83,0,4.12-1.46,4.12-4.37v-1.93a4.49,4.49,0,0,1-4.12,2.21c-3.58,0-6.19-2.72-6.19-6.52,0-3.64,2.49-6.55,6.19-6.55,2.07,0,3.47.78,4.14,2.13v-1.88h2.6v12.46c0,3.42-1.68,6.75-6.75,6.75-3.36,0-5.88-2.13-6.22-5Zm7.9-7.31c0-2.6-1.57-4.31-3.84-4.31s-3.89,1.71-3.89,4.31,1.51,4.31,3.89,4.31S69.41,393.83,69.41,391.22Z" transform="translate(291.92 60)"/><path d="M87.86,394.55a6.11,6.11,0,0,1-6,4.26c-3.61,0-6.78-2.63-6.78-7.2,0-4.23,3.05-7.11,6.44-7.11,4.14,0,6.47,2.86,6.47,7.06a5.93,5.93,0,0,1-.06.84H77.75a4,4,0,0,0,4.06,4.09,3.67,3.67,0,0,0,3.78-2.72Zm-2.66-4.28a3.39,3.39,0,0,0-3.7-3.44,3.62,3.62,0,0,0-3.67,3.44H85.2Z" transform="translate(291.92 60)"/><path d="M94.83,384.92h2.91v2.38H94.83v7a1.6,1.6,0,0,0,1.88,1.85,5.36,5.36,0,0,0,1-.11v2.24a5.76,5.76,0,0,1-1.79.25,3.5,3.5,0,0,1-3.75-3.84V387.3H89.62v-2.38h0.73a1.88,1.88,0,0,0,2.07-2.07v-2.18h2.41v4.26Z" transform="translate(291.92 60)"/><path d="M120.25,398.39V382.93l-6.78,15.46H111l-6.72-15.46v15.46h-2.72V378.54h3.72l7,16.16,7.06-16.16H123v19.85h-2.72Z" transform="translate(291.92 60)"/><path d="M140.38,391.64a6.89,6.89,0,1,1-6.89-7.14A6.8,6.8,0,0,1,140.38,391.64Zm-2.69,0c0-3.11-2-4.79-4.2-4.79s-4.2,1.68-4.2,4.79,2,4.82,4.2,4.82S137.7,394.78,137.7,391.64Z" transform="translate(291.92 60)"/><path d="M153.18,396.34a4.51,4.51,0,0,1-4.17,2.41c-3.95,0-6.38-3.14-6.38-7.14,0-3.81,2.58-7.06,6.38-7.06,2.38,0,3.67,1.18,4.12,2.27v-8.71h2.6V395.9a21.38,21.38,0,0,0,.14,2.49h-2.55a11.25,11.25,0,0,1-.14-1.82v-0.22Zm-3.92.08c2.41,0,3.89-2.1,3.89-4.87s-1.46-4.68-3.86-4.68-4,2-4,4.73S146.74,396.43,149.26,396.43Z" transform="translate(291.92 60)"/><path d="M171.94,394.55a6.11,6.11,0,0,1-6,4.26c-3.61,0-6.78-2.63-6.78-7.2,0-4.23,3.05-7.11,6.44-7.11,4.14,0,6.47,2.86,6.47,7.06a5.93,5.93,0,0,1-.06.84H161.83a4,4,0,0,0,4.06,4.09,3.67,3.67,0,0,0,3.78-2.72Zm-2.66-4.28a3.39,3.39,0,0,0-3.7-3.44,3.62,3.62,0,0,0-3.67,3.44h7.36Z" transform="translate(291.92 60)"/><path d="M175.38,398.39V378.12H178v20.27h-2.63Z" transform="translate(291.92 60)"/><path d="M194.37,392.84h-8.79l-2.1,5.54h-2.94l7.9-19.85h3.16l7.9,19.85h-3Zm-7.81-2.55h6.83l-3.44-8.9Z" transform="translate(291.92 60)"/><path d="M204.5,398.39h-2.63V384.92h2.58v1.93a4.61,4.61,0,0,1,4.14-2.32c3.22,0,4.82,2.32,4.82,5.32v8.54h-2.63V390.3c0-1.88-.78-3.39-3.14-3.39-2.07,0-3.14,1.65-3.14,3.7v7.78Z" transform="translate(291.92 60)"/><path d="M227,396.34a4.51,4.51,0,0,1-4.17,2.41c-3.95,0-6.38-3.14-6.38-7.14,0-3.81,2.58-7.06,6.38-7.06,2.38,0,3.67,1.18,4.12,2.27v-8.71h2.6V395.9a21.26,21.26,0,0,0,.14,2.49h-2.55a11.18,11.18,0,0,1-.14-1.82v-0.22Zm-3.92.08c2.41,0,3.89-2.1,3.89-4.87s-1.46-4.68-3.86-4.68-4,2-4,4.73S220.6,396.43,223.12,396.43Z" transform="translate(291.92 60)"/><path d="M253.08,398.39V382.93l-6.78,15.46h-2.52l-6.72-15.46v15.46h-2.72V378.54h3.72l7,16.16,7.06-16.16h3.67v19.85h-2.72Z" transform="translate(291.92 60)"/><path d="M263.67,390.69l3.64-.53a1,1,0,0,0,1-1c0-1.32-.87-2.41-2.91-2.41a2.86,2.86,0,0,0-3.05,2.72l-2.52-.59c0.28-2.58,2.6-4.37,5.52-4.37,4,0,5.6,2.3,5.6,4.93v6.75a12.71,12.71,0,0,0,.17,2.21h-2.58a9.77,9.77,0,0,1-.14-1.82,4.91,4.91,0,0,1-4.34,2.24,4.19,4.19,0,0,1-4.51-4C259.58,392.37,261.34,391,263.67,390.69Zm4.68,1.93V392l-4.12.62a2,2,0,0,0-2,2,2,2,0,0,0,2.18,2C266.61,396.6,268.34,395.56,268.34,392.62Z" transform="translate(291.92 60)"/><path d="M281.39,390.6l5.85,7.78h-3.3l-4.4-5.94-1.88,1.88v4.06h-2.6V378.12h2.6v12.77l5.82-6h3.64Z" transform="translate(291.92 60)"/><path d="M300.8,394.55a6.11,6.11,0,0,1-6,4.26c-3.61,0-6.78-2.63-6.78-7.2,0-4.23,3.05-7.11,6.44-7.11,4.14,0,6.47,2.86,6.47,7.06a5.85,5.85,0,0,1-.06.84H290.69a4,4,0,0,0,4.06,4.09,3.67,3.67,0,0,0,3.78-2.72Zm-2.66-4.28a3.39,3.39,0,0,0-3.7-3.44,3.62,3.62,0,0,0-3.67,3.44h7.36Z" transform="translate(291.92 60)"/><path d="M308.86,376.16l1.6,1.4a17.7,17.7,0,0,0,0,23.91l-1.6,1.4A19.42,19.42,0,0,1,308.86,376.16Z" transform="translate(291.92 60)"/><path d="M312.05,402.87l-1.6-1.4a17.7,17.7,0,0,0,0-23.91l1.6-1.4A19.42,19.42,0,0,1,312.05,402.87Z" transform="translate(291.92 60)"/><rect class="cls-4" x="292.42" y="60.5" width="375.17" height="71.5"/><path class="cls-3" d="M376.17,72.5H0V0H376.17V72.5ZM1,71.5H375.17V1H1V71.5Z" transform="translate(291.92 60)"/><path d="M158,47.77V33.86L152.3,47.77h-3.22L143.37,34v13.8h-3.7V27.92h5.1l6,14.34,5.82-14.34h5.26V47.77H158Z" transform="translate(291.92 60)"/><path d="M178.34,43.83a6.2,6.2,0,0,1-6.27,4.37A7,7,0,0,1,165,40.83a6.92,6.92,0,0,1,6.78-7.25c4.26,0,6.8,2.72,6.8,7.14,0,0.53-.06,1.09-0.06,1.15h-9.86A3.35,3.35,0,0,0,172.09,45a3,3,0,0,0,3.14-2.1Zm-3.47-4.51a2.77,2.77,0,0,0-3.08-2.72,3,3,0,0,0-3.08,2.72h6.16Z" transform="translate(291.92 60)"/><path d="M186.07,34h2.77v3.3h-2.77v5.77a1.38,1.38,0,0,0,1.62,1.6,5.39,5.39,0,0,0,1.15-.11v3.08a5.52,5.52,0,0,1-2.1.34c-2.69,0-4.37-1.6-4.37-4.26V37.3h-2.49V34h0.7a2,2,0,0,0,2.13-2.18V29.88h3.36V34Z" transform="translate(291.92 60)"/><path d="M195.05,47.77h-3.72V27.5h3.72v7.64a4.92,4.92,0,0,1,3.72-1.51c3.5,0,5.12,2.44,5.12,5.46v8.68h-3.72v-8c0-1.54-.76-2.74-2.55-2.74a2.58,2.58,0,0,0-2.58,2.69v8.09Z" transform="translate(291.92 60)"/><path d="M221.09,40.89a7.22,7.22,0,1,1-14.45,0A7.22,7.22,0,1,1,221.09,40.89Zm-3.72,0c0-2.6-1.68-3.92-3.5-3.92s-3.5,1.32-3.5,3.92,1.68,3.92,3.5,3.92S217.37,43.49,217.37,40.89Z" transform="translate(291.92 60)"/><path d="M237.17,45.28c0,0.92.06,1.93,0.11,2.49h-3.56a9.56,9.56,0,0,1-.14-1.6,4.32,4.32,0,0,1-3.86,1.93c-3.92,0-6.72-3.08-6.72-7.25s2.72-7.2,6.61-7.2c2.38,0,3.5,1,3.89,1.71V27.5h3.67V45.28Zm-7-.5c1.9,0,3.39-1.46,3.39-3.95S232.07,37,230.17,37s-3.42,1.4-3.42,3.86S228.21,44.78,230.17,44.78Z" transform="translate(291.92 60)"/></svg>