<svg id="Layer_1" data-name="Layer 1" xmlns="http://www.w3.org/2000/svg" viewBox="0 0 960 550"><defs><style>.cls-1{fill:none;}.cls-2{fill:#fff;}.cls-3{fill:#231f20;}.cls-4{fill:#f6f6f6;}</style></defs><title>Slide-20-Chart</title><rect class="cls-1" width="960" height="550"/><rect class="cls-2" x="250.83" y="141.25" width="229.67" height="71.5"/><path class="cls-3" d="M230.67,144H0V71.5H230.67V144ZM1,143H229.67V72.5H1V143Z" transform="translate(250.33 69.25)"/><rect class="cls-2" x="480.5" y="141.25" width="229.67" height="71.5"/><path class="cls-3" d="M460.33,144H229.67V71.5H460.33V144Zm-229.67-1H459.33V72.5H230.67V143Z" transform="translate(250.33 69.25)"/><rect class="cls-4" x="250.83" y="212.75" width="229.67" height="71.5"/><path class="cls-3" d="M230.67,215.5H0V143H230.67v72.5ZM1,214.5H229.67V144H1v70.5Z" transform="translate(250.33 69.25)"/><rect class="cls-4" x="480.5" y="212.75" width="229.67" height="71.5"/><path class="cls-3" d="M460.33,215.5H229.67V143H460.33v72.5Zm-229.67-1H459.33V144H230.67v70.5Z" transform="translate(250.33 69.25)"/><path d="M87.89,112.53c0,3.08,1.93,4.73,4.12,4.73a3.66,3.66,0,0,0,3.75-2.77l2.32,1a6.19,6.19,0,0,1-6.08,4.2,6.81,6.81,0,0,1-6.8-7.17c0-4.2,2.94-7.14,6.78-7.14a5.86,5.86,0,0,1,6,4.28l-2.38,1A3.53,3.53,0,0,0,92,107.82C89.85,107.82,87.89,109.39,87.89,112.53Z" transform="translate(250.33 69.25)"/><path d="M113.67,112.53a6.89,6.89,0,1,1-6.89-7.14A6.8,6.8,0,0,1,113.67,112.53Zm-2.69,0c0-3.11-2-4.79-4.2-4.79s-4.2,1.68-4.2,4.79,2,4.82,4.2,4.82S111,115.66,111,112.53Z" transform="translate(250.33 69.25)"/><path d="M117,119.27V99h2.63v20.27H117Z" transform="translate(250.33 69.25)"/><path d="M136.8,112.53a6.89,6.89,0,1,1-6.89-7.14A6.8,6.8,0,0,1,136.8,112.53Zm-2.69,0c0-3.11-2-4.79-4.2-4.79s-4.2,1.68-4.2,4.79,2,4.82,4.2,4.82S134.11,115.66,134.11,112.53Z" transform="translate(250.33 69.25)"/><path d="M147.64,108.47a8.25,8.25,0,0,0-1.15-.08c-2.21,0-3.7,1.18-3.7,4.14v6.75h-2.63V105.81h2.58v2.35a4.22,4.22,0,0,1,4-2.58,5,5,0,0,1,.87.08v2.8Z" transform="translate(250.33 69.25)"/><path d="M49.23,186.89V173.42h2.52v1.79A4.64,4.64,0,0,1,55.84,173a4.21,4.21,0,0,1,4,2.55A4.83,4.83,0,0,1,64.38,173c2.35,0,4.65,1.6,4.65,5.12v8.74h-2.6v-8.46c0-1.76-.87-3.08-2.86-3.08a3.14,3.14,0,0,0-3.11,3.39v8.15H57.83v-8.46c0-1.74-.84-3.08-2.86-3.08a3.12,3.12,0,0,0-3.14,3.42v8.12h-2.6Z" transform="translate(250.33 69.25)"/><path d="M76.48,179.19l3.64-.53a1,1,0,0,0,1-1c0-1.32-.87-2.41-2.91-2.41A2.86,2.86,0,0,0,75.19,178l-2.52-.59c0.28-2.58,2.6-4.37,5.52-4.37,4,0,5.6,2.3,5.6,4.93v6.75a12.65,12.65,0,0,0,.17,2.21H81.38a9.83,9.83,0,0,1-.14-1.82,4.91,4.91,0,0,1-4.34,2.24,4.2,4.2,0,0,1-4.51-4C72.39,180.87,74.15,179.52,76.48,179.19Zm4.68,1.93V180.5l-4.12.62a2,2,0,0,0-2,2,2,2,0,0,0,2.18,2C79.42,185.1,81.15,184.06,81.15,181.12Z" transform="translate(250.33 69.25)"/><path d="M90.92,180l-4.84-6.61h3.19l3.3,4.73,3.25-4.73h3.11L94.14,180c0.81,1.09,4.14,5.77,5,6.86H95.94l-3.47-5-3.42,5H85.91Z" transform="translate(250.33 69.25)"/><path d="M100.36,180v-2.3h7.59V180h-7.59Z" transform="translate(250.33 69.25)"/><path d="M112.57,182.55a2.87,2.87,0,0,0,3.14,2.52c1.48,0,2.3-.84,2.3-1.79a1.87,1.87,0,0,0-1.74-1.74L114,181a3.83,3.83,0,0,1-3.36-3.78A4.59,4.59,0,0,1,115.4,173c3.7,0,4.84,2.41,5.12,3.61l-2.32.87a2.61,2.61,0,0,0-2.8-2.24,2,2,0,0,0-2.24,1.79,1.65,1.65,0,0,0,1.54,1.62l2.18,0.48c2.44,0.53,3.72,2,3.72,4s-1.6,4.17-4.93,4.17c-3.7,0-5.26-2.38-5.49-3.92Z" transform="translate(250.33 69.25)"/><path d="M124.1,192.21V173.42h2.55v2.1a5,5,0,0,1,4.51-2.41c4,0,6.19,3.11,6.19,7s-2.32,7.11-6.27,7.11a5,5,0,0,1-4.37-2.18v7.14h-2.6Zm6.58-16.77c-2.41,0-4,2-4,4.7s1.6,4.76,4,4.76,4-2,4-4.76S133.15,175.44,130.68,175.44Z" transform="translate(250.33 69.25)"/><path d="M152.44,183.05a6.11,6.11,0,0,1-6,4.26c-3.61,0-6.78-2.63-6.78-7.2,0-4.23,3.05-7.11,6.44-7.11,4.14,0,6.47,2.86,6.47,7.06a5.93,5.93,0,0,1-.06.84H142.33a4,4,0,0,0,4.06,4.09,3.67,3.67,0,0,0,3.78-2.72Zm-2.66-4.28a3.39,3.39,0,0,0-3.7-3.44,3.62,3.62,0,0,0-3.67,3.44h7.36Z" transform="translate(250.33 69.25)"/><path d="M167.62,183.05a6.11,6.11,0,0,1-6,4.26c-3.61,0-6.78-2.63-6.78-7.2,0-4.23,3.05-7.11,6.44-7.11,4.14,0,6.47,2.86,6.47,7.06a5.93,5.93,0,0,1-.06.84H157.51a4,4,0,0,0,4.06,4.09,3.67,3.67,0,0,0,3.78-2.72ZM165,178.77a3.39,3.39,0,0,0-3.7-3.44,3.62,3.62,0,0,0-3.67,3.44H165Z" transform="translate(250.33 69.25)"/><path d="M180.49,184.84a4.51,4.51,0,0,1-4.17,2.41c-3.95,0-6.38-3.14-6.38-7.14,0-3.81,2.58-7.06,6.38-7.06,2.38,0,3.67,1.18,4.12,2.27v-8.71H183V184.4a21.39,21.39,0,0,0,.14,2.49h-2.55a11.26,11.26,0,0,1-.14-1.82v-0.22Zm-3.92.08c2.41,0,3.89-2.1,3.89-4.87s-1.46-4.68-3.86-4.68-4,2-4,4.73S174.05,184.93,176.57,184.93Z" transform="translate(250.33 69.25)"/><path d="M330.88,184a7,7,0,0,0,3.3.87c4.4,0,6.19-2.88,6.3-6.44a5.12,5.12,0,0,1-4.7,2.32,6,6,0,0,1-6.27-6.13,6.39,6.39,0,0,1,6.69-6.27c3.56,0,7.06,2.55,7.06,8.34,0,6.66-3,10.64-9.07,10.64a8.79,8.79,0,0,1-4.2-1.06Zm5.32-13.24a3.78,3.78,0,0,0-3.92,3.81,3.72,3.72,0,0,0,3.92,3.84A3.82,3.82,0,1,0,336.2,170.73Z" transform="translate(250.33 69.25)"/><path d="M345.77,182.1a4.74,4.74,0,0,1,3.44-4.48,4.56,4.56,0,0,1-3-4.26c0-3,2.63-5,6.1-5s6.1,2.07,6.1,5a4.58,4.58,0,0,1-3,4.26,4.72,4.72,0,0,1,3.44,4.48c0,2.91-2.41,5.21-6.58,5.21S345.77,185,345.77,182.1Zm10.39-.22c0-1.74-1.4-3.11-3.81-3.11s-3.81,1.37-3.81,3.11,1.37,3.05,3.81,3.05S356.16,183.58,356.16,181.88Zm-0.45-8.37c0-1.62-1.32-2.91-3.36-2.91s-3.36,1.29-3.36,2.91,1.43,2.94,3.36,3S355.71,175.27,355.71,173.51Z" transform="translate(250.33 69.25)"/><rect class="cls-2" x="250.83" y="284.25" width="229.67" height="71.5"/><path class="cls-3" d="M230.67,287H0V214.5H230.67V287ZM1,286H229.67V215.5H1V286Z" transform="translate(250.33 69.25)"/><rect class="cls-2" x="480.5" y="284.25" width="229.67" height="71.5"/><path class="cls-3" d="M460.33,287H229.67V214.5H460.33V287Zm-229.67-1H459.33V215.5H230.67V286Z" transform="translate(250.33 69.25)"/><path d="M84.47,254.39V240.92H87v1.79a4.64,4.64,0,0,1,4.09-2.18,4.21,4.21,0,0,1,4,2.55,4.83,4.83,0,0,1,4.51-2.55c2.35,0,4.65,1.6,4.65,5.12v8.74h-2.6v-8.46c0-1.76-.87-3.08-2.86-3.08a3.14,3.14,0,0,0-3.11,3.39v8.15H93.07v-8.46c0-1.74-.84-3.08-2.86-3.08a3.12,3.12,0,0,0-3.14,3.42v8.12h-2.6Z" transform="translate(250.33 69.25)"/><path d="M111.71,246.69l3.64-.53a1,1,0,0,0,1-1c0-1.32-.87-2.41-2.91-2.41a2.86,2.86,0,0,0-3.05,2.72l-2.52-.59c0.28-2.58,2.6-4.37,5.52-4.37,4,0,5.6,2.3,5.6,4.93v6.75a12.6,12.6,0,0,0,.17,2.21h-2.58a9.89,9.89,0,0,1-.14-1.82,4.91,4.91,0,0,1-4.34,2.24,4.2,4.2,0,0,1-4.51-4C107.63,248.37,109.39,247,111.71,246.69Zm4.68,1.93V248l-4.12.62a2,2,0,0,0-2,2,2,2,0,0,0,2.18,2C114.65,252.6,116.39,251.56,116.39,248.62Z" transform="translate(250.33 69.25)"/><path d="M129.44,246.6l5.85,7.78H132l-4.4-5.94-1.88,1.88v4.06h-2.6V234.12h2.6v12.77l5.82-6h3.64Z" transform="translate(250.33 69.25)"/><path d="M148.84,250.55a6.1,6.1,0,0,1-6,4.26c-3.61,0-6.78-2.63-6.78-7.2,0-4.23,3.05-7.11,6.44-7.11,4.14,0,6.47,2.86,6.47,7.06a6,6,0,0,1-.06.84H138.73a4,4,0,0,0,4.06,4.09,3.67,3.67,0,0,0,3.78-2.72Zm-2.66-4.28a3.39,3.39,0,0,0-3.7-3.44,3.62,3.62,0,0,0-3.67,3.44h7.36Z" transform="translate(250.33 69.25)"/><path d="M295.08,241.51a2.09,2.09,0,0,1-2-2.38c0-3.3,2.16-4.73,3.72-4.9v1.32a2.93,2.93,0,0,0-2.1,2.72,1.06,1.06,0,0,1,.56-0.14,1.62,1.62,0,0,1,1.68,1.71A1.74,1.74,0,0,1,295.08,241.51Zm4.79,0a2.09,2.09,0,0,1-2-2.38c0-3.3,2.16-4.73,3.72-4.9v1.32a2.93,2.93,0,0,0-2.1,2.72,1.06,1.06,0,0,1,.56-0.14,1.62,1.62,0,0,1,1.68,1.71A1.74,1.74,0,0,1,299.87,241.51Z" transform="translate(250.33 69.25)"/><path d="M318.21,254.39v-8.82H308.07v8.82h-2.74V234.54h2.74V243h10.14v-8.48H321v19.85h-2.74Z" transform="translate(250.33 69.25)"/><path d="M338.37,247.64a6.89,6.89,0,1,1-6.89-7.14A6.8,6.8,0,0,1,338.37,247.64Zm-2.69,0c0-3.11-2-4.79-4.2-4.79s-4.2,1.68-4.2,4.79,2,4.82,4.2,4.82S335.68,250.78,335.68,247.64Z" transform="translate(250.33 69.25)"/><path d="M344.36,254.39h-2.63V240.92h2.58v1.93a4.61,4.61,0,0,1,4.14-2.32c3.22,0,4.82,2.32,4.82,5.32v8.54h-2.63V246.3c0-1.88-.78-3.39-3.14-3.39-2.07,0-3.14,1.65-3.14,3.7v7.78Z" transform="translate(250.33 69.25)"/><path d="M366.9,252.34a4.51,4.51,0,0,1-4.17,2.41c-3.95,0-6.38-3.14-6.38-7.14,0-3.81,2.58-7.06,6.38-7.06,2.38,0,3.67,1.18,4.12,2.27v-8.71h2.6V251.9a21.5,21.5,0,0,0,.14,2.49H367a11.32,11.32,0,0,1-.14-1.82v-0.22Zm-3.92.08c2.41,0,3.89-2.1,3.89-4.87s-1.46-4.68-3.86-4.68-4,2-4,4.73S360.46,252.43,363,252.43Z" transform="translate(250.33 69.25)"/><path d="M377.17,246.69l3.64-.53a1,1,0,0,0,1-1c0-1.32-.87-2.41-2.91-2.41a2.86,2.86,0,0,0-3.05,2.72l-2.52-.59c0.28-2.58,2.6-4.37,5.52-4.37,4,0,5.6,2.3,5.6,4.93v6.75a12.6,12.6,0,0,0,.17,2.21h-2.58a9.89,9.89,0,0,1-.14-1.82,4.91,4.91,0,0,1-4.34,2.24,4.2,4.2,0,0,1-4.51-4C373.09,248.37,374.85,247,377.17,246.69Zm4.68,1.93V248l-4.12.62a2,2,0,0,0-2,2,2,2,0,0,0,2.18,2C380.11,252.6,381.85,251.56,381.85,248.62Z" transform="translate(250.33 69.25)"/><path d="M388.71,234.37a2.09,2.09,0,0,1,2,2.38c0,3.3-2.16,4.68-3.72,4.9v-1.32a2.87,2.87,0,0,0,2.1-2.72,1.06,1.06,0,0,1-.56.14,1.62,1.62,0,0,1-1.68-1.71A1.74,1.74,0,0,1,388.71,234.37Zm4.79,0a2.09,2.09,0,0,1,2,2.38c0,3.3-2.16,4.68-3.72,4.9v-1.32a2.87,2.87,0,0,0,2.1-2.72,1.06,1.06,0,0,1-.56.14,1.62,1.62,0,0,1-1.68-1.71A1.74,1.74,0,0,1,393.5,234.37Z" transform="translate(250.33 69.25)"/><rect class="cls-4" x="250.83" y="355.75" width="229.67" height="71.5"/><path class="cls-3" d="M230.67,358.5H0V286H230.67v72.5ZM1,357.5H229.67V287H1v70.5Z" transform="translate(250.33 69.25)"/><rect class="cls-4" x="480.5" y="355.75" width="229.67" height="71.5"/><path class="cls-3" d="M460.33,358.5H229.67V286H460.33v72.5Zm-229.67-1H459.33V287H230.67v70.5Z" transform="translate(250.33 69.25)"/><path d="M79,326.89V313.42h2.52v1.79A4.64,4.64,0,0,1,85.6,313a4.21,4.21,0,0,1,4,2.55A4.83,4.83,0,0,1,94.14,313c2.35,0,4.65,1.6,4.65,5.12v8.74h-2.6v-8.46c0-1.76-.87-3.08-2.86-3.08a3.14,3.14,0,0,0-3.11,3.39v8.15H87.59v-8.46c0-1.74-.84-3.08-2.86-3.08a3.12,3.12,0,0,0-3.14,3.42v8.12H79Z" transform="translate(250.33 69.25)"/><path d="M115.65,320.14a6.89,6.89,0,1,1-6.89-7.14A6.8,6.8,0,0,1,115.65,320.14Zm-2.69,0c0-3.11-2-4.79-4.2-4.79s-4.2,1.68-4.2,4.79,2,4.82,4.2,4.82S113,323.28,113,320.14Z" transform="translate(250.33 69.25)"/><path d="M128.44,324.84a4.51,4.51,0,0,1-4.17,2.41c-3.95,0-6.38-3.14-6.38-7.14,0-3.81,2.58-7.06,6.38-7.06,2.38,0,3.67,1.18,4.12,2.27v-8.71H131V324.4a21.38,21.38,0,0,0,.14,2.49h-2.55a11.25,11.25,0,0,1-.14-1.82v-0.22Zm-3.92.08c2.41,0,3.89-2.1,3.89-4.87s-1.46-4.68-3.86-4.68-4,2-4,4.73S122,324.93,124.52,324.93Z" transform="translate(250.33 69.25)"/><path d="M147.2,323.05a6.11,6.11,0,0,1-6,4.26c-3.61,0-6.78-2.63-6.78-7.2,0-4.23,3.05-7.11,6.44-7.11,4.14,0,6.47,2.86,6.47,7.06a5.93,5.93,0,0,1-.06.84H137.1a4,4,0,0,0,4.06,4.09,3.67,3.67,0,0,0,3.78-2.72Zm-2.66-4.28a3.39,3.39,0,0,0-3.7-3.44,3.62,3.62,0,0,0-3.67,3.44h7.36Z" transform="translate(250.33 69.25)"/><path d="M150.65,326.89V306.62h2.63v20.27h-2.63Z" transform="translate(250.33 69.25)"/><path d="M261.62,314a2.09,2.09,0,0,1-2-2.38c0-3.3,2.16-4.73,3.72-4.9V308a2.93,2.93,0,0,0-2.1,2.72,1.06,1.06,0,0,1,.56-0.14,1.62,1.62,0,0,1,1.68,1.71A1.74,1.74,0,0,1,261.62,314Zm4.79,0a2.09,2.09,0,0,1-2-2.38c0-3.3,2.16-4.73,3.72-4.9V308a2.93,2.93,0,0,0-2.1,2.72,1.06,1.06,0,0,1,.56-0.14,1.62,1.62,0,0,1,1.68,1.71A1.74,1.74,0,0,1,266.41,314Z" transform="translate(250.33 69.25)"/><path d="M270.33,316.95c0-6.64,4.93-10.33,9.86-10.33,4.54,0,7.73,2.46,8.74,6.3l-2.55.9a5.88,5.88,0,0,0-6.19-4.68c-3.61,0-7.06,2.63-7.06,7.81s3.44,7.84,7.06,7.84a6.31,6.31,0,0,0,6.33-4.76l2.44,0.9a8.67,8.67,0,0,1-8.76,6.38C275.06,327.31,270.33,323.58,270.33,316.95Z" transform="translate(250.33 69.25)"/><path d="M299.05,307c3.78,0,6,2.24,6,5.38a4.41,4.41,0,0,1-3,4.28,4.78,4.78,0,0,1,3.58,4.79c0,3.14-2.49,5.4-6.13,5.4h-6.94V307h6.47Zm-0.31,8.68c2.21,0,3.53-1.32,3.53-3.16s-1.37-3.11-3.64-3.11h-3.3v6.27h3.42Zm0.39,8.76c2.21,0,3.72-1.23,3.72-3.16s-1.2-3.25-3.61-3.25h-3.92v6.41h3.81Z" transform="translate(250.33 69.25)"/><path d="M311.88,316.19l5.35-4.93h-8.68v-2.52h12.32v2.46L315.69,316a5.39,5.39,0,0,1,5.6,5.52c0,3.05-2.35,5.82-6.58,5.82s-6.58-2.74-6.75-5.71l2.69-.62a3.92,3.92,0,0,0,4,3.92c2.49,0,3.84-1.54,3.84-3.36,0-2.38-1.9-3.39-3.7-3.39a4.9,4.9,0,0,0-1.6.28Z" transform="translate(250.33 69.25)"/><path d="M326,321.18a3.92,3.92,0,0,0,4.09,3.75,3.71,3.71,0,1,0,0-7.42,4.65,4.65,0,0,0-3.3,1.32c-1-.36-1.76-0.73-2.69-1.06l2.35-9H336v2.52h-7.76l-1.34,5.21a5.08,5.08,0,0,1,3.7-1.34c3.56,0,6.16,2.27,6.16,6,0,3.42-2.63,6.19-6.66,6.19-3.86,0-6.47-2.52-6.72-5.38Z" transform="translate(250.33 69.25)"/><path d="M340.77,311.24a6.79,6.79,0,0,1,11.14,0,14.14,14.14,0,0,1,0,13.16,6.79,6.79,0,0,1-11.14,0A14.14,14.14,0,0,1,340.77,311.24Zm2.69,12.46a4.13,4.13,0,0,0,5.77,0c1.09-1.15,1.6-3.11,1.6-5.88s-0.5-4.73-1.6-5.88a4.13,4.13,0,0,0-5.77,0c-1.09,1.15-1.6,3.11-1.6,5.88S342.37,322.55,343.46,323.7Z" transform="translate(250.33 69.25)"/><path d="M364.46,326.89V307h12.07v2.55h-9.32V316h8.46v2.58h-8.46v8.34h-2.74Z" transform="translate(250.33 69.25)"/><path d="M391.29,320.14A6.89,6.89,0,1,1,384.4,313,6.8,6.8,0,0,1,391.29,320.14Zm-2.69,0c0-3.11-2-4.79-4.2-4.79s-4.2,1.68-4.2,4.79,2,4.82,4.2,4.82S388.6,323.28,388.6,320.14Z" transform="translate(250.33 69.25)"/><path d="M399.41,327.31c-3.14,0-5-2.35-5-5.4v-8.48H397v8.09c0,1.85.84,3.47,3.05,3.47s3.19-1.4,3.19-3.44v-8.12h2.63v11a22.75,22.75,0,0,0,.14,2.49h-2.52a11.8,11.8,0,0,1-.11-1.62A4.39,4.39,0,0,1,399.41,327.31Z" transform="translate(250.33 69.25)"/><path d="M417.83,316.08a8.25,8.25,0,0,0-1.15-.08c-2.21,0-3.7,1.18-3.7,4.14v6.75h-2.63V313.42h2.58v2.35a4.22,4.22,0,0,1,4-2.58,4.91,4.91,0,0,1,.87.08v2.8Z" transform="translate(250.33 69.25)"/><path d="M422.17,306.87a2.09,2.09,0,0,1,2,2.38c0,3.3-2.16,4.68-3.72,4.9v-1.32a2.87,2.87,0,0,0,2.1-2.72,1.06,1.06,0,0,1-.56.14,1.62,1.62,0,0,1-1.68-1.71A1.74,1.74,0,0,1,422.17,306.87Zm4.79,0a2.09,2.09,0,0,1,2,2.38c0,3.3-2.16,4.68-3.72,4.9v-1.32a2.87,2.87,0,0,0,2.1-2.72,1.06,1.06,0,0,1-.56.14,1.62,1.62,0,0,1-1.68-1.71A1.74,1.74,0,0,1,427,306.87Z" transform="translate(250.33 69.25)"/><rect class="cls-2" x="250.83" y="427.25" width="229.67" height="71.5"/><path class="cls-3" d="M230.67,430H0V357.5H230.67V430ZM1,429H229.67V358.5H1V429Z" transform="translate(250.33 69.25)"/><rect class="cls-2" x="480.5" y="427.25" width="229.67" height="71.5"/><path class="cls-3" d="M460.33,430H229.67V357.5H460.33V430Zm-229.67-1H459.33V358.5H230.67V429Z" transform="translate(250.33 69.25)"/><path d="M91.76,404l3.36-7.11-5.8-12h3l4.2,9.3,4-9.3h2.83L94.65,404H91.76Z" transform="translate(250.33 69.25)"/><path d="M117.1,394.55a6.11,6.11,0,0,1-6,4.26c-3.61,0-6.78-2.63-6.78-7.2,0-4.23,3.05-7.11,6.44-7.11,4.14,0,6.47,2.86,6.47,7.06a5.93,5.93,0,0,1-.06.84H107a4,4,0,0,0,4.06,4.09,3.67,3.67,0,0,0,3.78-2.72Zm-2.66-4.28a3.39,3.39,0,0,0-3.7-3.44,3.62,3.62,0,0,0-3.67,3.44h7.36Z" transform="translate(250.33 69.25)"/><path d="M123.79,390.69l3.64-.53a1,1,0,0,0,1-1c0-1.32-.87-2.41-2.91-2.41a2.86,2.86,0,0,0-3.05,2.72l-2.52-.59c0.28-2.58,2.6-4.37,5.52-4.37,4,0,5.6,2.3,5.6,4.93v6.75a12.65,12.65,0,0,0,.17,2.21H128.7a9.83,9.83,0,0,1-.14-1.82,4.91,4.91,0,0,1-4.34,2.24,4.2,4.2,0,0,1-4.51-4C119.71,392.37,121.47,391,123.79,390.69Zm4.68,1.93V392l-4.12.62a2,2,0,0,0-2,2,2,2,0,0,0,2.18,2C126.73,396.6,128.47,395.56,128.47,392.62Z" transform="translate(250.33 69.25)"/><path d="M142.67,387.58a8.26,8.26,0,0,0-1.15-.08c-2.21,0-3.7,1.18-3.7,4.14v6.75h-2.63V384.92h2.58v2.35a4.22,4.22,0,0,1,4-2.58,4.92,4.92,0,0,1,.87.08v2.8Z" transform="translate(250.33 69.25)"/><path d="M321.81,398.39v-12.8h-4.4v-1.93c2.52-.06,4.26-1.46,4.68-3.42h2.41v18.14h-2.69Z" transform="translate(250.33 69.25)"/><path d="M329.08,395.48a7,7,0,0,0,3.3.87c4.4,0,6.19-2.88,6.3-6.44a5.11,5.11,0,0,1-4.7,2.32,6,6,0,0,1-6.27-6.13,6.39,6.39,0,0,1,6.69-6.27c3.56,0,7.06,2.55,7.06,8.34,0,6.66-3,10.64-9.07,10.64a8.78,8.78,0,0,1-4.2-1.06Zm5.32-13.24a3.78,3.78,0,0,0-3.92,3.81,3.72,3.72,0,0,0,3.92,3.84A3.82,3.82,0,1,0,334.4,382.23Z" transform="translate(250.33 69.25)"/><path d="M356.24,382.88c-1.68,1.34-6.8,5.91-7.67,15.51h-2.83c0.81-10.56,7.48-15.62,7.48-15.62H343v-2.52h13.24v2.63Z" transform="translate(250.33 69.25)"/><path d="M361.34,387.69l5.35-4.93H358v-2.52h12.32v2.46l-5.18,4.79a5.39,5.39,0,0,1,5.6,5.52c0,3.05-2.35,5.82-6.58,5.82s-6.58-2.74-6.75-5.71l2.69-.62a3.92,3.92,0,0,0,4,3.92c2.49,0,3.84-1.54,3.84-3.36,0-2.38-1.9-3.39-3.7-3.39a4.89,4.89,0,0,0-1.6.28Z" transform="translate(250.33 69.25)"/><path d="M316,106.4a2.09,2.09,0,0,1-2-2.38c0-3.3,2.16-4.73,3.72-4.9v1.32a2.92,2.92,0,0,0-2.1,2.72,1,1,0,0,1,.56-0.14,1.62,1.62,0,0,1,1.68,1.71A1.74,1.74,0,0,1,316,106.4Zm4.79,0a2.09,2.09,0,0,1-2-2.38c0-3.3,2.16-4.73,3.72-4.9v1.32a2.93,2.93,0,0,0-2.1,2.72,1.06,1.06,0,0,1,.56-0.14,1.62,1.62,0,0,1,1.68,1.71A1.74,1.74,0,0,1,320.74,106.4Z" transform="translate(250.33 69.25)"/><path d="M332.84,108.47a8.28,8.28,0,0,0-1.15-.08c-2.21,0-3.7,1.18-3.7,4.14v6.75h-2.63V105.81h2.58v2.35a4.22,4.22,0,0,1,4-2.58,5,5,0,0,1,.87.08v2.8Z" transform="translate(250.33 69.25)"/><path d="M347.23,115.44a6.11,6.11,0,0,1-6,4.26c-3.61,0-6.78-2.63-6.78-7.2,0-4.23,3.05-7.11,6.44-7.11,4.14,0,6.47,2.86,6.47,7.06a5.85,5.85,0,0,1-.06.84H337.12a4,4,0,0,0,4.06,4.09,3.67,3.67,0,0,0,3.78-2.72Zm-2.66-4.28a3.39,3.39,0,0,0-3.7-3.44,3.62,3.62,0,0,0-3.67,3.44h7.36Z" transform="translate(250.33 69.25)"/><path d="M360.11,117.23a4.51,4.51,0,0,1-4.17,2.41c-3.95,0-6.38-3.14-6.38-7.14,0-3.81,2.58-7.06,6.38-7.06,2.38,0,3.67,1.18,4.12,2.27V99h2.6v17.78a21.27,21.27,0,0,0,.14,2.49h-2.55a11.18,11.18,0,0,1-.14-1.82v-0.22Zm-3.92.08c2.41,0,3.89-2.1,3.89-4.87s-1.46-4.68-3.86-4.68-4,2-4,4.73S353.67,117.31,356.19,117.31Z" transform="translate(250.33 69.25)"/><path d="M367.84,99.25a2.09,2.09,0,0,1,2,2.38c0,3.3-2.16,4.68-3.72,4.9v-1.32a2.87,2.87,0,0,0,2.1-2.72,1.05,1.05,0,0,1-.56.14,1.62,1.62,0,0,1-1.68-1.71A1.74,1.74,0,0,1,367.84,99.25Zm4.79,0a2.09,2.09,0,0,1,2,2.38c0,3.3-2.16,4.68-3.72,4.9v-1.32a2.87,2.87,0,0,0,2.1-2.72,1.05,1.05,0,0,1-.56.14,1.62,1.62,0,0,1-1.68-1.71A1.74,1.74,0,0,1,372.62,99.25Z" transform="translate(250.33 69.25)"/><rect class="cls-4" x="250.83" y="69.75" width="229.67" height="71.5"/><path class="cls-3" d="M230.67,72.5H0V0H230.67V72.5ZM1,71.5H229.67V1H1V71.5Z" transform="translate(250.33 69.25)"/><rect class="cls-4" x="480.5" y="69.75" width="229.67" height="71.5"/><path class="cls-3" d="M460.33,72.5H229.67V0H460.33V72.5Zm-229.67-1H459.33V1H230.67V71.5Z" transform="translate(250.33 69.25)"/><path d="M92.88,47.77l-9-14.08V47.77H80V27.92h4.82l8.26,13.13V27.92h3.86V47.77H92.88Z" transform="translate(250.33 69.25)"/><path d="M104.42,39.85l3.39-.5a1,1,0,0,0,1-1c0-1-.76-1.79-2.32-1.79a2.45,2.45,0,0,0-2.63,2.24l-3.3-.7c0.22-2.16,2.21-4.54,5.91-4.54,4.37,0,6,2.46,6,5.24v6.78a15.43,15.43,0,0,0,.17,2.18h-3.42a9.32,9.32,0,0,1-.14-1.65,4.6,4.6,0,0,1-4.06,2c-2.94,0-4.73-2-4.73-4.14C100.3,41.56,102.12,40.19,104.42,39.85Zm4.42,2.35V41.59l-3.11.48A1.74,1.74,0,0,0,104,43.8a1.62,1.62,0,0,0,1.79,1.6C107.39,45.4,108.84,44.64,108.84,42.2Z" transform="translate(250.33 69.25)"/><path d="M116.23,47.77V34h3.56v1.68a4.73,4.73,0,0,1,4-2.07,4.26,4.26,0,0,1,4.09,2.3,4.79,4.79,0,0,1,4.37-2.3c2.55,0,5,1.54,5,5.24v8.93h-3.61V39.6a2.3,2.3,0,0,0-2.44-2.6,2.53,2.53,0,0,0-2.55,2.72v8.06H125V39.6a2.31,2.31,0,0,0-2.44-2.6A2.52,2.52,0,0,0,120,39.71v8.06h-3.72Z" transform="translate(250.33 69.25)"/><path d="M153.39,43.83a6.2,6.2,0,0,1-6.27,4.37A7,7,0,0,1,140,40.83a6.92,6.92,0,0,1,6.78-7.25c4.26,0,6.8,2.72,6.8,7.14,0,0.53-.06,1.09-0.06,1.15h-9.86A3.35,3.35,0,0,0,147.15,45a3,3,0,0,0,3.14-2.1Zm-3.47-4.51a2.77,2.77,0,0,0-3.08-2.72,3,3,0,0,0-3.08,2.72h6.16Z" transform="translate(250.33 69.25)"/><path d="M323.11,27.92h4.09l-7.36,19.85h-4l-7.34-19.85h4.23l5.18,14.76Z" transform="translate(250.33 69.25)"/><path d="M331,39.85l3.39-.5a1,1,0,0,0,1-1c0-1-.76-1.79-2.32-1.79a2.44,2.44,0,0,0-2.63,2.24l-3.3-.7c0.22-2.16,2.21-4.54,5.91-4.54,4.37,0,6,2.46,6,5.24v6.78a15.43,15.43,0,0,0,.17,2.18h-3.42a9.33,9.33,0,0,1-.14-1.65,4.61,4.61,0,0,1-4.06,2c-2.94,0-4.73-2-4.73-4.14C326.91,41.56,328.73,40.19,331,39.85Zm4.42,2.35V41.59l-3.11.48a1.74,1.74,0,0,0-1.71,1.74,1.62,1.62,0,0,0,1.79,1.6C334,45.4,335.45,44.64,335.45,42.2Z" transform="translate(250.33 69.25)"/><path d="M342.85,47.77V27.5h3.72V47.77h-3.72Z" transform="translate(250.33 69.25)"/><path d="M359.39,46.29a4.35,4.35,0,0,1-3.81,1.85c-3.33,0-5.24-2.44-5.24-5.43V34h3.72v8c0,1.54.78,2.77,2.52,2.77A2.49,2.49,0,0,0,359.2,42V34h3.72V45.28a22.47,22.47,0,0,0,.14,2.49h-3.56A9.48,9.48,0,0,1,359.39,46.29Z" transform="translate(250.33 69.25)"/><path d="M379.19,43.83a6.2,6.2,0,0,1-6.27,4.37,7,7,0,0,1-7.11-7.36,6.92,6.92,0,0,1,6.78-7.25c4.26,0,6.8,2.72,6.8,7.14,0,0.53-.06,1.09-0.06,1.15h-9.86A3.35,3.35,0,0,0,372.95,45a3,3,0,0,0,3.14-2.1Zm-3.47-4.51a2.77,2.77,0,0,0-3.08-2.72,3,3,0,0,0-3.08,2.72h6.16Z" transform="translate(250.33 69.25)"/></svg>